<svg width="202" height="196" viewBox="0 0 202 196" fill="none" xmlns="http://www.w3.org/2000/svg">
<g filter="url(#filter0_d_1009_838)">
<path d="M199 98L150 182.87L52 182.87L3 98L52 13.1295L150 13.1295L199 98Z" fill="#401127" fill-opacity="0.5" shape-rendering="crispEdges"/>
<path d="M148.557 15.6295L196.113 98L148.557 180.37L53.4434 180.37L5.88676 98L53.4434 15.6295L148.557 15.6295Z" stroke="#FEC631" stroke-width="5" stroke-miterlimit="1.36733" stroke-linecap="round" shape-rendering="crispEdges"/>
</g>
<g clip-path="url(#clip0_1009_838)">
<g filter="url(#filter1_d_1009_838)">
<path d="M148.557 15.6295L196.113 98L148.557 180.371H53.4434L5.88672 98L53.4434 15.6295H148.557Z" stroke="#8F1B42" stroke-width="5" stroke-miterlimit="1.36733" stroke-linecap="round"/>
</g>
</g>
<g clip-path="url(#clip1_1009_838)">
<path d="M148.557 15.6295L196.113 98L148.557 180.371H53.443L5.88696 98L53.443 15.6295H148.557Z" stroke="#8F1B42" stroke-width="5" stroke-miterlimit="1.36733" stroke-linecap="round"/>
</g>
<g filter="url(#filter2_d_1009_838)">
<path d="M53.8898 105.18C52.7832 105.18 51.7832 105.04 50.8898 104.76C49.9965 104.467 49.2232 104.047 48.5698 103.5L49.1498 102.18C49.8298 102.7 50.5432 103.087 51.2898 103.34C52.0365 103.593 52.9032 103.72 53.8898 103.72C55.0898 103.72 55.9765 103.5 56.5498 103.06C57.1365 102.607 57.4298 102.013 57.4298 101.28C57.4298 100.693 57.2165 100.227 56.7898 99.88C56.3765 99.5333 55.6765 99.26 54.6898 99.06L52.6098 98.64C51.3565 98.3733 50.4165 97.94 49.7898 97.34C49.1765 96.7267 48.8698 95.9133 48.8698 94.9C48.8698 94.06 49.0832 93.3267 49.5098 92.7C49.9498 92.0733 50.5565 91.5867 51.3298 91.24C52.1032 90.8933 52.9965 90.72 54.0098 90.72C54.9565 90.72 55.8365 90.8733 56.6498 91.18C57.4632 91.4733 58.1498 91.9 58.7098 92.46L58.1298 93.74C57.5298 93.1933 56.8965 92.8 56.2298 92.56C55.5632 92.3067 54.8165 92.18 53.9898 92.18C52.9365 92.18 52.0965 92.4267 51.4698 92.92C50.8432 93.4 50.5298 94.04 50.5298 94.84C50.5298 95.48 50.7232 95.9867 51.1098 96.36C51.5098 96.7333 52.1565 97.0067 53.0498 97.18L55.1298 97.62C56.4765 97.9 57.4698 98.3267 58.1098 98.9C58.7632 99.46 59.0898 100.227 59.0898 101.2C59.0898 101.987 58.8765 102.68 58.4498 103.28C58.0365 103.88 57.4365 104.347 56.6498 104.68C55.8765 105.013 54.9565 105.18 53.8898 105.18ZM60.2355 105L66.4555 90.9H67.8555L74.0755 105H72.3755L70.8155 101.4H63.4755L61.9355 105H60.2355ZM67.1355 92.82L64.0755 100.02H70.2355L67.1755 92.82H67.1355ZM76.1658 105V90.9H81.8058C83.2591 90.9 84.3791 91.2267 85.1658 91.88C85.9658 92.52 86.3658 93.42 86.3658 94.58C86.3658 95.3533 86.1658 96.0133 85.7658 96.56C85.3658 97.1067 84.8124 97.5067 84.1058 97.76C84.9191 97.9733 85.5524 98.3667 86.0058 98.94C86.4724 99.5133 86.7058 100.24 86.7058 101.12C86.7058 102.373 86.2991 103.333 85.4858 104C84.6724 104.667 83.5258 105 82.0458 105H76.1658ZM77.7658 97.2H81.5658C83.6858 97.2 84.7458 96.3733 84.7458 94.72C84.7458 93.0533 83.6858 92.22 81.5658 92.22H77.7658V97.2ZM77.7658 103.68H81.8858C84.0191 103.68 85.0858 102.82 85.0858 101.1C85.0858 99.38 84.0191 98.52 81.8858 98.52H77.7658V103.68ZM95.6014 105.18C94.2947 105.18 93.1547 104.887 92.1814 104.3C91.2214 103.7 90.4747 102.86 89.9414 101.78C89.4214 100.7 89.1614 99.42 89.1614 97.94C89.1614 96.46 89.4214 95.18 89.9414 94.1C90.4614 93.02 91.2014 92.1867 92.1614 91.6C93.1347 91.0133 94.2814 90.72 95.6014 90.72C96.9347 90.72 98.0814 91.0133 99.0414 91.6C100.015 92.1867 100.761 93.02 101.281 94.1C101.815 95.1667 102.081 96.44 102.081 97.92C102.081 99.4 101.815 100.687 101.281 101.78C100.748 102.86 99.9947 103.7 99.0214 104.3C98.0614 104.887 96.9214 105.18 95.6014 105.18ZM95.6014 103.72C97.1081 103.72 98.2747 103.213 99.1014 102.2C99.9281 101.187 100.341 99.7667 100.341 97.94C100.341 96.1133 99.9281 94.7 99.1014 93.7C98.2747 92.6867 97.1081 92.18 95.6014 92.18C94.1214 92.18 92.9681 92.6867 92.1414 93.7C91.3147 94.7 90.9014 96.1133 90.9014 97.94C90.9014 99.7533 91.3147 101.173 92.1414 102.2C92.9681 103.213 94.1214 103.72 95.6014 103.72ZM107.595 105V92.32H102.475V90.9H114.375V92.32H109.255V105H107.595ZM113.282 105L119.502 90.9H120.902L127.122 105H125.422L123.862 101.4H116.522L114.982 105H113.282ZM120.182 92.82L117.122 100.02H123.282L120.222 92.82H120.182ZM135.418 105.18C133.152 105.18 131.425 104.54 130.238 103.26C129.052 101.98 128.458 100.213 128.458 97.96C128.458 96.4667 128.725 95.18 129.258 94.1C129.792 93.02 130.558 92.1867 131.558 91.6C132.558 91.0133 133.765 90.72 135.178 90.72C136.178 90.72 137.098 90.8733 137.938 91.18C138.778 91.4733 139.492 91.9067 140.078 92.48L139.438 93.8C138.798 93.24 138.138 92.8333 137.458 92.58C136.778 92.3267 136.012 92.2 135.158 92.2C133.558 92.2 132.332 92.7067 131.478 93.72C130.625 94.72 130.198 96.1333 130.198 97.96C130.198 99.8267 130.638 101.253 131.518 102.24C132.398 103.227 133.712 103.72 135.458 103.72C136.592 103.72 137.678 103.527 138.718 103.14V98.96H135.138V97.66H140.138V104.18C139.765 104.38 139.312 104.553 138.778 104.7C138.258 104.847 137.705 104.96 137.118 105.04C136.532 105.133 135.965 105.18 135.418 105.18ZM143.49 105V90.9H152.39V92.28H145.09V97.16H151.97V98.54H145.09V103.62H152.39V105H143.49Z" fill="#FFFEE8"/>
</g>
<defs>
<filter id="filter0_d_1009_838" x="0" y="13.1295" width="202" height="175.741" filterUnits="userSpaceOnUse" color-interpolation-filters="sRGB">
<feFlood flood-opacity="0" result="BackgroundImageFix"/>
<feColorMatrix in="SourceAlpha" type="matrix" values="0 0 0 0 0 0 0 0 0 0 0 0 0 0 0 0 0 0 127 0" result="hardAlpha"/>
<feOffset dy="3"/>
<feGaussianBlur stdDeviation="1.5"/>
<feComposite in2="hardAlpha" operator="out"/>
<feColorMatrix type="matrix" values="0 0 0 0 0 0 0 0 0 0 0 0 0 0 0 0 0 0 0.25 0"/>
<feBlend mode="normal" in2="BackgroundImageFix" result="effect1_dropShadow_1009_838"/>
<feBlend mode="normal" in="SourceGraphic" in2="effect1_dropShadow_1009_838" result="shape"/>
</filter>
<filter id="filter1_d_1009_838" x="0" y="13.1295" width="202" height="175.741" filterUnits="userSpaceOnUse" color-interpolation-filters="sRGB">
<feFlood flood-opacity="0" result="BackgroundImageFix"/>
<feColorMatrix in="SourceAlpha" type="matrix" values="0 0 0 0 0 0 0 0 0 0 0 0 0 0 0 0 0 0 127 0" result="hardAlpha"/>
<feOffset dy="3"/>
<feGaussianBlur stdDeviation="1.5"/>
<feComposite in2="hardAlpha" operator="out"/>
<feColorMatrix type="matrix" values="0 0 0 0 0 0 0 0 0 0 0 0 0 0 0 0 0 0 0.25 0"/>
<feBlend mode="normal" in2="BackgroundImageFix" result="effect1_dropShadow_1009_838"/>
<feBlend mode="normal" in="SourceGraphic" in2="effect1_dropShadow_1009_838" result="shape"/>
</filter>
<filter id="filter2_d_1009_838" x="33.5698" y="75.72" width="133.82" height="44.4601" filterUnits="userSpaceOnUse" color-interpolation-filters="sRGB">
<feFlood flood-opacity="0" result="BackgroundImageFix"/>
<feColorMatrix in="SourceAlpha" type="matrix" values="0 0 0 0 0 0 0 0 0 0 0 0 0 0 0 0 0 0 127 0" result="hardAlpha"/>
<feOffset/>
<feGaussianBlur stdDeviation="7.5"/>
<feColorMatrix type="matrix" values="0 0 0 0 0.996078 0 0 0 0 0.776471 0 0 0 0 0.192157 0 0 0 0.5 0"/>
<feBlend mode="normal" in2="BackgroundImageFix" result="effect1_dropShadow_1009_838"/>
<feBlend mode="normal" in="SourceGraphic" in2="effect1_dropShadow_1009_838" result="shape"/>
</filter>
<clipPath id="clip0_1009_838">
<rect width="12" height="20" fill="white" transform="translate(3 88)"/>
</clipPath>
<clipPath id="clip1_1009_838">
<rect width="12" height="20" fill="white" transform="translate(187 88)"/>
</clipPath>
</defs>
</svg>
