<svg width="202" height="196" viewBox="0 0 202 196" fill="none" xmlns="http://www.w3.org/2000/svg">
<g filter="url(#filter0_d_1011_305)">
<path d="M199 98L150 182.87L52 182.87L3 98L52 13.1295L150 13.1295L199 98Z" fill="#401127" fill-opacity="0.5" shape-rendering="crispEdges"/>
<path d="M148.557 15.6295L196.113 98L148.557 180.37L53.4434 180.37L5.88676 98L53.4434 15.6295L148.557 15.6295Z" stroke="#8F1B42" stroke-width="5" stroke-miterlimit="1.36733" stroke-linecap="round" shape-rendering="crispEdges"/>
</g>
<g filter="url(#filter1_d_1011_305)">
<path d="M54.8898 105.18C53.7832 105.18 52.7832 105.04 51.8898 104.76C50.9965 104.467 50.2232 104.047 49.5698 103.5L50.1498 102.18C50.8298 102.7 51.5432 103.087 52.2898 103.34C53.0365 103.593 53.9032 103.72 54.8898 103.72C56.0898 103.72 56.9765 103.5 57.5498 103.06C58.1365 102.607 58.4298 102.013 58.4298 101.28C58.4298 100.693 58.2165 100.227 57.7898 99.88C57.3765 99.5333 56.6765 99.26 55.6898 99.06L53.6098 98.64C52.3565 98.3733 51.4165 97.94 50.7898 97.34C50.1765 96.7267 49.8698 95.9133 49.8698 94.9C49.8698 94.06 50.0832 93.3267 50.5098 92.7C50.9498 92.0733 51.5565 91.5867 52.3298 91.24C53.1032 90.8933 53.9965 90.72 55.0098 90.72C55.9565 90.72 56.8365 90.8733 57.6498 91.18C58.4632 91.4733 59.1498 91.9 59.7098 92.46L59.1298 93.74C58.5298 93.1933 57.8965 92.8 57.2298 92.56C56.5632 92.3067 55.8165 92.18 54.9898 92.18C53.9365 92.18 53.0965 92.4267 52.4698 92.92C51.8432 93.4 51.5298 94.04 51.5298 94.84C51.5298 95.48 51.7232 95.9867 52.1098 96.36C52.5098 96.7333 53.1565 97.0067 54.0498 97.18L56.1298 97.62C57.4765 97.9 58.4698 98.3267 59.1098 98.9C59.7632 99.46 60.0898 100.227 60.0898 101.2C60.0898 101.987 59.8765 102.68 59.4498 103.28C59.0365 103.88 58.4365 104.347 57.6498 104.68C56.8765 105.013 55.9565 105.18 54.8898 105.18ZM61.2355 105L67.4555 90.9H68.8555L75.0755 105H73.3755L71.8155 101.4H64.4755L62.9355 105H61.2355ZM68.1355 92.82L65.0755 100.02H71.2355L68.1755 92.82H68.1355ZM77.1658 105V90.9H82.8058C84.2591 90.9 85.3791 91.2267 86.1658 91.88C86.9658 92.52 87.3658 93.42 87.3658 94.58C87.3658 95.3533 87.1658 96.0133 86.7658 96.56C86.3658 97.1067 85.8124 97.5067 85.1058 97.76C85.9191 97.9733 86.5524 98.3667 87.0058 98.94C87.4724 99.5133 87.7058 100.24 87.7058 101.12C87.7058 102.373 87.2991 103.333 86.4858 104C85.6724 104.667 84.5258 105 83.0458 105H77.1658ZM78.7658 97.2H82.5658C84.6858 97.2 85.7458 96.3733 85.7458 94.72C85.7458 93.0533 84.6858 92.22 82.5658 92.22H78.7658V97.2ZM78.7658 103.68H82.8858C85.0191 103.68 86.0858 102.82 86.0858 101.1C86.0858 99.38 85.0191 98.52 82.8858 98.52H78.7658V103.68ZM96.6014 105.18C95.2947 105.18 94.1547 104.887 93.1814 104.3C92.2214 103.7 91.4747 102.86 90.9414 101.78C90.4214 100.7 90.1614 99.42 90.1614 97.94C90.1614 96.46 90.4214 95.18 90.9414 94.1C91.4614 93.02 92.2014 92.1867 93.1614 91.6C94.1347 91.0133 95.2814 90.72 96.6014 90.72C97.9347 90.72 99.0814 91.0133 100.041 91.6C101.015 92.1867 101.761 93.02 102.281 94.1C102.815 95.1667 103.081 96.44 103.081 97.92C103.081 99.4 102.815 100.687 102.281 101.78C101.748 102.86 100.995 103.7 100.021 104.3C99.0614 104.887 97.9214 105.18 96.6014 105.18ZM96.6014 103.72C98.1081 103.72 99.2747 103.213 100.101 102.2C100.928 101.187 101.341 99.7667 101.341 97.94C101.341 96.1133 100.928 94.7 100.101 93.7C99.2747 92.6867 98.1081 92.18 96.6014 92.18C95.1214 92.18 93.9681 92.6867 93.1414 93.7C92.3147 94.7 91.9014 96.1133 91.9014 97.94C91.9014 99.7533 92.3147 101.173 93.1414 102.2C93.9681 103.213 95.1214 103.72 96.6014 103.72ZM108.595 105V92.32H103.475V90.9H115.375V92.32H110.255V105H108.595ZM114.282 105L120.502 90.9H121.902L128.122 105H126.422L124.862 101.4H117.522L115.982 105H114.282ZM121.182 92.82L118.122 100.02H124.282L121.222 92.82H121.182ZM136.418 105.18C134.152 105.18 132.425 104.54 131.238 103.26C130.052 101.98 129.458 100.213 129.458 97.96C129.458 96.4667 129.725 95.18 130.258 94.1C130.792 93.02 131.558 92.1867 132.558 91.6C133.558 91.0133 134.765 90.72 136.178 90.72C137.178 90.72 138.098 90.8733 138.938 91.18C139.778 91.4733 140.492 91.9067 141.078 92.48L140.438 93.8C139.798 93.24 139.138 92.8333 138.458 92.58C137.778 92.3267 137.012 92.2 136.158 92.2C134.558 92.2 133.332 92.7067 132.478 93.72C131.625 94.72 131.198 96.1333 131.198 97.96C131.198 99.8267 131.638 101.253 132.518 102.24C133.398 103.227 134.712 103.72 136.458 103.72C137.592 103.72 138.678 103.527 139.718 103.14V98.96H136.138V97.66H141.138V104.18C140.765 104.38 140.312 104.553 139.778 104.7C139.258 104.847 138.705 104.96 138.118 105.04C137.532 105.133 136.965 105.18 136.418 105.18ZM144.49 105V90.9H153.39V92.28H146.09V97.16H152.97V98.54H146.09V103.62H153.39V105H144.49Z" fill="#FFFEE8"/>
</g>
<defs>
<filter id="filter0_d_1011_305" x="0" y="13.1295" width="202" height="175.741" filterUnits="userSpaceOnUse" color-interpolation-filters="sRGB">
<feFlood flood-opacity="0" result="BackgroundImageFix"/>
<feColorMatrix in="SourceAlpha" type="matrix" values="0 0 0 0 0 0 0 0 0 0 0 0 0 0 0 0 0 0 127 0" result="hardAlpha"/>
<feOffset dy="3"/>
<feGaussianBlur stdDeviation="1.5"/>
<feComposite in2="hardAlpha" operator="out"/>
<feColorMatrix type="matrix" values="0 0 0 0 0 0 0 0 0 0 0 0 0 0 0 0 0 0 0.25 0"/>
<feBlend mode="normal" in2="BackgroundImageFix" result="effect1_dropShadow_1011_305"/>
<feBlend mode="normal" in="SourceGraphic" in2="effect1_dropShadow_1011_305" result="shape"/>
</filter>
<filter id="filter1_d_1011_305" x="34.5698" y="75.72" width="133.82" height="44.4601" filterUnits="userSpaceOnUse" color-interpolation-filters="sRGB">
<feFlood flood-opacity="0" result="BackgroundImageFix"/>
<feColorMatrix in="SourceAlpha" type="matrix" values="0 0 0 0 0 0 0 0 0 0 0 0 0 0 0 0 0 0 127 0" result="hardAlpha"/>
<feOffset/>
<feGaussianBlur stdDeviation="7.5"/>
<feColorMatrix type="matrix" values="0 0 0 0 0.996078 0 0 0 0 0.776471 0 0 0 0 0.192157 0 0 0 0.5 0"/>
<feBlend mode="normal" in2="BackgroundImageFix" result="effect1_dropShadow_1011_305"/>
<feBlend mode="normal" in="SourceGraphic" in2="effect1_dropShadow_1011_305" result="shape"/>
</filter>
</defs>
</svg>
