<?xml version="1.0" encoding="UTF-8" standalone="no"?>
<svg
   id="Livello_1"
   data-name="Livello 1"
   viewBox="0 0 911.52 974.75"
   version="1.1"
   sodipodi:docname="sabotage-icon-2.svg"
   inkscape:version="1.3.2 (091e20ef0f, 2023-11-25)"
   xmlns:inkscape="http://www.inkscape.org/namespaces/inkscape"
   xmlns:sodipodi="http://sodipodi.sourceforge.net/DTD/sodipodi-0.dtd"
   xmlns="http://www.w3.org/2000/svg"
   xmlns:svg="http://www.w3.org/2000/svg">
  <defs
     id="defs5" />
  <sodipodi:namedview
     id="namedview5"
     pagecolor="#ffffff"
     bordercolor="#000000"
     borderopacity="0.25"
     inkscape:showpageshadow="2"
     inkscape:pageopacity="0.0"
     inkscape:pagecheckerboard="0"
     inkscape:deskcolor="#d1d1d1"
     inkscape:zoom="1.1951783"
     inkscape:cx="455.58058"
     inkscape:cy="487.375"
     inkscape:window-width="2560"
     inkscape:window-height="1371"
     inkscape:window-x="0"
     inkscape:window-y="32"
     inkscape:window-maximized="1"
     inkscape:current-layer="Livello_1" />
  <path
     d="M525.54,568.22c-114.19.55-227.72-8.28-338.77-37.36-26.12-6.84-52.18-14.26-75.06-29.11-18.95-12.3-19.28-24.52-1-37.75,9.35-6.76,20.2-11.69,30.86-16.32,32.22-14,67.63-19.45,99.57-33.15,70.38-30.21,138.43-7,207.94,1.58,80.66,10,161.44,7.07,240-17.55,13.29-4.17,25.63-4.95,39.45-1.89,54.41,12,108.65,24.57,161,43.86,15.94,5.87,31.88,12.62,46.35,21.39,20.38,12.36,20.26,26.09.63,39.28-18.07,12.15-38.65,18.95-59.43,24.93-85,24.47-172.2,35.65-260.09,41.76C586.65,570,556,568.22,525.54,568.22Z"
     transform="translate(-91.59 -57.78)"
     id="path1" />
  <path
     d="M529.1,343.55c-53.16-.09-105.69-5.92-158-14.7-21.13-3.54-27.94-11.67-23.72-34.44,12.24-66.21,22.34-132.84,45.14-196.53,17.38-48.56,37-52.34,72.05-15,39.92,42.52,53.81,43,97.69,3.22C608,44.6,623.4,48.59,642,108.21c19.51,62.66,31.61,127.09,44.28,191.39,3.6,18.26-4.27,26.29-20.93,30.54C620.52,341.55,574.75,342.24,529.1,343.55Z"
     transform="translate(-91.59 -57.78)"
     id="path2" />
  <path
     d="M521.17,1032.53c-14.34-33.54-5.63-60.06-.4-85.72,14-68.87,50.58-126.46,95.74-178.79C643,737.37,670.72,707.27,704,684.11c28.17-19.65,40.25-45.57,39.95-77.65-.22-23.24,10.65-30.38,31.54-34.16,40.5-7.32,75.82-5.43,109.93,24.05,35.72,30.87,77.24,55,117.73,83.16-9.2,12-20.12,11.51-30.22,13.12-64,10.24-127.5,22.27-188.78,43.89-8.16,2.88-20.64,4-21.74,13.35-1.25,10.66,11.88,11.48,19.34,15.35,20.37,10.58,41.14,20.38,61.95,33.93C706.27,833.83,593.65,900.66,521.17,1032.53Z"
     transform="translate(-91.59 -57.78)"
     id="path3" />
  <path
     d="M316.9,741.25c-69.91-21.45-134.77-41.37-202.78-49-7.61-.84-18.35,3.06-21.81-5.88-3.63-9.38,7.3-13.27,12.88-18.15,34.49-30.17,69-60.32,104.32-89.51,27.41-22.65,92.79-6.58,107.73,25.07C362,698.74,424.41,780,506.37,846c19.23,15.48,20.6,68.75,2.37,85.88-8.45,7.95-15.37,1-21.84-2.39-76.44-40-153-79.58-234.73-108.11-14.48-5.05-13.21-12.17-3.18-20.88C270.41,781.84,291.78,763.16,316.9,741.25Z"
     transform="translate(-91.59 -57.78)"
     id="path4" />
  <path
     d="M619.19,665.76c-24.71-.43-45-9.84-61-29C531,604,517,604.33,488.46,637.58c-24.62,28.71-55.75,33.1-90.53,23.8-29.37-7.87-48.79-24.93-55.09-55.85-4-19.48,1.63-26.23,22.16-23.38C472.05,597,579.23,598.79,686.3,582c16.77-2.62,20.34,4.13,18.75,19.34C701,640.27,667.14,666,619.19,665.76Z"
     transform="translate(-91.59 -57.78)"
     id="path5" />
  <path
     style="fill:#f9f9f9;stroke-width:0.836695"
     d="M 412.90912,509.97025 C 365.67738,509.36431 347.33843,508.7361 313.76073,506.57388 238.82463,501.74839 168.83848,491.07456 102.97518,474.42622 63.614913,464.47708 43.048919,457.0899 25.683837,446.66363 0.45759266,431.51741 -0.10799937,419.53186 23.667132,403.92734 40.48313,392.89037 59.061908,385.74623 111.0389,370.33004 c 10.91152,-3.23631 23.90121,-7.44036 28.86599,-9.34233 4.96478,-1.90197 12.98025,-4.97743 17.81217,-6.83437 20.93591,-8.04578 42.7064,-11.73628 69.44571,-11.77231 23.38072,-0.0315 38.17993,1.60639 85.34292,9.44527 56.74812,9.43201 84.27458,11.97384 129.26942,11.93688 54.72378,-0.0449 98.11471,-5.9319 146.84002,-19.92214 28.65954,-8.22886 32.21617,-8.22737 68.60901,0.0288 52.08788,11.81672 86.18297,20.98549 119.64743,32.17531 66.67675,22.2953 90.2093,38.64613 79.62988,55.32818 -6.87396,10.839 -27.59843,22.5466 -56.62076,31.98596 -56.12329,18.25377 -136.5536,33.5926 -217.95912,41.56687 -58.02501,5.68398 -76.39775,6.23231 -169.01245,5.04414 z"
     id="path6" />
  <path
     style="fill:#f9f9f9;stroke-width:0.836695"
     d="m 421.69442,285.19912 c -39.88029,-1.06405 -80.68867,-5.01807 -129.26942,-12.52521 -25.46578,-3.9352 -30.71686,-6.15615 -35.39836,-14.97176 -3.1709,-5.97103 -2.45497,-12.98202 5.9808,-58.56867 11.65403,-62.97805 16.64152,-86.06865 25.32914,-117.266381 18.67554,-67.064875 32.60553,-87.6602278 53.90127,-79.6924742 8.17508,3.05869 15.7688,9.0722312 33.20685,26.2968342 22.05839,21.788393 31.4068,28.147225 43.19128,29.378948 11.82781,1.236251 25.06631,-5.446512 44.8932,-22.661979 17.98804,-15.618809 24.352,-20.836837 30.34488,-24.880783 11.49196,-7.7546993 19.52525,-10.20778134 26.96875,-8.2353008 5.97924,1.5844618 13.05103,9.3841968 18.30966,20.1944218 9.3349,19.189794 23.99757,70.585911 36.55081,128.119144 4.23022,19.38769 18.47728,90.57443 19.17802,95.82476 1.27096,9.52272 -2.66949,17.28992 -11.03302,21.74764 -11.38427,6.06775 -46.3982,12.20979 -84.3412,14.79489 -15.63759,1.0654 -25.47456,1.46785 -59.40536,2.43039 -5.06201,0.14361 -13.34529,0.15059 -18.4073,0.0155 z"
     id="path7" />
  <path
     style="fill:#f9f9f9;stroke-width:0.836695"
     d="M 403.67321,875.72519 C 309.69537,825.43546 235.39006,790.51987 176.12436,768.8014 c -18.49248,-6.77674 -22.36892,-8.5361 -24.34615,-11.04973 -2.05178,-2.60844 -2.0099,-4.68797 0.16533,-8.20756 0.9662,-1.56335 17.94949,-16.98579 37.74062,-34.27209 19.79114,-17.2863 35.6613,-31.72877 35.26703,-32.09439 -1.31523,-1.21964 -69.40243,-21.3263 -96.10012,-28.37908 -43.709845,-11.54694 -95.480991,-21.00188 -114.997124,-21.00188 -6.7731061,0 -7.6817554,-0.19472 -9.9961703,-2.14217 -3.18169688,-2.67722 -4.08568179,-6.73156 -2.2796356,-10.22407 0.7193389,-1.39104 3.8588917,-4.38866 6.9767838,-6.66139 3.1178931,-2.27271 14.8988301,-12.19332 26.1798621,-22.0458 54.431177,-47.53835 85.215614,-73.24384 91.251434,-76.19637 7.0604,-3.45374 13.74874,-4.95769 24.20058,-5.44179 24.72781,-1.14534 51.62351,8.49731 66.85764,23.96981 4.38417,4.45276 6.23704,7.53909 14.96574,24.92844 30.67163,61.10417 63.75651,109.85164 106.88353,157.48287 14.17762,15.65834 40.13246,40.97827 55.60811,54.24779 23.67987,20.3042 24.7616,21.38554 28.0003,27.99005 11.8866,24.23979 7.98609,64.04876 -7.36514,75.16913 -3.87895,2.8099 -7.32623,3.06612 -11.46377,0.85202 z"
     id="path8" />
  <path
     style="fill:#f9f9f9;stroke-width:0.836695"
     d="m 328.82124,607.32825 c -7.13822,-0.74226 -21.54274,-3.78557 -27.77374,-5.8679 -26.61442,-8.89424 -41.94502,-24.83762 -48.45769,-50.39462 -2.48836,-9.76481 -2.61606,-17.06951 -0.363,-20.76464 4.04923,-6.64092 8.33032,-7.09205 35.17802,-3.70697 104.29792,13.15035 200.50397,13.17559 293.26169,0.0769 19.95097,-2.81735 22.7697,-2.95355 26.74555,-1.29233 4.32963,1.80904 5.77529,5.36343 5.64184,13.87139 -0.38662,24.64778 -15.03711,46.46662 -39.08095,58.20286 -25.18523,12.29337 -56.0994,13.39043 -78.93678,2.80125 -9.242,-4.28531 -16.33876,-9.45745 -23.74669,-17.30666 -14.29447,-15.14598 -23.04128,-23.35138 -27.42264,-25.72526 -4.015,-2.17538 -5.45539,-2.49333 -11.29539,-2.49333 -10.5696,0 -14.13054,2.30907 -33.04946,21.43076 -16.63536,16.81364 -22.6179,21.38375 -33.91333,25.90666 -3.53425,1.41518 -8.92736,3.08698 -11.98467,3.71509 -6.1089,1.25506 -19.54807,2.09316 -24.80276,1.54677 z"
     id="path9" />
  <path
     style="fill:#f9f9f9;stroke-width:0.836695"
     d="m 426.78191,965.75553 c -4.88058,-15.06921 -5.75115,-32.27286 -2.55099,-50.41089 2.27773,-12.90979 8.66082,-40.92476 11.76924,-51.65441 8.91643,-30.7778 26.25249,-66.75847 47.45092,-98.48349 19.71665,-29.50745 51.12307,-67.15625 81.00491,-97.10556 15.96919,-16.00525 27.38365,-25.90483 44.21256,-38.34482 15.29956,-11.30951 23.42715,-19.23013 29.86109,-29.10068 9.09847,-13.95827 13.27731,-28.17678 14.11268,-48.01845 1.15302,-27.38609 6.99289,-33.51436 36.77839,-38.59461 14.7033,-2.50781 37.77054,-3.05958 49.074,-1.17386 21.30572,3.55436 37.47644,11.33018 56.02102,26.93815 19.81831,16.68 33.57633,26.63944 74.39232,53.85268 17.71702,11.81246 34.43453,23.03617 37.15004,24.94157 l 4.93727,3.46436 -3.26388,3.07882 c -4.59558,4.33502 -10.37384,6.72441 -20.02655,8.28128 -90.1202,14.5353 -130.87227,23.77289 -190.58694,43.20184 -24.54268,7.98528 -26.50672,9.20175 -26.50672,16.41754 0,5.95578 1.90873,7.79971 12.55043,12.12435 14.70946,5.97772 66.90289,33.94833 66.92821,35.86701 0.004,0.30857 -1.21626,0.81892 -2.71185,1.13408 -6.60807,1.39253 -40.76959,11.58142 -53.33933,15.90879 -54.72377,18.83968 -102.00588,43.32161 -142.10129,73.57779 -17.22888,13.00099 -26.70544,21.17241 -42.71121,36.82889 -28.67648,28.05071 -52.2949,58.3414 -72.90783,93.50449 -3.43948,5.86732 -6.48923,10.66786 -6.77722,10.66786 -0.288,0 -1.52967,-3.10623 -2.75927,-6.90273 z"
     id="path10" />
</svg>
