<svg width="106" height="116" viewBox="0 0 106 116" fill="none" xmlns="http://www.w3.org/2000/svg">
<g filter="url(#filter0_d_1019_934)">
<path d="M84.3087 50.7087C84.3087 50.7087 80.4975 54.1713 74.1275 58.3013C72.39 48.1988 67.57 35.7275 58.025 20.5C58.025 20.5 54.9037 36.8337 44.5087 52.2937C39.9725 45.2962 38.0262 39.8025 38.0262 39.8025C5.31873 72.4012 32.4312 95.5 49.4587 95.5C71.3137 95.5 90.5462 85.0487 84.3087 50.7087ZM50.5787 93.415C45.8162 93.415 35.1862 90.095 30.0475 74.8113C30.0475 74.8113 31.8937 75.7563 34.8962 76.85C35.0187 71.5663 37.1425 64.805 42.5762 56.275C42.5762 56.275 43.9387 59.9375 47.1137 64.6025C54.39 54.295 56.575 43.4012 56.575 43.4012C63.2575 53.5575 66.6312 61.8737 67.8487 68.61C72.3062 65.855 74.975 63.545 74.975 63.545C74.6712 70.3238 73.3625 75.6362 71.4687 79.7887C74.45 79.3 76.3337 78.78 76.3337 78.78C67.75 90.9025 59.0875 93.415 50.5787 93.415Z" fill="#FFFEE8"/>
<path d="M40.3712 72.8175C40.3712 72.8175 43.8774 77.6 46.5437 76.445C46.5437 76.445 51.6124 68.5688 58.8862 64.19C58.8862 64.19 57.3924 76.1975 59.1099 78.32C61.3874 81.1425 67.5587 75.19 67.5587 75.19C67.5587 82.285 59.7699 91.2251 52.8012 91.2251C45.8824 91.2251 36.0737 83.53 40.3712 72.8175ZM75.2999 40.6475C77.9262 36.8463 79.7112 32.9525 79.7112 32.9525C84.1149 40.1713 81.5162 44.5613 79.5812 45.995C76.9849 47.9225 72.2687 45.0413 75.2999 40.6475ZM27.3712 39.4138C24.8012 35.0075 24.5124 29.5163 24.5124 29.5163C18.2337 38.95 20.6862 44.0875 22.7749 45.6425C25.5774 47.73 30.3374 44.505 27.3712 39.4138ZM41.9787 29.6138C42.2987 26.6525 41.0574 23.5813 41.0574 23.5813C47.0124 27.4113 46.9412 30.7475 46.1649 32.0463C45.1187 33.7888 41.6074 33.035 41.9787 29.6138Z" fill="#FFFEE8"/>
</g>
<defs>
<filter id="filter0_d_1019_934" x="-7" y="-2" width="120" height="120" filterUnits="userSpaceOnUse" color-interpolation-filters="sRGB">
<feFlood flood-opacity="0" result="BackgroundImageFix"/>
<feColorMatrix in="SourceAlpha" type="matrix" values="0 0 0 0 0 0 0 0 0 0 0 0 0 0 0 0 0 0 127 0" result="hardAlpha"/>
<feOffset/>
<feGaussianBlur stdDeviation="10"/>
<feColorMatrix type="matrix" values="0 0 0 0 1 0 0 0 0 0.996078 0 0 0 0 0.909804 0 0 0 0.5 0"/>
<feBlend mode="normal" in2="BackgroundImageFix" result="effect1_dropShadow_1019_934"/>
<feBlend mode="normal" in="SourceGraphic" in2="effect1_dropShadow_1019_934" result="shape"/>
</filter>
</defs>
</svg>
