<svg width="254" height="241" viewBox="0 0 254 241" fill="none" xmlns="http://www.w3.org/2000/svg">
<g filter="url(#filter0_d_1009_1405)">
<path d="M199 143L150 227.87L52 227.87L3 143L52 58.1295L150 58.1295L199 143Z" fill="#401127" fill-opacity="0.5" shape-rendering="crispEdges"/>
<path d="M148.557 60.6295L196.113 143L148.557 225.37L53.4434 225.37L5.88676 143L53.4434 60.6295L148.557 60.6295Z" stroke="#FEC631" stroke-width="5" stroke-miterlimit="1.36733" stroke-linecap="round" shape-rendering="crispEdges"/>
</g>
<g clip-path="url(#clip0_1009_1405)">
<g filter="url(#filter1_d_1009_1405)">
<path d="M148.557 60.6295L196.113 143L148.557 225.371H53.4434L5.88672 143L53.4434 60.6295H148.557Z" stroke="#8F1B42" stroke-width="5" stroke-miterlimit="1.36733" stroke-linecap="round"/>
</g>
</g>
<g clip-path="url(#clip1_1009_1405)">
<g filter="url(#filter2_d_1009_1405)">
<path d="M148.557 60.6295L196.113 143L148.557 225.371H53.4434L5.88672 143L53.4434 60.6295H148.557Z" stroke="#8F1B42" stroke-width="5" stroke-miterlimit="1.36733" stroke-linecap="round"/>
</g>
</g>
<g clip-path="url(#clip2_1009_1405)">
<g filter="url(#filter3_d_1009_1405)">
<path d="M148.557 60.6295L196.113 143L148.557 225.371H53.443L5.88696 143L53.443 60.6295H148.557Z" stroke="#8F1B42" stroke-width="5" stroke-miterlimit="1.36733" stroke-linecap="round"/>
</g>
</g>
<g filter="url(#filter4_d_1009_1405)">
<path d="M53.8898 150.18C52.7832 150.18 51.7832 150.04 50.8898 149.76C49.9965 149.467 49.2232 149.047 48.5698 148.5L49.1498 147.18C49.8298 147.7 50.5432 148.087 51.2898 148.34C52.0365 148.593 52.9032 148.72 53.8898 148.72C55.0898 148.72 55.9765 148.5 56.5498 148.06C57.1365 147.607 57.4298 147.013 57.4298 146.28C57.4298 145.693 57.2165 145.227 56.7898 144.88C56.3765 144.533 55.6765 144.26 54.6898 144.06L52.6098 143.64C51.3565 143.373 50.4165 142.94 49.7898 142.34C49.1765 141.727 48.8698 140.913 48.8698 139.9C48.8698 139.06 49.0832 138.327 49.5098 137.7C49.9498 137.073 50.5565 136.587 51.3298 136.24C52.1032 135.893 52.9965 135.72 54.0098 135.72C54.9565 135.72 55.8365 135.873 56.6498 136.18C57.4632 136.473 58.1498 136.9 58.7098 137.46L58.1298 138.74C57.5298 138.193 56.8965 137.8 56.2298 137.56C55.5632 137.307 54.8165 137.18 53.9898 137.18C52.9365 137.18 52.0965 137.427 51.4698 137.92C50.8432 138.4 50.5298 139.04 50.5298 139.84C50.5298 140.48 50.7232 140.987 51.1098 141.36C51.5098 141.733 52.1565 142.007 53.0498 142.18L55.1298 142.62C56.4765 142.9 57.4698 143.327 58.1098 143.9C58.7632 144.46 59.0898 145.227 59.0898 146.2C59.0898 146.987 58.8765 147.68 58.4498 148.28C58.0365 148.88 57.4365 149.347 56.6498 149.68C55.8765 150.013 54.9565 150.18 53.8898 150.18ZM60.2355 150L66.4555 135.9H67.8555L74.0755 150H72.3755L70.8155 146.4H63.4755L61.9355 150H60.2355ZM67.1355 137.82L64.0755 145.02H70.2355L67.1755 137.82H67.1355ZM76.1658 150V135.9H81.8058C83.2591 135.9 84.3791 136.227 85.1658 136.88C85.9658 137.52 86.3658 138.42 86.3658 139.58C86.3658 140.353 86.1658 141.013 85.7658 141.56C85.3658 142.107 84.8124 142.507 84.1058 142.76C84.9191 142.973 85.5524 143.367 86.0058 143.94C86.4724 144.513 86.7058 145.24 86.7058 146.12C86.7058 147.373 86.2991 148.333 85.4858 149C84.6724 149.667 83.5258 150 82.0458 150H76.1658ZM77.7658 142.2H81.5658C83.6858 142.2 84.7458 141.373 84.7458 139.72C84.7458 138.053 83.6858 137.22 81.5658 137.22H77.7658V142.2ZM77.7658 148.68H81.8858C84.0191 148.68 85.0858 147.82 85.0858 146.1C85.0858 144.38 84.0191 143.52 81.8858 143.52H77.7658V148.68ZM95.6014 150.18C94.2947 150.18 93.1547 149.887 92.1814 149.3C91.2214 148.7 90.4747 147.86 89.9414 146.78C89.4214 145.7 89.1614 144.42 89.1614 142.94C89.1614 141.46 89.4214 140.18 89.9414 139.1C90.4614 138.02 91.2014 137.187 92.1614 136.6C93.1347 136.013 94.2814 135.72 95.6014 135.72C96.9347 135.72 98.0814 136.013 99.0414 136.6C100.015 137.187 100.761 138.02 101.281 139.1C101.815 140.167 102.081 141.44 102.081 142.92C102.081 144.4 101.815 145.687 101.281 146.78C100.748 147.86 99.9947 148.7 99.0214 149.3C98.0614 149.887 96.9214 150.18 95.6014 150.18ZM95.6014 148.72C97.1081 148.72 98.2747 148.213 99.1014 147.2C99.9281 146.187 100.341 144.767 100.341 142.94C100.341 141.113 99.9281 139.7 99.1014 138.7C98.2747 137.687 97.1081 137.18 95.6014 137.18C94.1214 137.18 92.9681 137.687 92.1414 138.7C91.3147 139.7 90.9014 141.113 90.9014 142.94C90.9014 144.753 91.3147 146.173 92.1414 147.2C92.9681 148.213 94.1214 148.72 95.6014 148.72ZM107.595 150V137.32H102.475V135.9H114.375V137.32H109.255V150H107.595ZM113.282 150L119.502 135.9H120.902L127.122 150H125.422L123.862 146.4H116.522L114.982 150H113.282ZM120.182 137.82L117.122 145.02H123.282L120.222 137.82H120.182ZM135.418 150.18C133.152 150.18 131.425 149.54 130.238 148.26C129.052 146.98 128.458 145.213 128.458 142.96C128.458 141.467 128.725 140.18 129.258 139.1C129.792 138.02 130.558 137.187 131.558 136.6C132.558 136.013 133.765 135.72 135.178 135.72C136.178 135.72 137.098 135.873 137.938 136.18C138.778 136.473 139.492 136.907 140.078 137.48L139.438 138.8C138.798 138.24 138.138 137.833 137.458 137.58C136.778 137.327 136.012 137.2 135.158 137.2C133.558 137.2 132.332 137.707 131.478 138.72C130.625 139.72 130.198 141.133 130.198 142.96C130.198 144.827 130.638 146.253 131.518 147.24C132.398 148.227 133.712 148.72 135.458 148.72C136.592 148.72 137.678 148.527 138.718 148.14V143.96H135.138V142.66H140.138V149.18C139.765 149.38 139.312 149.553 138.778 149.7C138.258 149.847 137.705 149.96 137.118 150.04C136.532 150.133 135.965 150.18 135.418 150.18ZM143.49 150V135.9H152.39V137.28H145.09V142.16H151.97V143.54H145.09V148.62H152.39V150H143.49Z" fill="#FFFEE8"/>
</g>
<defs>
<filter id="filter0_d_1009_1405" x="0" y="58.1295" width="202" height="175.741" filterUnits="userSpaceOnUse" color-interpolation-filters="sRGB">
<feFlood flood-opacity="0" result="BackgroundImageFix"/>
<feColorMatrix in="SourceAlpha" type="matrix" values="0 0 0 0 0 0 0 0 0 0 0 0 0 0 0 0 0 0 127 0" result="hardAlpha"/>
<feOffset dy="3"/>
<feGaussianBlur stdDeviation="1.5"/>
<feComposite in2="hardAlpha" operator="out"/>
<feColorMatrix type="matrix" values="0 0 0 0 0 0 0 0 0 0 0 0 0 0 0 0 0 0 0.25 0"/>
<feBlend mode="normal" in2="BackgroundImageFix" result="effect1_dropShadow_1009_1405"/>
<feBlend mode="normal" in="SourceGraphic" in2="effect1_dropShadow_1009_1405" result="shape"/>
</filter>
<filter id="filter1_d_1009_1405" x="0" y="58.1295" width="202" height="175.741" filterUnits="userSpaceOnUse" color-interpolation-filters="sRGB">
<feFlood flood-opacity="0" result="BackgroundImageFix"/>
<feColorMatrix in="SourceAlpha" type="matrix" values="0 0 0 0 0 0 0 0 0 0 0 0 0 0 0 0 0 0 127 0" result="hardAlpha"/>
<feOffset dy="3"/>
<feGaussianBlur stdDeviation="1.5"/>
<feComposite in2="hardAlpha" operator="out"/>
<feColorMatrix type="matrix" values="0 0 0 0 0 0 0 0 0 0 0 0 0 0 0 0 0 0 0.25 0"/>
<feBlend mode="normal" in2="BackgroundImageFix" result="effect1_dropShadow_1009_1405"/>
<feBlend mode="normal" in="SourceGraphic" in2="effect1_dropShadow_1009_1405" result="shape"/>
</filter>
<filter id="filter2_d_1009_1405" x="0" y="58.1295" width="202" height="175.741" filterUnits="userSpaceOnUse" color-interpolation-filters="sRGB">
<feFlood flood-opacity="0" result="BackgroundImageFix"/>
<feColorMatrix in="SourceAlpha" type="matrix" values="0 0 0 0 0 0 0 0 0 0 0 0 0 0 0 0 0 0 127 0" result="hardAlpha"/>
<feOffset dy="3"/>
<feGaussianBlur stdDeviation="1.5"/>
<feComposite in2="hardAlpha" operator="out"/>
<feColorMatrix type="matrix" values="0 0 0 0 0 0 0 0 0 0 0 0 0 0 0 0 0 0 0.25 0"/>
<feBlend mode="normal" in2="BackgroundImageFix" result="effect1_dropShadow_1009_1405"/>
<feBlend mode="normal" in="SourceGraphic" in2="effect1_dropShadow_1009_1405" result="shape"/>
</filter>
<filter id="filter3_d_1009_1405" x="0.000244141" y="58.1295" width="202" height="175.741" filterUnits="userSpaceOnUse" color-interpolation-filters="sRGB">
<feFlood flood-opacity="0" result="BackgroundImageFix"/>
<feColorMatrix in="SourceAlpha" type="matrix" values="0 0 0 0 0 0 0 0 0 0 0 0 0 0 0 0 0 0 127 0" result="hardAlpha"/>
<feOffset dy="3"/>
<feGaussianBlur stdDeviation="1.5"/>
<feComposite in2="hardAlpha" operator="out"/>
<feColorMatrix type="matrix" values="0 0 0 0 0 0 0 0 0 0 0 0 0 0 0 0 0 0 0.25 0"/>
<feBlend mode="normal" in2="BackgroundImageFix" result="effect1_dropShadow_1009_1405"/>
<feBlend mode="normal" in="SourceGraphic" in2="effect1_dropShadow_1009_1405" result="shape"/>
</filter>
<filter id="filter4_d_1009_1405" x="33.5698" y="120.72" width="133.82" height="44.4601" filterUnits="userSpaceOnUse" color-interpolation-filters="sRGB">
<feFlood flood-opacity="0" result="BackgroundImageFix"/>
<feColorMatrix in="SourceAlpha" type="matrix" values="0 0 0 0 0 0 0 0 0 0 0 0 0 0 0 0 0 0 127 0" result="hardAlpha"/>
<feOffset/>
<feGaussianBlur stdDeviation="7.5"/>
<feColorMatrix type="matrix" values="0 0 0 0 0.996078 0 0 0 0 0.776471 0 0 0 0 0.192157 0 0 0 0.5 0"/>
<feBlend mode="normal" in2="BackgroundImageFix" result="effect1_dropShadow_1009_1405"/>
<feBlend mode="normal" in="SourceGraphic" in2="effect1_dropShadow_1009_1405" result="shape"/>
</filter>
<clipPath id="clip0_1009_1405">
<rect width="12" height="20" fill="white" transform="translate(3 133)"/>
</clipPath>
<clipPath id="clip1_1009_1405">
<rect width="186" height="75" fill="white" transform="translate(8 153)"/>
</clipPath>
<clipPath id="clip2_1009_1405">
<rect width="12" height="20" fill="white" transform="translate(187 133)"/>
</clipPath>
</defs>
</svg>
