<svg width="266" height="260" viewBox="0 0 266 260" fill="none" xmlns="http://www.w3.org/2000/svg">
<g filter="url(#filter0_d_777_1715)">
<path d="M263 130L198 242.583L68 242.583L3 130L68 17.4167L198 17.4167L263 130Z" fill="#85576C" fill-opacity="0.5" shape-rendering="crispEdges"/>
<path d="M196.557 19.9167L260.113 130L196.557 240.083L69.4434 240.083L5.88674 130L69.4434 19.9167L196.557 19.9167Z" stroke="white" stroke-width="5" stroke-miterlimit="1.36733" stroke-linecap="round" shape-rendering="crispEdges"/>
</g>
<g filter="url(#filter1_d_777_1715)">
<path d="M96.3416 205V190.9H101.982C103.435 190.9 104.555 191.227 105.342 191.88C106.142 192.52 106.542 193.42 106.542 194.58C106.542 195.353 106.342 196.013 105.942 196.56C105.542 197.107 104.988 197.507 104.282 197.76C105.095 197.973 105.728 198.367 106.182 198.94C106.648 199.513 106.882 200.24 106.882 201.12C106.882 202.373 106.475 203.333 105.662 204C104.848 204.667 103.702 205 102.222 205H96.3416ZM97.9416 197.2H101.742C103.862 197.2 104.922 196.373 104.922 194.72C104.922 193.053 103.862 192.22 101.742 192.22H97.9416V197.2ZM97.9416 203.68H102.062C104.195 203.68 105.262 202.82 105.262 201.1C105.262 199.38 104.195 198.52 102.062 198.52H97.9416V203.68ZM112.697 205.18C112.031 205.18 111.431 205.053 110.897 204.8C110.377 204.533 109.964 204.173 109.657 203.72C109.351 203.267 109.197 202.76 109.197 202.2C109.197 201.493 109.377 200.933 109.737 200.52C110.111 200.107 110.717 199.813 111.557 199.64C112.411 199.453 113.571 199.36 115.037 199.36H115.677V198.74C115.677 197.913 115.504 197.32 115.157 196.96C114.824 196.587 114.284 196.4 113.537 196.4C112.951 196.4 112.384 196.487 111.837 196.66C111.291 196.82 110.731 197.087 110.157 197.46L109.597 196.28C110.104 195.92 110.717 195.633 111.437 195.42C112.171 195.207 112.871 195.1 113.537 195.1C114.791 195.1 115.717 195.407 116.317 196.02C116.931 196.633 117.237 197.587 117.237 198.88V205H115.717V203.32C115.464 203.893 115.071 204.347 114.537 204.68C114.017 205.013 113.404 205.18 112.697 205.18ZM112.957 203.96C113.757 203.96 114.411 203.687 114.917 203.14C115.424 202.58 115.677 201.873 115.677 201.02V200.42H115.057C113.977 200.42 113.124 200.473 112.497 200.58C111.884 200.673 111.451 200.847 111.197 201.1C110.957 201.34 110.837 201.673 110.837 202.1C110.837 202.647 111.024 203.093 111.397 203.44C111.784 203.787 112.304 203.96 112.957 203.96ZM124.363 205.18C123.389 205.18 122.549 204.973 121.843 204.56C121.136 204.133 120.589 203.54 120.203 202.78C119.829 202.007 119.643 201.107 119.643 200.08C119.643 198.533 120.063 197.32 120.903 196.44C121.743 195.547 122.896 195.1 124.363 195.1C124.963 195.1 125.556 195.207 126.143 195.42C126.729 195.633 127.216 195.933 127.603 196.32L127.043 197.5C126.656 197.127 126.229 196.853 125.763 196.68C125.309 196.507 124.876 196.42 124.463 196.42C123.449 196.42 122.669 196.74 122.123 197.38C121.576 198.007 121.303 198.913 121.303 200.1C121.303 201.26 121.576 202.18 122.123 202.86C122.669 203.527 123.449 203.86 124.463 203.86C124.876 203.86 125.309 203.773 125.763 203.6C126.229 203.427 126.656 203.147 127.043 202.76L127.603 203.94C127.216 204.327 126.723 204.633 126.123 204.86C125.536 205.073 124.949 205.18 124.363 205.18ZM129.5 205V190.9H131.12V199.6H131.16L135.66 195.28H137.72L132.84 199.96L138.14 205H136.08L131.16 200.44H131.12V205H129.5ZM143.627 205.18C142.093 205.18 140.88 204.733 139.987 203.84C139.093 202.933 138.647 201.707 138.647 200.16C138.647 199.16 138.847 198.28 139.247 197.52C139.647 196.747 140.193 196.153 140.887 195.74C141.593 195.313 142.407 195.1 143.327 195.1C144.647 195.1 145.68 195.527 146.427 196.38C147.173 197.22 147.547 198.38 147.547 199.86V200.48H140.227C140.28 201.587 140.6 202.433 141.187 203.02C141.773 203.593 142.587 203.88 143.627 203.88C144.213 203.88 144.773 203.793 145.307 203.62C145.84 203.433 146.347 203.133 146.827 202.72L147.387 203.86C146.947 204.273 146.387 204.6 145.707 204.84C145.027 205.067 144.333 205.18 143.627 205.18ZM143.367 196.3C142.447 196.3 141.72 196.587 141.187 197.16C140.653 197.733 140.34 198.487 140.247 199.42H146.147C146.107 198.433 145.847 197.667 145.367 197.12C144.9 196.573 144.233 196.3 143.367 196.3ZM149.891 205V195.28H151.471V196.94C151.791 196.327 152.244 195.867 152.831 195.56C153.418 195.253 154.078 195.1 154.811 195.1C157.118 195.1 158.271 196.38 158.271 198.94V205H156.651V199.04C156.651 198.133 156.471 197.473 156.111 197.06C155.764 196.633 155.204 196.42 154.431 196.42C153.538 196.42 152.824 196.7 152.291 197.26C151.771 197.807 151.511 198.54 151.511 199.46V205H149.891ZM164.958 205.18C164.092 205.18 163.332 204.973 162.678 204.56C162.038 204.147 161.538 203.567 161.178 202.82C160.832 202.06 160.658 201.167 160.658 200.14C160.658 199.1 160.832 198.207 161.178 197.46C161.538 196.7 162.038 196.12 162.678 195.72C163.332 195.307 164.092 195.1 164.958 195.1C165.718 195.1 166.385 195.267 166.958 195.6C167.545 195.933 167.978 196.393 168.258 196.98V190.9H169.878V205H168.298V203.22C168.018 203.833 167.585 204.313 166.998 204.66C166.412 205.007 165.732 205.18 164.958 205.18ZM165.298 203.88C166.205 203.88 166.932 203.56 167.478 202.92C168.025 202.267 168.298 201.34 168.298 200.14C168.298 198.927 168.025 198 167.478 197.36C166.932 196.72 166.205 196.4 165.298 196.4C164.378 196.4 163.645 196.72 163.098 197.36C162.565 198 162.298 198.927 162.298 200.14C162.298 201.34 162.565 202.267 163.098 202.92C163.645 203.56 164.378 203.88 165.298 203.88Z" fill="#E8FFFB"/>
<path d="M95.1992 53.2601V69.7803H77.7331V53.2601H95.1992ZM69 45V78.0404H103.932V45H69ZM138.865 65.6503V82.1705H121.398V65.6503H138.865ZM112.665 57.3902V90.4306H147.598V57.3902H112.665ZM95.1992 102.821V119.341H77.7331V102.821H95.1992ZM69 94.5606V127.601H103.932V94.5606H69Z" fill="#E8FFFB"/>
<path d="M157.32 81.9436V109.261H127.56V136.577H97.7998V173H197V81.9436H157.32ZM137.48 118.366H157.32V136.577H137.48V118.366ZM127.56 163.894H107.72V145.683H127.56V163.894ZM157.32 163.894H137.48V145.683H157.32V163.894ZM187.08 163.894H167.24V145.683H187.08V163.894ZM187.08 136.577H167.24V118.366H187.08V136.577ZM167.24 109.261V91.0492H187.08V109.261H167.24Z" fill="#E8FFFB"/>
</g>
<defs>
<filter id="filter0_d_777_1715" x="0" y="17.4166" width="266" height="231.167" filterUnits="userSpaceOnUse" color-interpolation-filters="sRGB">
<feFlood flood-opacity="0" result="BackgroundImageFix"/>
<feColorMatrix in="SourceAlpha" type="matrix" values="0 0 0 0 0 0 0 0 0 0 0 0 0 0 0 0 0 0 127 0" result="hardAlpha"/>
<feOffset dy="3"/>
<feGaussianBlur stdDeviation="1.5"/>
<feComposite in2="hardAlpha" operator="out"/>
<feColorMatrix type="matrix" values="0 0 0 0 0 0 0 0 0 0 0 0 0 0 0 0 0 0 0.25 0"/>
<feBlend mode="normal" in2="BackgroundImageFix" result="effect1_dropShadow_777_1715"/>
<feBlend mode="normal" in="SourceGraphic" in2="effect1_dropShadow_777_1715" result="shape"/>
</filter>
<filter id="filter1_d_777_1715" x="54" y="30" width="158" height="190.18" filterUnits="userSpaceOnUse" color-interpolation-filters="sRGB">
<feFlood flood-opacity="0" result="BackgroundImageFix"/>
<feColorMatrix in="SourceAlpha" type="matrix" values="0 0 0 0 0 0 0 0 0 0 0 0 0 0 0 0 0 0 127 0" result="hardAlpha"/>
<feOffset/>
<feGaussianBlur stdDeviation="7.5"/>
<feColorMatrix type="matrix" values="0 0 0 0 1 0 0 0 0 0.996078 0 0 0 0 0.909804 0 0 0 0.5 0"/>
<feBlend mode="normal" in2="BackgroundImageFix" result="effect1_dropShadow_777_1715"/>
<feBlend mode="normal" in="SourceGraphic" in2="effect1_dropShadow_777_1715" result="shape"/>
</filter>
</defs>
</svg>
