<svg width="266" height="260" viewBox="0 0 266 260" fill="none" xmlns="http://www.w3.org/2000/svg">
<g filter="url(#filter0_d_777_1554)">
<path d="M263 130L198 242.583L68 242.583L3 130L68 17.4167L198 17.4167L263 130Z" fill="#85576C" fill-opacity="0.5" shape-rendering="crispEdges"/>
<path d="M196.557 19.9167L260.113 130L196.557 240.083L69.4434 240.083L5.88674 130L69.4434 19.9167L196.557 19.9167Z" stroke="white" stroke-width="5" stroke-miterlimit="1.36733" stroke-linecap="round" shape-rendering="crispEdges"/>
</g>
<g filter="url(#filter1_d_777_1554)">
<path d="M67.7849 208V193.9H73.4249C74.8783 193.9 75.9983 194.227 76.7849 194.88C77.5849 195.52 77.9849 196.42 77.9849 197.58C77.9849 198.353 77.7849 199.013 77.3849 199.56C76.9849 200.107 76.4316 200.507 75.7249 200.76C76.5383 200.973 77.1716 201.367 77.6249 201.94C78.0916 202.513 78.3249 203.24 78.3249 204.12C78.3249 205.373 77.9183 206.333 77.1049 207C76.2916 207.667 75.1449 208 73.6649 208H67.7849ZM69.3849 200.2H73.1849C75.3049 200.2 76.3649 199.373 76.3649 197.72C76.3649 196.053 75.3049 195.22 73.1849 195.22H69.3849V200.2ZM69.3849 206.68H73.5049C75.6383 206.68 76.7049 205.82 76.7049 204.1C76.7049 202.38 75.6383 201.52 73.5049 201.52H69.3849V206.68ZM84.5205 208.18C82.1872 208.18 81.0205 206.893 81.0205 204.32V198.28H82.6405V204.3C82.6405 205.167 82.8139 205.807 83.1605 206.22C83.5205 206.633 84.0805 206.84 84.8405 206.84C85.6672 206.84 86.3405 206.567 86.8605 206.02C87.3805 205.46 87.6405 204.72 87.6405 203.8V198.28H89.2605V208H87.6805V206.36C87.3739 206.947 86.9405 207.4 86.3805 207.72C85.8339 208.027 85.2139 208.18 84.5205 208.18ZM95.5715 208.18C94.8115 208.18 94.0915 208.073 93.4115 207.86C92.7315 207.647 92.1715 207.347 91.7315 206.96L92.2515 205.82C92.7315 206.207 93.2582 206.493 93.8315 206.68C94.4182 206.853 95.0115 206.94 95.6115 206.94C96.3715 206.94 96.9448 206.8 97.3315 206.52C97.7182 206.24 97.9115 205.86 97.9115 205.38C97.9115 205.007 97.7848 204.713 97.5315 204.5C97.2782 204.273 96.8782 204.1 96.3315 203.98L94.5115 203.58C92.8582 203.22 92.0315 202.367 92.0315 201.02C92.0315 200.14 92.3782 199.433 93.0715 198.9C93.7782 198.367 94.6982 198.1 95.8315 198.1C96.4982 198.1 97.1315 198.207 97.7315 198.42C98.3448 198.62 98.8515 198.92 99.2515 199.32L98.7115 200.46C98.3248 200.1 97.8715 199.827 97.3515 199.64C96.8448 199.44 96.3382 199.34 95.8315 199.34C95.0848 199.34 94.5182 199.487 94.1315 199.78C93.7448 200.073 93.5515 200.46 93.5515 200.94C93.5515 201.687 94.0448 202.167 95.0315 202.38L96.8515 202.76C97.7048 202.947 98.3515 203.247 98.7915 203.66C99.2315 204.06 99.4515 204.607 99.4515 205.3C99.4515 206.193 99.0982 206.9 98.3915 207.42C97.6848 207.927 96.7448 208.18 95.5715 208.18ZM101.72 195.86V194.04H103.72V195.86H101.72ZM101.92 208V198.28H103.54V208H101.92ZM106.569 208V198.28H108.149V199.94C108.469 199.327 108.922 198.867 109.509 198.56C110.095 198.253 110.755 198.1 111.489 198.1C113.795 198.1 114.949 199.38 114.949 201.94V208H113.329V202.04C113.329 201.133 113.149 200.473 112.789 200.06C112.442 199.633 111.882 199.42 111.109 199.42C110.215 199.42 109.502 199.7 108.969 200.26C108.449 200.807 108.189 201.54 108.189 202.46V208H106.569ZM122.316 208.18C120.783 208.18 119.569 207.733 118.676 206.84C117.783 205.933 117.336 204.707 117.336 203.16C117.336 202.16 117.536 201.28 117.936 200.52C118.336 199.747 118.883 199.153 119.576 198.74C120.283 198.313 121.096 198.1 122.016 198.1C123.336 198.1 124.369 198.527 125.116 199.38C125.863 200.22 126.236 201.38 126.236 202.86V203.48H118.916C118.969 204.587 119.289 205.433 119.876 206.02C120.463 206.593 121.276 206.88 122.316 206.88C122.903 206.88 123.463 206.793 123.996 206.62C124.529 206.433 125.036 206.133 125.516 205.72L126.076 206.86C125.636 207.273 125.076 207.6 124.396 207.84C123.716 208.067 123.023 208.18 122.316 208.18ZM122.056 199.3C121.136 199.3 120.409 199.587 119.876 200.16C119.343 200.733 119.029 201.487 118.936 202.42H124.836C124.796 201.433 124.536 200.667 124.056 200.12C123.589 199.573 122.923 199.3 122.056 199.3ZM131.861 208.18C131.101 208.18 130.381 208.073 129.701 207.86C129.021 207.647 128.461 207.347 128.021 206.96L128.541 205.82C129.021 206.207 129.547 206.493 130.121 206.68C130.707 206.853 131.301 206.94 131.901 206.94C132.661 206.94 133.234 206.8 133.621 206.52C134.007 206.24 134.201 205.86 134.201 205.38C134.201 205.007 134.074 204.713 133.821 204.5C133.567 204.273 133.167 204.1 132.621 203.98L130.801 203.58C129.147 203.22 128.321 202.367 128.321 201.02C128.321 200.14 128.667 199.433 129.361 198.9C130.067 198.367 130.987 198.1 132.121 198.1C132.787 198.1 133.421 198.207 134.021 198.42C134.634 198.62 135.141 198.92 135.541 199.32L135.001 200.46C134.614 200.1 134.161 199.827 133.641 199.64C133.134 199.44 132.627 199.34 132.121 199.34C131.374 199.34 130.807 199.487 130.421 199.78C130.034 200.073 129.841 200.46 129.841 200.94C129.841 201.687 130.334 202.167 131.321 202.38L133.141 202.76C133.994 202.947 134.641 203.247 135.081 203.66C135.521 204.06 135.741 204.607 135.741 205.3C135.741 206.193 135.387 206.9 134.681 207.42C133.974 207.927 133.034 208.18 131.861 208.18ZM141.489 208.18C140.729 208.18 140.009 208.073 139.329 207.86C138.649 207.647 138.089 207.347 137.649 206.96L138.169 205.82C138.649 206.207 139.176 206.493 139.749 206.68C140.336 206.853 140.929 206.94 141.529 206.94C142.289 206.94 142.863 206.8 143.249 206.52C143.636 206.24 143.829 205.86 143.829 205.38C143.829 205.007 143.703 204.713 143.449 204.5C143.196 204.273 142.796 204.1 142.249 203.98L140.429 203.58C138.776 203.22 137.949 202.367 137.949 201.02C137.949 200.14 138.296 199.433 138.989 198.9C139.696 198.367 140.616 198.1 141.749 198.1C142.416 198.1 143.049 198.207 143.649 198.42C144.263 198.62 144.769 198.92 145.169 199.32L144.629 200.46C144.243 200.1 143.789 199.827 143.269 199.64C142.763 199.44 142.256 199.34 141.749 199.34C141.003 199.34 140.436 199.487 140.049 199.78C139.663 200.073 139.469 200.46 139.469 200.94C139.469 201.687 139.963 202.167 140.949 202.38L142.769 202.76C143.623 202.947 144.269 203.247 144.709 203.66C145.149 204.06 145.369 204.607 145.369 205.3C145.369 206.193 145.016 206.9 144.309 207.42C143.603 207.927 142.663 208.18 141.489 208.18ZM153.195 208V193.9H154.835V206.56H162.015V208H153.195ZM167.777 208.18C166.83 208.18 166.01 207.973 165.317 207.56C164.623 207.147 164.083 206.567 163.697 205.82C163.323 205.06 163.137 204.167 163.137 203.14C163.137 202.113 163.323 201.227 163.697 200.48C164.083 199.72 164.623 199.133 165.317 198.72C166.01 198.307 166.83 198.1 167.777 198.1C168.71 198.1 169.523 198.307 170.217 198.72C170.923 199.133 171.463 199.72 171.837 200.48C172.223 201.227 172.417 202.113 172.417 203.14C172.417 204.167 172.223 205.06 171.837 205.82C171.463 206.567 170.923 207.147 170.217 207.56C169.523 207.973 168.71 208.18 167.777 208.18ZM167.777 206.88C168.683 206.88 169.41 206.56 169.957 205.92C170.503 205.267 170.777 204.34 170.777 203.14C170.777 201.927 170.503 201 169.957 200.36C169.41 199.72 168.683 199.4 167.777 199.4C166.857 199.4 166.123 199.72 165.577 200.36C165.043 201 164.777 201.927 164.777 203.14C164.777 204.34 165.043 205.267 165.577 205.92C166.123 206.56 166.857 206.88 167.777 206.88ZM179.15 211.78C178.31 211.78 177.517 211.667 176.77 211.44C176.037 211.227 175.383 210.9 174.81 210.46L175.35 209.28C175.95 209.707 176.543 210.013 177.13 210.2C177.73 210.387 178.377 210.48 179.07 210.48C180.99 210.48 181.95 209.493 181.95 207.52V205.8C181.67 206.413 181.23 206.9 180.63 207.26C180.043 207.607 179.37 207.78 178.61 207.78C177.717 207.78 176.943 207.573 176.29 207.16C175.637 206.747 175.13 206.18 174.77 205.46C174.423 204.727 174.25 203.88 174.25 202.92C174.25 201.96 174.423 201.12 174.77 200.4C175.13 199.667 175.637 199.1 176.29 198.7C176.943 198.3 177.717 198.1 178.61 198.1C179.37 198.1 180.043 198.273 180.63 198.62C181.23 198.967 181.67 199.44 181.95 200.04V198.28H183.53V207.3C183.53 208.793 183.157 209.913 182.41 210.66C181.677 211.407 180.59 211.78 179.15 211.78ZM178.91 206.46C179.843 206.46 180.583 206.14 181.13 205.5C181.677 204.86 181.95 204 181.95 202.92C181.95 201.84 181.677 200.987 181.13 200.36C180.583 199.72 179.843 199.4 178.91 199.4C177.99 199.4 177.257 199.72 176.71 200.36C176.163 200.987 175.89 201.84 175.89 202.92C175.89 204 176.163 204.86 176.71 205.5C177.257 206.14 177.99 206.46 178.91 206.46ZM186.369 195.86V194.04H188.369V195.86H186.369ZM186.569 208V198.28H188.189V208H186.569ZM195.337 208.18C194.364 208.18 193.524 207.973 192.817 207.56C192.111 207.133 191.564 206.54 191.177 205.78C190.804 205.007 190.617 204.107 190.617 203.08C190.617 201.533 191.037 200.32 191.877 199.44C192.717 198.547 193.871 198.1 195.337 198.1C195.937 198.1 196.531 198.207 197.117 198.42C197.704 198.633 198.191 198.933 198.577 199.32L198.017 200.5C197.631 200.127 197.204 199.853 196.737 199.68C196.284 199.507 195.851 199.42 195.437 199.42C194.424 199.42 193.644 199.74 193.097 200.38C192.551 201.007 192.277 201.913 192.277 203.1C192.277 204.26 192.551 205.18 193.097 205.86C193.644 206.527 194.424 206.86 195.437 206.86C195.851 206.86 196.284 206.773 196.737 206.6C197.204 206.427 197.631 206.147 198.017 205.76L198.577 206.94C198.191 207.327 197.697 207.633 197.097 207.86C196.511 208.073 195.924 208.18 195.337 208.18Z" fill="#FFFEE8"/>
</g>
<g filter="url(#filter2_d_777_1554)">
<path d="M182.286 137.429V119.143C182.286 116.718 181.322 114.393 179.608 112.678C177.893 110.963 175.568 110 173.143 110H136.571V91.7143H177.714C180.139 91.7143 182.465 90.751 184.179 89.0364C185.894 87.3218 186.857 84.9963 186.857 82.5714V55.1429C186.857 52.718 185.894 50.3925 184.179 48.6779C182.465 46.9633 180.139 46 177.714 46H86.2857C83.8609 46 81.5354 46.9633 79.8207 48.6779C78.1061 50.3925 77.1429 52.718 77.1429 55.1429V82.5714C77.1429 84.9963 78.1061 87.3218 79.8207 89.0364C81.5354 90.751 83.8609 91.7143 86.2857 91.7143H127.429V110H90.8571C88.4323 110 86.1068 110.963 84.3922 112.678C82.6775 114.393 81.7143 116.718 81.7143 119.143V137.429H77.1429C74.718 137.429 72.3925 138.392 70.6779 140.106C68.9633 141.821 68 144.147 68 146.571V164.857C68 167.282 68.9633 169.608 70.6779 171.322C72.3925 173.037 74.718 174 77.1429 174H95.4286C97.8534 174 100.179 173.037 101.894 171.322C103.608 169.608 104.571 167.282 104.571 164.857V146.571C104.571 144.147 103.608 141.821 101.894 140.106C100.179 138.392 97.8534 137.429 95.4286 137.429H90.8571V119.143H127.429V137.429H122.857C120.432 137.429 118.107 138.392 116.392 140.106C114.678 141.821 113.714 144.147 113.714 146.571V164.857C113.714 167.282 114.678 169.608 116.392 171.322C118.107 173.037 120.432 174 122.857 174H141.143C143.568 174 145.893 173.037 147.608 171.322C149.322 169.608 150.286 167.282 150.286 164.857V146.571C150.286 144.147 149.322 141.821 147.608 140.106C145.893 138.392 143.568 137.429 141.143 137.429H136.571V119.143H173.143V137.429H168.571C166.147 137.429 163.821 138.392 162.106 140.106C160.392 141.821 159.429 144.147 159.429 146.571V164.857C159.429 167.282 160.392 169.608 162.106 171.322C163.821 173.037 166.147 174 168.571 174H186.857C189.282 174 191.608 173.037 193.322 171.322C195.037 169.608 196 167.282 196 164.857V146.571C196 144.147 195.037 141.821 193.322 140.106C191.608 138.392 189.282 137.429 186.857 137.429H182.286ZM95.4286 164.857H77.1429V146.571H95.4286V164.857ZM141.143 146.571V164.857H122.857V146.571H141.143ZM86.2857 82.5714V55.1429H177.714V82.5714H86.2857ZM186.857 164.857H168.571V146.571H186.857V164.857Z" fill="#E8FFFB"/>
</g>
<defs>
<filter id="filter0_d_777_1554" x="0" y="17.4166" width="266" height="231.167" filterUnits="userSpaceOnUse" color-interpolation-filters="sRGB">
<feFlood flood-opacity="0" result="BackgroundImageFix"/>
<feColorMatrix in="SourceAlpha" type="matrix" values="0 0 0 0 0 0 0 0 0 0 0 0 0 0 0 0 0 0 127 0" result="hardAlpha"/>
<feOffset dy="3"/>
<feGaussianBlur stdDeviation="1.5"/>
<feComposite in2="hardAlpha" operator="out"/>
<feColorMatrix type="matrix" values="0 0 0 0 0 0 0 0 0 0 0 0 0 0 0 0 0 0 0.25 0"/>
<feBlend mode="normal" in2="BackgroundImageFix" result="effect1_dropShadow_777_1554"/>
<feBlend mode="normal" in="SourceGraphic" in2="effect1_dropShadow_777_1554" result="shape"/>
</filter>
<filter id="filter1_d_777_1554" x="52.7849" y="178.9" width="160.792" height="47.88" filterUnits="userSpaceOnUse" color-interpolation-filters="sRGB">
<feFlood flood-opacity="0" result="BackgroundImageFix"/>
<feColorMatrix in="SourceAlpha" type="matrix" values="0 0 0 0 0 0 0 0 0 0 0 0 0 0 0 0 0 0 127 0" result="hardAlpha"/>
<feOffset/>
<feGaussianBlur stdDeviation="7.5"/>
<feComposite in2="hardAlpha" operator="out"/>
<feColorMatrix type="matrix" values="0 0 0 0 1 0 0 0 0 0.996078 0 0 0 0 0.909804 0 0 0 0.5 0"/>
<feBlend mode="normal" in2="BackgroundImageFix" result="effect1_dropShadow_777_1554"/>
<feBlend mode="normal" in="SourceGraphic" in2="effect1_dropShadow_777_1554" result="shape"/>
</filter>
<filter id="filter2_d_777_1554" x="53" y="31" width="158" height="158" filterUnits="userSpaceOnUse" color-interpolation-filters="sRGB">
<feFlood flood-opacity="0" result="BackgroundImageFix"/>
<feColorMatrix in="SourceAlpha" type="matrix" values="0 0 0 0 0 0 0 0 0 0 0 0 0 0 0 0 0 0 127 0" result="hardAlpha"/>
<feOffset/>
<feGaussianBlur stdDeviation="7.5"/>
<feComposite in2="hardAlpha" operator="out"/>
<feColorMatrix type="matrix" values="0 0 0 0 1 0 0 0 0 0.996078 0 0 0 0 0.909804 0 0 0 0.5 0"/>
<feBlend mode="normal" in2="BackgroundImageFix" result="effect1_dropShadow_777_1554"/>
<feBlend mode="normal" in="SourceGraphic" in2="effect1_dropShadow_777_1554" result="shape"/>
</filter>
</defs>
</svg>
