<svg width="139" height="133" viewBox="0 0 139 133" fill="none" xmlns="http://www.w3.org/2000/svg">
<g filter="url(#filter0_d_777_1513)">
<path d="M136 66.5L102.75 124.091L36.25 124.091L3 66.5L36.25 8.9093L102.75 8.90931L136 66.5Z" fill="#85576C" fill-opacity="0.5" shape-rendering="crispEdges"/>
<path d="M101.307 11.4093L133.113 66.5L101.307 121.591L37.6934 121.591L5.88676 66.5L37.6934 11.4093L101.307 11.4093Z" stroke="white" stroke-width="5" stroke-miterlimit="1.36733" stroke-linecap="round" shape-rendering="crispEdges"/>
</g>
<g filter="url(#filter1_d_777_1513)">
<path d="M53.2541 101.144C51.7714 101.144 50.6461 100.755 49.8781 99.976C49.1101 99.1867 48.7261 98.04 48.7261 96.536V89.72H50.0381V96.472C50.0381 98.808 51.1101 99.976 53.2541 99.976C55.3767 99.976 56.4381 98.808 56.4381 96.472V89.72H57.7501V96.536C57.7501 98.04 57.3661 99.1867 56.5981 99.976C55.8407 100.755 54.7261 101.144 53.2541 101.144ZM60.4467 101V89.72H61.7587V101H60.4467ZM63.8684 102.008L62.8444 101.704L66.9404 88.968L67.9804 89.272L63.8684 102.008ZM73.5197 101.144C72.037 101.144 70.9117 100.755 70.1437 99.976C69.3757 99.1867 68.9917 98.04 68.9917 96.536V89.72H70.3037V96.472C70.3037 98.808 71.3757 99.976 73.5197 99.976C75.6424 99.976 76.7037 98.808 76.7037 96.472V89.72H78.0157V96.536C78.0157 98.04 77.6317 99.1867 76.8637 99.976C76.1064 100.755 74.9917 101.144 73.5197 101.144ZM79.3397 101L83.6277 95.24L79.5477 89.72H81.0837L84.3957 94.248L87.6757 89.72H89.2277L85.1317 95.24L89.4197 101H87.8677L84.3797 96.232L80.9077 101H79.3397Z" fill="#FFFEE8"/>
</g>
<g filter="url(#filter2_d_777_1513)">
<path d="M65 69.8918C63.6133 69.738 62.2494 69.4225 60.936 68.9518C60.976 68.0078 61 67.0238 61 65.9998V64.6518C62.24 65.2438 63.588 65.6558 65 65.8598V55.9997C65 54.4084 65.6321 52.8822 66.7574 51.757C67.8826 50.6318 69.4087 49.9996 71 49.9996H80.86C80.541 47.7832 79.695 45.6755 78.393 43.8537C77.0909 42.0318 75.3709 40.5488 73.3772 39.5292C71.3835 38.5096 69.1743 37.9832 66.935 37.994C64.6957 38.0048 62.4917 38.5527 60.508 39.5915C60.1916 38.2832 59.6705 37.0332 58.964 35.8875C61.5571 34.5932 64.4243 33.9441 67.322 33.9956C70.2197 34.047 73.0622 34.7973 75.6077 36.1828C78.1532 37.5683 80.3266 39.5479 81.943 41.9535C83.5594 44.359 84.5711 47.1193 84.892 49.9996H91C92.5913 49.9996 94.1174 50.6318 95.2426 51.757C96.3679 52.8822 97 54.4084 97 55.9997V75.9999C97 77.5912 96.3679 79.1174 95.2426 80.2426C94.1174 81.3678 92.5913 82 91 82H71C69.4087 82 67.8826 81.3678 66.7574 80.2426C65.6321 79.1174 65 77.5912 65 75.9999V69.8918ZM84.892 53.9997C84.4375 58.0581 82.6171 61.8415 79.7294 64.7292C76.8418 67.6169 73.0584 69.4373 69 69.8918V75.9999C69 76.5303 69.2107 77.0391 69.5858 77.4141C69.9609 77.7892 70.4696 77.9999 71 77.9999H91C91.5304 77.9999 92.0391 77.7892 92.4142 77.4141C92.7893 77.0391 93 76.5303 93 75.9999V55.9997C93 55.4693 92.7893 54.9605 92.4142 54.5855C92.0391 54.2104 91.5304 53.9997 91 53.9997H84.892ZM80.86 53.9997H71C70.4696 53.9997 69.9609 54.2104 69.5858 54.5855C69.2107 54.9605 69 55.4693 69 55.9997V65.8598C71.9919 65.4273 74.7636 64.0386 76.9012 61.901C79.0388 59.7634 80.4275 56.9916 80.86 53.9997ZM56.18 56.2437C55.76 54.6997 55.08 53.1517 53.912 51.9637C55.8 50.1756 57 47.3276 57 43.9996C57 41.2115 56.436 39.2955 55.416 37.7635C54.9634 37.1046 54.4403 36.497 53.856 35.9515C53.6321 35.7353 53.4054 35.5219 53.176 35.3115C52.932 35.0835 52.708 34.8755 52.416 34.5835C51.816 33.9835 51.748 33.5035 51.748 33.2515C51.7487 33.1114 51.7716 32.9723 51.816 32.8395C51.9989 32.444 52.0476 31.9995 51.9547 31.5738C51.8619 31.1481 51.6325 30.7643 51.3016 30.4809C50.9706 30.1975 50.5562 30.0299 50.1212 30.0036C49.6863 29.9774 49.2547 30.0939 48.892 30.3354L48.884 30.3394L48.872 30.3474L48.836 30.3714L48.716 30.4514C48.116 30.8794 47.5379 31.3373 46.984 31.8234C45.984 32.7075 44.68 34.0155 43.756 35.5755C42.9494 36.8688 42.302 38.2549 41.828 39.7035C41.348 41.1395 41 42.6956 41 43.9996C41 47.3276 42.2 50.1716 44.088 51.9677C42.92 53.1517 42.24 54.6997 41.82 56.2477C41 59.2557 41 62.9758 41 65.8518V65.9998C41 74.2319 42.54 79.1199 44.284 82.028C45.16 83.484 46.072 84.424 46.836 85.016C47.2431 85.3335 47.6861 85.602 48.156 85.816C48.4277 85.9152 48.7116 85.9771 49 86C49.336 86 49.844 85.816 49.844 85.816C50.3139 85.602 50.7569 85.3335 51.164 85.016C51.924 84.424 52.844 83.484 53.716 82.028C55.46 79.1239 57 74.2319 57 65.9998V65.8558C57 62.9758 57 59.2597 56.18 56.2437ZM46.948 54.7637C47.4 54.3077 48.004 53.9997 49 53.9997C50 53.9997 50.6 54.3117 51.052 54.7597C51.556 55.2677 51.992 56.0917 52.32 57.2957C52.984 59.7397 53 62.9478 53 65.9998C53 73.7679 51.54 77.8799 50.284 79.9719C49.804 80.7719 49.352 81.288 49 81.612C48.4971 81.1283 48.0648 80.5762 47.716 79.9719C46.46 77.8759 45 73.7679 45 65.9998C45 62.9478 45.016 59.7397 45.68 57.2957C46.008 56.0957 46.444 55.2717 46.948 54.7637ZM49 49.9996C47.46 49.9996 45 48.2876 45 43.9996C45 43.3076 45.208 42.2116 45.624 40.9715C46.0031 39.8009 46.5257 38.6817 47.18 37.6395C47.528 37.0515 47.98 36.4795 48.468 35.9555C48.744 36.4435 49.108 36.9355 49.588 37.4155C49.88 37.7075 50.26 38.0595 50.584 38.3635L51.08 38.8275C51.5 39.2355 51.824 39.5915 52.084 39.9875C52.564 40.7035 53 41.7875 53 43.9996C53 48.2876 50.54 49.9996 49 49.9996Z" fill="#E8FFFB"/>
</g>
<defs>
<filter id="filter0_d_777_1513" x="0" y="8.9093" width="139" height="121.181" filterUnits="userSpaceOnUse" color-interpolation-filters="sRGB">
<feFlood flood-opacity="0" result="BackgroundImageFix"/>
<feColorMatrix in="SourceAlpha" type="matrix" values="0 0 0 0 0 0 0 0 0 0 0 0 0 0 0 0 0 0 127 0" result="hardAlpha"/>
<feOffset dy="3"/>
<feGaussianBlur stdDeviation="1.5"/>
<feComposite in2="hardAlpha" operator="out"/>
<feColorMatrix type="matrix" values="0 0 0 0 0 0 0 0 0 0 0 0 0 0 0 0 0 0 0.25 0"/>
<feBlend mode="normal" in2="BackgroundImageFix" result="effect1_dropShadow_777_1513"/>
<feBlend mode="normal" in="SourceGraphic" in2="effect1_dropShadow_777_1513" result="shape"/>
</filter>
<filter id="filter1_d_777_1513" x="33.7261" y="73.968" width="70.6936" height="43.04" filterUnits="userSpaceOnUse" color-interpolation-filters="sRGB">
<feFlood flood-opacity="0" result="BackgroundImageFix"/>
<feColorMatrix in="SourceAlpha" type="matrix" values="0 0 0 0 0 0 0 0 0 0 0 0 0 0 0 0 0 0 127 0" result="hardAlpha"/>
<feOffset/>
<feGaussianBlur stdDeviation="7.5"/>
<feComposite in2="hardAlpha" operator="out"/>
<feColorMatrix type="matrix" values="0 0 0 0 1 0 0 0 0 0.996078 0 0 0 0 0.909804 0 0 0 0.5 0"/>
<feBlend mode="normal" in2="BackgroundImageFix" result="effect1_dropShadow_777_1513"/>
<feBlend mode="normal" in="SourceGraphic" in2="effect1_dropShadow_777_1513" result="shape"/>
</filter>
<filter id="filter2_d_777_1513" x="26" y="15" width="86" height="86" filterUnits="userSpaceOnUse" color-interpolation-filters="sRGB">
<feFlood flood-opacity="0" result="BackgroundImageFix"/>
<feColorMatrix in="SourceAlpha" type="matrix" values="0 0 0 0 0 0 0 0 0 0 0 0 0 0 0 0 0 0 127 0" result="hardAlpha"/>
<feOffset/>
<feGaussianBlur stdDeviation="7.5"/>
<feComposite in2="hardAlpha" operator="out"/>
<feColorMatrix type="matrix" values="0 0 0 0 1 0 0 0 0 0.996078 0 0 0 0 0.909804 0 0 0 0.5 0"/>
<feBlend mode="normal" in2="BackgroundImageFix" result="effect1_dropShadow_777_1513"/>
<feBlend mode="normal" in="SourceGraphic" in2="effect1_dropShadow_777_1513" result="shape"/>
</filter>
</defs>
</svg>
