<svg width="206" height="200" viewBox="0 0 206 200" fill="none" xmlns="http://www.w3.org/2000/svg">
<g filter="url(#filter0_d_777_1716)">
<path d="M203 100L153 186.603L53 186.603L3 100L53 13.3975L153 13.3975L203 100Z" fill="#85576C" fill-opacity="0.5" shape-rendering="crispEdges"/>
<path d="M151.557 15.8975L200.113 100L151.557 184.103L54.4434 184.103L5.88676 100L54.4434 15.8975L151.557 15.8975Z" stroke="white" stroke-width="5" stroke-miterlimit="1.36733" stroke-linecap="round" shape-rendering="crispEdges"/>
</g>
<g filter="url(#filter1_d_777_1716)">
<path d="M66.2523 159V146.31H70.5363C72.5883 146.31 74.1723 146.856 75.2883 147.948C76.4043 149.028 76.9623 150.594 76.9623 152.646C76.9623 154.698 76.4043 156.27 75.2883 157.362C74.1723 158.454 72.5883 159 70.5363 159H66.2523ZM67.7283 157.74H70.4283C73.7403 157.74 75.3963 156.042 75.3963 152.646C75.3963 149.262 73.7403 147.57 70.4283 147.57H67.7283V157.74ZM82.1677 159.162C81.5677 159.162 81.0277 159.048 80.5477 158.82C80.0797 158.58 79.7077 158.256 79.4317 157.848C79.1557 157.44 79.0177 156.984 79.0177 156.48C79.0177 155.844 79.1797 155.34 79.5037 154.968C79.8397 154.596 80.3857 154.332 81.1417 154.176C81.9097 154.008 82.9537 153.924 84.2737 153.924H84.8497V153.366C84.8497 152.622 84.6937 152.088 84.3817 151.764C84.0817 151.428 83.5957 151.26 82.9237 151.26C82.3957 151.26 81.8857 151.338 81.3937 151.494C80.9017 151.638 80.3977 151.878 79.8817 152.214L79.3777 151.152C79.8337 150.828 80.3857 150.57 81.0337 150.378C81.6937 150.186 82.3237 150.09 82.9237 150.09C84.0517 150.09 84.8857 150.366 85.4257 150.918C85.9777 151.47 86.2537 152.328 86.2537 153.492V159H84.8857V157.488C84.6577 158.004 84.3037 158.412 83.8237 158.712C83.3557 159.012 82.8037 159.162 82.1677 159.162ZM82.4017 158.064C83.1217 158.064 83.7097 157.818 84.1657 157.326C84.6217 156.822 84.8497 156.186 84.8497 155.418V154.878H84.2917C83.3197 154.878 82.5517 154.926 81.9877 155.022C81.4357 155.106 81.0457 155.262 80.8177 155.49C80.6017 155.706 80.4937 156.006 80.4937 156.39C80.4937 156.882 80.6617 157.284 80.9977 157.596C81.3457 157.908 81.8137 158.064 82.4017 158.064ZM92.4686 159.162C91.4366 159.162 90.6626 158.892 90.1466 158.352C89.6306 157.8 89.3726 157.008 89.3726 155.976V151.386H87.6626V150.252H89.3726V147.57H90.8306V150.252H93.6026V151.386H90.8306V155.832C90.8306 156.516 90.9746 157.038 91.2626 157.398C91.5506 157.746 92.0186 157.92 92.6666 157.92C92.8586 157.92 93.0506 157.896 93.2426 157.848C93.4346 157.8 93.6086 157.752 93.7646 157.704L94.0166 158.82C93.8606 158.904 93.6326 158.982 93.3326 159.054C93.0326 159.126 92.7446 159.162 92.4686 159.162ZM98.0056 159.162C97.4056 159.162 96.8656 159.048 96.3856 158.82C95.9176 158.58 95.5456 158.256 95.2696 157.848C94.9936 157.44 94.8556 156.984 94.8556 156.48C94.8556 155.844 95.0176 155.34 95.3416 154.968C95.6776 154.596 96.2236 154.332 96.9796 154.176C97.7476 154.008 98.7916 153.924 100.112 153.924H100.688V153.366C100.688 152.622 100.532 152.088 100.22 151.764C99.9196 151.428 99.4336 151.26 98.7616 151.26C98.2336 151.26 97.7236 151.338 97.2316 151.494C96.7396 151.638 96.2356 151.878 95.7196 152.214L95.2156 151.152C95.6716 150.828 96.2236 150.57 96.8716 150.378C97.5316 150.186 98.1616 150.09 98.7616 150.09C99.8896 150.09 100.724 150.366 101.264 150.918C101.816 151.47 102.092 152.328 102.092 153.492V159H100.724V157.488C100.496 158.004 100.142 158.412 99.6616 158.712C99.1936 159.012 98.6416 159.162 98.0056 159.162ZM98.2396 158.064C98.9596 158.064 99.5476 157.818 100.004 157.326C100.46 156.822 100.688 156.186 100.688 155.418V154.878H100.13C99.1576 154.878 98.3896 154.926 97.8256 155.022C97.2736 155.106 96.8836 155.262 96.6556 155.49C96.4396 155.706 96.3316 156.006 96.3316 156.39C96.3316 156.882 96.4996 157.284 96.8356 157.596C97.1836 157.908 97.6516 158.064 98.2396 158.064ZM109.225 159.162C108.529 159.162 107.917 159.006 107.389 158.694C106.873 158.382 106.483 157.956 106.219 157.416V159H104.797V146.31H106.255V151.764C106.507 151.248 106.897 150.84 107.425 150.54C107.953 150.24 108.553 150.09 109.225 150.09C110.005 150.09 110.683 150.276 111.259 150.648C111.847 151.008 112.297 151.53 112.609 152.214C112.933 152.886 113.095 153.69 113.095 154.626C113.095 155.55 112.933 156.354 112.609 157.038C112.297 157.71 111.847 158.232 111.259 158.604C110.683 158.976 110.005 159.162 109.225 159.162ZM108.919 157.992C109.735 157.992 110.389 157.704 110.881 157.128C111.373 156.54 111.619 155.706 111.619 154.626C111.619 153.534 111.373 152.7 110.881 152.124C110.389 151.548 109.735 151.26 108.919 151.26C108.103 151.26 107.449 151.548 106.957 152.124C106.465 152.7 106.219 153.534 106.219 154.626C106.219 155.706 106.465 156.54 106.957 157.128C107.449 157.704 108.103 157.992 108.919 157.992ZM118.045 159.162C117.445 159.162 116.905 159.048 116.425 158.82C115.957 158.58 115.585 158.256 115.309 157.848C115.033 157.44 114.895 156.984 114.895 156.48C114.895 155.844 115.057 155.34 115.381 154.968C115.717 154.596 116.263 154.332 117.019 154.176C117.787 154.008 118.831 153.924 120.151 153.924H120.727V153.366C120.727 152.622 120.571 152.088 120.259 151.764C119.959 151.428 119.473 151.26 118.801 151.26C118.273 151.26 117.763 151.338 117.271 151.494C116.779 151.638 116.275 151.878 115.759 152.214L115.255 151.152C115.711 150.828 116.263 150.57 116.911 150.378C117.571 150.186 118.201 150.09 118.801 150.09C119.929 150.09 120.763 150.366 121.303 150.918C121.855 151.47 122.131 152.328 122.131 153.492V159H120.763V157.488C120.535 158.004 120.181 158.412 119.701 158.712C119.233 159.012 118.681 159.162 118.045 159.162ZM118.279 158.064C118.999 158.064 119.587 157.818 120.043 157.326C120.499 156.822 120.727 156.186 120.727 155.418V154.878H120.169C119.197 154.878 118.429 154.926 117.865 155.022C117.313 155.106 116.923 155.262 116.695 155.49C116.479 155.706 116.371 156.006 116.371 156.39C116.371 156.882 116.539 157.284 116.875 157.596C117.223 157.908 117.691 158.064 118.279 158.064ZM127.788 159.162C127.104 159.162 126.456 159.066 125.844 158.874C125.232 158.682 124.728 158.412 124.332 158.064L124.8 157.038C125.232 157.386 125.706 157.644 126.222 157.812C126.75 157.968 127.284 158.046 127.824 158.046C128.508 158.046 129.024 157.92 129.372 157.668C129.72 157.416 129.894 157.074 129.894 156.642C129.894 156.306 129.78 156.042 129.552 155.85C129.324 155.646 128.964 155.49 128.472 155.382L126.834 155.022C125.346 154.698 124.602 153.93 124.602 152.718C124.602 151.926 124.914 151.29 125.538 150.81C126.174 150.33 127.002 150.09 128.022 150.09C128.622 150.09 129.192 150.186 129.732 150.378C130.284 150.558 130.74 150.828 131.1 151.188L130.614 152.214C130.266 151.89 129.858 151.644 129.39 151.476C128.934 151.296 128.478 151.206 128.022 151.206C127.35 151.206 126.84 151.338 126.492 151.602C126.144 151.866 125.97 152.214 125.97 152.646C125.97 153.318 126.414 153.75 127.302 153.942L128.94 154.284C129.708 154.452 130.29 154.722 130.686 155.094C131.082 155.454 131.28 155.946 131.28 156.57C131.28 157.374 130.962 158.01 130.326 158.478C129.69 158.934 128.844 159.162 127.788 159.162ZM137.444 159.162C136.064 159.162 134.972 158.76 134.168 157.956C133.364 157.14 132.962 156.036 132.962 154.644C132.962 153.744 133.142 152.952 133.502 152.268C133.862 151.572 134.354 151.038 134.978 150.666C135.614 150.282 136.346 150.09 137.174 150.09C138.362 150.09 139.292 150.474 139.964 151.242C140.636 151.998 140.972 153.042 140.972 154.374V154.932H134.384C134.432 155.928 134.72 156.69 135.248 157.218C135.776 157.734 136.508 157.992 137.444 157.992C137.972 157.992 138.476 157.914 138.956 157.758C139.436 157.59 139.892 157.32 140.324 156.948L140.828 157.974C140.432 158.346 139.928 158.64 139.316 158.856C138.704 159.06 138.08 159.162 137.444 159.162ZM137.21 151.17C136.382 151.17 135.728 151.428 135.248 151.944C134.768 152.46 134.486 153.138 134.402 153.978H139.712C139.676 153.09 139.442 152.4 139.01 151.908C138.59 151.416 137.99 151.17 137.21 151.17Z" fill="#E8FFFB"/>
</g>
<g filter="url(#filter2_d_777_1716)">
<path d="M103 130C88.976 130 77.47 128.214 68.482 124.642C59.494 121.066 55 116.466 55 110.842V52C55 47.016 59.68 42.77 69.04 39.262C78.392 35.754 89.712 34 103 34C116.288 34 127.608 35.754 136.96 39.262C146.32 42.77 151 47.016 151 52V110.848C151 116.468 146.506 121.066 137.518 124.642C128.53 128.214 117.024 130 103 130ZM103 63.34C111.592 63.34 120.252 62.142 128.98 59.746C137.712 57.35 142.936 54.742 144.652 51.922C143.012 48.942 137.872 46.21 129.232 43.726C120.592 41.242 111.848 40 103 40C94.284 40 85.552 41.198 76.804 43.594C68.052 45.994 62.822 48.614 61.114 51.454C62.746 54.454 67.898 57.186 76.57 59.65C85.242 62.11 94.052 63.34 103 63.34ZM103 93.538C107.12 93.538 111.17 93.338 115.15 92.938C119.13 92.538 122.932 91.944 126.556 91.156C130.184 90.368 133.554 89.386 136.666 88.21C139.774 87.03 142.552 85.702 145 84.226V59.65C142.552 61.13 139.772 62.456 136.66 63.628C133.552 64.808 130.184 65.792 126.556 66.58C122.928 67.368 119.126 67.962 115.15 68.362C111.174 68.762 107.124 68.962 103 68.962C98.72 68.962 94.562 68.742 90.526 68.302C86.486 67.862 82.672 67.25 79.084 66.466C75.496 65.674 72.172 64.71 69.112 63.574C66.052 62.434 63.348 61.126 61 59.65V84.226C63.348 85.706 66.052 87.014 69.112 88.15C72.172 89.286 75.496 90.25 79.084 91.042C82.676 91.83 86.49 92.442 90.526 92.878C94.566 93.318 98.724 93.538 103 93.538ZM103 124C108.14 124 113.026 123.708 117.658 123.124C122.29 122.54 126.454 121.71 130.15 120.634C133.842 119.562 136.982 118.282 139.57 116.794C142.15 115.306 143.96 113.696 145 111.964V90.226C142.552 91.706 139.772 93.034 136.66 94.21C133.552 95.386 130.184 96.368 126.556 97.156C122.928 97.944 119.126 98.538 115.15 98.938C111.174 99.338 107.124 99.538 103 99.538C98.72 99.538 94.562 99.318 90.526 98.878C86.486 98.438 82.672 97.826 79.084 97.042C75.496 96.254 72.172 95.29 69.112 94.15C66.052 93.01 63.348 91.702 61 90.226V112C62.04 113.808 63.846 115.432 66.418 116.872C68.99 118.312 72.122 119.566 75.814 120.634C79.506 121.71 83.676 122.54 88.324 123.124C92.968 123.708 97.86 124 103 124Z" fill="#E8FFFB"/>
<path d="M68.2419 125.246L68.2417 125.246C59.2009 121.649 54.35 116.893 54.35 110.842V52C54.35 49.278 55.6363 46.8071 58.0732 44.5961C60.4991 42.3952 64.0944 40.4214 68.8117 38.6534L68.2419 125.246ZM68.2419 125.246C77.3325 128.859 88.9276 130.65 103 130.65C117.072 130.65 128.667 128.859 137.758 125.246L137.758 125.246M68.2419 125.246L137.758 125.246M137.758 125.246C146.799 121.649 151.65 116.895 151.65 110.848V52C151.65 49.278 150.364 46.8071 147.927 44.5961C145.501 42.3952 141.905 40.4213 137.188 38.6533C127.743 35.1106 116.342 33.35 103 33.35C89.6584 33.35 78.2565 35.1106 68.8119 38.6533L137.758 125.246ZM76.9757 44.2209C85.67 41.8396 94.3443 40.65 103 40.65C111.786 40.65 120.47 41.8832 129.052 44.3507C133.35 45.5862 136.747 46.8754 139.262 48.212C141.581 49.4445 143.087 50.6852 143.884 51.9049C143.055 53.0561 141.513 54.235 139.157 55.4114C136.597 56.6892 133.153 57.927 128.808 59.1192L128.808 59.1192C120.133 61.5006 111.531 62.69 103 62.69C94.1125 62.69 85.3623 61.4684 76.7477 59.0247C72.4346 57.7993 69.0266 56.5151 66.5065 55.1787C64.1795 53.9448 62.6723 52.6989 61.8798 51.4709C62.7049 50.3105 64.2466 49.1234 66.6086 47.9402C69.1707 46.6567 72.621 45.4151 76.9757 44.2209ZM76.9757 44.2209L76.804 43.594L76.9757 44.2209ZM126.418 90.5208L126.418 90.5208C130.018 89.7389 133.357 88.7657 136.435 87.6023L126.418 90.5208ZM126.418 90.5208C122.82 91.3032 119.042 91.8935 115.085 92.2913C111.127 92.689 107.099 92.888 103 92.888C98.7463 92.888 94.6118 92.6691 90.5964 92.2318L90.5958 92.2318C86.5808 91.798 82.7901 91.1896 79.2233 90.4071C75.6613 89.6208 72.3667 88.6649 69.3382 87.5406C66.445 86.4666 63.8835 85.2405 61.65 83.8651V60.8042C63.7991 62.0615 66.2117 63.1871 68.8851 64.1831L68.8858 64.1834C71.9771 65.331 75.3302 66.3031 78.9439 67.1007L78.9452 67.101M126.418 90.5208L78.9452 67.101M78.9452 67.101C82.5581 67.8904 86.395 68.5059 90.4556 68.9482C94.5162 69.3909 98.6977 69.612 103 69.612C107.145 69.612 111.217 69.411 115.215 69.0087C119.214 68.6065 123.04 68.0088 126.694 67.2152C130.35 66.4212 133.749 65.4285 136.89 64.236C139.625 63.2061 142.112 62.056 144.35 60.7843V83.857M78.9452 67.101L144.35 83.857M144.35 83.857C142.017 85.2354 139.38 86.4845 136.435 87.6023L144.35 83.857ZM129.969 120.01L129.968 120.01C126.311 121.075 122.182 121.899 117.577 122.479C112.974 123.059 108.116 123.35 103 123.35C97.8845 123.35 93.0197 123.059 88.4051 122.479C83.7841 121.898 79.6487 121.075 75.9959 120.01L75.9946 120.01C72.3368 118.951 69.2535 117.715 66.7355 116.305C64.2994 114.941 62.626 113.439 61.65 111.823V91.3802C63.7991 92.6375 66.2117 93.7631 68.8851 94.7591C71.9769 95.9109 75.3305 96.8831 78.9446 97.6769L78.9452 97.677C82.5581 98.4664 86.395 99.0819 90.4556 99.5242C94.5162 99.9669 98.6977 100.188 103 100.188C107.145 100.188 111.217 99.987 115.215 99.5847C119.214 99.1825 123.04 98.5848 126.694 97.7912C130.35 96.9972 133.749 96.0066 136.89 94.818C139.624 93.7846 142.112 92.6325 144.35 91.3604V111.78C143.372 113.329 141.693 114.819 139.246 116.231C136.713 117.687 133.624 118.948 129.969 120.01Z" stroke="#FFFEE8" stroke-width="1.3"/>
</g>
<defs>
<filter id="filter0_d_777_1716" x="0" y="13.3975" width="206" height="179.205" filterUnits="userSpaceOnUse" color-interpolation-filters="sRGB">
<feFlood flood-opacity="0" result="BackgroundImageFix"/>
<feColorMatrix in="SourceAlpha" type="matrix" values="0 0 0 0 0 0 0 0 0 0 0 0 0 0 0 0 0 0 127 0" result="hardAlpha"/>
<feOffset dy="3"/>
<feGaussianBlur stdDeviation="1.5"/>
<feComposite in2="hardAlpha" operator="out"/>
<feColorMatrix type="matrix" values="0 0 0 0 0 0 0 0 0 0 0 0 0 0 0 0 0 0 0.25 0"/>
<feBlend mode="normal" in2="BackgroundImageFix" result="effect1_dropShadow_777_1716"/>
<feBlend mode="normal" in="SourceGraphic" in2="effect1_dropShadow_777_1716" result="shape"/>
</filter>
<filter id="filter1_d_777_1716" x="51.2523" y="131.31" width="104.719" height="42.8519" filterUnits="userSpaceOnUse" color-interpolation-filters="sRGB">
<feFlood flood-opacity="0" result="BackgroundImageFix"/>
<feColorMatrix in="SourceAlpha" type="matrix" values="0 0 0 0 0 0 0 0 0 0 0 0 0 0 0 0 0 0 127 0" result="hardAlpha"/>
<feOffset/>
<feGaussianBlur stdDeviation="7.5"/>
<feComposite in2="hardAlpha" operator="out"/>
<feColorMatrix type="matrix" values="0 0 0 0 1 0 0 0 0 0.996078 0 0 0 0 0.909804 0 0 0 0.5 0"/>
<feBlend mode="normal" in2="BackgroundImageFix" result="effect1_dropShadow_777_1716"/>
<feBlend mode="normal" in="SourceGraphic" in2="effect1_dropShadow_777_1716" result="shape"/>
</filter>
<filter id="filter2_d_777_1716" x="38.7" y="17.7" width="128.6" height="128.6" filterUnits="userSpaceOnUse" color-interpolation-filters="sRGB">
<feFlood flood-opacity="0" result="BackgroundImageFix"/>
<feColorMatrix in="SourceAlpha" type="matrix" values="0 0 0 0 0 0 0 0 0 0 0 0 0 0 0 0 0 0 127 0" result="hardAlpha"/>
<feOffset/>
<feGaussianBlur stdDeviation="7.5"/>
<feComposite in2="hardAlpha" operator="out"/>
<feColorMatrix type="matrix" values="0 0 0 0 1 0 0 0 0 0.996078 0 0 0 0 0.909804 0 0 0 0.5 0"/>
<feBlend mode="normal" in2="BackgroundImageFix" result="effect1_dropShadow_777_1716"/>
<feBlend mode="normal" in="SourceGraphic" in2="effect1_dropShadow_777_1716" result="shape"/>
</filter>
</defs>
</svg>
