<svg width="140" height="133" viewBox="0 0 140 133" fill="none" xmlns="http://www.w3.org/2000/svg">
<g filter="url(#filter0_d_777_1519)">
<path d="M137 66.5L103.5 124.091L36.5 124.091L3 66.5L36.5 8.9093L103.5 8.90931L137 66.5Z" fill="#85576C" fill-opacity="0.5" shape-rendering="crispEdges"/>
<path d="M102.062 11.4093L134.108 66.5L102.062 121.591L37.938 121.591L5.89219 66.5L37.938 11.4093L102.062 11.4093Z" stroke="white" stroke-width="5" stroke-miterlimit="1.36733" stroke-linecap="round" shape-rendering="crispEdges"/>
</g>
<g filter="url(#filter1_d_777_1519)">
<path d="M40.4311 101V89.72H44.2391C46.0631 89.72 47.4711 90.2053 48.4631 91.176C49.4551 92.136 49.9511 93.528 49.9511 95.352C49.9511 97.176 49.4551 98.5733 48.4631 99.544C47.4711 100.515 46.0631 101 44.2391 101H40.4311ZM41.7431 99.88H44.1431C47.0871 99.88 48.5591 98.3707 48.5591 95.352C48.5591 92.344 47.0871 90.84 44.1431 90.84H41.7431V99.88ZM55.6341 101.144C54.4074 101.144 53.4367 100.787 52.7221 100.072C52.0074 99.3467 51.6501 98.3653 51.6501 97.128C51.6501 96.328 51.8101 95.624 52.1301 95.016C52.4501 94.3973 52.8874 93.9227 53.4421 93.592C54.0074 93.2507 54.6581 93.08 55.3941 93.08C56.4501 93.08 57.2767 93.4213 57.8741 94.104C58.4714 94.776 58.7701 95.704 58.7701 96.888V97.384H52.9141C52.9567 98.2693 53.2127 98.9467 53.6821 99.416C54.1514 99.8747 54.8021 100.104 55.6341 100.104C56.1034 100.104 56.5514 100.035 56.9781 99.896C57.4047 99.7467 57.8101 99.5067 58.1941 99.176L58.6421 100.088C58.2901 100.419 57.8421 100.68 57.2981 100.872C56.7541 101.053 56.1994 101.144 55.6341 101.144ZM55.4261 94.04C54.6901 94.04 54.1087 94.2693 53.6821 94.728C53.2554 95.1867 53.0047 95.7893 52.9301 96.536H57.6501C57.6181 95.7467 57.4101 95.1333 57.0261 94.696C56.6527 94.2587 56.1194 94.04 55.4261 94.04ZM63.0297 101.144C62.2404 101.144 61.643 100.915 61.2377 100.456C60.843 99.9867 60.6457 99.3093 60.6457 98.424V89.72H61.9417V98.328C61.9417 99.4693 62.395 100.04 63.3017 100.04C63.5684 100.04 63.8084 100.008 64.0217 99.944L63.9897 101.032C63.659 101.107 63.339 101.144 63.0297 101.144ZM65.2201 91.288V89.832H66.8201V91.288H65.2201ZM65.3801 101V93.224H66.6761V101H65.3801ZM71.3868 101L68.0428 93.224H69.4508L72.0268 99.528L74.6348 93.224H75.9628L72.6028 101H71.3868ZM80.7278 101.144C79.5011 101.144 78.5305 100.787 77.8158 100.072C77.1011 99.3467 76.7438 98.3653 76.7438 97.128C76.7438 96.328 76.9038 95.624 77.2238 95.016C77.5438 94.3973 77.9811 93.9227 78.5358 93.592C79.1011 93.2507 79.7518 93.08 80.4878 93.08C81.5438 93.08 82.3705 93.4213 82.9678 94.104C83.5651 94.776 83.8638 95.704 83.8638 96.888V97.384H78.0078C78.0505 98.2693 78.3065 98.9467 78.7758 99.416C79.2451 99.8747 79.8958 100.104 80.7278 100.104C81.1971 100.104 81.6451 100.035 82.0718 99.896C82.4985 99.7467 82.9038 99.5067 83.2878 99.176L83.7358 100.088C83.3838 100.419 82.9358 100.68 82.3918 100.872C81.8478 101.053 81.2931 101.144 80.7278 101.144ZM80.5198 94.04C79.7838 94.04 79.2025 94.2693 78.7758 94.728C78.3491 95.1867 78.0985 95.7893 78.0238 96.536H82.7438C82.7118 95.7467 82.5038 95.1333 82.1198 94.696C81.7465 94.2587 81.2131 94.04 80.5198 94.04ZM85.7394 101V93.224H87.0034V94.616C87.4194 93.6773 88.2728 93.16 89.5634 93.064L90.0274 93.016L90.1234 94.136L89.3074 94.232C88.5714 94.296 88.0114 94.5307 87.6274 94.936C87.2434 95.3307 87.0514 95.8747 87.0514 96.568V101H85.7394ZM92.8542 103.88L94.1822 100.872L90.9022 93.224H92.3102L94.8862 99.528L97.4782 93.224H98.8382L94.2142 103.88H92.8542Z" fill="#FFFEE8"/>
</g>
<g filter="url(#filter2_d_777_1519)">
<path d="M70.7585 50.6667C69.9919 50.6667 69.349 50.4107 68.8296 49.8987C68.3101 49.3867 68.0513 48.7538 68.0531 48C68.0531 47.2444 68.3128 46.6107 68.8323 46.0987C69.3517 45.5867 69.9938 45.3316 70.7585 45.3333C71.525 45.3333 72.1679 45.5893 72.6873 46.1013C73.2068 46.6133 73.4656 47.2462 73.4638 48C73.4638 48.7556 73.2041 49.3893 72.6846 49.9013C72.1652 50.4133 71.5232 50.6684 70.7585 50.6667ZM68.0531 41.3333V28H73.4638V41.3333H68.0531ZM57.2319 84C55.744 84 54.4698 83.4773 53.4093 82.432C52.3488 81.3867 51.8195 80.1316 51.8213 78.6667C51.8213 77.2 52.3515 75.944 53.412 74.8987C54.4725 73.8533 55.7458 73.3316 57.2319 73.3333C58.7198 73.3333 59.994 73.856 61.0545 74.9013C62.115 75.9467 62.6443 77.2018 62.6425 78.6667C62.6425 80.1333 62.1123 81.3893 61.0518 82.4347C59.9913 83.48 58.718 84.0018 57.2319 84ZM84.285 84C82.7971 84 81.5229 83.4773 80.4624 82.432C79.4019 81.3867 78.8726 80.1316 78.8744 78.6667C78.8744 77.2 79.4046 75.944 80.4651 74.8987C81.5256 73.8533 82.7989 73.3316 84.285 73.3333C85.7729 73.3333 87.0471 73.856 88.1076 74.9013C89.1681 75.9467 89.6975 77.2018 89.6957 78.6667C89.6957 80.1333 89.1654 81.3893 88.1049 82.4347C87.0444 83.48 85.7711 84.0018 84.285 84ZM41 36V30.6667H49.8599L61.3575 54.6667H80.2947L90.8454 36H97L85.0966 57.2C84.6006 58.0889 83.9351 58.7778 83.1001 59.2667C82.2651 59.7556 81.3525 60 80.3623 60H60.2077L57.2319 65.3333H89.6957V70.6667H57.2319C55.2029 70.6667 53.6582 69.8 52.5977 68.0667C51.5372 66.3333 51.5038 64.5778 52.4976 62.8L56.1498 56.2667L46.4106 36H41Z" fill="#E8FFFB"/>
</g>
<defs>
<filter id="filter0_d_777_1519" x="0" y="8.9093" width="140" height="121.181" filterUnits="userSpaceOnUse" color-interpolation-filters="sRGB">
<feFlood flood-opacity="0" result="BackgroundImageFix"/>
<feColorMatrix in="SourceAlpha" type="matrix" values="0 0 0 0 0 0 0 0 0 0 0 0 0 0 0 0 0 0 127 0" result="hardAlpha"/>
<feOffset dy="3"/>
<feGaussianBlur stdDeviation="1.5"/>
<feComposite in2="hardAlpha" operator="out"/>
<feColorMatrix type="matrix" values="0 0 0 0 0 0 0 0 0 0 0 0 0 0 0 0 0 0 0.25 0"/>
<feBlend mode="normal" in2="BackgroundImageFix" result="effect1_dropShadow_777_1519"/>
<feBlend mode="normal" in="SourceGraphic" in2="effect1_dropShadow_777_1519" result="shape"/>
</filter>
<filter id="filter1_d_777_1519" x="25.4311" y="74.72" width="88.4071" height="44.16" filterUnits="userSpaceOnUse" color-interpolation-filters="sRGB">
<feFlood flood-opacity="0" result="BackgroundImageFix"/>
<feColorMatrix in="SourceAlpha" type="matrix" values="0 0 0 0 0 0 0 0 0 0 0 0 0 0 0 0 0 0 127 0" result="hardAlpha"/>
<feOffset/>
<feGaussianBlur stdDeviation="7.5"/>
<feComposite in2="hardAlpha" operator="out"/>
<feColorMatrix type="matrix" values="0 0 0 0 1 0 0 0 0 0.996078 0 0 0 0 0.909804 0 0 0 0.5 0"/>
<feBlend mode="normal" in2="BackgroundImageFix" result="effect1_dropShadow_777_1519"/>
<feBlend mode="normal" in="SourceGraphic" in2="effect1_dropShadow_777_1519" result="shape"/>
</filter>
<filter id="filter2_d_777_1519" x="26" y="13" width="86" height="86" filterUnits="userSpaceOnUse" color-interpolation-filters="sRGB">
<feFlood flood-opacity="0" result="BackgroundImageFix"/>
<feColorMatrix in="SourceAlpha" type="matrix" values="0 0 0 0 0 0 0 0 0 0 0 0 0 0 0 0 0 0 127 0" result="hardAlpha"/>
<feOffset/>
<feGaussianBlur stdDeviation="7.5"/>
<feComposite in2="hardAlpha" operator="out"/>
<feColorMatrix type="matrix" values="0 0 0 0 1 0 0 0 0 0.996078 0 0 0 0 0.909804 0 0 0 0.5 0"/>
<feBlend mode="normal" in2="BackgroundImageFix" result="effect1_dropShadow_777_1519"/>
<feBlend mode="normal" in="SourceGraphic" in2="effect1_dropShadow_777_1519" result="shape"/>
</filter>
</defs>
</svg>
