<svg width="134" height="128" viewBox="0 0 134 128" fill="none" xmlns="http://www.w3.org/2000/svg">
<g filter="url(#filter0_d_935_795)">
<path d="M131 64L99 119.426L35 119.426L3.00001 64L35 8.57437L99 8.57437L131 64Z" fill="#85576C" fill-opacity="0.5" shape-rendering="crispEdges"/>
<path d="M97.5566 11.0744L128.113 64L97.5566 116.926L36.4434 116.926L5.88675 64L36.4434 11.0744L97.5566 11.0744Z" stroke="#FFFEE8" stroke-width="5" stroke-miterlimit="1.36733" stroke-linecap="round" shape-rendering="crispEdges"/>
</g>
<g filter="url(#filter1_d_935_795)">
<path d="M38.4311 102V90.72H42.2391C44.0631 90.72 45.4711 91.2053 46.4631 92.176C47.4551 93.136 47.9511 94.528 47.9511 96.352C47.9511 98.176 47.4551 99.5733 46.4631 100.544C45.4711 101.515 44.0631 102 42.2391 102H38.4311ZM39.7431 100.88H42.1431C45.0871 100.88 46.5591 99.3707 46.5591 96.352C46.5591 93.344 45.0871 91.84 42.1431 91.84H39.7431V100.88ZM53.6341 102.144C52.4074 102.144 51.4367 101.787 50.7221 101.072C50.0074 100.347 49.6501 99.3653 49.6501 98.128C49.6501 97.328 49.8101 96.624 50.1301 96.016C50.4501 95.3973 50.8874 94.9227 51.4421 94.592C52.0074 94.2507 52.6581 94.08 53.3941 94.08C54.4501 94.08 55.2767 94.4213 55.8741 95.104C56.4714 95.776 56.7701 96.704 56.7701 97.888V98.384H50.9141C50.9567 99.2693 51.2127 99.9467 51.6821 100.416C52.1514 100.875 52.8021 101.104 53.6341 101.104C54.1034 101.104 54.5514 101.035 54.9781 100.896C55.4047 100.747 55.8101 100.507 56.1941 100.176L56.6421 101.088C56.2901 101.419 55.8421 101.68 55.2981 101.872C54.7541 102.053 54.1994 102.144 53.6341 102.144ZM53.4261 95.04C52.6901 95.04 52.1087 95.2693 51.6821 95.728C51.2554 96.1867 51.0047 96.7893 50.9301 97.536H55.6501C55.6181 96.7467 55.4101 96.1333 55.0261 95.696C54.6527 95.2587 54.1194 95.04 53.4261 95.04ZM61.0297 102.144C60.2404 102.144 59.643 101.915 59.2377 101.456C58.843 100.987 58.6457 100.309 58.6457 99.424V90.72H59.9417V99.328C59.9417 100.469 60.395 101.04 61.3017 101.04C61.5684 101.04 61.8084 101.008 62.0217 100.944L61.9897 102.032C61.659 102.107 61.339 102.144 61.0297 102.144ZM63.2201 92.288V90.832H64.8201V92.288H63.2201ZM63.3801 102V94.224H64.6761V102H63.3801ZM69.3868 102L66.0428 94.224H67.4508L70.0268 100.528L72.6348 94.224H73.9628L70.6028 102H69.3868ZM78.7278 102.144C77.5011 102.144 76.5305 101.787 75.8158 101.072C75.1011 100.347 74.7438 99.3653 74.7438 98.128C74.7438 97.328 74.9038 96.624 75.2238 96.016C75.5438 95.3973 75.9811 94.9227 76.5358 94.592C77.1011 94.2507 77.7518 94.08 78.4878 94.08C79.5438 94.08 80.3705 94.4213 80.9678 95.104C81.5651 95.776 81.8638 96.704 81.8638 97.888V98.384H76.0078C76.0505 99.2693 76.3065 99.9467 76.7758 100.416C77.2451 100.875 77.8958 101.104 78.7278 101.104C79.1971 101.104 79.6451 101.035 80.0718 100.896C80.4985 100.747 80.9038 100.507 81.2878 100.176L81.7358 101.088C81.3838 101.419 80.9358 101.68 80.3918 101.872C79.8478 102.053 79.2931 102.144 78.7278 102.144ZM78.5198 95.04C77.7838 95.04 77.2025 95.2693 76.7758 95.728C76.3491 96.1867 76.0985 96.7893 76.0238 97.536H80.7438C80.7118 96.7467 80.5038 96.1333 80.1198 95.696C79.7465 95.2587 79.2131 95.04 78.5198 95.04ZM83.7394 102V94.224H85.0034V95.616C85.4194 94.6773 86.2728 94.16 87.5634 94.064L88.0274 94.016L88.1234 95.136L87.3074 95.232C86.5714 95.296 86.0114 95.5307 85.6274 95.936C85.2434 96.3307 85.0514 96.8747 85.0514 97.568V102H83.7394ZM90.8542 104.88L92.1822 101.872L88.9022 94.224H90.3102L92.8862 100.528L95.4782 94.224H96.8382L92.2142 104.88H90.8542Z" fill="#FFFEE8"/>
</g>
<g filter="url(#filter2_d_935_795)">
<path d="M68.7585 42.6667C67.9919 42.6667 67.349 42.4107 66.8296 41.8987C66.3101 41.3867 66.0513 40.7538 66.0531 40C66.0531 39.2444 66.3128 38.6107 66.8323 38.0987C67.3517 37.5867 67.9938 37.3316 68.7585 37.3333C69.525 37.3333 70.1679 37.5893 70.6873 38.1013C71.2068 38.6133 71.4656 39.2462 71.4638 40C71.4638 40.7556 71.2041 41.3893 70.6846 41.9013C70.1652 42.4133 69.5232 42.6684 68.7585 42.6667ZM66.0531 33.3333V20H71.4638V33.3333H66.0531ZM55.2319 76C53.744 76 52.4698 75.4773 51.4093 74.432C50.3488 73.3867 49.8195 72.1316 49.8213 70.6667C49.8213 69.2 50.3515 67.944 51.412 66.8987C52.4725 65.8533 53.7458 65.3316 55.2319 65.3333C56.7198 65.3333 57.994 65.856 59.0545 66.9013C60.115 67.9467 60.6443 69.2018 60.6425 70.6667C60.6425 72.1333 60.1123 73.3893 59.0518 74.4347C57.9913 75.48 56.718 76.0018 55.2319 76ZM82.285 76C80.7971 76 79.5229 75.4773 78.4624 74.432C77.4019 73.3867 76.8726 72.1316 76.8744 70.6667C76.8744 69.2 77.4046 67.944 78.4651 66.8987C79.5256 65.8533 80.7989 65.3316 82.285 65.3333C83.7729 65.3333 85.0471 65.856 86.1076 66.9013C87.1681 67.9467 87.6975 69.2018 87.6957 70.6667C87.6957 72.1333 87.1654 73.3893 86.1049 74.4347C85.0444 75.48 83.7711 76.0018 82.285 76ZM39 28V22.6667H47.8599L59.3575 46.6667H78.2947L88.8454 28H95L83.0966 49.2C82.6006 50.0889 81.9351 50.7778 81.1001 51.2667C80.2651 51.7556 79.3525 52 78.3623 52H58.2077L55.2319 57.3333H87.6957V62.6667H55.2319C53.2029 62.6667 51.6582 61.8 50.5977 60.0667C49.5372 58.3333 49.5038 56.5778 50.4976 54.8L54.1498 48.2667L44.4106 28H39Z" fill="#FFFEE8"/>
</g>
<defs>
<filter id="filter0_d_935_795" x="0" y="8.57437" width="134" height="116.851" filterUnits="userSpaceOnUse" color-interpolation-filters="sRGB">
<feFlood flood-opacity="0" result="BackgroundImageFix"/>
<feColorMatrix in="SourceAlpha" type="matrix" values="0 0 0 0 0 0 0 0 0 0 0 0 0 0 0 0 0 0 127 0" result="hardAlpha"/>
<feOffset dy="3"/>
<feGaussianBlur stdDeviation="1.5"/>
<feComposite in2="hardAlpha" operator="out"/>
<feColorMatrix type="matrix" values="0 0 0 0 0 0 0 0 0 0 0 0 0 0 0 0 0 0 0.25 0"/>
<feBlend mode="normal" in2="BackgroundImageFix" result="effect1_dropShadow_935_795"/>
<feBlend mode="normal" in="SourceGraphic" in2="effect1_dropShadow_935_795" result="shape"/>
</filter>
<filter id="filter1_d_935_795" x="23.4311" y="75.72" width="88.4071" height="44.16" filterUnits="userSpaceOnUse" color-interpolation-filters="sRGB">
<feFlood flood-opacity="0" result="BackgroundImageFix"/>
<feColorMatrix in="SourceAlpha" type="matrix" values="0 0 0 0 0 0 0 0 0 0 0 0 0 0 0 0 0 0 127 0" result="hardAlpha"/>
<feOffset/>
<feGaussianBlur stdDeviation="7.5"/>
<feComposite in2="hardAlpha" operator="out"/>
<feColorMatrix type="matrix" values="0 0 0 0 1 0 0 0 0 0.996078 0 0 0 0 0.909804 0 0 0 0.5 0"/>
<feBlend mode="normal" in2="BackgroundImageFix" result="effect1_dropShadow_935_795"/>
<feBlend mode="normal" in="SourceGraphic" in2="effect1_dropShadow_935_795" result="shape"/>
</filter>
<filter id="filter2_d_935_795" x="24" y="5" width="86" height="86" filterUnits="userSpaceOnUse" color-interpolation-filters="sRGB">
<feFlood flood-opacity="0" result="BackgroundImageFix"/>
<feColorMatrix in="SourceAlpha" type="matrix" values="0 0 0 0 0 0 0 0 0 0 0 0 0 0 0 0 0 0 127 0" result="hardAlpha"/>
<feOffset/>
<feGaussianBlur stdDeviation="7.5"/>
<feComposite in2="hardAlpha" operator="out"/>
<feColorMatrix type="matrix" values="0 0 0 0 1 0 0 0 0 0.996078 0 0 0 0 0.909804 0 0 0 0.5 0"/>
<feBlend mode="normal" in2="BackgroundImageFix" result="effect1_dropShadow_935_795"/>
<feBlend mode="normal" in="SourceGraphic" in2="effect1_dropShadow_935_795" result="shape"/>
</filter>
</defs>
</svg>
