<svg width="262" height="256" viewBox="0 0 262 256" fill="none" xmlns="http://www.w3.org/2000/svg">
<g filter="url(#filter0_d_935_799)">
<path d="M259 128L195 238.851L67 238.851L3.00001 128L67 17.1487L195 17.1487L259 128Z" fill="#85576C" fill-opacity="0.5" shape-rendering="crispEdges"/>
<path d="M193.557 19.6487L256.113 128L193.557 236.351L68.4434 236.351L5.88677 128L68.4434 19.6487L193.557 19.6487Z" stroke="#FFFEE8" stroke-width="5" stroke-miterlimit="1.36733" stroke-linecap="round" shape-rendering="crispEdges"/>
</g>
<g filter="url(#filter1_d_935_799)">
<path d="M94.3416 199V184.9H99.9816C101.435 184.9 102.555 185.227 103.342 185.88C104.142 186.52 104.542 187.42 104.542 188.58C104.542 189.353 104.342 190.013 103.942 190.56C103.542 191.107 102.988 191.507 102.282 191.76C103.095 191.973 103.728 192.367 104.182 192.94C104.648 193.513 104.882 194.24 104.882 195.12C104.882 196.373 104.475 197.333 103.662 198C102.848 198.667 101.702 199 100.222 199H94.3416ZM95.9416 191.2H99.7416C101.862 191.2 102.922 190.373 102.922 188.72C102.922 187.053 101.862 186.22 99.7416 186.22H95.9416V191.2ZM95.9416 197.68H100.062C102.195 197.68 103.262 196.82 103.262 195.1C103.262 193.38 102.195 192.52 100.062 192.52H95.9416V197.68ZM110.697 199.18C110.031 199.18 109.431 199.053 108.897 198.8C108.377 198.533 107.964 198.173 107.657 197.72C107.351 197.267 107.197 196.76 107.197 196.2C107.197 195.493 107.377 194.933 107.737 194.52C108.111 194.107 108.717 193.813 109.557 193.64C110.411 193.453 111.571 193.36 113.037 193.36H113.677V192.74C113.677 191.913 113.504 191.32 113.157 190.96C112.824 190.587 112.284 190.4 111.537 190.4C110.951 190.4 110.384 190.487 109.837 190.66C109.291 190.82 108.731 191.087 108.157 191.46L107.597 190.28C108.104 189.92 108.717 189.633 109.437 189.42C110.171 189.207 110.871 189.1 111.537 189.1C112.791 189.1 113.717 189.407 114.317 190.02C114.931 190.633 115.237 191.587 115.237 192.88V199H113.717V197.32C113.464 197.893 113.071 198.347 112.537 198.68C112.017 199.013 111.404 199.18 110.697 199.18ZM110.957 197.96C111.757 197.96 112.411 197.687 112.917 197.14C113.424 196.58 113.677 195.873 113.677 195.02V194.42H113.057C111.977 194.42 111.124 194.473 110.497 194.58C109.884 194.673 109.451 194.847 109.197 195.1C108.957 195.34 108.837 195.673 108.837 196.1C108.837 196.647 109.024 197.093 109.397 197.44C109.784 197.787 110.304 197.96 110.957 197.96ZM122.363 199.18C121.389 199.18 120.549 198.973 119.843 198.56C119.136 198.133 118.589 197.54 118.203 196.78C117.829 196.007 117.643 195.107 117.643 194.08C117.643 192.533 118.063 191.32 118.903 190.44C119.743 189.547 120.896 189.1 122.363 189.1C122.963 189.1 123.556 189.207 124.143 189.42C124.729 189.633 125.216 189.933 125.603 190.32L125.043 191.5C124.656 191.127 124.229 190.853 123.763 190.68C123.309 190.507 122.876 190.42 122.463 190.42C121.449 190.42 120.669 190.74 120.123 191.38C119.576 192.007 119.303 192.913 119.303 194.1C119.303 195.26 119.576 196.18 120.123 196.86C120.669 197.527 121.449 197.86 122.463 197.86C122.876 197.86 123.309 197.773 123.763 197.6C124.229 197.427 124.656 197.147 125.043 196.76L125.603 197.94C125.216 198.327 124.723 198.633 124.123 198.86C123.536 199.073 122.949 199.18 122.363 199.18ZM127.5 199V184.9H129.12V193.6H129.16L133.66 189.28H135.72L130.84 193.96L136.14 199H134.08L129.16 194.44H129.12V199H127.5ZM141.627 199.18C140.093 199.18 138.88 198.733 137.987 197.84C137.093 196.933 136.647 195.707 136.647 194.16C136.647 193.16 136.847 192.28 137.247 191.52C137.647 190.747 138.193 190.153 138.887 189.74C139.593 189.313 140.407 189.1 141.327 189.1C142.647 189.1 143.68 189.527 144.427 190.38C145.173 191.22 145.547 192.38 145.547 193.86V194.48H138.227C138.28 195.587 138.6 196.433 139.187 197.02C139.773 197.593 140.587 197.88 141.627 197.88C142.213 197.88 142.773 197.793 143.307 197.62C143.84 197.433 144.347 197.133 144.827 196.72L145.387 197.86C144.947 198.273 144.387 198.6 143.707 198.84C143.027 199.067 142.333 199.18 141.627 199.18ZM141.367 190.3C140.447 190.3 139.72 190.587 139.187 191.16C138.653 191.733 138.34 192.487 138.247 193.42H144.147C144.107 192.433 143.847 191.667 143.367 191.12C142.9 190.573 142.233 190.3 141.367 190.3ZM147.891 199V189.28H149.471V190.94C149.791 190.327 150.244 189.867 150.831 189.56C151.418 189.253 152.078 189.1 152.811 189.1C155.118 189.1 156.271 190.38 156.271 192.94V199H154.651V193.04C154.651 192.133 154.471 191.473 154.111 191.06C153.764 190.633 153.204 190.42 152.431 190.42C151.538 190.42 150.824 190.7 150.291 191.26C149.771 191.807 149.511 192.54 149.511 193.46V199H147.891ZM162.958 199.18C162.092 199.18 161.332 198.973 160.678 198.56C160.038 198.147 159.538 197.567 159.178 196.82C158.832 196.06 158.658 195.167 158.658 194.14C158.658 193.1 158.832 192.207 159.178 191.46C159.538 190.7 160.038 190.12 160.678 189.72C161.332 189.307 162.092 189.1 162.958 189.1C163.718 189.1 164.385 189.267 164.958 189.6C165.545 189.933 165.978 190.393 166.258 190.98V184.9H167.878V199H166.298V197.22C166.018 197.833 165.585 198.313 164.998 198.66C164.412 199.007 163.732 199.18 162.958 199.18ZM163.298 197.88C164.205 197.88 164.932 197.56 165.478 196.92C166.025 196.267 166.298 195.34 166.298 194.14C166.298 192.927 166.025 192 165.478 191.36C164.932 190.72 164.205 190.4 163.298 190.4C162.378 190.4 161.645 190.72 161.098 191.36C160.565 192 160.298 192.927 160.298 194.14C160.298 195.34 160.565 196.267 161.098 196.92C161.645 197.56 162.378 197.88 163.298 197.88Z" fill="#FFFEE8"/>
<path d="M93.1992 47.2601V63.7803H75.7331V47.2601H93.1992ZM67 39V72.0404H101.932V39H67ZM136.865 59.6503V76.1705H119.398V59.6503H136.865ZM110.665 51.3902V84.4306H145.598V51.3902H110.665ZM93.1992 96.8207V113.341H75.7331V96.8207H93.1992ZM67 88.5606V121.601H101.932V88.5606H67Z" fill="#FFFEE8"/>
<path d="M155.32 75.9436V103.261H125.56V130.577H95.7998V167H195V75.9436H155.32ZM135.48 112.366H155.32V130.577H135.48V112.366ZM125.56 157.894H105.72V139.683H125.56V157.894ZM155.32 157.894H135.48V139.683H155.32V157.894ZM185.08 157.894H165.24V139.683H185.08V157.894ZM185.08 130.577H165.24V112.366H185.08V130.577ZM165.24 103.261V85.0492H185.08V103.261H165.24Z" fill="#FFFEE8"/>
</g>
<defs>
<filter id="filter0_d_935_799" x="0" y="17.1487" width="262" height="227.703" filterUnits="userSpaceOnUse" color-interpolation-filters="sRGB">
<feFlood flood-opacity="0" result="BackgroundImageFix"/>
<feColorMatrix in="SourceAlpha" type="matrix" values="0 0 0 0 0 0 0 0 0 0 0 0 0 0 0 0 0 0 127 0" result="hardAlpha"/>
<feOffset dy="3"/>
<feGaussianBlur stdDeviation="1.5"/>
<feComposite in2="hardAlpha" operator="out"/>
<feColorMatrix type="matrix" values="0 0 0 0 0 0 0 0 0 0 0 0 0 0 0 0 0 0 0.25 0"/>
<feBlend mode="normal" in2="BackgroundImageFix" result="effect1_dropShadow_935_799"/>
<feBlend mode="normal" in="SourceGraphic" in2="effect1_dropShadow_935_799" result="shape"/>
</filter>
<filter id="filter1_d_935_799" x="52" y="24" width="158" height="190.18" filterUnits="userSpaceOnUse" color-interpolation-filters="sRGB">
<feFlood flood-opacity="0" result="BackgroundImageFix"/>
<feColorMatrix in="SourceAlpha" type="matrix" values="0 0 0 0 0 0 0 0 0 0 0 0 0 0 0 0 0 0 127 0" result="hardAlpha"/>
<feOffset/>
<feGaussianBlur stdDeviation="7.5"/>
<feColorMatrix type="matrix" values="0 0 0 0 1 0 0 0 0 0.996078 0 0 0 0 0.909804 0 0 0 0.5 0"/>
<feBlend mode="normal" in2="BackgroundImageFix" result="effect1_dropShadow_935_799"/>
<feBlend mode="normal" in="SourceGraphic" in2="effect1_dropShadow_935_799" result="shape"/>
</filter>
</defs>
</svg>
