<svg width="122" height="115" viewBox="0 0 122 115" fill="none" xmlns="http://www.w3.org/2000/svg">
<g filter="url(#filter0_d_1309_923)">
<g filter="url(#filter1_d_1309_923)">
<path d="M118 57L89.5 106.363L32.5 106.363L4.00001 57L32.5 7.63655L89.5 7.63655L118 57Z" fill="black" fill-opacity="0.68" shape-rendering="crispEdges"/>
<path d="M87.768 10.6365L114.536 57L87.7679 103.363L34.2321 103.363L7.46411 57L34.2321 10.6365L87.768 10.6365Z" stroke="#8F1B42" stroke-width="6" stroke-miterlimit="1.36733" stroke-linecap="round" shape-rendering="crispEdges"/>
</g>
<path d="M81.4282 56.5757L80.3442 55.4917C79.8853 55.0327 79.8853 54.2905 80.3442 53.8364L89.8315 44.3442C90.2905 43.8853 91.0327 43.8853 91.4868 44.3442L100.974 53.8315C101.433 54.2905 101.433 55.0327 100.974 55.4868L99.8901 56.5708C99.4263 57.0347 98.6694 57.0249 98.2153 56.5513L92.6147 50.6724V64.7056C92.6147 65.355 92.0923 65.8774 91.4429 65.8774H89.8804C89.231 65.8774 88.7085 65.355 88.7085 64.7056V50.6724L83.103 56.5562C82.6489 57.0347 81.8921 57.0444 81.4282 56.5757Z" fill="#8F1B42"/>
<g filter="url(#filter2_d_1309_923)">
<path d="M38.9035 76L58.8075 30.88H63.2875L83.1915 76H77.7515L72.7595 64.48H49.2715L44.3435 76H38.9035ZM60.9835 37.024L51.1915 60.064H70.9035L61.1115 37.024H60.9835Z" fill="#8F1B42"/>
</g>
</g>
<defs>
<filter id="filter0_d_1309_923" x="0" y="7.63654" width="122" height="106.727" filterUnits="userSpaceOnUse" color-interpolation-filters="sRGB">
<feFlood flood-opacity="0" result="BackgroundImageFix"/>
<feColorMatrix in="SourceAlpha" type="matrix" values="0 0 0 0 0 0 0 0 0 0 0 0 0 0 0 0 0 0 127 0" result="hardAlpha"/>
<feOffset dy="4"/>
<feGaussianBlur stdDeviation="2"/>
<feComposite in2="hardAlpha" operator="out"/>
<feColorMatrix type="matrix" values="0 0 0 0 0 0 0 0 0 0 0 0 0 0 0 0 0 0 0.25 0"/>
<feBlend mode="normal" in2="BackgroundImageFix" result="effect1_dropShadow_1309_923"/>
<feBlend mode="normal" in="SourceGraphic" in2="effect1_dropShadow_1309_923" result="shape"/>
</filter>
<filter id="filter1_d_1309_923" x="1" y="7.63654" width="120" height="104.727" filterUnits="userSpaceOnUse" color-interpolation-filters="sRGB">
<feFlood flood-opacity="0" result="BackgroundImageFix"/>
<feColorMatrix in="SourceAlpha" type="matrix" values="0 0 0 0 0 0 0 0 0 0 0 0 0 0 0 0 0 0 127 0" result="hardAlpha"/>
<feOffset dy="3"/>
<feGaussianBlur stdDeviation="1.5"/>
<feComposite in2="hardAlpha" operator="out"/>
<feColorMatrix type="matrix" values="0 0 0 0 0 0 0 0 0 0 0 0 0 0 0 0 0 0 0.25 0"/>
<feBlend mode="normal" in2="BackgroundImageFix" result="effect1_dropShadow_1309_923"/>
<feBlend mode="normal" in="SourceGraphic" in2="effect1_dropShadow_1309_923" result="shape"/>
</filter>
<filter id="filter2_d_1309_923" x="18.9035" y="10.88" width="84.288" height="85.12" filterUnits="userSpaceOnUse" color-interpolation-filters="sRGB">
<feFlood flood-opacity="0" result="BackgroundImageFix"/>
<feColorMatrix in="SourceAlpha" type="matrix" values="0 0 0 0 0 0 0 0 0 0 0 0 0 0 0 0 0 0 127 0" result="hardAlpha"/>
<feOffset/>
<feGaussianBlur stdDeviation="10"/>
<feComposite in2="hardAlpha" operator="out"/>
<feColorMatrix type="matrix" values="0 0 0 0 0.415686 0 0 0 0 0.113725 0 0 0 0 0.254902 0 0 0 0.8 0"/>
<feBlend mode="normal" in2="BackgroundImageFix" result="effect1_dropShadow_1309_923"/>
<feBlend mode="normal" in="SourceGraphic" in2="effect1_dropShadow_1309_923" result="shape"/>
</filter>
</defs>
</svg>
