<svg width="122" height="115" viewBox="0 0 122 115" fill="none" xmlns="http://www.w3.org/2000/svg">
<g filter="url(#filter0_d_1298_28)">
<path d="M118 57L89.5 106.363L32.5 106.363L4.00001 57L32.5 7.63655L89.5 7.63655L118 57Z" fill="black" fill-opacity="0.68" shape-rendering="crispEdges"/>
<path d="M87.768 10.6365L114.536 57L87.7679 103.363L34.2321 103.363L7.46411 57L34.2321 10.6365L87.768 10.6365Z" stroke="#8F1B42" stroke-width="6" stroke-miterlimit="1.36733" stroke-linecap="round" shape-rendering="crispEdges"/>
</g>
<path d="M76.4282 57.5757L75.3442 56.4917C74.8853 56.0327 74.8853 55.2905 75.3442 54.8364L84.8315 45.3442C85.2905 44.8853 86.0327 44.8853 86.4868 45.3442L95.9741 54.8315C96.4331 55.2905 96.4331 56.0327 95.9741 56.4868L94.8901 57.5708C94.4263 58.0347 93.6694 58.0249 93.2153 57.5513L87.6147 51.6724V65.7056C87.6147 66.355 87.0923 66.8774 86.4429 66.8774H84.8804C84.231 66.8774 83.7085 66.355 83.7085 65.7056V51.6724L78.103 57.5562C77.6489 58.0347 76.8921 58.0444 76.4282 57.5757Z" fill="#8F1B42"/>
<g filter="url(#filter1_d_1298_28)">
<path d="M36.318 78V32.88H54.174C59.038 32.88 62.75 34.0533 65.31 36.4C67.9127 38.7467 69.214 42.096 69.214 46.448C69.214 50.7573 67.9127 54.1067 65.31 56.496C62.75 58.8427 59.038 60.016 54.174 60.016H41.566V78H36.318ZM41.566 55.6H53.534C60.5313 55.6 64.03 52.5493 64.03 46.448C64.03 40.304 60.5313 37.232 53.534 37.232H41.566V55.6Z" fill="#8F1B42"/>
</g>
<defs>
<filter id="filter0_d_1298_28" x="0" y="7.63654" width="122" height="106.727" filterUnits="userSpaceOnUse" color-interpolation-filters="sRGB">
<feFlood flood-opacity="0" result="BackgroundImageFix"/>
<feColorMatrix in="SourceAlpha" type="matrix" values="0 0 0 0 0 0 0 0 0 0 0 0 0 0 0 0 0 0 127 0" result="hardAlpha"/>
<feOffset dy="4"/>
<feGaussianBlur stdDeviation="2"/>
<feComposite in2="hardAlpha" operator="out"/>
<feColorMatrix type="matrix" values="0 0 0 0 0 0 0 0 0 0 0 0 0 0 0 0 0 0 0.25 0"/>
<feBlend mode="normal" in2="BackgroundImageFix" result="effect1_dropShadow_1298_28"/>
<feBlend mode="normal" in="SourceGraphic" in2="effect1_dropShadow_1298_28" result="shape"/>
</filter>
<filter id="filter1_d_1298_28" x="16.318" y="12.88" width="72.896" height="85.12" filterUnits="userSpaceOnUse" color-interpolation-filters="sRGB">
<feFlood flood-opacity="0" result="BackgroundImageFix"/>
<feColorMatrix in="SourceAlpha" type="matrix" values="0 0 0 0 0 0 0 0 0 0 0 0 0 0 0 0 0 0 127 0" result="hardAlpha"/>
<feOffset/>
<feGaussianBlur stdDeviation="10"/>
<feComposite in2="hardAlpha" operator="out"/>
<feColorMatrix type="matrix" values="0 0 0 0 0.560784 0 0 0 0 0.105882 0 0 0 0 0.258824 0 0 0 1 0"/>
<feBlend mode="normal" in2="BackgroundImageFix" result="effect1_dropShadow_1298_28"/>
<feBlend mode="normal" in="SourceGraphic" in2="effect1_dropShadow_1298_28" result="shape"/>
</filter>
</defs>
</svg>
