<svg width="262" height="256" viewBox="0 0 262 256" fill="none" xmlns="http://www.w3.org/2000/svg">
<g filter="url(#filter0_d_935_748)">
<path d="M259 128L195 238.851L67 238.851L3.00001 128L67 17.1487L195 17.1487L259 128Z" fill="#F21E2C" fill-opacity="0.2" shape-rendering="crispEdges"/>
<path d="M193.557 19.6487L256.113 128L193.557 236.351L68.4434 236.351L5.88677 128L68.4434 19.6487L193.557 19.6487Z" stroke="#FF9520" stroke-width="5" stroke-miterlimit="1.36733" stroke-linecap="round" shape-rendering="crispEdges"/>
</g>
<g filter="url(#filter1_d_935_748)">
<path d="M181.286 138.429V120.143C181.286 117.718 180.322 115.393 178.608 113.678C176.893 111.963 174.568 111 172.143 111H135.571V92.7143H176.714C179.139 92.7143 181.465 91.751 183.179 90.0364C184.894 88.3218 185.857 85.9963 185.857 83.5714V56.1429C185.857 53.718 184.894 51.3925 183.179 49.6779C181.465 47.9633 179.139 47 176.714 47H85.2857C82.8609 47 80.5354 47.9633 78.8207 49.6779C77.1061 51.3925 76.1429 53.718 76.1429 56.1429V83.5714C76.1429 85.9963 77.1061 88.3218 78.8207 90.0364C80.5354 91.751 82.8609 92.7143 85.2857 92.7143H126.429V111H89.8571C87.4323 111 85.1068 111.963 83.3922 113.678C81.6775 115.393 80.7143 117.718 80.7143 120.143V138.429H76.1429C73.718 138.429 71.3925 139.392 69.6779 141.106C67.9633 142.821 67 145.147 67 147.571V165.857C67 168.282 67.9633 170.608 69.6779 172.322C71.3925 174.037 73.718 175 76.1429 175H94.4286C96.8534 175 99.1789 174.037 100.894 172.322C102.608 170.608 103.571 168.282 103.571 165.857V147.571C103.571 145.147 102.608 142.821 100.894 141.106C99.1789 139.392 96.8534 138.429 94.4286 138.429H89.8571V120.143H126.429V138.429H121.857C119.432 138.429 117.107 139.392 115.392 141.106C113.678 142.821 112.714 145.147 112.714 147.571V165.857C112.714 168.282 113.678 170.608 115.392 172.322C117.107 174.037 119.432 175 121.857 175H140.143C142.568 175 144.893 174.037 146.608 172.322C148.322 170.608 149.286 168.282 149.286 165.857V147.571C149.286 145.147 148.322 142.821 146.608 141.106C144.893 139.392 142.568 138.429 140.143 138.429H135.571V120.143H172.143V138.429H167.571C165.147 138.429 162.821 139.392 161.106 141.106C159.392 142.821 158.429 145.147 158.429 147.571V165.857C158.429 168.282 159.392 170.608 161.106 172.322C162.821 174.037 165.147 175 167.571 175H185.857C188.282 175 190.608 174.037 192.322 172.322C194.037 170.608 195 168.282 195 165.857V147.571C195 145.147 194.037 142.821 192.322 141.106C190.608 139.392 188.282 138.429 185.857 138.429H181.286ZM94.4286 165.857H76.1429V147.571H94.4286V165.857ZM140.143 147.571V165.857H121.857V147.571H140.143ZM85.2857 83.5714V56.1429H176.714V83.5714H85.2857ZM185.857 165.857H167.571V147.571H185.857V165.857Z" fill="#FEC631"/>
</g>
<g filter="url(#filter2_d_935_748)">
<path d="M66.7849 203V188.9H72.4249C73.8783 188.9 74.9983 189.227 75.7849 189.88C76.5849 190.52 76.9849 191.42 76.9849 192.58C76.9849 193.353 76.7849 194.013 76.3849 194.56C75.9849 195.107 75.4316 195.507 74.7249 195.76C75.5383 195.973 76.1716 196.367 76.6249 196.94C77.0916 197.513 77.3249 198.24 77.3249 199.12C77.3249 200.373 76.9183 201.333 76.1049 202C75.2916 202.667 74.1449 203 72.6649 203H66.7849ZM68.3849 195.2H72.1849C74.3049 195.2 75.3649 194.373 75.3649 192.72C75.3649 191.053 74.3049 190.22 72.1849 190.22H68.3849V195.2ZM68.3849 201.68H72.5049C74.6383 201.68 75.7049 200.82 75.7049 199.1C75.7049 197.38 74.6383 196.52 72.5049 196.52H68.3849V201.68ZM83.5205 203.18C81.1872 203.18 80.0205 201.893 80.0205 199.32V193.28H81.6405V199.3C81.6405 200.167 81.8139 200.807 82.1605 201.22C82.5205 201.633 83.0805 201.84 83.8405 201.84C84.6672 201.84 85.3405 201.567 85.8605 201.02C86.3805 200.46 86.6405 199.72 86.6405 198.8V193.28H88.2605V203H86.6805V201.36C86.3739 201.947 85.9405 202.4 85.3805 202.72C84.8339 203.027 84.2139 203.18 83.5205 203.18ZM94.5715 203.18C93.8115 203.18 93.0915 203.073 92.4115 202.86C91.7315 202.647 91.1715 202.347 90.7315 201.96L91.2515 200.82C91.7315 201.207 92.2582 201.493 92.8315 201.68C93.4182 201.853 94.0115 201.94 94.6115 201.94C95.3715 201.94 95.9448 201.8 96.3315 201.52C96.7182 201.24 96.9115 200.86 96.9115 200.38C96.9115 200.007 96.7848 199.713 96.5315 199.5C96.2782 199.273 95.8782 199.1 95.3315 198.98L93.5115 198.58C91.8582 198.22 91.0315 197.367 91.0315 196.02C91.0315 195.14 91.3782 194.433 92.0715 193.9C92.7782 193.367 93.6982 193.1 94.8315 193.1C95.4982 193.1 96.1315 193.207 96.7315 193.42C97.3448 193.62 97.8515 193.92 98.2515 194.32L97.7115 195.46C97.3248 195.1 96.8715 194.827 96.3515 194.64C95.8448 194.44 95.3382 194.34 94.8315 194.34C94.0848 194.34 93.5182 194.487 93.1315 194.78C92.7448 195.073 92.5515 195.46 92.5515 195.94C92.5515 196.687 93.0448 197.167 94.0315 197.38L95.8515 197.76C96.7048 197.947 97.3515 198.247 97.7915 198.66C98.2315 199.06 98.4515 199.607 98.4515 200.3C98.4515 201.193 98.0982 201.9 97.3915 202.42C96.6848 202.927 95.7448 203.18 94.5715 203.18ZM100.72 190.86V189.04H102.72V190.86H100.72ZM100.92 203V193.28H102.54V203H100.92ZM105.569 203V193.28H107.149V194.94C107.469 194.327 107.922 193.867 108.509 193.56C109.095 193.253 109.755 193.1 110.489 193.1C112.795 193.1 113.949 194.38 113.949 196.94V203H112.329V197.04C112.329 196.133 112.149 195.473 111.789 195.06C111.442 194.633 110.882 194.42 110.109 194.42C109.215 194.42 108.502 194.7 107.969 195.26C107.449 195.807 107.189 196.54 107.189 197.46V203H105.569ZM121.316 203.18C119.783 203.18 118.569 202.733 117.676 201.84C116.783 200.933 116.336 199.707 116.336 198.16C116.336 197.16 116.536 196.28 116.936 195.52C117.336 194.747 117.883 194.153 118.576 193.74C119.283 193.313 120.096 193.1 121.016 193.1C122.336 193.1 123.369 193.527 124.116 194.38C124.863 195.22 125.236 196.38 125.236 197.86V198.48H117.916C117.969 199.587 118.289 200.433 118.876 201.02C119.463 201.593 120.276 201.88 121.316 201.88C121.903 201.88 122.463 201.793 122.996 201.62C123.529 201.433 124.036 201.133 124.516 200.72L125.076 201.86C124.636 202.273 124.076 202.6 123.396 202.84C122.716 203.067 122.023 203.18 121.316 203.18ZM121.056 194.3C120.136 194.3 119.409 194.587 118.876 195.16C118.343 195.733 118.029 196.487 117.936 197.42H123.836C123.796 196.433 123.536 195.667 123.056 195.12C122.589 194.573 121.923 194.3 121.056 194.3ZM130.861 203.18C130.101 203.18 129.381 203.073 128.701 202.86C128.021 202.647 127.461 202.347 127.021 201.96L127.541 200.82C128.021 201.207 128.547 201.493 129.121 201.68C129.707 201.853 130.301 201.94 130.901 201.94C131.661 201.94 132.234 201.8 132.621 201.52C133.007 201.24 133.201 200.86 133.201 200.38C133.201 200.007 133.074 199.713 132.821 199.5C132.567 199.273 132.167 199.1 131.621 198.98L129.801 198.58C128.147 198.22 127.321 197.367 127.321 196.02C127.321 195.14 127.667 194.433 128.361 193.9C129.067 193.367 129.987 193.1 131.121 193.1C131.787 193.1 132.421 193.207 133.021 193.42C133.634 193.62 134.141 193.92 134.541 194.32L134.001 195.46C133.614 195.1 133.161 194.827 132.641 194.64C132.134 194.44 131.627 194.34 131.121 194.34C130.374 194.34 129.807 194.487 129.421 194.78C129.034 195.073 128.841 195.46 128.841 195.94C128.841 196.687 129.334 197.167 130.321 197.38L132.141 197.76C132.994 197.947 133.641 198.247 134.081 198.66C134.521 199.06 134.741 199.607 134.741 200.3C134.741 201.193 134.387 201.9 133.681 202.42C132.974 202.927 132.034 203.18 130.861 203.18ZM140.489 203.18C139.729 203.18 139.009 203.073 138.329 202.86C137.649 202.647 137.089 202.347 136.649 201.96L137.169 200.82C137.649 201.207 138.176 201.493 138.749 201.68C139.336 201.853 139.929 201.94 140.529 201.94C141.289 201.94 141.863 201.8 142.249 201.52C142.636 201.24 142.829 200.86 142.829 200.38C142.829 200.007 142.703 199.713 142.449 199.5C142.196 199.273 141.796 199.1 141.249 198.98L139.429 198.58C137.776 198.22 136.949 197.367 136.949 196.02C136.949 195.14 137.296 194.433 137.989 193.9C138.696 193.367 139.616 193.1 140.749 193.1C141.416 193.1 142.049 193.207 142.649 193.42C143.263 193.62 143.769 193.92 144.169 194.32L143.629 195.46C143.243 195.1 142.789 194.827 142.269 194.64C141.763 194.44 141.256 194.34 140.749 194.34C140.003 194.34 139.436 194.487 139.049 194.78C138.663 195.073 138.469 195.46 138.469 195.94C138.469 196.687 138.963 197.167 139.949 197.38L141.769 197.76C142.623 197.947 143.269 198.247 143.709 198.66C144.149 199.06 144.369 199.607 144.369 200.3C144.369 201.193 144.016 201.9 143.309 202.42C142.603 202.927 141.663 203.18 140.489 203.18ZM152.195 203V188.9H153.835V201.56H161.015V203H152.195ZM166.777 203.18C165.83 203.18 165.01 202.973 164.317 202.56C163.623 202.147 163.083 201.567 162.697 200.82C162.323 200.06 162.137 199.167 162.137 198.14C162.137 197.113 162.323 196.227 162.697 195.48C163.083 194.72 163.623 194.133 164.317 193.72C165.01 193.307 165.83 193.1 166.777 193.1C167.71 193.1 168.523 193.307 169.217 193.72C169.923 194.133 170.463 194.72 170.837 195.48C171.223 196.227 171.417 197.113 171.417 198.14C171.417 199.167 171.223 200.06 170.837 200.82C170.463 201.567 169.923 202.147 169.217 202.56C168.523 202.973 167.71 203.18 166.777 203.18ZM166.777 201.88C167.683 201.88 168.41 201.56 168.957 200.92C169.503 200.267 169.777 199.34 169.777 198.14C169.777 196.927 169.503 196 168.957 195.36C168.41 194.72 167.683 194.4 166.777 194.4C165.857 194.4 165.123 194.72 164.577 195.36C164.043 196 163.777 196.927 163.777 198.14C163.777 199.34 164.043 200.267 164.577 200.92C165.123 201.56 165.857 201.88 166.777 201.88ZM178.15 206.78C177.31 206.78 176.517 206.667 175.77 206.44C175.037 206.227 174.383 205.9 173.81 205.46L174.35 204.28C174.95 204.707 175.543 205.013 176.13 205.2C176.73 205.387 177.377 205.48 178.07 205.48C179.99 205.48 180.95 204.493 180.95 202.52V200.8C180.67 201.413 180.23 201.9 179.63 202.26C179.043 202.607 178.37 202.78 177.61 202.78C176.717 202.78 175.943 202.573 175.29 202.16C174.637 201.747 174.13 201.18 173.77 200.46C173.423 199.727 173.25 198.88 173.25 197.92C173.25 196.96 173.423 196.12 173.77 195.4C174.13 194.667 174.637 194.1 175.29 193.7C175.943 193.3 176.717 193.1 177.61 193.1C178.37 193.1 179.043 193.273 179.63 193.62C180.23 193.967 180.67 194.44 180.95 195.04V193.28H182.53V202.3C182.53 203.793 182.157 204.913 181.41 205.66C180.677 206.407 179.59 206.78 178.15 206.78ZM177.91 201.46C178.843 201.46 179.583 201.14 180.13 200.5C180.677 199.86 180.95 199 180.95 197.92C180.95 196.84 180.677 195.987 180.13 195.36C179.583 194.72 178.843 194.4 177.91 194.4C176.99 194.4 176.257 194.72 175.71 195.36C175.163 195.987 174.89 196.84 174.89 197.92C174.89 199 175.163 199.86 175.71 200.5C176.257 201.14 176.99 201.46 177.91 201.46ZM185.369 190.86V189.04H187.369V190.86H185.369ZM185.569 203V193.28H187.189V203H185.569ZM194.337 203.18C193.364 203.18 192.524 202.973 191.817 202.56C191.111 202.133 190.564 201.54 190.177 200.78C189.804 200.007 189.617 199.107 189.617 198.08C189.617 196.533 190.037 195.32 190.877 194.44C191.717 193.547 192.871 193.1 194.337 193.1C194.937 193.1 195.531 193.207 196.117 193.42C196.704 193.633 197.191 193.933 197.577 194.32L197.017 195.5C196.631 195.127 196.204 194.853 195.737 194.68C195.284 194.507 194.851 194.42 194.437 194.42C193.424 194.42 192.644 194.74 192.097 195.38C191.551 196.007 191.277 196.913 191.277 198.1C191.277 199.26 191.551 200.18 192.097 200.86C192.644 201.527 193.424 201.86 194.437 201.86C194.851 201.86 195.284 201.773 195.737 201.6C196.204 201.427 196.631 201.147 197.017 200.76L197.577 201.94C197.191 202.327 196.697 202.633 196.097 202.86C195.511 203.073 194.924 203.18 194.337 203.18Z" fill="#FEC631"/>
</g>
<defs>
<filter id="filter0_d_935_748" x="0" y="17.1487" width="262" height="227.702" filterUnits="userSpaceOnUse" color-interpolation-filters="sRGB">
<feFlood flood-opacity="0" result="BackgroundImageFix"/>
<feColorMatrix in="SourceAlpha" type="matrix" values="0 0 0 0 0 0 0 0 0 0 0 0 0 0 0 0 0 0 127 0" result="hardAlpha"/>
<feOffset dy="3"/>
<feGaussianBlur stdDeviation="1.5"/>
<feComposite in2="hardAlpha" operator="out"/>
<feColorMatrix type="matrix" values="0 0 0 0 0 0 0 0 0 0 0 0 0 0 0 0 0 0 0.25 0"/>
<feBlend mode="normal" in2="BackgroundImageFix" result="effect1_dropShadow_935_748"/>
<feBlend mode="normal" in="SourceGraphic" in2="effect1_dropShadow_935_748" result="shape"/>
</filter>
<filter id="filter1_d_935_748" x="52" y="32" width="158" height="158" filterUnits="userSpaceOnUse" color-interpolation-filters="sRGB">
<feFlood flood-opacity="0" result="BackgroundImageFix"/>
<feColorMatrix in="SourceAlpha" type="matrix" values="0 0 0 0 0 0 0 0 0 0 0 0 0 0 0 0 0 0 127 0" result="hardAlpha"/>
<feOffset/>
<feGaussianBlur stdDeviation="7.5"/>
<feColorMatrix type="matrix" values="0 0 0 0 0.996078 0 0 0 0 0.776471 0 0 0 0 0.192157 0 0 0 0.5 0"/>
<feBlend mode="normal" in2="BackgroundImageFix" result="effect1_dropShadow_935_748"/>
<feBlend mode="normal" in="SourceGraphic" in2="effect1_dropShadow_935_748" result="shape"/>
</filter>
<filter id="filter2_d_935_748" x="51.7849" y="173.9" width="160.792" height="47.88" filterUnits="userSpaceOnUse" color-interpolation-filters="sRGB">
<feFlood flood-opacity="0" result="BackgroundImageFix"/>
<feColorMatrix in="SourceAlpha" type="matrix" values="0 0 0 0 0 0 0 0 0 0 0 0 0 0 0 0 0 0 127 0" result="hardAlpha"/>
<feOffset/>
<feGaussianBlur stdDeviation="7.5"/>
<feColorMatrix type="matrix" values="0 0 0 0 0.996078 0 0 0 0 0.776471 0 0 0 0 0.192157 0 0 0 0.5 0"/>
<feBlend mode="normal" in2="BackgroundImageFix" result="effect1_dropShadow_935_748"/>
<feBlend mode="normal" in="SourceGraphic" in2="effect1_dropShadow_935_748" result="shape"/>
</filter>
</defs>
</svg>
