<svg width="266" height="260" viewBox="0 0 266 260" fill="none" xmlns="http://www.w3.org/2000/svg">
<g filter="url(#filter0_d_660_299)">
<path d="M263 130L198 242.583L68 242.583L2.99999 130L68 17.4167L198 17.4167L263 130Z" fill="#F21E2C" fill-opacity="0.2" shape-rendering="crispEdges"/>
<path d="M196.557 19.9167L260.113 130L196.557 240.083L69.4434 240.083L5.88674 130L69.4434 19.9167L196.557 19.9167Z" stroke="#FF9520" stroke-width="5" stroke-miterlimit="1.36733" stroke-linecap="round" shape-rendering="crispEdges"/>
</g>
<g filter="url(#filter1_d_660_299)">
<path d="M67.7771 218.047V203.947H73.4171C74.8704 203.947 75.9904 204.274 76.7771 204.927C77.5771 205.567 77.9771 206.467 77.9771 207.627C77.9771 208.4 77.7771 209.06 77.3771 209.607C76.9771 210.154 76.4238 210.554 75.7171 210.807C76.5304 211.02 77.1638 211.414 77.6171 211.987C78.0838 212.56 78.3171 213.287 78.3171 214.167C78.3171 215.42 77.9104 216.38 77.0971 217.047C76.2838 217.714 75.1371 218.047 73.6571 218.047H67.7771ZM69.3771 210.247H73.1771C75.2971 210.247 76.3571 209.42 76.3571 207.767C76.3571 206.1 75.2971 205.267 73.1771 205.267H69.3771V210.247ZM69.3771 216.727H73.4971C75.6304 216.727 76.6971 215.867 76.6971 214.147C76.6971 212.427 75.6304 211.567 73.4971 211.567H69.3771V216.727ZM84.5127 218.227C82.1794 218.227 81.0127 216.94 81.0127 214.367V208.327H82.6327V214.347C82.6327 215.214 82.8061 215.854 83.1527 216.267C83.5127 216.68 84.0727 216.887 84.8327 216.887C85.6594 216.887 86.3327 216.614 86.8527 216.067C87.3727 215.507 87.6327 214.767 87.6327 213.847V208.327H89.2527V218.047H87.6727V216.407C87.3661 216.994 86.9327 217.447 86.3727 217.767C85.8261 218.074 85.2061 218.227 84.5127 218.227ZM95.5637 218.227C94.8037 218.227 94.0837 218.12 93.4037 217.907C92.7237 217.694 92.1637 217.394 91.7237 217.007L92.2437 215.867C92.7237 216.254 93.2503 216.54 93.8237 216.727C94.4103 216.9 95.0037 216.987 95.6037 216.987C96.3637 216.987 96.937 216.847 97.3237 216.567C97.7103 216.287 97.9037 215.907 97.9037 215.427C97.9037 215.054 97.777 214.76 97.5237 214.547C97.2703 214.32 96.8703 214.147 96.3237 214.027L94.5037 213.627C92.8503 213.267 92.0237 212.414 92.0237 211.067C92.0237 210.187 92.3703 209.48 93.0637 208.947C93.7703 208.414 94.6903 208.147 95.8237 208.147C96.4903 208.147 97.1237 208.254 97.7237 208.467C98.337 208.667 98.8437 208.967 99.2437 209.367L98.7037 210.507C98.317 210.147 97.8637 209.874 97.3437 209.687C96.837 209.487 96.3303 209.387 95.8237 209.387C95.077 209.387 94.5103 209.534 94.1237 209.827C93.737 210.12 93.5437 210.507 93.5437 210.987C93.5437 211.734 94.037 212.214 95.0237 212.427L96.8437 212.807C97.697 212.994 98.3437 213.294 98.7837 213.707C99.2237 214.107 99.4437 214.654 99.4437 215.347C99.4437 216.24 99.0903 216.947 98.3837 217.467C97.677 217.974 96.737 218.227 95.5637 218.227ZM101.713 205.907V204.087H103.713V205.907H101.713ZM101.913 218.047V208.327H103.533V218.047H101.913ZM106.561 218.047V208.327H108.141V209.987C108.461 209.374 108.914 208.914 109.501 208.607C110.088 208.3 110.748 208.147 111.481 208.147C113.788 208.147 114.941 209.427 114.941 211.987V218.047H113.321V212.087C113.321 211.18 113.141 210.52 112.781 210.107C112.434 209.68 111.874 209.467 111.101 209.467C110.208 209.467 109.494 209.747 108.961 210.307C108.441 210.854 108.181 211.587 108.181 212.507V218.047H106.561ZM122.308 218.227C120.775 218.227 119.562 217.78 118.668 216.887C117.775 215.98 117.328 214.754 117.328 213.207C117.328 212.207 117.528 211.327 117.928 210.567C118.328 209.794 118.875 209.2 119.568 208.787C120.275 208.36 121.088 208.147 122.008 208.147C123.328 208.147 124.362 208.574 125.108 209.427C125.855 210.267 126.228 211.427 126.228 212.907V213.527H118.908C118.962 214.634 119.282 215.48 119.868 216.067C120.455 216.64 121.268 216.927 122.308 216.927C122.895 216.927 123.455 216.84 123.988 216.667C124.522 216.48 125.028 216.18 125.508 215.767L126.068 216.907C125.628 217.32 125.068 217.647 124.388 217.887C123.708 218.114 123.015 218.227 122.308 218.227ZM122.048 209.347C121.128 209.347 120.402 209.634 119.868 210.207C119.335 210.78 119.022 211.534 118.928 212.467H124.828C124.788 211.48 124.528 210.714 124.048 210.167C123.582 209.62 122.915 209.347 122.048 209.347ZM131.853 218.227C131.093 218.227 130.373 218.12 129.693 217.907C129.013 217.694 128.453 217.394 128.013 217.007L128.533 215.867C129.013 216.254 129.539 216.54 130.113 216.727C130.699 216.9 131.293 216.987 131.893 216.987C132.653 216.987 133.226 216.847 133.613 216.567C133.999 216.287 134.193 215.907 134.193 215.427C134.193 215.054 134.066 214.76 133.813 214.547C133.559 214.32 133.159 214.147 132.613 214.027L130.793 213.627C129.139 213.267 128.313 212.414 128.313 211.067C128.313 210.187 128.659 209.48 129.353 208.947C130.059 208.414 130.979 208.147 132.113 208.147C132.779 208.147 133.413 208.254 134.013 208.467C134.626 208.667 135.133 208.967 135.533 209.367L134.993 210.507C134.606 210.147 134.153 209.874 133.633 209.687C133.126 209.487 132.619 209.387 132.113 209.387C131.366 209.387 130.799 209.534 130.413 209.827C130.026 210.12 129.833 210.507 129.833 210.987C129.833 211.734 130.326 212.214 131.313 212.427L133.133 212.807C133.986 212.994 134.633 213.294 135.073 213.707C135.513 214.107 135.733 214.654 135.733 215.347C135.733 216.24 135.379 216.947 134.673 217.467C133.966 217.974 133.026 218.227 131.853 218.227ZM141.482 218.227C140.722 218.227 140.002 218.12 139.322 217.907C138.642 217.694 138.082 217.394 137.642 217.007L138.162 215.867C138.642 216.254 139.168 216.54 139.742 216.727C140.328 216.9 140.922 216.987 141.522 216.987C142.282 216.987 142.855 216.847 143.242 216.567C143.628 216.287 143.822 215.907 143.822 215.427C143.822 215.054 143.695 214.76 143.442 214.547C143.188 214.32 142.788 214.147 142.242 214.027L140.422 213.627C138.768 213.267 137.942 212.414 137.942 211.067C137.942 210.187 138.288 209.48 138.982 208.947C139.688 208.414 140.608 208.147 141.742 208.147C142.408 208.147 143.042 208.254 143.642 208.467C144.255 208.667 144.762 208.967 145.162 209.367L144.622 210.507C144.235 210.147 143.782 209.874 143.262 209.687C142.755 209.487 142.248 209.387 141.742 209.387C140.995 209.387 140.428 209.534 140.042 209.827C139.655 210.12 139.462 210.507 139.462 210.987C139.462 211.734 139.955 212.214 140.942 212.427L142.762 212.807C143.615 212.994 144.262 213.294 144.702 213.707C145.142 214.107 145.362 214.654 145.362 215.347C145.362 216.24 145.008 216.947 144.302 217.467C143.595 217.974 142.655 218.227 141.482 218.227ZM153.187 218.047V203.947H154.827V216.607H162.007V218.047H153.187ZM167.769 218.227C166.822 218.227 166.002 218.02 165.309 217.607C164.616 217.194 164.076 216.614 163.689 215.867C163.316 215.107 163.129 214.214 163.129 213.187C163.129 212.16 163.316 211.274 163.689 210.527C164.076 209.767 164.616 209.18 165.309 208.767C166.002 208.354 166.822 208.147 167.769 208.147C168.702 208.147 169.516 208.354 170.209 208.767C170.916 209.18 171.456 209.767 171.829 210.527C172.216 211.274 172.409 212.16 172.409 213.187C172.409 214.214 172.216 215.107 171.829 215.867C171.456 216.614 170.916 217.194 170.209 217.607C169.516 218.02 168.702 218.227 167.769 218.227ZM167.769 216.927C168.676 216.927 169.402 216.607 169.949 215.967C170.496 215.314 170.769 214.387 170.769 213.187C170.769 211.974 170.496 211.047 169.949 210.407C169.402 209.767 168.676 209.447 167.769 209.447C166.849 209.447 166.116 209.767 165.569 210.407C165.036 211.047 164.769 211.974 164.769 213.187C164.769 214.387 165.036 215.314 165.569 215.967C166.116 216.607 166.849 216.927 167.769 216.927ZM179.142 221.827C178.302 221.827 177.509 221.714 176.762 221.487C176.029 221.274 175.376 220.947 174.802 220.507L175.342 219.327C175.942 219.754 176.536 220.06 177.122 220.247C177.722 220.434 178.369 220.527 179.062 220.527C180.982 220.527 181.942 219.54 181.942 217.567V215.847C181.662 216.46 181.222 216.947 180.622 217.307C180.036 217.654 179.362 217.827 178.602 217.827C177.709 217.827 176.936 217.62 176.282 217.207C175.629 216.794 175.122 216.227 174.762 215.507C174.416 214.774 174.242 213.927 174.242 212.967C174.242 212.007 174.416 211.167 174.762 210.447C175.122 209.714 175.629 209.147 176.282 208.747C176.936 208.347 177.709 208.147 178.602 208.147C179.362 208.147 180.036 208.32 180.622 208.667C181.222 209.014 181.662 209.487 181.942 210.087V208.327H183.522V217.347C183.522 218.84 183.149 219.96 182.402 220.707C181.669 221.454 180.582 221.827 179.142 221.827ZM178.902 216.507C179.836 216.507 180.576 216.187 181.122 215.547C181.669 214.907 181.942 214.047 181.942 212.967C181.942 211.887 181.669 211.034 181.122 210.407C180.576 209.767 179.836 209.447 178.902 209.447C177.982 209.447 177.249 209.767 176.702 210.407C176.156 211.034 175.882 211.887 175.882 212.967C175.882 214.047 176.156 214.907 176.702 215.547C177.249 216.187 177.982 216.507 178.902 216.507ZM186.361 205.907V204.087H188.361V205.907H186.361ZM186.561 218.047V208.327H188.181V218.047H186.561ZM195.329 218.227C194.356 218.227 193.516 218.02 192.809 217.607C192.103 217.18 191.556 216.587 191.169 215.827C190.796 215.054 190.609 214.154 190.609 213.127C190.609 211.58 191.029 210.367 191.869 209.487C192.709 208.594 193.863 208.147 195.329 208.147C195.929 208.147 196.523 208.254 197.109 208.467C197.696 208.68 198.183 208.98 198.569 209.367L198.009 210.547C197.623 210.174 197.196 209.9 196.729 209.727C196.276 209.554 195.843 209.467 195.429 209.467C194.416 209.467 193.636 209.787 193.089 210.427C192.543 211.054 192.269 211.96 192.269 213.147C192.269 214.307 192.543 215.227 193.089 215.907C193.636 216.574 194.416 216.907 195.429 216.907C195.843 216.907 196.276 216.82 196.729 216.647C197.196 216.474 197.623 216.194 198.009 215.807L198.569 216.987C198.183 217.374 197.689 217.68 197.089 217.907C196.503 218.12 195.916 218.227 195.329 218.227Z" fill="#FEC631"/>
</g>
<g filter="url(#filter2_d_660_299)">
<path d="M186.103 145.67V127.098C186.103 124.635 185.124 122.274 183.383 120.532C181.642 118.791 179.28 117.812 176.817 117.812H139.674V99.2411H181.46C183.923 99.2411 186.284 98.2628 188.026 96.5213C189.767 94.7799 190.746 92.4181 190.746 89.9554V62.0982C190.746 59.6355 189.767 57.2736 188.026 55.5322C186.284 53.7908 183.923 52.8125 181.46 52.8125H88.6027C86.14 52.8125 83.7781 53.7908 82.0367 55.5322C80.2953 57.2736 79.317 59.6355 79.317 62.0982V89.9554C79.317 92.4181 80.2953 94.7799 82.0367 96.5213C83.7781 98.2628 86.14 99.2411 88.6027 99.2411H130.388V117.812H93.2455C90.7828 117.812 88.421 118.791 86.6795 120.532C84.9381 122.274 83.9598 124.635 83.9598 127.098V145.67H79.317C76.8542 145.67 74.4924 146.648 72.751 148.389C71.0096 150.131 70.0312 152.493 70.0312 154.955V173.527C70.0312 175.99 71.0096 178.351 72.751 180.093C74.4924 181.834 76.8542 182.812 79.317 182.812H97.8884C100.351 182.812 102.713 181.834 104.454 180.093C106.196 178.351 107.174 175.99 107.174 173.527V154.955C107.174 152.493 106.196 150.131 104.454 148.389C102.713 146.648 100.351 145.67 97.8884 145.67H93.2455V127.098H130.388V145.67H125.746C123.283 145.67 120.921 146.648 119.18 148.389C117.438 150.131 116.46 152.493 116.46 154.955V173.527C116.46 175.99 117.438 178.351 119.18 180.093C120.921 181.834 123.283 182.812 125.746 182.812H144.317C146.78 182.812 149.142 181.834 150.883 180.093C152.624 178.351 153.603 175.99 153.603 173.527V154.955C153.603 152.493 152.624 150.131 150.883 148.389C149.142 146.648 146.78 145.67 144.317 145.67H139.674V127.098H176.817V145.67H172.174C169.711 145.67 167.35 146.648 165.608 148.389C163.867 150.131 162.888 152.493 162.888 154.955V173.527C162.888 175.99 163.867 178.351 165.608 180.093C167.35 181.834 169.711 182.812 172.174 182.812H190.746C193.208 182.812 195.57 181.834 197.312 180.093C199.053 178.351 200.031 175.99 200.031 173.527V154.955C200.031 152.493 199.053 150.131 197.312 148.389C195.57 146.648 193.208 145.67 190.746 145.67H186.103ZM97.8884 173.527H79.317V154.955H97.8884V173.527ZM144.317 154.955V173.527H125.746V154.955H144.317ZM88.6027 89.9554V62.0982H181.46V89.9554H88.6027ZM190.746 173.527H172.174V154.955H190.746V173.527Z" fill="#FEC631"/>
</g>
<defs>
<filter id="filter0_d_660_299" x="0" y="17.4166" width="266" height="231.167" filterUnits="userSpaceOnUse" color-interpolation-filters="sRGB">
<feFlood flood-opacity="0" result="BackgroundImageFix"/>
<feColorMatrix in="SourceAlpha" type="matrix" values="0 0 0 0 0 0 0 0 0 0 0 0 0 0 0 0 0 0 127 0" result="hardAlpha"/>
<feOffset dy="3"/>
<feGaussianBlur stdDeviation="1.5"/>
<feComposite in2="hardAlpha" operator="out"/>
<feColorMatrix type="matrix" values="0 0 0 0 0 0 0 0 0 0 0 0 0 0 0 0 0 0 0.25 0"/>
<feBlend mode="normal" in2="BackgroundImageFix" result="effect1_dropShadow_660_299"/>
<feBlend mode="normal" in="SourceGraphic" in2="effect1_dropShadow_660_299" result="shape"/>
</filter>
<filter id="filter1_d_660_299" x="52.7771" y="188.947" width="160.792" height="47.88" filterUnits="userSpaceOnUse" color-interpolation-filters="sRGB">
<feFlood flood-opacity="0" result="BackgroundImageFix"/>
<feColorMatrix in="SourceAlpha" type="matrix" values="0 0 0 0 0 0 0 0 0 0 0 0 0 0 0 0 0 0 127 0" result="hardAlpha"/>
<feOffset/>
<feGaussianBlur stdDeviation="7.5"/>
<feColorMatrix type="matrix" values="0 0 0 0 0.996078 0 0 0 0 0.776471 0 0 0 0 0.192157 0 0 0 0.5 0"/>
<feBlend mode="normal" in2="BackgroundImageFix" result="effect1_dropShadow_660_299"/>
<feBlend mode="normal" in="SourceGraphic" in2="effect1_dropShadow_660_299" result="shape"/>
</filter>
<filter id="filter2_d_660_299" x="66.0312" y="52.8125" width="138" height="138" filterUnits="userSpaceOnUse" color-interpolation-filters="sRGB">
<feFlood flood-opacity="0" result="BackgroundImageFix"/>
<feColorMatrix in="SourceAlpha" type="matrix" values="0 0 0 0 0 0 0 0 0 0 0 0 0 0 0 0 0 0 127 0" result="hardAlpha"/>
<feOffset dy="4"/>
<feGaussianBlur stdDeviation="2"/>
<feComposite in2="hardAlpha" operator="out"/>
<feColorMatrix type="matrix" values="0 0 0 0 0 0 0 0 0 0 0 0 0 0 0 0 0 0 0.5 0"/>
<feBlend mode="normal" in2="BackgroundImageFix" result="effect1_dropShadow_660_299"/>
<feBlend mode="normal" in="SourceGraphic" in2="effect1_dropShadow_660_299" result="shape"/>
</filter>
</defs>
</svg>
