<svg width="139" height="133" viewBox="0 0 139 133" fill="none" xmlns="http://www.w3.org/2000/svg">
<g filter="url(#filter0_d_660_273)">
<path d="M136 66.5L102.75 124.091L36.25 124.091L3 66.5L36.25 8.9093L102.75 8.90931L136 66.5Z" fill="#F21E2C" fill-opacity="0.2" shape-rendering="crispEdges"/>
<path d="M101.307 11.4093L133.113 66.5L101.307 121.591L37.6934 121.591L5.88676 66.5L37.6934 11.4093L101.307 11.4093Z" stroke="#FF9520" stroke-width="5" stroke-miterlimit="1.36733" stroke-linecap="round" shape-rendering="crispEdges"/>
</g>
<g filter="url(#filter1_d_660_273)">
<path d="M54.2541 101.144C52.7714 101.144 51.6461 100.755 50.8781 99.976C50.1101 99.1867 49.7261 98.04 49.7261 96.536V89.72H51.0381V96.472C51.0381 98.808 52.1101 99.976 54.2541 99.976C56.3767 99.976 57.4381 98.808 57.4381 96.472V89.72H58.7501V96.536C58.7501 98.04 58.3661 99.1867 57.5981 99.976C56.8407 100.755 55.7261 101.144 54.2541 101.144ZM61.4467 101V89.72H62.7587V101H61.4467ZM64.8684 102.008L63.8444 101.704L67.9404 88.968L68.9804 89.272L64.8684 102.008ZM74.5197 101.144C73.037 101.144 71.9117 100.755 71.1437 99.976C70.3757 99.1867 69.9917 98.04 69.9917 96.536V89.72H71.3037V96.472C71.3037 98.808 72.3757 99.976 74.5197 99.976C76.6424 99.976 77.7037 98.808 77.7037 96.472V89.72H79.0157V96.536C79.0157 98.04 78.6317 99.1867 77.8637 99.976C77.1064 100.755 75.9917 101.144 74.5197 101.144ZM80.3397 101L84.6277 95.24L80.5477 89.72H82.0837L85.3957 94.248L88.6757 89.72H90.2277L86.1317 95.24L90.4197 101H88.8677L85.3797 96.232L81.9077 101H80.3397Z" fill="#FEC631"/>
</g>
<g filter="url(#filter2_d_660_273)">
<path d="M66 66.8918C64.6133 66.738 63.2494 66.4225 61.936 65.9518C61.976 65.0078 62 64.0238 62 62.9998V61.6518C63.24 62.2438 64.588 62.6558 66 62.8598V52.9997C66 51.4084 66.6321 49.8822 67.7574 48.757C68.8826 47.6318 70.4087 46.9996 72 46.9996H81.86C81.541 44.7832 80.695 42.6755 79.393 40.8537C78.0909 39.0318 76.3709 37.5488 74.3772 36.5292C72.3835 35.5096 70.1743 34.9832 67.935 34.994C65.6957 35.0048 63.4917 35.5527 61.508 36.5915C61.1916 35.2832 60.6705 34.0332 59.964 32.8875C62.5571 31.5932 65.4243 30.9441 68.322 30.9956C71.2197 31.047 74.0622 31.7973 76.6077 33.1828C79.1532 34.5683 81.3266 36.5479 82.943 38.9535C84.5594 41.359 85.5711 44.1193 85.892 46.9996H92C93.5913 46.9996 95.1174 47.6318 96.2426 48.757C97.3679 49.8822 98 51.4084 98 52.9997V72.9999C98 74.5912 97.3679 76.1174 96.2426 77.2426C95.1174 78.3678 93.5913 79 92 79H72C70.4087 79 68.8826 78.3678 67.7574 77.2426C66.6321 76.1174 66 74.5912 66 72.9999V66.8918ZM85.892 50.9997C85.4375 55.0581 83.6171 58.8415 80.7295 61.7292C77.8418 64.6169 74.0584 66.4373 70 66.8918V72.9999C70 73.5303 70.2107 74.0391 70.5858 74.4141C70.9609 74.7892 71.4696 74.9999 72 74.9999H92C92.5304 74.9999 93.0391 74.7892 93.4142 74.4141C93.7893 74.0391 94 73.5303 94 72.9999V52.9997C94 52.4693 93.7893 51.9605 93.4142 51.5855C93.0391 51.2104 92.5304 50.9997 92 50.9997H85.892ZM81.86 50.9997H72C71.4696 50.9997 70.9609 51.2104 70.5858 51.5855C70.2107 51.9605 70 52.4693 70 52.9997V62.8598C72.9919 62.4273 75.7636 61.0386 77.9012 58.901C80.0388 56.7634 81.4275 53.9916 81.86 50.9997ZM57.18 53.2437C56.76 51.6997 56.08 50.1517 54.912 48.9637C56.8 47.1756 58 44.3276 58 40.9996C58 38.2115 57.436 36.2955 56.416 34.7635C55.9634 34.1046 55.4403 33.497 54.856 32.9515C54.6321 32.7353 54.4054 32.5219 54.176 32.3115C53.932 32.0835 53.708 31.8755 53.416 31.5835C52.816 30.9835 52.748 30.5035 52.748 30.2515C52.7487 30.1114 52.7716 29.9723 52.816 29.8395C52.9989 29.444 53.0476 28.9995 52.9547 28.5738C52.8619 28.1481 52.6325 27.7643 52.3016 27.4809C51.9706 27.1975 51.5562 27.0299 51.1212 27.0036C50.6863 26.9774 50.2547 27.0939 49.892 27.3354L49.884 27.3394L49.872 27.3474L49.836 27.3714L49.716 27.4514C49.116 27.8794 48.5379 28.3373 47.984 28.8234C46.984 29.7075 45.68 31.0155 44.756 32.5755C43.9494 33.8688 43.302 35.2549 42.828 36.7035C42.348 38.1395 42 39.6956 42 40.9996C42 44.3276 43.2 47.1716 45.088 48.9677C43.92 50.1517 43.24 51.6997 42.82 53.2477C42 56.2557 42 59.9758 42 62.8518V62.9998C42 71.2319 43.54 76.1199 45.284 79.028C46.16 80.484 47.072 81.424 47.836 82.016C48.2431 82.3335 48.6861 82.602 49.156 82.816C49.4277 82.9152 49.7116 82.9771 50 83C50.336 83 50.844 82.816 50.844 82.816C51.3139 82.602 51.7569 82.3335 52.164 82.016C52.924 81.424 53.844 80.484 54.716 79.028C56.46 76.1239 58 71.2319 58 62.9998V62.8558C58 59.9758 58 56.2597 57.18 53.2437ZM47.948 51.7637C48.4 51.3077 49.004 50.9997 50 50.9997C51 50.9997 51.6 51.3117 52.052 51.7597C52.556 52.2677 52.992 53.0917 53.32 54.2957C53.984 56.7397 54 59.9478 54 62.9998C54 70.7679 52.54 74.8799 51.284 76.9719C50.804 77.7719 50.352 78.288 50 78.612C49.4971 78.1283 49.0648 77.5762 48.716 76.9719C47.46 74.8759 46 70.7679 46 62.9998C46 59.9478 46.016 56.7397 46.68 54.2957C47.008 53.0957 47.444 52.2717 47.948 51.7637ZM50 46.9996C48.46 46.9996 46 45.2876 46 40.9996C46 40.3076 46.208 39.2116 46.624 37.9715C47.0031 36.8009 47.5257 35.6817 48.18 34.6395C48.528 34.0515 48.98 33.4795 49.468 32.9555C49.744 33.4435 50.108 33.9355 50.588 34.4155C50.88 34.7075 51.26 35.0595 51.584 35.3635L52.08 35.8275C52.5 36.2355 52.824 36.5915 53.084 36.9875C53.564 37.7035 54 38.7875 54 40.9996C54 45.2876 51.54 46.9996 50 46.9996Z" fill="#FEC631"/>
</g>
<defs>
<filter id="filter0_d_660_273" x="0" y="8.9093" width="139" height="121.181" filterUnits="userSpaceOnUse" color-interpolation-filters="sRGB">
<feFlood flood-opacity="0" result="BackgroundImageFix"/>
<feColorMatrix in="SourceAlpha" type="matrix" values="0 0 0 0 0 0 0 0 0 0 0 0 0 0 0 0 0 0 127 0" result="hardAlpha"/>
<feOffset dy="3"/>
<feGaussianBlur stdDeviation="1.5"/>
<feComposite in2="hardAlpha" operator="out"/>
<feColorMatrix type="matrix" values="0 0 0 0 0 0 0 0 0 0 0 0 0 0 0 0 0 0 0.25 0"/>
<feBlend mode="normal" in2="BackgroundImageFix" result="effect1_dropShadow_660_273"/>
<feBlend mode="normal" in="SourceGraphic" in2="effect1_dropShadow_660_273" result="shape"/>
</filter>
<filter id="filter1_d_660_273" x="34.7261" y="73.968" width="70.6936" height="43.04" filterUnits="userSpaceOnUse" color-interpolation-filters="sRGB">
<feFlood flood-opacity="0" result="BackgroundImageFix"/>
<feColorMatrix in="SourceAlpha" type="matrix" values="0 0 0 0 0 0 0 0 0 0 0 0 0 0 0 0 0 0 127 0" result="hardAlpha"/>
<feOffset/>
<feGaussianBlur stdDeviation="7.5"/>
<feComposite in2="hardAlpha" operator="out"/>
<feColorMatrix type="matrix" values="0 0 0 0 1 0 0 0 0 0.996078 0 0 0 0 0.909804 0 0 0 0.5 0"/>
<feBlend mode="normal" in2="BackgroundImageFix" result="effect1_dropShadow_660_273"/>
<feBlend mode="normal" in="SourceGraphic" in2="effect1_dropShadow_660_273" result="shape"/>
</filter>
<filter id="filter2_d_660_273" x="27" y="12" width="86" height="86" filterUnits="userSpaceOnUse" color-interpolation-filters="sRGB">
<feFlood flood-opacity="0" result="BackgroundImageFix"/>
<feColorMatrix in="SourceAlpha" type="matrix" values="0 0 0 0 0 0 0 0 0 0 0 0 0 0 0 0 0 0 127 0" result="hardAlpha"/>
<feOffset/>
<feGaussianBlur stdDeviation="7.5"/>
<feComposite in2="hardAlpha" operator="out"/>
<feColorMatrix type="matrix" values="0 0 0 0 0 0 0 0 0 0 0 0 0 0 0 0 0 0 0.5 0"/>
<feBlend mode="normal" in2="BackgroundImageFix" result="effect1_dropShadow_660_273"/>
<feBlend mode="normal" in="SourceGraphic" in2="effect1_dropShadow_660_273" result="shape"/>
</filter>
</defs>
</svg>
