<svg width="139" height="133" viewBox="0 0 139 133" fill="none" xmlns="http://www.w3.org/2000/svg">
<g filter="url(#filter0_d_690_792)">
<path d="M136 66.5L102.75 124.091L36.25 124.091L3 66.5L36.25 8.9093L102.75 8.90931L136 66.5Z" fill="#F21E2C" fill-opacity="0.2" shape-rendering="crispEdges"/>
<path d="M101.307 11.4093L133.113 66.5L101.307 121.591L37.6934 121.591L5.88676 66.5L37.6934 11.4093L101.307 11.4093Z" stroke="#FF9520" stroke-width="5" stroke-miterlimit="1.36733" stroke-linecap="round" shape-rendering="crispEdges"/>
</g>
<g filter="url(#filter1_d_690_792)">
<path d="M40.4311 105V93.72H44.2391C46.0631 93.72 47.4711 94.2053 48.4631 95.176C49.4551 96.136 49.9511 97.528 49.9511 99.352C49.9511 101.176 49.4551 102.573 48.4631 103.544C47.4711 104.515 46.0631 105 44.2391 105H40.4311ZM41.7431 103.88H44.1431C47.0871 103.88 48.5591 102.371 48.5591 99.352C48.5591 96.344 47.0871 94.84 44.1431 94.84H41.7431V103.88ZM55.6341 105.144C54.4074 105.144 53.4367 104.787 52.7221 104.072C52.0074 103.347 51.6501 102.365 51.6501 101.128C51.6501 100.328 51.8101 99.624 52.1301 99.016C52.4501 98.3973 52.8874 97.9227 53.4421 97.592C54.0074 97.2507 54.6581 97.08 55.3941 97.08C56.4501 97.08 57.2767 97.4213 57.8741 98.104C58.4714 98.776 58.7701 99.704 58.7701 100.888V101.384H52.9141C52.9567 102.269 53.2127 102.947 53.6821 103.416C54.1514 103.875 54.8021 104.104 55.6341 104.104C56.1034 104.104 56.5514 104.035 56.9781 103.896C57.4047 103.747 57.8101 103.507 58.1941 103.176L58.6421 104.088C58.2901 104.419 57.8421 104.68 57.2981 104.872C56.7541 105.053 56.1994 105.144 55.6341 105.144ZM55.4261 98.04C54.6901 98.04 54.1087 98.2693 53.6821 98.728C53.2554 99.1867 53.0047 99.7893 52.9301 100.536H57.6501C57.6181 99.7467 57.4101 99.1333 57.0261 98.696C56.6527 98.2587 56.1194 98.04 55.4261 98.04ZM63.0297 105.144C62.2404 105.144 61.643 104.915 61.2377 104.456C60.843 103.987 60.6457 103.309 60.6457 102.424V93.72H61.9417V102.328C61.9417 103.469 62.395 104.04 63.3017 104.04C63.5684 104.04 63.8084 104.008 64.0217 103.944L63.9897 105.032C63.659 105.107 63.339 105.144 63.0297 105.144ZM65.2201 95.288V93.832H66.8201V95.288H65.2201ZM65.3801 105V97.224H66.6761V105H65.3801ZM71.3868 105L68.0428 97.224H69.4508L72.0268 103.528L74.6348 97.224H75.9628L72.6028 105H71.3868ZM80.7278 105.144C79.5011 105.144 78.5305 104.787 77.8158 104.072C77.1011 103.347 76.7438 102.365 76.7438 101.128C76.7438 100.328 76.9038 99.624 77.2238 99.016C77.5438 98.3973 77.9811 97.9227 78.5358 97.592C79.1011 97.2507 79.7518 97.08 80.4878 97.08C81.5438 97.08 82.3705 97.4213 82.9678 98.104C83.5651 98.776 83.8638 99.704 83.8638 100.888V101.384H78.0078C78.0505 102.269 78.3065 102.947 78.7758 103.416C79.2451 103.875 79.8958 104.104 80.7278 104.104C81.1971 104.104 81.6451 104.035 82.0718 103.896C82.4985 103.747 82.9038 103.507 83.2878 103.176L83.7358 104.088C83.3838 104.419 82.9358 104.68 82.3918 104.872C81.8478 105.053 81.2931 105.144 80.7278 105.144ZM80.5198 98.04C79.7838 98.04 79.2025 98.2693 78.7758 98.728C78.3491 99.1867 78.0985 99.7893 78.0238 100.536H82.7438C82.7118 99.7467 82.5038 99.1333 82.1198 98.696C81.7465 98.2587 81.2131 98.04 80.5198 98.04ZM85.7394 105V97.224H87.0034V98.616C87.4194 97.6773 88.2728 97.16 89.5634 97.064L90.0274 97.016L90.1234 98.136L89.3074 98.232C88.5714 98.296 88.0114 98.5307 87.6274 98.936C87.2434 99.3307 87.0514 99.8747 87.0514 100.568V105H85.7394ZM92.8542 107.88L94.1822 104.872L90.9022 97.224H92.3102L94.8862 103.528L97.4782 97.224H98.8382L94.2142 107.88H92.8542Z" fill="#FEC631"/>
</g>
<path d="M70.7585 45.6667C69.9919 45.6667 69.349 45.4107 68.8296 44.8987C68.3101 44.3867 68.0513 43.7538 68.0531 43C68.0531 42.2444 68.3128 41.6107 68.8323 41.0987C69.3517 40.5867 69.9938 40.3316 70.7585 40.3333C71.525 40.3333 72.1679 40.5893 72.6873 41.1013C73.2068 41.6133 73.4656 42.2462 73.4638 43C73.4638 43.7556 73.2041 44.3893 72.6846 44.9013C72.1652 45.4133 71.5232 45.6684 70.7585 45.6667ZM68.0531 36.3333V23H73.4638V36.3333H68.0531ZM57.2319 79C55.744 79 54.4698 78.4773 53.4093 77.432C52.3488 76.3867 51.8195 75.1316 51.8213 73.6667C51.8213 72.2 52.3515 70.944 53.412 69.8987C54.4725 68.8533 55.7458 68.3316 57.2319 68.3333C58.7198 68.3333 59.994 68.856 61.0545 69.9013C62.115 70.9467 62.6443 72.2018 62.6425 73.6667C62.6425 75.1333 62.1123 76.3893 61.0518 77.4347C59.9913 78.48 58.718 79.0018 57.2319 79ZM84.285 79C82.7971 79 81.5229 78.4773 80.4624 77.432C79.4019 76.3867 78.8726 75.1316 78.8744 73.6667C78.8744 72.2 79.4046 70.944 80.4651 69.8987C81.5256 68.8533 82.7989 68.3316 84.285 68.3333C85.7729 68.3333 87.0471 68.856 88.1076 69.9013C89.1681 70.9467 89.6975 72.2018 89.6957 73.6667C89.6957 75.1333 89.1654 76.3893 88.1049 77.4347C87.0444 78.48 85.7711 79.0018 84.285 79ZM41 31V25.6667H49.8599L61.3575 49.6667H80.2947L90.8454 31H97L85.0966 52.2C84.6006 53.0889 83.9351 53.7778 83.1001 54.2667C82.2651 54.7556 81.3525 55 80.3623 55H60.2077L57.2319 60.3333H89.6957V65.6667H57.2319C55.2029 65.6667 53.6582 64.8 52.5977 63.0667C51.5372 61.3333 51.5038 59.5778 52.4976 57.8L56.1498 51.2667L46.4106 31H41Z" fill="#FEC631"/>
<defs>
<filter id="filter0_d_690_792" x="0" y="8.9093" width="139" height="121.181" filterUnits="userSpaceOnUse" color-interpolation-filters="sRGB">
<feFlood flood-opacity="0" result="BackgroundImageFix"/>
<feColorMatrix in="SourceAlpha" type="matrix" values="0 0 0 0 0 0 0 0 0 0 0 0 0 0 0 0 0 0 127 0" result="hardAlpha"/>
<feOffset dy="3"/>
<feGaussianBlur stdDeviation="1.5"/>
<feComposite in2="hardAlpha" operator="out"/>
<feColorMatrix type="matrix" values="0 0 0 0 0 0 0 0 0 0 0 0 0 0 0 0 0 0 0.25 0"/>
<feBlend mode="normal" in2="BackgroundImageFix" result="effect1_dropShadow_690_792"/>
<feBlend mode="normal" in="SourceGraphic" in2="effect1_dropShadow_690_792" result="shape"/>
</filter>
<filter id="filter1_d_690_792" x="25.4311" y="78.72" width="88.4071" height="44.16" filterUnits="userSpaceOnUse" color-interpolation-filters="sRGB">
<feFlood flood-opacity="0" result="BackgroundImageFix"/>
<feColorMatrix in="SourceAlpha" type="matrix" values="0 0 0 0 0 0 0 0 0 0 0 0 0 0 0 0 0 0 127 0" result="hardAlpha"/>
<feOffset/>
<feGaussianBlur stdDeviation="7.5"/>
<feComposite in2="hardAlpha" operator="out"/>
<feColorMatrix type="matrix" values="0 0 0 0 1 0 0 0 0 0.996078 0 0 0 0 0.909804 0 0 0 0.5 0"/>
<feBlend mode="normal" in2="BackgroundImageFix" result="effect1_dropShadow_690_792"/>
<feBlend mode="normal" in="SourceGraphic" in2="effect1_dropShadow_690_792" result="shape"/>
</filter>
</defs>
</svg>
