<svg width="206" height="200" viewBox="0 0 206 200" fill="none" xmlns="http://www.w3.org/2000/svg">
<g filter="url(#filter0_d_666_107)">
<path d="M203 100L153 186.603L53 186.603L3 100L53 13.3975L153 13.3975L203 100Z" fill="#F21E2C" fill-opacity="0.2" shape-rendering="crispEdges"/>
<path d="M151.557 15.8975L200.113 100L151.557 184.103L54.4434 184.103L5.88676 100L54.4434 15.8975L151.557 15.8975Z" stroke="#FF9520" stroke-width="5" stroke-miterlimit="1.36733" stroke-linecap="round" shape-rendering="crispEdges"/>
</g>
<g filter="url(#filter1_d_666_107)">
<g filter="url(#filter2_d_666_107)">
<path d="M103 126.531C88.6898 126.531 76.949 124.708 67.7775 121.063C58.6061 117.414 54.0204 112.72 54.0204 106.982V46.9388C54.0204 41.853 58.7959 37.5204 68.3469 33.9408C77.8898 30.3612 89.4408 28.5714 103 28.5714C116.559 28.5714 128.11 30.3612 137.653 33.9408C147.204 37.5204 151.98 41.853 151.98 46.9388V106.988C151.98 112.722 147.394 117.414 138.222 121.063C129.051 124.708 117.31 126.531 103 126.531ZM103 58.5102C111.767 58.5102 120.604 57.2877 129.51 54.8428C138.42 52.3979 143.751 49.7367 145.502 46.8592C143.829 43.8183 138.584 41.0306 129.767 38.4959C120.951 35.9612 112.029 34.6939 103 34.6939C94.1061 34.6939 85.1959 35.9163 76.2694 38.3612C67.3388 40.8102 62.002 43.4837 60.2592 46.3816C61.9245 49.4428 67.1816 52.2306 76.0306 54.7449C84.8796 57.2551 93.8694 58.5102 103 58.5102ZM103 89.3245C107.204 89.3245 111.337 89.1204 115.398 88.7122C119.459 88.3041 123.339 87.6979 127.037 86.8939C130.739 86.0898 134.178 85.0877 137.353 83.8877C140.524 82.6837 143.359 81.3286 145.857 79.8224V54.7449C143.359 56.2551 140.522 57.6081 137.347 58.8041C134.175 60.0081 130.739 61.0122 127.037 61.8163C123.335 62.6204 119.455 63.2265 115.398 63.6347C111.341 64.0428 107.208 64.2469 103 64.2469C98.6326 64.2469 94.3898 64.0224 90.2714 63.5735C86.149 63.1245 82.2571 62.5 78.5959 61.7C74.9347 60.8918 71.5428 59.9081 68.4204 58.749C65.2979 57.5857 62.5388 56.251 60.1428 54.7449V79.8224C62.5388 81.3326 65.2979 82.6673 68.4204 83.8265C71.5428 84.9857 74.9347 85.9694 78.5959 86.7775C82.2612 87.5816 86.153 88.2061 90.2714 88.651C94.3939 89.1 98.6367 89.3245 103 89.3245ZM103 120.408C108.245 120.408 113.231 120.11 117.957 119.514C122.684 118.918 126.933 118.071 130.704 116.973C134.471 115.88 137.675 114.573 140.316 113.055C142.949 111.537 144.796 109.894 145.857 108.127V85.9449C143.359 87.4551 140.522 88.8102 137.347 90.0102C134.175 91.2102 130.739 92.2122 127.037 93.0163C123.335 93.8204 119.455 94.4265 115.398 94.8347C111.341 95.2428 107.208 95.4469 103 95.4469C98.6326 95.4469 94.3898 95.2224 90.2714 94.7735C86.149 94.3245 82.2571 93.7 78.5959 92.9C74.9347 92.0959 71.5428 91.1122 68.4204 89.949C65.2979 88.7857 62.5388 87.451 60.1428 85.9449V108.163C61.2041 110.008 63.0469 111.665 65.6714 113.135C68.2959 114.604 71.4918 115.884 75.2592 116.973C79.0265 118.071 83.2816 118.918 88.0245 119.514C92.7632 120.11 97.7551 120.408 103 120.408Z" fill="#FEC631"/>
</g>
<g filter="url(#filter3_d_666_107)">
<path d="M66.2564 156.776V144.086H70.5404C72.5924 144.086 74.1764 144.632 75.2924 145.724C76.4084 146.804 76.9664 148.37 76.9664 150.422C76.9664 152.474 76.4084 154.046 75.2924 155.138C74.1764 156.23 72.5924 156.776 70.5404 156.776H66.2564ZM67.7324 155.516H70.4324C73.7444 155.516 75.4004 153.818 75.4004 150.422C75.4004 147.038 73.7444 145.346 70.4324 145.346H67.7324V155.516ZM82.1718 156.938C81.5718 156.938 81.0318 156.824 80.5518 156.596C80.0838 156.356 79.7118 156.032 79.4358 155.624C79.1598 155.216 79.0218 154.76 79.0218 154.256C79.0218 153.62 79.1838 153.116 79.5078 152.744C79.8438 152.372 80.3898 152.108 81.1458 151.952C81.9138 151.784 82.9578 151.7 84.2778 151.7H84.8538V151.142C84.8538 150.398 84.6978 149.864 84.3858 149.54C84.0858 149.204 83.5998 149.036 82.9278 149.036C82.3998 149.036 81.8898 149.114 81.3978 149.27C80.9058 149.414 80.4018 149.654 79.8858 149.99L79.3818 148.928C79.8378 148.604 80.3898 148.346 81.0378 148.154C81.6978 147.962 82.3278 147.866 82.9278 147.866C84.0558 147.866 84.8898 148.142 85.4298 148.694C85.9818 149.246 86.2578 150.104 86.2578 151.268V156.776H84.8898V155.264C84.6618 155.78 84.3078 156.188 83.8278 156.488C83.3598 156.788 82.8078 156.938 82.1718 156.938ZM82.4058 155.84C83.1258 155.84 83.7138 155.594 84.1698 155.102C84.6258 154.598 84.8538 153.962 84.8538 153.194V152.654H84.2958C83.3238 152.654 82.5558 152.702 81.9918 152.798C81.4398 152.882 81.0498 153.038 80.8218 153.266C80.6058 153.482 80.4978 153.782 80.4978 154.166C80.4978 154.658 80.6658 155.06 81.0018 155.372C81.3498 155.684 81.8178 155.84 82.4058 155.84ZM92.4727 156.938C91.4407 156.938 90.6667 156.668 90.1507 156.128C89.6347 155.576 89.3767 154.784 89.3767 153.752V149.162H87.6667V148.028H89.3767V145.346H90.8347V148.028H93.6067V149.162H90.8347V153.608C90.8347 154.292 90.9787 154.814 91.2667 155.174C91.5547 155.522 92.0227 155.696 92.6707 155.696C92.8627 155.696 93.0547 155.672 93.2467 155.624C93.4387 155.576 93.6127 155.528 93.7687 155.48L94.0207 156.596C93.8647 156.68 93.6367 156.758 93.3367 156.83C93.0367 156.902 92.7487 156.938 92.4727 156.938ZM98.0097 156.938C97.4097 156.938 96.8697 156.824 96.3897 156.596C95.9217 156.356 95.5497 156.032 95.2737 155.624C94.9977 155.216 94.8597 154.76 94.8597 154.256C94.8597 153.62 95.0217 153.116 95.3457 152.744C95.6817 152.372 96.2277 152.108 96.9837 151.952C97.7517 151.784 98.7957 151.7 100.116 151.7H100.692V151.142C100.692 150.398 100.536 149.864 100.224 149.54C99.9237 149.204 99.4377 149.036 98.7657 149.036C98.2377 149.036 97.7277 149.114 97.2357 149.27C96.7437 149.414 96.2397 149.654 95.7237 149.99L95.2197 148.928C95.6757 148.604 96.2277 148.346 96.8757 148.154C97.5357 147.962 98.1657 147.866 98.7657 147.866C99.8937 147.866 100.728 148.142 101.268 148.694C101.82 149.246 102.096 150.104 102.096 151.268V156.776H100.728V155.264C100.5 155.78 100.146 156.188 99.6657 156.488C99.1977 156.788 98.6457 156.938 98.0097 156.938ZM98.2437 155.84C98.9637 155.84 99.5517 155.594 100.008 155.102C100.464 154.598 100.692 153.962 100.692 153.194V152.654H100.134C99.1617 152.654 98.3937 152.702 97.8297 152.798C97.2777 152.882 96.8877 153.038 96.6597 153.266C96.4437 153.482 96.3357 153.782 96.3357 154.166C96.3357 154.658 96.5037 155.06 96.8397 155.372C97.1877 155.684 97.6557 155.84 98.2437 155.84ZM109.229 156.938C108.533 156.938 107.921 156.782 107.393 156.47C106.877 156.158 106.487 155.732 106.223 155.192V156.776H104.801V144.086H106.259V149.54C106.511 149.024 106.901 148.616 107.429 148.316C107.957 148.016 108.557 147.866 109.229 147.866C110.009 147.866 110.687 148.052 111.263 148.424C111.851 148.784 112.301 149.306 112.613 149.99C112.937 150.662 113.099 151.466 113.099 152.402C113.099 153.326 112.937 154.13 112.613 154.814C112.301 155.486 111.851 156.008 111.263 156.38C110.687 156.752 110.009 156.938 109.229 156.938ZM108.923 155.768C109.739 155.768 110.393 155.48 110.885 154.904C111.377 154.316 111.623 153.482 111.623 152.402C111.623 151.31 111.377 150.476 110.885 149.9C110.393 149.324 109.739 149.036 108.923 149.036C108.107 149.036 107.453 149.324 106.961 149.9C106.469 150.476 106.223 151.31 106.223 152.402C106.223 153.482 106.469 154.316 106.961 154.904C107.453 155.48 108.107 155.768 108.923 155.768ZM118.049 156.938C117.449 156.938 116.909 156.824 116.429 156.596C115.961 156.356 115.589 156.032 115.313 155.624C115.037 155.216 114.899 154.76 114.899 154.256C114.899 153.62 115.061 153.116 115.385 152.744C115.721 152.372 116.267 152.108 117.023 151.952C117.791 151.784 118.835 151.7 120.155 151.7H120.731V151.142C120.731 150.398 120.575 149.864 120.263 149.54C119.963 149.204 119.477 149.036 118.805 149.036C118.277 149.036 117.767 149.114 117.275 149.27C116.783 149.414 116.279 149.654 115.763 149.99L115.259 148.928C115.715 148.604 116.267 148.346 116.915 148.154C117.575 147.962 118.205 147.866 118.805 147.866C119.933 147.866 120.767 148.142 121.307 148.694C121.859 149.246 122.135 150.104 122.135 151.268V156.776H120.767V155.264C120.539 155.78 120.185 156.188 119.705 156.488C119.237 156.788 118.685 156.938 118.049 156.938ZM118.283 155.84C119.003 155.84 119.591 155.594 120.047 155.102C120.503 154.598 120.731 153.962 120.731 153.194V152.654H120.173C119.201 152.654 118.433 152.702 117.869 152.798C117.317 152.882 116.927 153.038 116.699 153.266C116.483 153.482 116.375 153.782 116.375 154.166C116.375 154.658 116.543 155.06 116.879 155.372C117.227 155.684 117.695 155.84 118.283 155.84ZM127.792 156.938C127.108 156.938 126.46 156.842 125.848 156.65C125.236 156.458 124.732 156.188 124.336 155.84L124.804 154.814C125.236 155.162 125.71 155.42 126.226 155.588C126.754 155.744 127.288 155.822 127.828 155.822C128.512 155.822 129.028 155.696 129.376 155.444C129.724 155.192 129.898 154.85 129.898 154.418C129.898 154.082 129.784 153.818 129.556 153.626C129.328 153.422 128.968 153.266 128.476 153.158L126.838 152.798C125.35 152.474 124.606 151.706 124.606 150.494C124.606 149.702 124.918 149.066 125.542 148.586C126.178 148.106 127.006 147.866 128.026 147.866C128.626 147.866 129.196 147.962 129.736 148.154C130.288 148.334 130.744 148.604 131.104 148.964L130.618 149.99C130.27 149.666 129.862 149.42 129.394 149.252C128.938 149.072 128.482 148.982 128.026 148.982C127.354 148.982 126.844 149.114 126.496 149.378C126.148 149.642 125.974 149.99 125.974 150.422C125.974 151.094 126.418 151.526 127.306 151.718L128.944 152.06C129.712 152.228 130.294 152.498 130.69 152.87C131.086 153.23 131.284 153.722 131.284 154.346C131.284 155.15 130.966 155.786 130.33 156.254C129.694 156.71 128.848 156.938 127.792 156.938ZM137.448 156.938C136.068 156.938 134.976 156.536 134.172 155.732C133.368 154.916 132.966 153.812 132.966 152.42C132.966 151.52 133.146 150.728 133.506 150.044C133.866 149.348 134.358 148.814 134.982 148.442C135.618 148.058 136.35 147.866 137.178 147.866C138.366 147.866 139.296 148.25 139.968 149.018C140.64 149.774 140.976 150.818 140.976 152.15V152.708H134.388C134.436 153.704 134.724 154.466 135.252 154.994C135.78 155.51 136.512 155.768 137.448 155.768C137.976 155.768 138.48 155.69 138.96 155.534C139.44 155.366 139.896 155.096 140.328 154.724L140.832 155.75C140.436 156.122 139.932 156.416 139.32 156.632C138.708 156.836 138.084 156.938 137.448 156.938ZM137.214 148.946C136.386 148.946 135.732 149.204 135.252 149.72C134.772 150.236 134.49 150.914 134.406 151.754H139.716C139.68 150.866 139.446 150.176 139.014 149.684C138.594 149.192 137.994 148.946 137.214 148.946Z" fill="#FEC631"/>
</g>
</g>
<defs>
<filter id="filter0_d_666_107" x="0" y="13.3975" width="206" height="179.205" filterUnits="userSpaceOnUse" color-interpolation-filters="sRGB">
<feFlood flood-opacity="0" result="BackgroundImageFix"/>
<feColorMatrix in="SourceAlpha" type="matrix" values="0 0 0 0 0 0 0 0 0 0 0 0 0 0 0 0 0 0 127 0" result="hardAlpha"/>
<feOffset dy="3"/>
<feGaussianBlur stdDeviation="1.5"/>
<feComposite in2="hardAlpha" operator="out"/>
<feColorMatrix type="matrix" values="0 0 0 0 0 0 0 0 0 0 0 0 0 0 0 0 0 0 0.25 0"/>
<feBlend mode="normal" in2="BackgroundImageFix" result="effect1_dropShadow_666_107"/>
<feBlend mode="normal" in="SourceGraphic" in2="effect1_dropShadow_666_107" result="shape"/>
</filter>
<filter id="filter1_d_666_107" x="39.0204" y="13.5714" width="127.959" height="158.366" filterUnits="userSpaceOnUse" color-interpolation-filters="sRGB">
<feFlood flood-opacity="0" result="BackgroundImageFix"/>
<feColorMatrix in="SourceAlpha" type="matrix" values="0 0 0 0 0 0 0 0 0 0 0 0 0 0 0 0 0 0 127 0" result="hardAlpha"/>
<feOffset/>
<feGaussianBlur stdDeviation="7.5"/>
<feColorMatrix type="matrix" values="0 0 0 0 0.996078 0 0 0 0 0.776471 0 0 0 0 0.192157 0 0 0 0.5 0"/>
<feBlend mode="normal" in2="BackgroundImageFix" result="effect1_dropShadow_666_107"/>
<feBlend mode="normal" in="SourceGraphic" in2="effect1_dropShadow_666_107" result="shape"/>
</filter>
<filter id="filter2_d_666_107" x="50.0204" y="28.5714" width="105.959" height="105.959" filterUnits="userSpaceOnUse" color-interpolation-filters="sRGB">
<feFlood flood-opacity="0" result="BackgroundImageFix"/>
<feColorMatrix in="SourceAlpha" type="matrix" values="0 0 0 0 0 0 0 0 0 0 0 0 0 0 0 0 0 0 127 0" result="hardAlpha"/>
<feOffset dy="4"/>
<feGaussianBlur stdDeviation="2"/>
<feComposite in2="hardAlpha" operator="out"/>
<feColorMatrix type="matrix" values="0 0 0 0 0 0 0 0 0 0 0 0 0 0 0 0 0 0 0.5 0"/>
<feBlend mode="normal" in2="BackgroundImageFix" result="effect1_dropShadow_666_107"/>
<feBlend mode="normal" in="SourceGraphic" in2="effect1_dropShadow_666_107" result="shape"/>
</filter>
<filter id="filter3_d_666_107" x="51.2564" y="129.086" width="104.719" height="42.8519" filterUnits="userSpaceOnUse" color-interpolation-filters="sRGB">
<feFlood flood-opacity="0" result="BackgroundImageFix"/>
<feColorMatrix in="SourceAlpha" type="matrix" values="0 0 0 0 0 0 0 0 0 0 0 0 0 0 0 0 0 0 127 0" result="hardAlpha"/>
<feOffset/>
<feGaussianBlur stdDeviation="7.5"/>
<feComposite in2="hardAlpha" operator="out"/>
<feColorMatrix type="matrix" values="0 0 0 0 1 0 0 0 0 0.996078 0 0 0 0 0.909804 0 0 0 0.5 0"/>
<feBlend mode="normal" in2="BackgroundImageFix" result="effect1_dropShadow_666_107"/>
<feBlend mode="normal" in="SourceGraphic" in2="effect1_dropShadow_666_107" result="shape"/>
</filter>
</defs>
</svg>
