<svg width="266" height="260" viewBox="0 0 266 260" fill="none" xmlns="http://www.w3.org/2000/svg">
<g filter="url(#filter0_d_666_132)">
<path d="M263 130L198 242.583L68 242.583L2.99999 130L68 17.4167L198 17.4167L263 130Z" fill="#F21E2C" fill-opacity="0.2" shape-rendering="crispEdges"/>
<path d="M196.557 19.9167L260.113 130L196.557 240.083L69.4434 240.083L5.88674 130L69.4434 19.9167L196.557 19.9167Z" stroke="#FF9520" stroke-width="5" stroke-miterlimit="1.36733" stroke-linecap="round" shape-rendering="crispEdges"/>
</g>
<path d="M96.3416 201.609V187.509H101.982C103.435 187.509 104.555 187.836 105.342 188.489C106.142 189.129 106.542 190.029 106.542 191.189C106.542 191.963 106.342 192.623 105.942 193.169C105.542 193.716 104.988 194.116 104.282 194.369C105.095 194.583 105.728 194.976 106.182 195.549C106.648 196.123 106.882 196.849 106.882 197.729C106.882 198.983 106.475 199.943 105.662 200.609C104.848 201.276 103.702 201.609 102.222 201.609H96.3416ZM97.9416 193.809H101.742C103.862 193.809 104.922 192.983 104.922 191.329C104.922 189.663 103.862 188.829 101.742 188.829H97.9416V193.809ZM97.9416 200.289H102.062C104.195 200.289 105.262 199.429 105.262 197.709C105.262 195.989 104.195 195.129 102.062 195.129H97.9416V200.289ZM112.697 201.789C112.031 201.789 111.431 201.663 110.897 201.409C110.377 201.143 109.964 200.783 109.657 200.329C109.351 199.876 109.197 199.369 109.197 198.809C109.197 198.103 109.377 197.543 109.737 197.129C110.111 196.716 110.717 196.423 111.557 196.249C112.411 196.063 113.571 195.969 115.037 195.969H115.677V195.349C115.677 194.523 115.504 193.929 115.157 193.569C114.824 193.196 114.284 193.009 113.537 193.009C112.951 193.009 112.384 193.096 111.837 193.269C111.291 193.429 110.731 193.696 110.157 194.069L109.597 192.889C110.104 192.529 110.717 192.243 111.437 192.029C112.171 191.816 112.871 191.709 113.537 191.709C114.791 191.709 115.717 192.016 116.317 192.629C116.931 193.243 117.237 194.196 117.237 195.489V201.609H115.717V199.929C115.464 200.503 115.071 200.956 114.537 201.289C114.017 201.623 113.404 201.789 112.697 201.789ZM112.957 200.569C113.757 200.569 114.411 200.296 114.917 199.749C115.424 199.189 115.677 198.483 115.677 197.629V197.029H115.057C113.977 197.029 113.124 197.083 112.497 197.189C111.884 197.283 111.451 197.456 111.197 197.709C110.957 197.949 110.837 198.283 110.837 198.709C110.837 199.256 111.024 199.703 111.397 200.049C111.784 200.396 112.304 200.569 112.957 200.569ZM124.363 201.789C123.389 201.789 122.549 201.583 121.843 201.169C121.136 200.743 120.589 200.149 120.203 199.389C119.829 198.616 119.643 197.716 119.643 196.689C119.643 195.143 120.063 193.929 120.903 193.049C121.743 192.156 122.896 191.709 124.363 191.709C124.963 191.709 125.556 191.816 126.143 192.029C126.729 192.243 127.216 192.543 127.603 192.929L127.043 194.109C126.656 193.736 126.229 193.463 125.763 193.289C125.309 193.116 124.876 193.029 124.463 193.029C123.449 193.029 122.669 193.349 122.123 193.989C121.576 194.616 121.303 195.523 121.303 196.709C121.303 197.869 121.576 198.789 122.123 199.469C122.669 200.136 123.449 200.469 124.463 200.469C124.876 200.469 125.309 200.383 125.763 200.209C126.229 200.036 126.656 199.756 127.043 199.369L127.603 200.549C127.216 200.936 126.723 201.243 126.123 201.469C125.536 201.683 124.949 201.789 124.363 201.789ZM129.5 201.609V187.509H131.12V196.209H131.16L135.66 191.889H137.72L132.84 196.569L138.14 201.609H136.08L131.16 197.049H131.12V201.609H129.5ZM143.627 201.789C142.093 201.789 140.88 201.343 139.987 200.449C139.093 199.543 138.647 198.316 138.647 196.769C138.647 195.769 138.847 194.889 139.247 194.129C139.647 193.356 140.193 192.763 140.887 192.349C141.593 191.923 142.407 191.709 143.327 191.709C144.647 191.709 145.68 192.136 146.427 192.989C147.173 193.829 147.547 194.989 147.547 196.469V197.089H140.227C140.28 198.196 140.6 199.043 141.187 199.629C141.773 200.203 142.587 200.489 143.627 200.489C144.213 200.489 144.773 200.403 145.307 200.229C145.84 200.043 146.347 199.743 146.827 199.329L147.387 200.469C146.947 200.883 146.387 201.209 145.707 201.449C145.027 201.676 144.333 201.789 143.627 201.789ZM143.367 192.909C142.447 192.909 141.72 193.196 141.187 193.769C140.653 194.343 140.34 195.096 140.247 196.029H146.147C146.107 195.043 145.847 194.276 145.367 193.729C144.9 193.183 144.233 192.909 143.367 192.909ZM149.891 201.609V191.889H151.471V193.549C151.791 192.936 152.244 192.476 152.831 192.169C153.418 191.863 154.078 191.709 154.811 191.709C157.118 191.709 158.271 192.989 158.271 195.549V201.609H156.651V195.649C156.651 194.743 156.471 194.083 156.111 193.669C155.764 193.243 155.204 193.029 154.431 193.029C153.538 193.029 152.824 193.309 152.291 193.869C151.771 194.416 151.511 195.149 151.511 196.069V201.609H149.891ZM164.958 201.789C164.092 201.789 163.332 201.583 162.678 201.169C162.038 200.756 161.538 200.176 161.178 199.429C160.832 198.669 160.658 197.776 160.658 196.749C160.658 195.709 160.832 194.816 161.178 194.069C161.538 193.309 162.038 192.729 162.678 192.329C163.332 191.916 164.092 191.709 164.958 191.709C165.718 191.709 166.385 191.876 166.958 192.209C167.545 192.543 167.978 193.003 168.258 193.589V187.509H169.878V201.609H168.298V199.829C168.018 200.443 167.585 200.923 166.998 201.269C166.412 201.616 165.732 201.789 164.958 201.789ZM165.298 200.489C166.205 200.489 166.932 200.169 167.478 199.529C168.025 198.876 168.298 197.949 168.298 196.749C168.298 195.536 168.025 194.609 167.478 193.969C166.932 193.329 166.205 193.009 165.298 193.009C164.378 193.009 163.645 193.329 163.098 193.969C162.565 194.609 162.298 195.536 162.298 196.749C162.298 197.949 162.565 198.876 163.098 199.529C163.645 200.169 164.378 200.489 165.298 200.489Z" fill="#FEC631"/>
<g filter="url(#filter1_d_666_132)">
<path d="M94.6086 47.9985V64.7769H76.8695V47.9985H94.6086ZM68 39.6094V73.166H103.478V39.6094H68ZM138.956 60.5823V77.3606H121.217V60.5823H138.956ZM112.348 52.1931V85.7498H147.826V52.1931H112.348ZM94.6086 98.3336V115.112H76.8695V98.3336H94.6086ZM68 89.9444V123.501H103.478V89.9444H68Z" fill="#FEC631"/>
</g>
<g filter="url(#filter2_d_666_132)">
<path d="M157.7 77.1302V104.874H127.475V132.618H97.2498V169.609H198V77.1302H157.7ZM137.55 114.122H157.7V132.618H137.55V114.122ZM127.475 160.362H107.325V141.866H127.475V160.362ZM157.7 160.362H137.55V141.866H157.7V160.362ZM187.925 160.362H167.775V141.866H187.925V160.362ZM187.925 132.618H167.775V114.122H187.925V132.618ZM167.775 104.874V86.3782H187.925V104.874H167.775Z" fill="#FEC631"/>
</g>
<defs>
<filter id="filter0_d_666_132" x="0" y="17.4166" width="266" height="231.167" filterUnits="userSpaceOnUse" color-interpolation-filters="sRGB">
<feFlood flood-opacity="0" result="BackgroundImageFix"/>
<feColorMatrix in="SourceAlpha" type="matrix" values="0 0 0 0 0 0 0 0 0 0 0 0 0 0 0 0 0 0 127 0" result="hardAlpha"/>
<feOffset dy="3"/>
<feGaussianBlur stdDeviation="1.5"/>
<feComposite in2="hardAlpha" operator="out"/>
<feColorMatrix type="matrix" values="0 0 0 0 0 0 0 0 0 0 0 0 0 0 0 0 0 0 0.25 0"/>
<feBlend mode="normal" in2="BackgroundImageFix" result="effect1_dropShadow_666_132"/>
<feBlend mode="normal" in="SourceGraphic" in2="effect1_dropShadow_666_132" result="shape"/>
</filter>
<filter id="filter1_d_666_132" x="64" y="39.6094" width="87.8257" height="91.8917" filterUnits="userSpaceOnUse" color-interpolation-filters="sRGB">
<feFlood flood-opacity="0" result="BackgroundImageFix"/>
<feColorMatrix in="SourceAlpha" type="matrix" values="0 0 0 0 0 0 0 0 0 0 0 0 0 0 0 0 0 0 127 0" result="hardAlpha"/>
<feOffset dy="4"/>
<feGaussianBlur stdDeviation="2"/>
<feComposite in2="hardAlpha" operator="out"/>
<feColorMatrix type="matrix" values="0 0 0 0 0 0 0 0 0 0 0 0 0 0 0 0 0 0 0.5 0"/>
<feBlend mode="normal" in2="BackgroundImageFix" result="effect1_dropShadow_666_132"/>
<feBlend mode="normal" in="SourceGraphic" in2="effect1_dropShadow_666_132" result="shape"/>
</filter>
<filter id="filter2_d_666_132" x="93.2498" y="77.1302" width="108.75" height="100.479" filterUnits="userSpaceOnUse" color-interpolation-filters="sRGB">
<feFlood flood-opacity="0" result="BackgroundImageFix"/>
<feColorMatrix in="SourceAlpha" type="matrix" values="0 0 0 0 0 0 0 0 0 0 0 0 0 0 0 0 0 0 127 0" result="hardAlpha"/>
<feOffset dy="4"/>
<feGaussianBlur stdDeviation="2"/>
<feComposite in2="hardAlpha" operator="out"/>
<feColorMatrix type="matrix" values="0 0 0 0 0 0 0 0 0 0 0 0 0 0 0 0 0 0 0.5 0"/>
<feBlend mode="normal" in2="BackgroundImageFix" result="effect1_dropShadow_666_132"/>
<feBlend mode="normal" in="SourceGraphic" in2="effect1_dropShadow_666_132" result="shape"/>
</filter>
</defs>
</svg>
