<svg width="295" height="111" viewBox="0 0 295 111" fill="none" xmlns="http://www.w3.org/2000/svg">
<path d="M265.794 57.2705L265.052 56.0138L265.782 54.7502L290.17 12.5H20.9314L2.71497 55.9893L20.9172 98.5H290.122L265.794 57.2705Z" fill="#401127" stroke="#8F1B42" stroke-width="5"/>
<g filter="url(#filter0_d_1031_981)">
<path d="M105.95 67.288C103.732 67.288 101.833 66.8187 100.254 65.88C98.6756 64.9413 97.4596 63.608 96.6063 61.88C95.7743 60.152 95.3583 58.0933 95.3583 55.704C95.3583 53.336 95.7743 51.288 96.6063 49.56C97.4596 47.832 98.6756 46.4987 100.254 45.56C101.833 44.6213 103.732 44.152 105.95 44.152C107.508 44.152 108.937 44.3973 110.238 44.888C111.561 45.3787 112.681 46.0933 113.598 47.032L112.574 49.176C111.593 48.2587 110.569 47.5973 109.502 47.192C108.457 46.7653 107.294 46.552 106.014 46.552C103.476 46.552 101.534 47.352 100.19 48.952C98.8463 50.552 98.1743 52.8027 98.1743 55.704C98.1743 58.6267 98.8463 60.888 100.19 62.488C101.534 64.088 103.476 64.888 106.014 64.888C107.294 64.888 108.457 64.6853 109.502 64.28C110.569 63.8533 111.593 63.1813 112.574 62.264L113.598 64.408C112.681 65.3253 111.561 66.04 110.238 66.552C108.937 67.0427 107.508 67.288 105.95 67.288ZM121.766 67.288C120.699 67.288 119.739 67.0853 118.886 66.68C118.054 66.2533 117.392 65.6773 116.902 64.952C116.411 64.2267 116.166 63.416 116.166 62.52C116.166 61.3893 116.454 60.4933 117.03 59.832C117.627 59.1707 118.598 58.7013 119.942 58.424C121.307 58.1253 123.163 57.976 125.51 57.976H126.534V56.984C126.534 55.6613 126.256 54.712 125.702 54.136C125.168 53.5387 124.304 53.24 123.11 53.24C122.171 53.24 121.264 53.3787 120.39 53.656C119.515 53.912 118.619 54.3387 117.702 54.936L116.806 53.048C117.616 52.472 118.598 52.0133 119.75 51.672C120.923 51.3307 122.043 51.16 123.11 51.16C125.115 51.16 126.598 51.6507 127.558 52.632C128.539 53.6133 129.03 55.1387 129.03 57.208V67H126.598V64.312C126.192 65.2293 125.563 65.9547 124.71 66.488C123.878 67.0213 122.896 67.288 121.766 67.288ZM122.182 65.336C123.462 65.336 124.507 64.8987 125.318 64.024C126.128 63.128 126.534 61.9973 126.534 60.632V59.672H125.542C123.814 59.672 122.448 59.7573 121.446 59.928C120.464 60.0773 119.771 60.3547 119.366 60.76C118.982 61.144 118.79 61.6773 118.79 62.36C118.79 63.2347 119.088 63.9493 119.686 64.504C120.304 65.0587 121.136 65.336 122.182 65.336ZM133.838 67V51.448H136.366V54.104C136.878 53.1227 137.604 52.3867 138.542 51.896C139.481 51.4053 140.537 51.16 141.71 51.16C145.401 51.16 147.246 53.208 147.246 57.304V67H144.654V57.464C144.654 56.0133 144.366 54.9573 143.79 54.296C143.236 53.6133 142.34 53.272 141.102 53.272C139.673 53.272 138.532 53.72 137.678 54.616C136.846 55.4907 136.43 56.664 136.43 58.136V67H133.838ZM158.618 67.288C157.06 67.288 155.716 66.9573 154.586 66.296C153.455 65.6133 152.58 64.664 151.962 63.448C151.364 62.2107 151.066 60.7707 151.066 59.128C151.066 56.6533 151.738 54.712 153.082 53.304C154.426 51.8747 156.271 51.16 158.618 51.16C159.578 51.16 160.527 51.3307 161.466 51.672C162.404 52.0133 163.183 52.4933 163.802 53.112L162.906 55C162.287 54.4027 161.604 53.9653 160.858 53.688C160.132 53.4107 159.439 53.272 158.778 53.272C157.156 53.272 155.908 53.784 155.034 54.808C154.159 55.8107 153.722 57.2613 153.722 59.16C153.722 61.016 154.159 62.488 155.034 63.576C155.908 64.6427 157.156 65.176 158.778 65.176C159.439 65.176 160.132 65.0373 160.858 64.76C161.604 64.4827 162.287 64.0347 162.906 63.416L163.802 65.304C163.183 65.9227 162.394 66.4133 161.434 66.776C160.495 67.1173 159.556 67.288 158.618 67.288ZM173.534 67.288C171.08 67.288 169.139 66.5733 167.71 65.144C166.28 63.6933 165.566 61.7307 165.566 59.256C165.566 57.656 165.886 56.248 166.526 55.032C167.166 53.7947 168.04 52.8453 169.15 52.184C170.28 51.5013 171.582 51.16 173.054 51.16C175.166 51.16 176.819 51.8427 178.014 53.208C179.208 54.552 179.806 56.408 179.806 58.776V59.768H168.094C168.179 61.5387 168.691 62.8933 169.63 63.832C170.568 64.7493 171.87 65.208 173.534 65.208C174.472 65.208 175.368 65.0693 176.222 64.792C177.075 64.4933 177.886 64.0133 178.654 63.352L179.55 65.176C178.846 65.8373 177.95 66.36 176.862 66.744C175.774 67.1067 174.664 67.288 173.534 67.288ZM173.118 53.08C171.646 53.08 170.483 53.5387 169.63 54.456C168.776 55.3733 168.275 56.5787 168.126 58.072H177.566C177.502 56.4933 177.086 55.2667 176.318 54.392C175.571 53.5173 174.504 53.08 173.118 53.08ZM188.325 67.288C186.746 67.288 185.552 66.8293 184.741 65.912C183.952 64.9733 183.557 63.6187 183.557 61.848V44.44H186.149V61.656C186.149 63.9387 187.056 65.08 188.869 65.08C189.402 65.08 189.882 65.016 190.309 64.888L190.245 67.064C189.584 67.2133 188.944 67.288 188.325 67.288Z" fill="#FFFEE8"/>
</g>
<defs>
<filter id="filter0_d_1031_981" x="80.3582" y="29.152" width="124.951" height="53.136" filterUnits="userSpaceOnUse" color-interpolation-filters="sRGB">
<feFlood flood-opacity="0" result="BackgroundImageFix"/>
<feColorMatrix in="SourceAlpha" type="matrix" values="0 0 0 0 0 0 0 0 0 0 0 0 0 0 0 0 0 0 127 0" result="hardAlpha"/>
<feOffset/>
<feGaussianBlur stdDeviation="7.5"/>
<feComposite in2="hardAlpha" operator="out"/>
<feColorMatrix type="matrix" values="0 0 0 0 1 0 0 0 0 0.996078 0 0 0 0 0.909804 0 0 0 0.5 0"/>
<feBlend mode="normal" in2="BackgroundImageFix" result="effect1_dropShadow_1031_981"/>
<feBlend mode="normal" in="SourceGraphic" in2="effect1_dropShadow_1031_981" result="shape"/>
</filter>
</defs>
</svg>
