<svg width="839" height="625" viewBox="0 0 839 625" fill="none" xmlns="http://www.w3.org/2000/svg">
<rect x="56" y="565" width="502.461" height="782.273" rx="24" transform="rotate(-90.2596 56 565)" fill="#8F1B42"/>
<path d="M89.9998 546.928C81.1634 546.968 73.9675 539.837 73.9275 531L71.9571 96.0457C71.917 87.2092 79.048 80.0134 87.8844 79.9734L92.7143 79.9515L801.762 76.7393C810.598 76.6993 817.794 83.8302 817.834 92.6667L819.804 527.621C819.844 536.458 812.713 543.653 803.877 543.693L89.9998 546.928Z" fill="#4E2626" fill-opacity="0.69"/>
<g style="mix-blend-mode:overlay">
<path d="M84.9998 553.918C75.0588 553.963 66.9635 545.941 66.9185 536L64.9035 91.2282C64.8585 81.2872 72.8808 73.1918 82.8218 73.1468L86.023 73.1323L805.995 69.8707C815.936 69.8256 824.031 77.8479 824.076 87.7889L826.091 532.561C826.136 542.502 818.114 550.597 808.173 550.642L84.9998 553.918Z" fill="#401127"/>
</g>
<g filter="url(#filter0_d_1194_28)">
<path d="M124.1 272.269L144.025 227.14L148.505 227.139L168.388 272.25L162.948 272.253L157.962 260.735L134.474 260.744L129.54 272.266L124.1 272.269ZM146.198 233.284L136.396 256.328L156.108 256.319L146.326 233.283L146.198 233.284ZM174.373 272.248L174.388 241.144L179.444 241.142L179.441 246.71C181.107 242.954 184.521 240.884 189.684 240.498L191.54 240.305L191.922 244.785L188.658 245.17C185.714 245.427 183.473 246.367 181.936 247.989C180.4 249.568 179.631 251.744 179.629 254.518L179.621 272.246L174.373 272.248ZM210.952 272.809C206.045 272.811 202.163 271.383 199.306 268.526C196.448 265.625 195.021 261.701 195.023 256.751C195.024 253.551 195.666 250.735 196.947 248.303C198.228 245.827 199.978 243.928 202.197 242.604C204.459 241.238 207.062 240.554 210.006 240.553C214.23 240.551 217.536 241.915 219.924 244.645C222.313 247.332 223.506 251.044 223.503 255.78L223.502 257.764L200.078 257.773C200.248 261.315 201.27 264.023 203.147 265.9C205.023 267.734 207.626 268.65 210.954 268.649C212.831 268.648 214.623 268.37 216.33 267.815C218.037 267.217 219.659 266.256 221.195 264.933L222.986 268.58C221.577 269.903 219.784 270.949 217.608 271.718C215.432 272.444 213.213 272.808 210.952 272.809ZM210.133 244.393C207.189 244.394 204.863 245.313 203.155 247.148C201.448 248.983 200.444 251.394 200.144 254.381L219.024 254.373C218.897 251.216 218.067 248.763 216.531 247.015C215.039 245.266 212.906 244.392 210.133 244.393ZM251.015 283.736L256.332 271.702L243.226 241.116L248.858 241.113L259.151 266.325L269.53 241.105L274.97 241.102L256.455 283.734L251.015 283.736ZM292.801 272.775C289.772 272.776 287.148 272.116 284.93 270.794C282.712 269.473 280.985 267.617 279.749 265.228C278.555 262.797 277.959 259.939 277.96 256.653C277.962 253.368 278.561 250.53 279.756 248.14C280.995 245.708 282.724 243.83 284.943 242.506C287.162 241.183 289.786 240.52 292.816 240.519C295.802 240.518 298.405 241.178 300.623 242.5C302.884 243.822 304.611 245.698 305.804 248.13C307.041 250.519 307.658 253.356 307.656 256.641C307.655 259.926 307.035 262.785 305.797 265.218C304.601 267.608 302.872 269.464 300.61 270.788C298.391 272.111 295.788 272.774 292.801 272.775ZM292.803 268.615C295.704 268.614 298.03 267.589 299.78 265.54C301.531 263.449 302.407 260.483 302.408 256.643C302.41 252.76 301.537 249.795 299.788 247.748C298.04 245.701 295.715 244.678 292.814 244.679C289.87 244.68 287.523 245.705 285.772 247.754C284.065 249.803 283.21 252.768 283.208 256.651C283.207 260.491 284.059 263.456 285.764 265.546C287.513 267.593 289.859 268.616 292.803 268.615ZM326.444 272.761C318.977 272.764 315.245 268.648 315.249 260.414L315.258 241.086L320.442 241.084L320.433 260.348C320.432 263.121 320.986 265.169 322.094 266.491C323.246 267.813 325.038 268.474 327.47 268.473C330.115 268.472 332.27 267.596 333.935 265.846C335.6 264.053 336.433 261.685 336.434 258.741L336.442 241.077L341.626 241.075L341.612 272.179L336.556 272.181L336.558 266.933C335.576 268.811 334.189 270.262 332.396 271.287C330.647 272.269 328.662 272.76 326.444 272.761ZM378.244 272.74C375.812 272.741 373.508 272.4 371.333 271.719C369.157 271.037 367.365 270.078 365.958 268.841L367.624 265.192C369.159 266.429 370.844 267.346 372.678 267.942C374.555 268.496 376.454 268.773 378.374 268.772C380.806 268.771 382.641 268.322 383.879 267.426C385.116 266.529 385.735 265.313 385.736 263.777C385.737 262.582 385.332 261.644 384.521 260.961C383.711 260.236 382.431 259.682 380.682 259.299L374.859 258.021C369.569 256.871 366.925 254.142 366.927 249.833C366.928 247.017 368.038 244.755 370.258 243.047C372.52 241.34 375.464 240.485 379.091 240.484C381.224 240.483 383.251 240.823 385.17 241.505C387.133 242.144 388.754 243.104 390.033 244.383L388.303 248.032C387.067 246.88 385.616 246.006 383.953 245.41C382.331 244.77 380.71 244.451 379.089 244.452C376.7 244.453 374.886 244.923 373.648 245.862C372.411 246.801 371.791 248.039 371.791 249.575C371.79 251.964 373.368 253.499 376.525 254.181L382.348 255.394C385.078 255.99 387.147 256.95 388.555 258.272C389.962 259.551 390.665 261.3 390.664 263.519C390.663 266.377 389.531 268.639 387.269 270.304C385.007 271.926 381.999 272.738 378.244 272.74ZM409.569 272.727C402.102 272.73 398.37 268.614 398.374 260.38L398.383 241.052L403.567 241.049L403.558 260.313C403.557 263.087 404.111 265.135 405.219 266.457C406.371 267.779 408.163 268.44 410.595 268.439C413.24 268.437 415.395 267.562 417.06 265.812C418.725 264.019 419.558 261.651 419.559 258.707L419.567 241.043L424.751 241.041L424.737 272.145L419.681 272.147L419.683 266.899C418.701 268.777 417.314 270.228 415.521 271.252C413.772 272.235 411.787 272.726 409.569 272.727ZM434.436 272.141L434.45 241.037L439.506 241.035L439.503 246.603C441.169 242.847 444.583 240.777 449.746 240.39L451.602 240.198L451.984 244.677L448.72 245.063C445.776 245.32 443.536 246.26 441.999 247.882C440.462 249.461 439.693 251.637 439.692 254.411L439.684 272.139L434.436 272.141ZM471.014 272.702C466.107 272.704 462.225 271.276 459.368 268.418C456.511 265.518 455.083 261.594 455.085 256.644C455.087 253.444 455.728 250.628 457.009 248.195C458.29 245.72 460.041 243.821 462.26 242.497C464.522 241.131 467.125 240.447 470.069 240.446C474.293 240.444 477.599 241.808 479.987 244.538C482.375 247.225 483.568 250.936 483.566 255.672L483.565 257.656L460.141 257.666C460.31 261.207 461.333 263.916 463.209 265.793C465.086 267.627 467.688 268.543 471.016 268.542C472.893 268.541 474.685 268.263 476.392 267.707C478.099 267.109 479.721 266.149 481.258 264.825L483.048 268.473C481.639 269.796 479.847 270.842 477.671 271.611C475.494 272.337 473.275 272.701 471.014 272.702ZM470.195 244.286C467.251 244.287 464.925 245.205 463.218 247.041C461.51 248.876 460.507 251.287 460.206 254.274L479.086 254.266C478.96 251.109 478.129 248.656 476.594 246.907C475.101 245.159 472.968 244.285 470.195 244.286ZM511.077 283.629L516.395 271.595L503.288 241.008L508.92 241.006L519.213 266.218L529.592 240.997L535.032 240.995L516.517 283.627L511.077 283.629ZM552.864 272.668C549.834 272.669 547.211 272.009 544.993 270.687C542.774 269.365 541.047 267.51 539.811 265.121C538.617 262.69 538.021 259.831 538.023 256.546C538.024 253.261 538.623 250.423 539.819 248.033C541.057 245.601 542.786 243.723 545.005 242.399C547.225 241.076 549.849 240.413 552.878 240.412C555.865 240.411 558.467 241.071 560.685 242.393C562.946 243.714 564.673 245.591 565.867 248.023C567.103 250.411 567.72 253.248 567.719 256.534C567.717 259.819 567.097 262.678 565.859 265.111C564.663 267.5 562.934 269.357 560.673 270.681C558.453 272.004 555.85 272.667 552.864 272.668ZM552.866 268.508C555.767 268.507 558.093 267.482 559.843 265.433C561.593 263.342 562.469 260.376 562.471 256.536C562.473 252.653 561.599 249.688 559.851 247.641C558.103 245.594 555.778 244.571 552.876 244.572C549.932 244.573 547.585 245.598 545.835 247.647C544.127 249.695 543.273 252.661 543.271 256.544C543.269 260.384 544.121 263.349 545.827 265.439C547.575 267.486 549.922 268.509 552.866 268.508ZM586.506 272.654C579.039 272.657 575.308 268.541 575.312 260.307L575.32 240.979L580.504 240.976L580.496 260.24C580.494 263.014 581.048 265.062 582.157 266.384C583.308 267.706 585.1 268.367 587.532 268.366C590.177 268.365 592.332 267.489 593.997 265.739C595.662 263.946 596.495 261.578 596.496 258.634L596.504 240.97L601.688 240.968L601.674 272.072L596.618 272.074L596.621 266.826C595.639 268.704 594.251 270.155 592.459 271.18C590.709 272.162 588.725 272.653 586.506 272.654ZM636.067 272.058L624.497 240.958L629.937 240.956L638.694 265.977L647.793 240.949L652.209 240.947L661.158 266.031L670.065 240.94L675.249 240.937L663.587 272.046L658.659 272.048L649.902 247.924L641.059 272.056L636.067 272.058ZM690.79 272.611C688.657 272.612 686.737 272.207 685.031 271.397C683.367 270.545 682.045 269.393 681.064 267.943C680.084 266.493 679.594 264.872 679.594 263.08C679.595 260.818 680.172 259.026 681.325 257.703C682.52 256.38 684.462 255.44 687.15 254.885C689.881 254.286 693.593 253.986 698.287 253.984L700.335 253.983L700.335 251.999C700.337 249.354 699.783 247.455 698.674 246.304C697.608 245.11 695.88 244.513 693.491 244.514C691.614 244.515 689.8 244.793 688.05 245.348C686.301 245.861 684.509 246.715 682.673 247.91L680.883 244.135C682.505 242.982 684.468 242.064 686.772 241.381C689.119 240.697 691.359 240.355 693.493 240.354C697.503 240.352 700.468 241.332 702.387 243.294C704.349 245.256 705.329 248.306 705.327 252.445L705.318 272.029L700.454 272.031L700.457 266.655C699.645 268.49 698.386 269.941 696.679 271.009C695.014 272.076 693.051 272.61 690.79 272.611ZM691.624 268.707C694.184 268.706 696.275 267.83 697.897 266.08C699.519 264.287 700.331 262.026 700.332 259.295L700.333 257.375L698.349 257.376C694.893 257.377 692.162 257.549 690.157 257.891C688.194 258.191 686.807 258.746 685.996 259.557C685.228 260.325 684.843 261.392 684.843 262.757C684.842 264.507 685.438 265.936 686.633 267.045C687.869 268.154 689.533 268.708 691.624 268.707ZM714.936 272.025L714.95 240.921L720.006 240.919L720.004 246.231C721.028 244.268 722.48 242.795 724.358 241.813C726.235 240.831 728.348 240.34 730.694 240.339C738.076 240.336 741.764 244.43 741.761 252.622L741.752 272.014L736.568 272.016L736.577 252.944C736.578 250.043 736.003 247.931 734.851 246.609C733.743 245.244 731.951 244.562 729.476 244.563C726.618 244.564 724.335 245.461 722.627 247.254C720.962 249.004 720.129 251.351 720.128 254.295L720.12 272.023L714.936 272.025ZM763.791 272.581C760.121 272.582 757.37 271.624 755.536 269.704C753.702 267.742 752.786 264.927 752.788 261.257L752.795 244.937L746.715 244.94L746.717 240.908L752.797 240.905L752.801 231.369L757.985 231.367L757.981 240.903L767.837 240.899L767.835 244.931L757.979 244.935L757.972 260.743C757.971 263.175 758.482 265.031 759.505 266.311C760.529 267.548 762.193 268.166 764.497 268.165C765.179 268.164 765.862 268.079 766.545 267.908C767.227 267.737 767.846 267.566 768.401 267.395L769.295 271.363C768.74 271.662 767.93 271.939 766.863 272.196C765.796 272.452 764.772 272.581 763.791 272.581ZM216.907 359.806C213.238 359.808 210.487 358.849 208.653 356.93C206.819 354.968 205.903 352.152 205.905 348.483L205.912 332.163L199.832 332.165L199.834 328.133L205.914 328.131L205.918 318.595L211.102 318.593L211.098 328.129L220.954 328.125L220.952 332.157L211.096 332.161L211.089 347.969C211.088 350.401 211.599 352.257 212.622 353.536C213.646 354.773 215.309 355.391 217.613 355.39C218.296 355.39 218.979 355.304 219.662 355.133C220.344 354.962 220.963 354.791 221.518 354.62L222.412 358.588C221.857 358.887 221.046 359.165 219.98 359.421C218.913 359.678 217.889 359.806 216.907 359.806ZM239.418 359.797C236.389 359.798 233.765 359.138 231.547 357.816C229.329 356.495 227.602 354.639 226.365 352.25C225.172 349.819 224.576 346.961 224.577 343.675C224.579 340.39 225.177 337.552 226.373 335.162C227.612 332.73 229.34 330.852 231.56 329.528C233.779 328.205 236.403 327.542 239.433 327.541C242.419 327.54 245.022 328.2 247.24 329.522C249.5 330.844 251.228 332.72 252.421 335.152C253.657 337.541 254.275 340.378 254.273 343.663C254.272 346.948 253.652 349.807 252.413 352.24C251.218 354.63 249.489 356.486 247.227 357.81C245.008 359.133 242.405 359.796 239.418 359.797ZM239.42 355.637C242.321 355.636 244.647 354.611 246.397 352.562C248.147 350.471 249.024 347.505 249.025 343.665C249.027 339.782 248.154 336.817 246.405 334.77C244.657 332.723 242.332 331.7 239.431 331.701C236.487 331.702 234.14 332.727 232.389 334.776C230.682 336.825 229.827 339.79 229.825 343.673C229.824 347.513 230.675 350.478 232.381 352.568C234.13 354.615 236.476 355.638 239.42 355.637ZM292.506 359.775C287.599 359.777 283.717 358.349 280.86 355.492C278.003 352.592 276.575 348.667 276.577 343.718C276.579 340.518 277.22 337.701 278.501 335.269C279.782 332.794 281.532 330.894 283.752 329.571C286.014 328.205 288.617 327.521 291.561 327.52C295.785 327.518 299.091 328.882 301.479 331.611C303.867 334.299 305.06 338.01 305.058 342.746L305.057 344.73L281.633 344.74C281.802 348.281 282.825 350.99 284.701 352.866C286.578 354.7 289.18 355.617 292.508 355.615C294.385 355.614 296.177 355.336 297.884 354.781C299.591 354.183 301.213 353.222 302.75 351.899L304.54 355.546C303.131 356.869 301.339 357.916 299.162 358.684C296.986 359.411 294.767 359.774 292.506 359.775ZM291.687 331.36C288.743 331.361 286.417 332.279 284.71 334.114C283.002 335.95 281.998 338.361 281.698 341.348L300.578 341.34C300.452 338.183 299.621 335.73 298.086 333.981C296.593 332.232 294.46 331.358 291.687 331.36ZM308.335 359.193L321.27 343.123L309.117 328.088L315.261 328.086L324.28 339.538L333.373 328.078L339.453 328.076L327.286 343.121L340.207 359.18L334.063 359.182L324.212 346.834L314.479 359.19L308.335 359.193ZM345.305 320.329L345.308 314.505L351.708 314.503L351.705 320.327L345.305 320.329ZM345.928 359.177L345.942 328.073L351.126 328.071L351.112 359.175L345.928 359.177ZM373.282 359.742C369.613 359.743 366.862 358.785 365.028 356.865C363.194 354.903 362.278 352.088 362.28 348.418L362.287 332.098L356.207 332.101L356.209 328.069L362.289 328.066L362.293 318.53L367.477 318.528L367.473 328.064L377.329 328.06L377.327 332.092L367.471 332.096L367.464 347.904C367.463 350.336 367.974 352.192 368.997 353.472C370.021 354.709 371.684 355.327 373.988 355.326C374.671 355.325 375.354 355.24 376.037 355.069C376.719 354.898 377.338 354.727 377.893 354.556L378.787 358.524C378.232 358.823 377.421 359.1 376.355 359.357C375.288 359.613 374.264 359.741 373.282 359.742ZM412.095 359.726C408.426 359.727 405.674 358.769 403.84 356.849C402.006 354.887 401.09 352.072 401.092 348.402L401.099 332.082L395.019 332.085L395.021 328.053L401.101 328.05L401.106 318.514L406.29 318.512L406.285 328.048L416.141 328.044L416.139 332.076L406.283 332.08L406.276 347.888C406.275 350.32 406.786 352.176 407.81 353.456C408.833 354.693 410.497 355.311 412.801 355.31C413.484 355.309 414.166 355.224 414.849 355.053C415.532 354.882 416.151 354.711 416.705 354.54L417.599 358.508C417.045 358.807 416.234 359.084 415.167 359.341C414.1 359.597 413.076 359.725 412.095 359.726ZM421.99 359.146L422.011 314.026L427.195 314.024L427.186 333.16C428.211 331.282 429.641 329.873 431.476 328.934C433.354 327.952 435.445 327.46 437.749 327.459C445.13 327.456 448.819 331.551 448.815 339.743L448.806 359.135L443.622 359.137L443.631 340.065C443.632 337.164 443.057 335.052 441.906 333.73C440.797 332.365 439.005 331.683 436.531 331.684C433.672 331.685 431.389 332.582 429.681 334.375C428.017 336.125 427.184 338.472 427.182 341.416L427.174 359.144L421.99 359.146ZM472.381 359.701C467.474 359.703 463.592 358.275 460.735 355.418C457.878 352.518 456.45 348.593 456.452 343.644C456.454 340.444 457.095 337.627 458.376 335.195C459.657 332.72 461.407 330.82 463.627 329.497C465.889 328.13 468.492 327.447 471.436 327.445C475.66 327.444 478.966 328.808 481.354 331.537C483.742 334.224 484.935 337.936 484.933 342.672L484.932 344.656L461.508 344.666C461.677 348.207 462.7 350.916 464.576 352.792C466.453 354.626 469.055 355.542 472.383 355.541C474.26 355.54 476.052 355.262 477.759 354.707C479.466 354.109 481.088 353.148 482.624 351.825L484.415 355.472C483.006 356.795 481.214 357.841 479.037 358.61C476.861 359.337 474.642 359.7 472.381 359.701ZM471.562 331.285C468.618 331.287 466.292 332.205 464.585 334.04C462.877 335.876 461.873 338.287 461.573 341.273L480.453 341.266C480.327 338.108 479.496 335.655 477.961 333.907C476.468 332.158 474.335 331.284 471.562 331.285ZM522.62 371.2C519.932 371.201 517.393 370.84 515.004 370.115C512.658 369.434 510.568 368.389 508.734 366.982L510.463 363.205C512.383 364.57 514.281 365.55 516.158 366.147C518.078 366.744 520.147 367.041 522.366 367.04C528.51 367.038 531.583 363.879 531.586 357.565L531.588 352.061C530.691 354.024 529.283 355.582 527.362 356.734C525.484 357.844 523.329 358.4 520.897 358.401C518.039 358.402 515.564 357.742 513.474 356.42C511.384 355.098 509.764 353.286 508.613 350.982C507.505 348.636 506.951 345.927 506.953 342.855C506.954 339.783 507.51 337.095 508.62 334.79C509.773 332.443 511.395 330.629 513.487 329.348C515.578 328.067 518.053 327.426 520.912 327.425C523.344 327.424 525.498 327.978 527.375 329.086C529.294 330.195 530.702 331.709 531.597 333.629L531.599 327.997L536.655 327.995L536.642 356.859C536.64 361.637 535.444 365.222 533.053 367.612C530.706 370.002 527.228 371.198 522.62 371.2ZM521.859 354.177C524.846 354.175 527.215 353.15 528.965 351.102C530.715 349.053 531.591 346.301 531.593 342.845C531.594 339.389 530.721 336.658 528.972 334.654C527.224 332.606 524.856 331.583 521.87 331.585C518.926 331.586 516.579 332.611 514.828 334.66C513.078 336.666 512.202 339.397 512.201 342.853C512.199 346.309 513.072 349.06 514.821 351.108C516.569 353.155 518.915 354.178 521.859 354.177ZM556.157 359.667C554.024 359.667 552.104 359.263 550.397 358.453C548.734 357.6 547.412 356.449 546.431 354.999C545.45 353.548 544.96 351.927 544.961 350.135C544.962 347.874 545.539 346.082 546.692 344.758C547.887 343.435 549.829 342.496 552.517 341.94C555.248 341.342 558.96 341.041 563.653 341.039L565.701 341.039L565.702 339.055C565.703 336.409 565.15 334.511 564.041 333.359C562.975 332.165 561.247 331.568 558.858 331.569C556.98 331.57 555.167 331.848 553.417 332.404C551.668 332.916 549.875 333.77 548.04 334.966L546.25 331.191C547.872 330.038 549.835 329.12 552.139 328.436C554.486 327.753 556.726 327.41 558.86 327.409C562.87 327.408 565.835 328.388 567.754 330.35C569.716 332.312 570.696 335.362 570.694 339.501L570.685 359.085L565.821 359.087L565.824 353.711C565.012 355.546 563.753 356.997 562.046 358.064C560.381 359.131 558.418 359.666 556.157 359.667ZM556.991 355.762C559.551 355.761 561.642 354.886 563.264 353.136C564.886 351.343 565.698 349.081 565.699 346.351L565.7 344.431L563.716 344.431C560.26 344.433 557.529 344.605 555.524 344.947C553.561 345.246 552.174 345.801 551.363 346.612C550.594 347.381 550.21 348.448 550.209 349.813C550.209 351.562 550.805 352.991 551.999 354.1C553.236 355.209 554.9 355.763 556.991 355.762ZM580.431 359.08L580.445 327.976L585.501 327.974L585.498 333.222C586.438 331.345 587.74 329.915 589.404 328.933C591.069 327.908 593.01 327.395 595.229 327.394C600.093 327.392 603.207 329.503 604.57 333.727C605.51 331.763 606.897 330.227 608.732 329.117C610.567 327.964 612.68 327.387 615.069 327.386C621.981 327.383 625.435 331.478 625.431 339.67L625.423 359.062L620.239 359.064L620.247 339.928C620.249 337.069 619.738 334.979 618.714 333.657C617.733 332.292 616.091 331.61 613.787 331.611C611.27 331.612 609.264 332.509 607.77 334.301C606.276 336.094 605.528 338.483 605.527 341.47L605.519 359.07L600.335 359.072L600.343 339.936C600.345 337.078 599.834 334.987 598.81 333.665C597.829 332.3 596.187 331.618 593.883 331.619C591.323 331.62 589.296 332.517 587.802 334.309C586.35 336.102 585.624 338.492 585.623 341.478L585.615 359.078L580.431 359.08ZM649.131 359.628C644.224 359.63 640.342 358.202 637.485 355.345C634.628 352.445 633.2 348.52 633.202 343.571C633.204 340.371 633.845 337.554 635.126 335.122C636.407 332.647 638.157 330.747 640.377 329.424C642.639 328.058 645.242 327.374 648.186 327.373C652.41 327.371 655.716 328.735 658.104 331.464C660.492 334.151 661.685 337.863 661.683 342.599L661.682 344.583L638.258 344.593C638.427 348.134 639.45 350.843 641.326 352.719C643.203 354.553 645.805 355.47 649.133 355.468C651.01 355.467 652.802 355.189 654.509 354.634C656.216 354.036 657.838 353.075 659.374 351.752L661.165 355.399C659.756 356.722 657.964 357.769 655.787 358.537C653.611 359.264 651.392 359.627 649.131 359.628ZM648.312 331.213C645.368 331.214 643.042 332.132 641.335 333.967C639.627 335.803 638.623 338.214 638.323 341.201L657.203 341.193C657.077 338.036 656.246 335.583 654.711 333.834C653.218 332.085 651.085 331.211 648.312 331.213ZM675.342 347.265L675.343 345.409C675.344 343.233 675.75 341.207 676.562 339.329C677.373 337.409 678.803 335.253 680.853 332.863C682.475 330.985 683.606 329.385 684.247 328.062C684.887 326.739 685.208 325.331 685.209 323.837C685.209 322.045 684.57 320.638 683.291 319.614C682.011 318.548 680.241 318.015 677.979 318.016C675.633 318.017 673.456 318.445 671.451 319.299C669.445 320.153 667.546 321.434 665.753 323.141L663.835 319.046C665.5 317.339 667.612 315.973 670.173 314.948C672.733 313.88 675.421 313.345 678.237 313.344C681.907 313.343 684.872 314.28 687.132 316.157C689.393 317.99 690.522 320.422 690.521 323.451C690.52 325.456 690.071 327.334 689.174 329.084C688.32 330.833 686.805 332.861 684.627 335.166C682.621 337.3 681.191 339.178 680.337 340.799C679.526 342.378 679.013 344 678.799 345.664L678.67 347.264L675.342 347.265ZM673.737 359.042L673.74 352.514L680.268 352.511L680.265 359.039L673.737 359.042Z" fill="white"/>
</g>
<g filter="url(#filter1_d_1194_28)">
<path d="M131.571 68.5707L99.5708 122.264L35.5708 122.264L3.5708 68.5707L35.5708 14.8772L99.5708 14.8772L131.571 68.5707Z" fill="#401127"/>
<path d="M98.1504 17.3772L128.66 68.5707L98.1504 119.764L36.9912 119.764L6.48111 68.5707L36.9912 17.3772L98.1504 17.3772Z" stroke="#8F1B42" stroke-width="5" stroke-miterlimit="1.36733" stroke-linecap="round"/>
</g>
<g filter="url(#filter2_d_1194_28)">
<path d="M57.4062 44.0817C57.4062 41.828 59.2348 39.9995 61.4885 39.9995H90.06C92.3137 39.9995 94.1422 41.828 94.1422 44.0817V93.06C94.1422 95.3137 92.3137 97.1423 90.06 97.1423H75.7743" stroke="#FFFEE8" stroke-width="3.5" stroke-linecap="round" stroke-linejoin="round"/>
<path d="M45.1641 64.489H53.4749C54.6872 64.4893 55.8498 64.9711 56.7069 65.8284L68.3138 77.4399C69.1716 78.2956 70.3341 78.7757 71.5458 78.7747H77.8132M63.5275 61.4307C63.5275 63.3257 64.2803 65.1431 65.6203 66.4831C66.9602 67.8231 68.7776 68.5759 70.6726 68.5759C72.5676 68.5759 74.385 67.8231 75.725 66.4831C77.065 65.1431 77.8178 63.3257 77.8178 61.4307C77.8178 59.5357 77.065 57.7183 75.725 56.3783C74.385 55.0384 72.5676 54.2856 70.6726 54.2856C68.7776 54.2856 66.9602 55.0384 65.6203 56.3783C64.2803 57.7183 63.5275 59.5357 63.5275 61.4307Z" stroke="#FFFEE8" stroke-width="3.5" stroke-linecap="round" stroke-linejoin="round"/>
<path d="M61.4887 70.6098L50.5812 81.5172C49.7241 82.3746 48.5615 82.8564 47.3492 82.8567H36.9995" stroke="#FFFEE8" stroke-width="3.5" stroke-linecap="round" stroke-linejoin="round"/>
<path d="M53.3242 78.7739L60.1494 85.599C61.0067 86.4561 61.4885 87.6187 61.4888 88.831V97.1419" stroke="#FFFEE8" stroke-width="3.5" stroke-linecap="round" stroke-linejoin="round"/>
</g>
<g filter="url(#filter3_d_1194_28)">
<path d="M507.15 557.584L476.15 613.01L414.15 613.01L383.15 557.584L414.15 502.159L476.15 502.159L507.15 557.584Z" fill="#401127"/>
<path d="M474.684 504.659L504.286 557.584L474.684 610.51L415.617 610.51L386.015 557.584L415.617 504.659L474.684 504.659Z" stroke="#8F1B42" stroke-width="5" stroke-miterlimit="1.36733" stroke-linecap="round"/>
</g>
<g filter="url(#filter4_d_1194_28)">
<path d="M429.674 551V544.75C429.674 537.458 433.32 533.812 440.612 533.812H450.299C457.591 533.812 461.237 537.458 461.237 544.75V548.188C461.237 553.333 457.706 558.115 450.643 562.531C448.831 563.656 447.893 565.083 447.831 566.812L441.799 569.719H441.487C441.508 564.427 443.331 560.667 446.956 558.438C452.31 555.146 454.987 551.719 454.987 548.156V544.75C454.987 541.208 453.424 539.438 450.299 539.438H440.612C437.487 539.438 435.924 541.208 435.924 544.75V548.188L429.987 551H429.674ZM442.487 580.5C441.758 579.75 441.393 578.854 441.393 577.812C441.393 576.75 441.758 575.844 442.487 575.094C443.216 574.344 444.101 573.969 445.143 573.969C446.185 573.969 447.07 574.344 447.799 575.094C448.528 575.844 448.893 576.75 448.893 577.812C448.893 578.854 448.528 579.75 447.799 580.5C447.07 581.25 446.185 581.625 445.143 581.625C444.101 581.625 443.216 581.25 442.487 580.5Z" fill="#FFFEE8"/>
</g>
<defs>
<filter id="filter0_d_1194_28" x="109.056" y="211.883" width="675.26" height="174.482" filterUnits="userSpaceOnUse" color-interpolation-filters="sRGB">
<feFlood flood-opacity="0" result="BackgroundImageFix"/>
<feColorMatrix in="SourceAlpha" type="matrix" values="0 0 0 0 0 0 0 0 0 0 0 0 0 0 0 0 0 0 127 0" result="hardAlpha"/>
<feOffset/>
<feGaussianBlur stdDeviation="7.5"/>
<feComposite in2="hardAlpha" operator="out"/>
<feColorMatrix type="matrix" values="0 0 0 0 1 0 0 0 0 0.996078 0 0 0 0 0.909804 0 0 0 0.5 0"/>
<feBlend mode="normal" in2="BackgroundImageFix" result="effect1_dropShadow_1194_28"/>
<feBlend mode="normal" in="SourceGraphic" in2="effect1_dropShadow_1194_28" result="shape"/>
</filter>
<filter id="filter1_d_1194_28" x="0.570801" y="14.8771" width="134" height="113.387" filterUnits="userSpaceOnUse" color-interpolation-filters="sRGB">
<feFlood flood-opacity="0" result="BackgroundImageFix"/>
<feColorMatrix in="SourceAlpha" type="matrix" values="0 0 0 0 0 0 0 0 0 0 0 0 0 0 0 0 0 0 127 0" result="hardAlpha"/>
<feOffset dy="3"/>
<feGaussianBlur stdDeviation="1.5"/>
<feComposite in2="hardAlpha" operator="out"/>
<feColorMatrix type="matrix" values="0 0 0 0 0 0 0 0 0 0 0 0 0 0 0 0 0 0 0.25 0"/>
<feBlend mode="normal" in2="BackgroundImageFix" result="effect1_dropShadow_1194_28"/>
<feBlend mode="normal" in="SourceGraphic" in2="effect1_dropShadow_1194_28" result="shape"/>
</filter>
<filter id="filter2_d_1194_28" x="18.5708" y="21.5707" width="94" height="94" filterUnits="userSpaceOnUse" color-interpolation-filters="sRGB">
<feFlood flood-opacity="0" result="BackgroundImageFix"/>
<feColorMatrix in="SourceAlpha" type="matrix" values="0 0 0 0 0 0 0 0 0 0 0 0 0 0 0 0 0 0 127 0" result="hardAlpha"/>
<feOffset/>
<feGaussianBlur stdDeviation="7.5"/>
<feColorMatrix type="matrix" values="0 0 0 0 1 0 0 0 0 0.996078 0 0 0 0 0.909804 0 0 0 0.5 0"/>
<feBlend mode="normal" in2="BackgroundImageFix" result="effect1_dropShadow_1194_28"/>
<feBlend mode="normal" in="SourceGraphic" in2="effect1_dropShadow_1194_28" result="shape"/>
</filter>
<filter id="filter3_d_1194_28" x="380.15" y="502.159" width="130" height="116.851" filterUnits="userSpaceOnUse" color-interpolation-filters="sRGB">
<feFlood flood-opacity="0" result="BackgroundImageFix"/>
<feColorMatrix in="SourceAlpha" type="matrix" values="0 0 0 0 0 0 0 0 0 0 0 0 0 0 0 0 0 0 127 0" result="hardAlpha"/>
<feOffset dy="3"/>
<feGaussianBlur stdDeviation="1.5"/>
<feComposite in2="hardAlpha" operator="out"/>
<feColorMatrix type="matrix" values="0 0 0 0 0 0 0 0 0 0 0 0 0 0 0 0 0 0 0.25 0"/>
<feBlend mode="normal" in2="BackgroundImageFix" result="effect1_dropShadow_1194_28"/>
<feBlend mode="normal" in="SourceGraphic" in2="effect1_dropShadow_1194_28" result="shape"/>
</filter>
<filter id="filter4_d_1194_28" x="414.674" y="518.812" width="61.5625" height="77.8125" filterUnits="userSpaceOnUse" color-interpolation-filters="sRGB">
<feFlood flood-opacity="0" result="BackgroundImageFix"/>
<feColorMatrix in="SourceAlpha" type="matrix" values="0 0 0 0 0 0 0 0 0 0 0 0 0 0 0 0 0 0 127 0" result="hardAlpha"/>
<feOffset/>
<feGaussianBlur stdDeviation="7.5"/>
<feComposite in2="hardAlpha" operator="out"/>
<feColorMatrix type="matrix" values="0 0 0 0 1 0 0 0 0 0.996078 0 0 0 0 0.909804 0 0 0 0.5 0"/>
<feBlend mode="normal" in2="BackgroundImageFix" result="effect1_dropShadow_1194_28"/>
<feBlend mode="normal" in="SourceGraphic" in2="effect1_dropShadow_1194_28" result="shape"/>
</filter>
</defs>
</svg>
