<svg width="1920" height="1083" viewBox="0 0 1920 1083" fill="none" xmlns="http://www.w3.org/2000/svg">
<g style="mix-blend-mode:hard-light">
<rect width="1920" height="1080" fill="black" fill-opacity="0.68"/>
</g>
<rect x="570" y="808" width="502.461" height="782.273" rx="24" transform="rotate(-90.2596 570 808)" fill="#8F1B42"/>
<path d="M604 789.928C595.163 789.968 587.968 782.837 587.928 774L585.957 339.046C585.917 330.209 593.048 323.013 601.884 322.973L606.714 322.951L1315.76 319.739C1324.6 319.699 1331.79 326.83 1331.83 335.667L1333.8 770.621C1333.84 779.458 1326.71 786.653 1317.88 786.693L604 789.928Z" fill="#4E2626" fill-opacity="0.69"/>
<g style="mix-blend-mode:overlay">
<path d="M599 796.918C589.059 796.963 580.963 788.941 580.918 779L578.904 334.228C578.859 324.287 586.881 316.192 596.822 316.147L600.023 316.132L1319.99 312.871C1329.94 312.826 1338.03 320.848 1338.08 330.789L1340.09 775.561C1340.14 785.502 1332.11 793.597 1322.17 793.642L599 796.918Z" fill="#401127"/>
</g>
<g filter="url(#filter0_d_1037_549)">
<path d="M638.1 515.269L658.025 470.14L662.505 470.139L682.388 515.25L676.948 515.253L671.962 503.735L648.474 503.744L643.54 515.266L638.1 515.269ZM660.198 476.284L650.396 499.328L670.108 499.319L660.326 476.283L660.198 476.284ZM688.373 515.248L688.388 484.144L693.444 484.142L693.441 489.71C695.107 485.954 698.521 483.884 703.684 483.498L705.54 483.305L705.922 487.785L702.658 488.17C699.714 488.427 697.473 489.367 695.936 490.989C694.4 492.568 693.631 494.744 693.629 497.518L693.621 515.246L688.373 515.248ZM724.952 515.809C720.045 515.811 716.163 514.383 713.306 511.526C710.448 508.625 709.021 504.701 709.023 499.751C709.024 496.551 709.666 493.735 710.947 491.303C712.228 488.827 713.978 486.928 716.197 485.604C718.459 484.238 721.062 483.554 724.006 483.553C728.23 483.551 731.536 484.915 733.924 487.645C736.313 490.332 737.506 494.044 737.503 498.78L737.502 500.764L714.078 500.773C714.248 504.315 715.27 507.023 717.147 508.9C719.023 510.734 721.626 511.65 724.954 511.649C726.831 511.648 728.623 511.37 730.33 510.815C732.037 510.217 733.659 509.256 735.195 507.933L736.986 511.58C735.577 512.903 733.784 513.949 731.608 514.718C729.432 515.444 727.213 515.808 724.952 515.809ZM724.133 487.393C721.189 487.394 718.863 488.313 717.155 490.148C715.448 491.983 714.444 494.394 714.144 497.381L733.024 497.373C732.897 494.216 732.067 491.763 730.531 490.015C729.039 488.266 726.906 487.392 724.133 487.393ZM765.015 526.736L770.332 514.702L757.226 484.116L762.858 484.113L773.151 509.325L783.53 484.105L788.97 484.102L770.455 526.734L765.015 526.736ZM806.801 515.775C803.772 515.776 801.148 515.116 798.93 513.794C796.712 512.473 794.985 510.617 793.749 508.228C792.555 505.797 791.959 502.939 791.96 499.653C791.962 496.368 792.561 493.53 793.756 491.14C794.995 488.708 796.724 486.83 798.943 485.506C801.162 484.183 803.786 483.52 806.816 483.519C809.802 483.518 812.405 484.178 814.623 485.5C816.884 486.822 818.611 488.698 819.804 491.13C821.041 493.519 821.658 496.356 821.656 499.641C821.655 502.926 821.035 505.785 819.797 508.218C818.601 510.608 816.872 512.464 814.61 513.788C812.391 515.111 809.788 515.774 806.801 515.775ZM806.803 511.615C809.704 511.614 812.03 510.589 813.78 508.54C815.531 506.449 816.407 503.483 816.408 499.643C816.41 495.76 815.537 492.795 813.788 490.748C812.04 488.701 809.715 487.678 806.814 487.679C803.87 487.68 801.523 488.705 799.772 490.754C798.065 492.803 797.21 495.768 797.208 499.651C797.207 503.491 798.059 506.456 799.764 508.546C801.513 510.593 803.859 511.616 806.803 511.615ZM840.444 515.761C832.977 515.764 829.245 511.648 829.249 503.414L829.258 484.086L834.442 484.084L834.433 503.348C834.432 506.121 834.986 508.169 836.094 509.491C837.246 510.813 839.038 511.474 841.47 511.473C844.115 511.472 846.27 510.596 847.935 508.846C849.6 507.053 850.433 504.685 850.434 501.741L850.442 484.077L855.626 484.075L855.612 515.179L850.556 515.181L850.558 509.933C849.576 511.811 848.189 513.262 846.396 514.287C844.647 515.269 842.662 515.76 840.444 515.761ZM892.244 515.74C889.812 515.741 887.508 515.4 885.333 514.719C883.157 514.037 881.365 513.078 879.958 511.841L881.624 508.192C883.159 509.429 884.844 510.346 886.678 510.942C888.555 511.496 890.454 511.773 892.374 511.772C894.806 511.771 896.641 511.322 897.879 510.426C899.116 509.529 899.735 508.313 899.736 506.777C899.737 505.582 899.332 504.644 898.521 503.961C897.711 503.236 896.431 502.682 894.682 502.299L888.859 501.021C883.569 499.871 880.925 497.142 880.927 492.833C880.928 490.017 882.038 487.755 884.258 486.047C886.52 484.34 889.464 483.485 893.091 483.484C895.224 483.483 897.251 483.823 899.17 484.505C901.133 485.144 902.754 486.104 904.033 487.383L902.303 491.032C901.067 489.88 899.616 489.006 897.953 488.41C896.331 487.77 894.71 487.451 893.089 487.452C890.7 487.453 888.886 487.923 887.648 488.862C886.411 489.801 885.791 491.039 885.791 492.575C885.79 494.964 887.368 496.499 890.525 497.181L896.348 498.394C899.078 498.99 901.147 499.95 902.555 501.272C903.962 502.551 904.665 504.3 904.664 506.519C904.663 509.377 903.531 511.639 901.269 513.304C899.007 514.926 895.999 515.738 892.244 515.74ZM923.569 515.727C916.102 515.73 912.37 511.614 912.374 503.38L912.383 484.052L917.567 484.049L917.558 503.313C917.557 506.087 918.111 508.135 919.219 509.457C920.371 510.779 922.163 511.44 924.595 511.439C927.24 511.437 929.395 510.562 931.06 508.812C932.725 507.019 933.558 504.651 933.559 501.707L933.567 484.043L938.751 484.041L938.737 515.145L933.681 515.147L933.683 509.899C932.701 511.777 931.314 513.228 929.521 514.252C927.772 515.235 925.787 515.726 923.569 515.727ZM948.436 515.141L948.45 484.037L953.506 484.035L953.503 489.603C955.169 485.847 958.583 483.777 963.746 483.39L965.602 483.198L965.984 487.677L962.72 488.063C959.776 488.32 957.536 489.26 955.999 490.882C954.462 492.461 953.693 494.637 953.692 497.411L953.684 515.139L948.436 515.141ZM985.014 515.702C980.107 515.704 976.225 514.276 973.368 511.418C970.511 508.518 969.083 504.594 969.085 499.644C969.087 496.444 969.728 493.628 971.009 491.195C972.29 488.72 974.041 486.821 976.26 485.497C978.522 484.131 981.125 483.447 984.069 483.446C988.293 483.444 991.599 484.808 993.987 487.538C996.375 490.225 997.568 493.936 997.566 498.672L997.565 500.656L974.141 500.666C974.31 504.207 975.333 506.916 977.209 508.793C979.086 510.627 981.688 511.543 985.016 511.542C986.893 511.541 988.685 511.263 990.392 510.707C992.099 510.109 993.721 509.149 995.258 507.825L997.048 511.473C995.639 512.796 993.847 513.842 991.671 514.611C989.494 515.337 987.275 515.701 985.014 515.702ZM984.195 487.286C981.251 487.287 978.925 488.205 977.218 490.041C975.51 491.876 974.507 494.287 974.206 497.274L993.086 497.266C992.96 494.109 992.129 491.656 990.594 489.907C989.101 488.159 986.968 487.285 984.195 487.286ZM1025.08 526.629L1030.39 514.595L1017.29 484.008L1022.92 484.006L1033.21 509.218L1043.59 483.997L1049.03 483.995L1030.52 526.627L1025.08 526.629ZM1066.86 515.668C1063.83 515.669 1061.21 515.009 1058.99 513.687C1056.77 512.365 1055.05 510.51 1053.81 508.121C1052.62 505.69 1052.02 502.831 1052.02 499.546C1052.02 496.261 1052.62 493.423 1053.82 491.033C1055.06 488.601 1056.79 486.723 1059.01 485.399C1061.22 484.076 1063.85 483.413 1066.88 483.412C1069.86 483.411 1072.47 484.071 1074.69 485.393C1076.95 486.714 1078.67 488.591 1079.87 491.023C1081.1 493.411 1081.72 496.248 1081.72 499.534C1081.72 502.819 1081.1 505.678 1079.86 508.111C1078.66 510.5 1076.93 512.357 1074.67 513.681C1072.45 515.004 1069.85 515.667 1066.86 515.668ZM1066.87 511.508C1069.77 511.507 1072.09 510.482 1073.84 508.433C1075.59 506.342 1076.47 503.376 1076.47 499.536C1076.47 495.653 1075.6 492.688 1073.85 490.641C1072.1 488.594 1069.78 487.571 1066.88 487.572C1063.93 487.573 1061.59 488.598 1059.83 490.647C1058.13 492.695 1057.27 495.661 1057.27 499.544C1057.27 503.384 1058.12 506.349 1059.83 508.439C1061.58 510.486 1063.92 511.509 1066.87 511.508ZM1100.51 515.654C1093.04 515.657 1089.31 511.541 1089.31 503.307L1089.32 483.979L1094.5 483.976L1094.5 503.24C1094.49 506.014 1095.05 508.062 1096.16 509.384C1097.31 510.706 1099.1 511.367 1101.53 511.366C1104.18 511.365 1106.33 510.489 1108 508.739C1109.66 506.946 1110.5 504.578 1110.5 501.634L1110.5 483.97L1115.69 483.968L1115.67 515.072L1110.62 515.074L1110.62 509.826C1109.64 511.704 1108.25 513.155 1106.46 514.18C1104.71 515.162 1102.72 515.653 1100.51 515.654ZM1150.07 515.058L1138.5 483.958L1143.94 483.956L1152.69 508.977L1161.79 483.949L1166.21 483.947L1175.16 509.031L1184.06 483.94L1189.25 483.937L1177.59 515.046L1172.66 515.048L1163.9 490.924L1155.06 515.056L1150.07 515.058ZM1204.79 515.611C1202.66 515.612 1200.74 515.207 1199.03 514.397C1197.37 513.545 1196.04 512.393 1195.06 510.943C1194.08 509.493 1193.59 507.872 1193.59 506.08C1193.6 503.818 1194.17 502.026 1195.32 500.703C1196.52 499.38 1198.46 498.44 1201.15 497.885C1203.88 497.286 1207.59 496.986 1212.29 496.984L1214.33 496.983L1214.34 494.999C1214.34 492.354 1213.78 490.455 1212.67 489.304C1211.61 488.11 1209.88 487.513 1207.49 487.514C1205.61 487.515 1203.8 487.793 1202.05 488.348C1200.3 488.861 1198.51 489.715 1196.67 490.91L1194.88 487.135C1196.5 485.982 1198.47 485.064 1200.77 484.381C1203.12 483.697 1205.36 483.355 1207.49 483.354C1211.5 483.352 1214.47 484.332 1216.39 486.294C1218.35 488.256 1219.33 491.306 1219.33 495.445L1219.32 515.029L1214.45 515.031L1214.46 509.655C1213.65 511.49 1212.39 512.941 1210.68 514.009C1209.01 515.076 1207.05 515.61 1204.79 515.611ZM1205.62 511.707C1208.18 511.706 1210.27 510.83 1211.9 509.08C1213.52 507.287 1214.33 505.026 1214.33 502.295L1214.33 500.375L1212.35 500.376C1208.89 500.377 1206.16 500.549 1204.16 500.891C1202.19 501.191 1200.81 501.746 1200 502.557C1199.23 503.325 1198.84 504.392 1198.84 505.757C1198.84 507.507 1199.44 508.936 1200.63 510.045C1201.87 511.154 1203.53 511.708 1205.62 511.707ZM1228.94 515.025L1228.95 483.921L1234.01 483.919L1234 489.231C1235.03 487.268 1236.48 485.795 1238.36 484.813C1240.24 483.831 1242.35 483.34 1244.69 483.339C1252.08 483.336 1255.76 487.43 1255.76 495.622L1255.75 515.014L1250.57 515.016L1250.58 495.944C1250.58 493.043 1250 490.931 1248.85 489.609C1247.74 488.244 1245.95 487.562 1243.48 487.563C1240.62 487.564 1238.33 488.461 1236.63 490.254C1234.96 492.004 1234.13 494.351 1234.13 497.295L1234.12 515.023L1228.94 515.025ZM1277.79 515.581C1274.12 515.582 1271.37 514.624 1269.54 512.704C1267.7 510.742 1266.79 507.927 1266.79 504.257L1266.8 487.937L1260.72 487.94L1260.72 483.908L1266.8 483.905L1266.8 474.369L1271.99 474.367L1271.98 483.903L1281.84 483.899L1281.84 487.931L1271.98 487.935L1271.97 503.743C1271.97 506.175 1272.48 508.031 1273.51 509.311C1274.53 510.548 1276.19 511.166 1278.5 511.165C1279.18 511.164 1279.86 511.079 1280.54 510.908C1281.23 510.737 1281.85 510.566 1282.4 510.395L1283.3 514.363C1282.74 514.662 1281.93 514.939 1280.86 515.196C1279.8 515.452 1278.77 515.581 1277.79 515.581ZM730.907 602.806C727.238 602.808 724.487 601.849 722.653 599.93C720.819 597.968 719.903 595.152 719.905 591.483L719.912 575.163L713.832 575.165L713.834 571.133L719.914 571.131L719.918 561.595L725.102 561.593L725.098 571.129L734.954 571.125L734.952 575.157L725.096 575.161L725.089 590.969C725.088 593.401 725.599 595.257 726.622 596.536C727.646 597.773 729.309 598.391 731.613 598.39C732.296 598.39 732.979 598.304 733.662 598.133C734.344 597.962 734.963 597.791 735.518 597.62L736.412 601.588C735.857 601.887 735.046 602.165 733.98 602.421C732.913 602.678 731.889 602.806 730.907 602.806ZM753.418 602.797C750.389 602.798 747.765 602.138 745.547 600.816C743.329 599.495 741.602 597.639 740.365 595.25C739.172 592.819 738.576 589.961 738.577 586.675C738.579 583.39 739.177 580.552 740.373 578.162C741.612 575.73 743.34 573.852 745.56 572.528C747.779 571.205 750.403 570.542 753.433 570.541C756.419 570.54 759.022 571.2 761.24 572.522C763.5 573.844 765.228 575.72 766.421 578.152C767.657 580.541 768.275 583.378 768.273 586.663C768.272 589.948 767.652 592.807 766.413 595.24C765.218 597.63 763.489 599.486 761.227 600.81C759.008 602.133 756.405 602.796 753.418 602.797ZM753.42 598.637C756.321 598.636 758.647 597.611 760.397 595.562C762.147 593.471 763.024 590.505 763.025 586.665C763.027 582.782 762.154 579.817 760.405 577.77C758.657 575.723 756.332 574.7 753.431 574.701C750.487 574.702 748.14 575.727 746.389 577.776C744.682 579.825 743.827 582.79 743.825 586.673C743.824 590.513 744.675 593.478 746.381 595.568C748.13 597.615 750.476 598.638 753.42 598.637ZM806.506 602.775C801.599 602.777 797.717 601.349 794.86 598.492C792.003 595.592 790.575 591.667 790.577 586.718C790.579 583.518 791.22 580.701 792.501 578.269C793.782 575.794 795.532 573.894 797.752 572.571C800.014 571.205 802.617 570.521 805.561 570.52C809.785 570.518 813.091 571.882 815.479 574.611C817.867 577.299 819.06 581.01 819.058 585.746L819.057 587.73L795.633 587.74C795.802 591.281 796.825 593.99 798.701 595.866C800.578 597.7 803.18 598.617 806.508 598.615C808.385 598.614 810.177 598.336 811.884 597.781C813.591 597.183 815.213 596.222 816.75 594.899L818.54 598.546C817.131 599.869 815.339 600.916 813.162 601.684C810.986 602.411 808.767 602.774 806.506 602.775ZM805.687 574.36C802.743 574.361 800.417 575.279 798.71 577.114C797.002 578.95 795.998 581.361 795.698 584.348L814.578 584.34C814.452 581.183 813.621 578.73 812.086 576.981C810.593 575.232 808.46 574.358 805.687 574.36ZM822.335 602.193L835.27 586.123L823.117 571.088L829.261 571.086L838.28 582.538L847.373 571.078L853.453 571.076L841.286 586.121L854.207 602.18L848.063 602.182L838.212 589.834L828.479 602.19L822.335 602.193ZM859.305 563.329L859.308 557.505L865.708 557.503L865.705 563.327L859.305 563.329ZM859.928 602.177L859.942 571.073L865.126 571.071L865.112 602.175L859.928 602.177ZM887.282 602.742C883.613 602.743 880.862 601.785 879.028 599.865C877.194 597.903 876.278 595.088 876.28 591.418L876.287 575.098L870.207 575.101L870.209 571.069L876.289 571.066L876.293 561.53L881.477 561.528L881.473 571.064L891.329 571.06L891.327 575.092L881.471 575.096L881.464 590.904C881.463 593.336 881.974 595.192 882.997 596.472C884.021 597.709 885.684 598.327 887.988 598.326C888.671 598.325 889.354 598.24 890.037 598.069C890.719 597.898 891.338 597.727 891.893 597.556L892.787 601.524C892.232 601.823 891.421 602.1 890.355 602.357C889.288 602.613 888.264 602.741 887.282 602.742ZM926.095 602.726C922.426 602.727 919.674 601.769 917.84 599.849C916.006 597.887 915.09 595.072 915.092 591.402L915.099 575.082L909.019 575.085L909.021 571.053L915.101 571.05L915.106 561.514L920.29 561.512L920.285 571.048L930.141 571.044L930.139 575.076L920.283 575.08L920.276 590.888C920.275 593.32 920.786 595.176 921.81 596.456C922.833 597.693 924.497 598.311 926.801 598.31C927.484 598.309 928.166 598.224 928.849 598.053C929.532 597.882 930.151 597.711 930.705 597.54L931.599 601.508C931.045 601.807 930.234 602.084 929.167 602.341C928.1 602.597 927.076 602.725 926.095 602.726ZM935.99 602.146L936.011 557.026L941.195 557.024L941.186 576.16C942.211 574.282 943.641 572.873 945.476 571.934C947.354 570.952 949.445 570.46 951.749 570.459C959.13 570.456 962.819 574.551 962.815 582.743L962.806 602.135L957.622 602.137L957.631 583.065C957.632 580.164 957.057 578.052 955.906 576.73C954.797 575.365 953.005 574.683 950.531 574.684C947.672 574.685 945.389 575.582 943.681 577.375C942.017 579.125 941.184 581.472 941.182 584.416L941.174 602.144L935.99 602.146ZM986.381 602.701C981.474 602.703 977.592 601.275 974.735 598.418C971.878 595.518 970.45 591.593 970.452 586.644C970.454 583.444 971.095 580.627 972.376 578.195C973.657 575.72 975.407 573.82 977.627 572.497C979.889 571.13 982.492 570.447 985.436 570.445C989.66 570.444 992.966 571.808 995.354 574.537C997.742 577.224 998.935 580.936 998.933 585.672L998.932 587.656L975.508 587.666C975.677 591.207 976.7 593.916 978.576 595.792C980.453 597.626 983.055 598.542 986.383 598.541C988.26 598.54 990.052 598.262 991.759 597.707C993.466 597.109 995.088 596.148 996.624 594.825L998.415 598.472C997.006 599.795 995.214 600.841 993.037 601.61C990.861 602.337 988.642 602.7 986.381 602.701ZM985.562 574.285C982.618 574.287 980.292 575.205 978.585 577.04C976.877 578.876 975.873 581.287 975.573 584.273L994.453 584.266C994.327 581.108 993.496 578.655 991.961 576.907C990.468 575.158 988.335 574.284 985.562 574.285ZM1036.62 614.2C1033.93 614.201 1031.39 613.84 1029 613.115C1026.66 612.434 1024.57 611.389 1022.73 609.982L1024.46 606.205C1026.38 607.57 1028.28 608.55 1030.16 609.147C1032.08 609.744 1034.15 610.041 1036.37 610.04C1042.51 610.038 1045.58 606.879 1045.59 600.565L1045.59 595.061C1044.69 597.024 1043.28 598.582 1041.36 599.734C1039.48 600.844 1037.33 601.4 1034.9 601.401C1032.04 601.402 1029.56 600.742 1027.47 599.42C1025.38 598.098 1023.76 596.286 1022.61 593.982C1021.5 591.636 1020.95 588.927 1020.95 585.855C1020.95 582.783 1021.51 580.095 1022.62 577.79C1023.77 575.443 1025.4 573.629 1027.49 572.348C1029.58 571.067 1032.05 570.426 1034.91 570.425C1037.34 570.424 1039.5 570.978 1041.37 572.086C1043.29 573.195 1044.7 574.709 1045.6 576.629L1045.6 570.997L1050.66 570.995L1050.64 599.859C1050.64 604.637 1049.44 608.222 1047.05 610.612C1044.71 613.002 1041.23 614.198 1036.62 614.2ZM1035.86 597.177C1038.85 597.175 1041.21 596.15 1042.96 594.102C1044.72 592.053 1045.59 589.301 1045.59 585.845C1045.59 582.389 1044.72 579.658 1042.97 577.654C1041.22 575.606 1038.86 574.583 1035.87 574.585C1032.93 574.586 1030.58 575.611 1028.83 577.66C1027.08 579.666 1026.2 582.397 1026.2 585.853C1026.2 589.309 1027.07 592.06 1028.82 594.108C1030.57 596.155 1032.92 597.178 1035.86 597.177ZM1070.16 602.667C1068.02 602.667 1066.1 602.263 1064.4 601.453C1062.73 600.6 1061.41 599.449 1060.43 597.999C1059.45 596.548 1058.96 594.927 1058.96 593.135C1058.96 590.874 1059.54 589.082 1060.69 587.758C1061.89 586.435 1063.83 585.496 1066.52 584.94C1069.25 584.342 1072.96 584.041 1077.65 584.039L1079.7 584.039L1079.7 582.055C1079.7 579.409 1079.15 577.511 1078.04 576.359C1076.97 575.165 1075.25 574.568 1072.86 574.569C1070.98 574.57 1069.17 574.848 1067.42 575.404C1065.67 575.916 1063.88 576.77 1062.04 577.966L1060.25 574.191C1061.87 573.038 1063.83 572.12 1066.14 571.436C1068.49 570.753 1070.73 570.41 1072.86 570.409C1076.87 570.408 1079.84 571.388 1081.75 573.35C1083.72 575.312 1084.7 578.362 1084.69 582.501L1084.69 602.085L1079.82 602.087L1079.82 596.711C1079.01 598.546 1077.75 599.997 1076.05 601.064C1074.38 602.131 1072.42 602.666 1070.16 602.667ZM1070.99 598.762C1073.55 598.761 1075.64 597.886 1077.26 596.136C1078.89 594.343 1079.7 592.081 1079.7 589.351L1079.7 587.431L1077.72 587.431C1074.26 587.433 1071.53 587.605 1069.52 587.947C1067.56 588.246 1066.17 588.801 1065.36 589.612C1064.59 590.381 1064.21 591.448 1064.21 592.813C1064.21 594.562 1064.81 595.991 1066 597.1C1067.24 598.209 1068.9 598.763 1070.99 598.762ZM1094.43 602.08L1094.44 570.976L1099.5 570.974L1099.5 576.222C1100.44 574.345 1101.74 572.915 1103.4 571.933C1105.07 570.908 1107.01 570.395 1109.23 570.394C1114.09 570.392 1117.21 572.503 1118.57 576.727C1119.51 574.763 1120.9 573.227 1122.73 572.117C1124.57 570.964 1126.68 570.387 1129.07 570.386C1135.98 570.383 1139.44 574.478 1139.43 582.67L1139.42 602.062L1134.24 602.064L1134.25 582.928C1134.25 580.069 1133.74 577.979 1132.71 576.657C1131.73 575.292 1130.09 574.61 1127.79 574.611C1125.27 574.612 1123.26 575.509 1121.77 577.301C1120.28 579.094 1119.53 581.483 1119.53 584.47L1119.52 602.07L1114.33 602.072L1114.34 582.936C1114.34 580.078 1113.83 577.987 1112.81 576.665C1111.83 575.3 1110.19 574.618 1107.88 574.619C1105.32 574.62 1103.3 575.517 1101.8 577.309C1100.35 579.102 1099.62 581.492 1099.62 584.478L1099.61 602.078L1094.43 602.08ZM1163.13 602.628C1158.22 602.63 1154.34 601.202 1151.48 598.345C1148.63 595.445 1147.2 591.52 1147.2 586.571C1147.2 583.371 1147.84 580.554 1149.13 578.122C1150.41 575.647 1152.16 573.747 1154.38 572.424C1156.64 571.058 1159.24 570.374 1162.19 570.373C1166.41 570.371 1169.72 571.735 1172.1 574.464C1174.49 577.151 1175.68 580.863 1175.68 585.599L1175.68 587.583L1152.26 587.593C1152.43 591.134 1153.45 593.843 1155.33 595.719C1157.2 597.553 1159.8 598.47 1163.13 598.468C1165.01 598.467 1166.8 598.189 1168.51 597.634C1170.22 597.036 1171.84 596.075 1173.37 594.752L1175.16 598.399C1173.76 599.722 1171.96 600.769 1169.79 601.537C1167.61 602.264 1165.39 602.627 1163.13 602.628ZM1162.31 574.213C1159.37 574.214 1157.04 575.132 1155.33 576.967C1153.63 578.803 1152.62 581.214 1152.32 584.201L1171.2 584.193C1171.08 581.036 1170.25 578.583 1168.71 576.834C1167.22 575.085 1165.09 574.211 1162.31 574.213ZM1189.34 590.265L1189.34 588.409C1189.34 586.233 1189.75 584.207 1190.56 582.329C1191.37 580.409 1192.8 578.253 1194.85 575.863C1196.47 573.985 1197.61 572.385 1198.25 571.062C1198.89 569.739 1199.21 568.331 1199.21 566.837C1199.21 565.045 1198.57 563.638 1197.29 562.614C1196.01 561.548 1194.24 561.015 1191.98 561.016C1189.63 561.017 1187.46 561.445 1185.45 562.299C1183.44 563.153 1181.55 564.434 1179.75 566.141L1177.83 562.046C1179.5 560.339 1181.61 558.973 1184.17 557.948C1186.73 556.88 1189.42 556.345 1192.24 556.344C1195.91 556.343 1198.87 557.28 1201.13 559.157C1203.39 560.99 1204.52 563.422 1204.52 566.451C1204.52 568.456 1204.07 570.334 1203.17 572.084C1202.32 573.833 1200.8 575.861 1198.63 578.166C1196.62 580.3 1195.19 582.178 1194.34 583.799C1193.53 585.378 1193.01 587 1192.8 588.664L1192.67 590.264L1189.34 590.265ZM1187.74 602.042L1187.74 595.514L1194.27 595.511L1194.26 602.039L1187.74 602.042Z" fill="white"/>
</g>
<g filter="url(#filter1_d_1037_549)">
<path d="M1021.15 800.584L990.15 856.01L928.15 856.01L897.15 800.584L928.15 745.159L990.15 745.159L1021.15 800.584Z" fill="#401127"/>
<path d="M988.684 747.659L1018.29 800.584L988.684 853.51L929.616 853.51L900.015 800.584L929.616 747.659L988.684 747.659Z" stroke="#8F1B42" stroke-width="5" stroke-miterlimit="1.36733" stroke-linecap="round"/>
</g>
<g filter="url(#filter2_d_1037_549)">
<path d="M943.674 794V787.75C943.674 780.458 947.32 776.812 954.612 776.812H964.299C971.591 776.812 975.237 780.458 975.237 787.75V791.188C975.237 796.333 971.705 801.115 964.643 805.531C962.83 806.656 961.893 808.083 961.83 809.812L955.799 812.719H955.487C955.507 807.427 957.33 803.667 960.955 801.438C966.309 798.146 968.987 794.719 968.987 791.156V787.75C968.987 784.208 967.424 782.438 964.299 782.438H954.612C951.487 782.438 949.924 784.208 949.924 787.75V791.188L943.987 794H943.674ZM956.487 823.5C955.757 822.75 955.393 821.854 955.393 820.812C955.393 819.75 955.757 818.844 956.487 818.094C957.216 817.344 958.101 816.969 959.143 816.969C960.184 816.969 961.07 817.344 961.799 818.094C962.528 818.844 962.893 819.75 962.893 820.812C962.893 821.854 962.528 822.75 961.799 823.5C961.07 824.25 960.184 824.625 959.143 824.625C958.101 824.625 957.216 824.25 956.487 823.5Z" fill="#FFFEE8"/>
</g>
<g filter="url(#filter3_d_1037_549)">
<path d="M645.571 311.571L613.571 365.264L549.571 365.264L517.571 311.571L549.571 257.877L613.571 257.877L645.571 311.571Z" fill="#401127"/>
<path d="M612.15 260.377L642.66 311.571L612.15 362.764L550.991 362.764L520.481 311.571L550.991 260.377L612.15 260.377Z" stroke="#8F1B42" stroke-width="5" stroke-miterlimit="1.36733" stroke-linecap="round"/>
</g>
<g filter="url(#filter4_d_1037_549)">
<path d="M571.406 287.082C571.406 284.828 573.235 283 575.489 283H604.06C606.314 283 608.142 284.828 608.142 287.082V336.06C608.142 338.314 606.314 340.142 604.06 340.142H589.774" stroke="#FFFEE8" stroke-width="3.5" stroke-linecap="round" stroke-linejoin="round"/>
<path d="M559.164 307.489H567.475C568.687 307.489 569.85 307.971 570.707 308.829L582.314 320.44C583.172 321.296 584.334 321.776 585.546 321.775H591.813M577.527 304.431C577.527 306.326 578.28 308.143 579.62 309.483C580.96 310.823 582.778 311.576 584.673 311.576C586.568 311.576 588.385 310.823 589.725 309.483C591.065 308.143 591.818 306.326 591.818 304.431C591.818 302.536 591.065 300.718 589.725 299.378C588.385 298.038 586.568 297.286 584.673 297.286C582.778 297.286 580.96 298.038 579.62 299.378C578.28 300.718 577.527 302.536 577.527 304.431Z" stroke="#FFFEE8" stroke-width="3.5" stroke-linecap="round" stroke-linejoin="round"/>
<path d="M575.489 313.61L564.581 324.517C563.724 325.375 562.562 325.856 561.349 325.857H551" stroke="#FFFEE8" stroke-width="3.5" stroke-linecap="round" stroke-linejoin="round"/>
<path d="M567.324 321.774L574.149 328.599C575.007 329.456 575.489 330.619 575.489 331.831V340.142" stroke="#FFFEE8" stroke-width="3.5" stroke-linecap="round" stroke-linejoin="round"/>
</g>
<defs>
<filter id="filter0_d_1037_549" x="623.055" y="454.883" width="675.26" height="174.482" filterUnits="userSpaceOnUse" color-interpolation-filters="sRGB">
<feFlood flood-opacity="0" result="BackgroundImageFix"/>
<feColorMatrix in="SourceAlpha" type="matrix" values="0 0 0 0 0 0 0 0 0 0 0 0 0 0 0 0 0 0 127 0" result="hardAlpha"/>
<feOffset/>
<feGaussianBlur stdDeviation="7.5"/>
<feComposite in2="hardAlpha" operator="out"/>
<feColorMatrix type="matrix" values="0 0 0 0 1 0 0 0 0 0.996078 0 0 0 0 0.909804 0 0 0 0.5 0"/>
<feBlend mode="normal" in2="BackgroundImageFix" result="effect1_dropShadow_1037_549"/>
<feBlend mode="normal" in="SourceGraphic" in2="effect1_dropShadow_1037_549" result="shape"/>
</filter>
<filter id="filter1_d_1037_549" x="894.15" y="745.159" width="130" height="116.851" filterUnits="userSpaceOnUse" color-interpolation-filters="sRGB">
<feFlood flood-opacity="0" result="BackgroundImageFix"/>
<feColorMatrix in="SourceAlpha" type="matrix" values="0 0 0 0 0 0 0 0 0 0 0 0 0 0 0 0 0 0 127 0" result="hardAlpha"/>
<feOffset dy="3"/>
<feGaussianBlur stdDeviation="1.5"/>
<feComposite in2="hardAlpha" operator="out"/>
<feColorMatrix type="matrix" values="0 0 0 0 0 0 0 0 0 0 0 0 0 0 0 0 0 0 0.25 0"/>
<feBlend mode="normal" in2="BackgroundImageFix" result="effect1_dropShadow_1037_549"/>
<feBlend mode="normal" in="SourceGraphic" in2="effect1_dropShadow_1037_549" result="shape"/>
</filter>
<filter id="filter2_d_1037_549" x="928.674" y="761.812" width="61.5625" height="77.8125" filterUnits="userSpaceOnUse" color-interpolation-filters="sRGB">
<feFlood flood-opacity="0" result="BackgroundImageFix"/>
<feColorMatrix in="SourceAlpha" type="matrix" values="0 0 0 0 0 0 0 0 0 0 0 0 0 0 0 0 0 0 127 0" result="hardAlpha"/>
<feOffset/>
<feGaussianBlur stdDeviation="7.5"/>
<feComposite in2="hardAlpha" operator="out"/>
<feColorMatrix type="matrix" values="0 0 0 0 1 0 0 0 0 0.996078 0 0 0 0 0.909804 0 0 0 0.5 0"/>
<feBlend mode="normal" in2="BackgroundImageFix" result="effect1_dropShadow_1037_549"/>
<feBlend mode="normal" in="SourceGraphic" in2="effect1_dropShadow_1037_549" result="shape"/>
</filter>
<filter id="filter3_d_1037_549" x="514.571" y="257.877" width="134" height="113.387" filterUnits="userSpaceOnUse" color-interpolation-filters="sRGB">
<feFlood flood-opacity="0" result="BackgroundImageFix"/>
<feColorMatrix in="SourceAlpha" type="matrix" values="0 0 0 0 0 0 0 0 0 0 0 0 0 0 0 0 0 0 127 0" result="hardAlpha"/>
<feOffset dy="3"/>
<feGaussianBlur stdDeviation="1.5"/>
<feComposite in2="hardAlpha" operator="out"/>
<feColorMatrix type="matrix" values="0 0 0 0 0 0 0 0 0 0 0 0 0 0 0 0 0 0 0.25 0"/>
<feBlend mode="normal" in2="BackgroundImageFix" result="effect1_dropShadow_1037_549"/>
<feBlend mode="normal" in="SourceGraphic" in2="effect1_dropShadow_1037_549" result="shape"/>
</filter>
<filter id="filter4_d_1037_549" x="532.571" y="264.571" width="94" height="94" filterUnits="userSpaceOnUse" color-interpolation-filters="sRGB">
<feFlood flood-opacity="0" result="BackgroundImageFix"/>
<feColorMatrix in="SourceAlpha" type="matrix" values="0 0 0 0 0 0 0 0 0 0 0 0 0 0 0 0 0 0 127 0" result="hardAlpha"/>
<feOffset/>
<feGaussianBlur stdDeviation="7.5"/>
<feColorMatrix type="matrix" values="0 0 0 0 1 0 0 0 0 0.996078 0 0 0 0 0.909804 0 0 0 0.5 0"/>
<feBlend mode="normal" in2="BackgroundImageFix" result="effect1_dropShadow_1037_549"/>
<feBlend mode="normal" in="SourceGraphic" in2="effect1_dropShadow_1037_549" result="shape"/>
</filter>
</defs>
</svg>
