<svg width="202" height="196" viewBox="0 0 202 196" fill="none" xmlns="http://www.w3.org/2000/svg">
<g filter="url(#filter0_d_666_41)">
<path d="M199 98L150 182.87L52 182.87L3 98L52 13.1295L150 13.1295L199 98Z" fill="#401127" fill-opacity="0.5" shape-rendering="crispEdges"/>
<path d="M148.557 15.6295L196.113 98L148.557 180.37L53.4434 180.37L5.88676 98L53.4434 15.6295L148.557 15.6295Z" stroke="#8F1B42" stroke-width="5" stroke-miterlimit="1.36733" stroke-linecap="round" shape-rendering="crispEdges"/>
</g>
<g filter="url(#filter1_d_666_41)">
<path d="M101 130C86.976 130 75.47 128.214 66.482 124.642C57.494 121.066 53 116.466 53 110.842V52C53 47.016 57.68 42.77 67.04 39.262C76.392 35.754 87.712 34 101 34C114.288 34 125.608 35.754 134.96 39.262C144.32 42.77 149 47.016 149 52V110.848C149 116.468 144.506 121.066 135.518 124.642C126.53 128.214 115.024 130 101 130ZM101 63.34C109.592 63.34 118.252 62.142 126.98 59.746C135.712 57.35 140.936 54.742 142.652 51.922C141.012 48.942 135.872 46.21 127.232 43.726C118.592 41.242 109.848 40 101 40C92.284 40 83.552 41.198 74.804 43.594C66.052 45.994 60.822 48.614 59.114 51.454C60.746 54.454 65.898 57.186 74.57 59.65C83.242 62.11 92.052 63.34 101 63.34ZM101 93.538C105.12 93.538 109.17 93.338 113.15 92.938C117.13 92.538 120.932 91.944 124.556 91.156C128.184 90.368 131.554 89.386 134.666 88.21C137.774 87.03 140.552 85.702 143 84.226V59.65C140.552 61.13 137.772 62.456 134.66 63.628C131.552 64.808 128.184 65.792 124.556 66.58C120.928 67.368 117.126 67.962 113.15 68.362C109.174 68.762 105.124 68.962 101 68.962C96.72 68.962 92.562 68.742 88.526 68.302C84.486 67.862 80.672 67.25 77.084 66.466C73.496 65.674 70.172 64.71 67.112 63.574C64.052 62.434 61.348 61.126 59 59.65V84.226C61.348 85.706 64.052 87.014 67.112 88.15C70.172 89.286 73.496 90.25 77.084 91.042C80.676 91.83 84.49 92.442 88.526 92.878C92.566 93.318 96.724 93.538 101 93.538ZM101 124C106.14 124 111.026 123.708 115.658 123.124C120.29 122.54 124.454 121.71 128.15 120.634C131.842 119.562 134.982 118.282 137.57 116.794C140.15 115.306 141.96 113.696 143 111.964V90.226C140.552 91.706 137.772 93.034 134.66 94.21C131.552 95.386 128.184 96.368 124.556 97.156C120.928 97.944 117.126 98.538 113.15 98.938C109.174 99.338 105.124 99.538 101 99.538C96.72 99.538 92.562 99.318 88.526 98.878C84.486 98.438 80.672 97.826 77.084 97.042C73.496 96.254 70.172 95.29 67.112 94.15C64.052 93.01 61.348 91.702 59 90.226V112C60.04 113.808 61.846 115.432 64.418 116.872C66.99 118.312 70.122 119.566 73.814 120.634C77.506 121.71 81.676 122.54 86.324 123.124C90.968 123.708 95.86 124 101 124Z" fill="#FFFEE8"/>
</g>
<g filter="url(#filter2_d_666_41)">
<path d="M64.2523 160V147.31H68.5363C70.5883 147.31 72.1723 147.856 73.2883 148.948C74.4043 150.028 74.9623 151.594 74.9623 153.646C74.9623 155.698 74.4043 157.27 73.2883 158.362C72.1723 159.454 70.5883 160 68.5363 160H64.2523ZM65.7283 158.74H68.4283C71.7403 158.74 73.3963 157.042 73.3963 153.646C73.3963 150.262 71.7403 148.57 68.4283 148.57H65.7283V158.74ZM80.1677 160.162C79.5677 160.162 79.0277 160.048 78.5477 159.82C78.0797 159.58 77.7077 159.256 77.4317 158.848C77.1557 158.44 77.0177 157.984 77.0177 157.48C77.0177 156.844 77.1797 156.34 77.5037 155.968C77.8397 155.596 78.3857 155.332 79.1417 155.176C79.9097 155.008 80.9537 154.924 82.2737 154.924H82.8497V154.366C82.8497 153.622 82.6937 153.088 82.3817 152.764C82.0817 152.428 81.5957 152.26 80.9237 152.26C80.3957 152.26 79.8857 152.338 79.3937 152.494C78.9017 152.638 78.3977 152.878 77.8817 153.214L77.3777 152.152C77.8337 151.828 78.3857 151.57 79.0337 151.378C79.6937 151.186 80.3237 151.09 80.9237 151.09C82.0517 151.09 82.8857 151.366 83.4257 151.918C83.9777 152.47 84.2537 153.328 84.2537 154.492V160H82.8857V158.488C82.6577 159.004 82.3037 159.412 81.8237 159.712C81.3557 160.012 80.8037 160.162 80.1677 160.162ZM80.4017 159.064C81.1217 159.064 81.7097 158.818 82.1657 158.326C82.6217 157.822 82.8497 157.186 82.8497 156.418V155.878H82.2917C81.3197 155.878 80.5517 155.926 79.9877 156.022C79.4357 156.106 79.0457 156.262 78.8177 156.49C78.6017 156.706 78.4937 157.006 78.4937 157.39C78.4937 157.882 78.6617 158.284 78.9977 158.596C79.3457 158.908 79.8137 159.064 80.4017 159.064ZM90.4686 160.162C89.4366 160.162 88.6626 159.892 88.1466 159.352C87.6306 158.8 87.3726 158.008 87.3726 156.976V152.386H85.6626V151.252H87.3726V148.57H88.8306V151.252H91.6026V152.386H88.8306V156.832C88.8306 157.516 88.9746 158.038 89.2626 158.398C89.5506 158.746 90.0186 158.92 90.6666 158.92C90.8586 158.92 91.0506 158.896 91.2426 158.848C91.4346 158.8 91.6086 158.752 91.7646 158.704L92.0166 159.82C91.8606 159.904 91.6326 159.982 91.3326 160.054C91.0326 160.126 90.7446 160.162 90.4686 160.162ZM96.0056 160.162C95.4056 160.162 94.8656 160.048 94.3856 159.82C93.9176 159.58 93.5456 159.256 93.2696 158.848C92.9936 158.44 92.8556 157.984 92.8556 157.48C92.8556 156.844 93.0176 156.34 93.3416 155.968C93.6776 155.596 94.2236 155.332 94.9796 155.176C95.7476 155.008 96.7916 154.924 98.1116 154.924H98.6876V154.366C98.6876 153.622 98.5316 153.088 98.2196 152.764C97.9196 152.428 97.4336 152.26 96.7616 152.26C96.2336 152.26 95.7236 152.338 95.2316 152.494C94.7396 152.638 94.2356 152.878 93.7196 153.214L93.2156 152.152C93.6716 151.828 94.2236 151.57 94.8716 151.378C95.5316 151.186 96.1616 151.09 96.7616 151.09C97.8896 151.09 98.7236 151.366 99.2636 151.918C99.8156 152.47 100.092 153.328 100.092 154.492V160H98.7236V158.488C98.4956 159.004 98.1416 159.412 97.6616 159.712C97.1936 160.012 96.6416 160.162 96.0056 160.162ZM96.2396 159.064C96.9596 159.064 97.5476 158.818 98.0036 158.326C98.4596 157.822 98.6876 157.186 98.6876 156.418V155.878H98.1296C97.1576 155.878 96.3896 155.926 95.8256 156.022C95.2736 156.106 94.8836 156.262 94.6556 156.49C94.4396 156.706 94.3316 157.006 94.3316 157.39C94.3316 157.882 94.4996 158.284 94.8356 158.596C95.1836 158.908 95.6516 159.064 96.2396 159.064ZM107.225 160.162C106.529 160.162 105.917 160.006 105.389 159.694C104.873 159.382 104.483 158.956 104.219 158.416V160H102.797V147.31H104.255V152.764C104.507 152.248 104.897 151.84 105.425 151.54C105.953 151.24 106.553 151.09 107.225 151.09C108.005 151.09 108.683 151.276 109.259 151.648C109.847 152.008 110.297 152.53 110.609 153.214C110.933 153.886 111.095 154.69 111.095 155.626C111.095 156.55 110.933 157.354 110.609 158.038C110.297 158.71 109.847 159.232 109.259 159.604C108.683 159.976 108.005 160.162 107.225 160.162ZM106.919 158.992C107.735 158.992 108.389 158.704 108.881 158.128C109.373 157.54 109.619 156.706 109.619 155.626C109.619 154.534 109.373 153.7 108.881 153.124C108.389 152.548 107.735 152.26 106.919 152.26C106.103 152.26 105.449 152.548 104.957 153.124C104.465 153.7 104.219 154.534 104.219 155.626C104.219 156.706 104.465 157.54 104.957 158.128C105.449 158.704 106.103 158.992 106.919 158.992ZM116.045 160.162C115.445 160.162 114.905 160.048 114.425 159.82C113.957 159.58 113.585 159.256 113.309 158.848C113.033 158.44 112.895 157.984 112.895 157.48C112.895 156.844 113.057 156.34 113.381 155.968C113.717 155.596 114.263 155.332 115.019 155.176C115.787 155.008 116.831 154.924 118.151 154.924H118.727V154.366C118.727 153.622 118.571 153.088 118.259 152.764C117.959 152.428 117.473 152.26 116.801 152.26C116.273 152.26 115.763 152.338 115.271 152.494C114.779 152.638 114.275 152.878 113.759 153.214L113.255 152.152C113.711 151.828 114.263 151.57 114.911 151.378C115.571 151.186 116.201 151.09 116.801 151.09C117.929 151.09 118.763 151.366 119.303 151.918C119.855 152.47 120.131 153.328 120.131 154.492V160H118.763V158.488C118.535 159.004 118.181 159.412 117.701 159.712C117.233 160.012 116.681 160.162 116.045 160.162ZM116.279 159.064C116.999 159.064 117.587 158.818 118.043 158.326C118.499 157.822 118.727 157.186 118.727 156.418V155.878H118.169C117.197 155.878 116.429 155.926 115.865 156.022C115.313 156.106 114.923 156.262 114.695 156.49C114.479 156.706 114.371 157.006 114.371 157.39C114.371 157.882 114.539 158.284 114.875 158.596C115.223 158.908 115.691 159.064 116.279 159.064ZM125.788 160.162C125.104 160.162 124.456 160.066 123.844 159.874C123.232 159.682 122.728 159.412 122.332 159.064L122.8 158.038C123.232 158.386 123.706 158.644 124.222 158.812C124.75 158.968 125.284 159.046 125.824 159.046C126.508 159.046 127.024 158.92 127.372 158.668C127.72 158.416 127.894 158.074 127.894 157.642C127.894 157.306 127.78 157.042 127.552 156.85C127.324 156.646 126.964 156.49 126.472 156.382L124.834 156.022C123.346 155.698 122.602 154.93 122.602 153.718C122.602 152.926 122.914 152.29 123.538 151.81C124.174 151.33 125.002 151.09 126.022 151.09C126.622 151.09 127.192 151.186 127.732 151.378C128.284 151.558 128.74 151.828 129.1 152.188L128.614 153.214C128.266 152.89 127.858 152.644 127.39 152.476C126.934 152.296 126.478 152.206 126.022 152.206C125.35 152.206 124.84 152.338 124.492 152.602C124.144 152.866 123.97 153.214 123.97 153.646C123.97 154.318 124.414 154.75 125.302 154.942L126.94 155.284C127.708 155.452 128.29 155.722 128.686 156.094C129.082 156.454 129.28 156.946 129.28 157.57C129.28 158.374 128.962 159.01 128.326 159.478C127.69 159.934 126.844 160.162 125.788 160.162ZM135.444 160.162C134.064 160.162 132.972 159.76 132.168 158.956C131.364 158.14 130.962 157.036 130.962 155.644C130.962 154.744 131.142 153.952 131.502 153.268C131.862 152.572 132.354 152.038 132.978 151.666C133.614 151.282 134.346 151.09 135.174 151.09C136.362 151.09 137.292 151.474 137.964 152.242C138.636 152.998 138.972 154.042 138.972 155.374V155.932H132.384C132.432 156.928 132.72 157.69 133.248 158.218C133.776 158.734 134.508 158.992 135.444 158.992C135.972 158.992 136.476 158.914 136.956 158.758C137.436 158.59 137.892 158.32 138.324 157.948L138.828 158.974C138.432 159.346 137.928 159.64 137.316 159.856C136.704 160.06 136.08 160.162 135.444 160.162ZM135.21 152.17C134.382 152.17 133.728 152.428 133.248 152.944C132.768 153.46 132.486 154.138 132.402 154.978H137.712C137.676 154.09 137.442 153.4 137.01 152.908C136.59 152.416 135.99 152.17 135.21 152.17Z" fill="#FFFEE8"/>
</g>
<defs>
<filter id="filter0_d_666_41" x="0" y="13.1295" width="202" height="175.741" filterUnits="userSpaceOnUse" color-interpolation-filters="sRGB">
<feFlood flood-opacity="0" result="BackgroundImageFix"/>
<feColorMatrix in="SourceAlpha" type="matrix" values="0 0 0 0 0 0 0 0 0 0 0 0 0 0 0 0 0 0 127 0" result="hardAlpha"/>
<feOffset dy="3"/>
<feGaussianBlur stdDeviation="1.5"/>
<feComposite in2="hardAlpha" operator="out"/>
<feColorMatrix type="matrix" values="0 0 0 0 0 0 0 0 0 0 0 0 0 0 0 0 0 0 0.25 0"/>
<feBlend mode="normal" in2="BackgroundImageFix" result="effect1_dropShadow_666_41"/>
<feBlend mode="normal" in="SourceGraphic" in2="effect1_dropShadow_666_41" result="shape"/>
</filter>
<filter id="filter1_d_666_41" x="49" y="34" width="104" height="104" filterUnits="userSpaceOnUse" color-interpolation-filters="sRGB">
<feFlood flood-opacity="0" result="BackgroundImageFix"/>
<feColorMatrix in="SourceAlpha" type="matrix" values="0 0 0 0 0 0 0 0 0 0 0 0 0 0 0 0 0 0 127 0" result="hardAlpha"/>
<feOffset dy="4"/>
<feGaussianBlur stdDeviation="2"/>
<feComposite in2="hardAlpha" operator="out"/>
<feColorMatrix type="matrix" values="0 0 0 0 1 0 0 0 0 1 0 0 0 0 1 0 0 0 0.5 0"/>
<feBlend mode="normal" in2="BackgroundImageFix" result="effect1_dropShadow_666_41"/>
<feBlend mode="normal" in="SourceGraphic" in2="effect1_dropShadow_666_41" result="shape"/>
</filter>
<filter id="filter2_d_666_41" x="49.2523" y="132.31" width="104.719" height="42.8519" filterUnits="userSpaceOnUse" color-interpolation-filters="sRGB">
<feFlood flood-opacity="0" result="BackgroundImageFix"/>
<feColorMatrix in="SourceAlpha" type="matrix" values="0 0 0 0 0 0 0 0 0 0 0 0 0 0 0 0 0 0 127 0" result="hardAlpha"/>
<feOffset/>
<feGaussianBlur stdDeviation="7.5"/>
<feComposite in2="hardAlpha" operator="out"/>
<feColorMatrix type="matrix" values="0 0 0 0 1 0 0 0 0 0.996078 0 0 0 0 0.909804 0 0 0 0.5 0"/>
<feBlend mode="normal" in2="BackgroundImageFix" result="effect1_dropShadow_666_41"/>
<feBlend mode="normal" in="SourceGraphic" in2="effect1_dropShadow_666_41" result="shape"/>
</filter>
</defs>
</svg>
