<svg width="134" height="128" viewBox="0 0 134 128" fill="none" xmlns="http://www.w3.org/2000/svg">
<g filter="url(#filter0_d_683_186)">
<path d="M131 64L99 119.426L35 119.426L3 64L35 8.57437L99 8.57437L131 64Z" fill="#401127" fill-opacity="0.5" shape-rendering="crispEdges"/>
<path d="M97.5566 11.0744L128.113 64L97.5566 116.926L36.4434 116.926L5.88675 64L36.4434 11.0744L97.5566 11.0744Z" stroke="#8F1B42" stroke-width="5" stroke-miterlimit="1.36733" stroke-linecap="round" shape-rendering="crispEdges"/>
</g>
<g filter="url(#filter1_d_683_186)">
<path d="M51.2541 98.144C49.7714 98.144 48.6461 97.7547 47.8781 96.976C47.1101 96.1867 46.7261 95.04 46.7261 93.536V86.72H48.0381V93.472C48.0381 95.808 49.1101 96.976 51.2541 96.976C53.3767 96.976 54.4381 95.808 54.4381 93.472V86.72H55.7501V93.536C55.7501 95.04 55.3661 96.1867 54.5981 96.976C53.8407 97.7547 52.7261 98.144 51.2541 98.144ZM58.4467 98V86.72H59.7587V98H58.4467ZM61.8684 99.008L60.8444 98.704L64.9404 85.968L65.9804 86.272L61.8684 99.008ZM71.5197 98.144C70.037 98.144 68.9117 97.7547 68.1437 96.976C67.3757 96.1867 66.9917 95.04 66.9917 93.536V86.72H68.3037V93.472C68.3037 95.808 69.3757 96.976 71.5197 96.976C73.6424 96.976 74.7037 95.808 74.7037 93.472V86.72H76.0157V93.536C76.0157 95.04 75.6317 96.1867 74.8637 96.976C74.1064 97.7547 72.9917 98.144 71.5197 98.144ZM77.3397 98L81.6277 92.24L77.5477 86.72H79.0837L82.3957 91.248L85.6757 86.72H87.2277L83.1317 92.24L87.4197 98H85.8677L82.3797 93.232L78.9077 98H77.3397Z" fill="#FFFEE8"/>
</g>
<g filter="url(#filter2_d_683_186)">
<path d="M63 62.8918C61.6133 62.738 60.2494 62.4225 58.936 61.9518C58.976 61.0078 59 60.0238 59 58.9998V57.6518C60.24 58.2438 61.588 58.6558 63 58.8598V48.9997C63 47.4084 63.6321 45.8822 64.7574 44.757C65.8826 43.6318 67.4087 42.9996 69 42.9996H78.86C78.541 40.7832 77.695 38.6755 76.393 36.8537C75.0909 35.0318 73.3709 33.5488 71.3772 32.5292C69.3835 31.5096 67.1743 30.9832 64.935 30.994C62.6957 31.0048 60.4917 31.5527 58.508 32.5915C58.1916 31.2832 57.6705 30.0332 56.964 28.8875C59.5571 27.5932 62.4243 26.9441 65.322 26.9956C68.2197 27.047 71.0622 27.7973 73.6077 29.1828C76.1532 30.5683 78.3266 32.5479 79.943 34.9535C81.5594 37.359 82.5711 40.1193 82.892 42.9996H89C90.5913 42.9996 92.1174 43.6318 93.2426 44.757C94.3679 45.8822 95 47.4084 95 48.9997V68.9999C95 70.5912 94.3679 72.1174 93.2426 73.2426C92.1174 74.3678 90.5913 75 89 75H69C67.4087 75 65.8826 74.3678 64.7574 73.2426C63.6321 72.1174 63 70.5912 63 68.9999V62.8918ZM82.892 46.9997C82.4375 51.0581 80.6171 54.8415 77.7295 57.7292C74.8418 60.6169 71.0584 62.4373 67 62.8918V68.9999C67 69.5303 67.2107 70.0391 67.5858 70.4141C67.9609 70.7892 68.4696 70.9999 69 70.9999H89C89.5304 70.9999 90.0391 70.7892 90.4142 70.4141C90.7893 70.0391 91 69.5303 91 68.9999V48.9997C91 48.4693 90.7893 47.9605 90.4142 47.5855C90.0391 47.2104 89.5304 46.9997 89 46.9997H82.892ZM78.86 46.9997H69C68.4696 46.9997 67.9609 47.2104 67.5858 47.5855C67.2107 47.9605 67 48.4693 67 48.9997V58.8598C69.9919 58.4273 72.7636 57.0386 74.9012 54.901C77.0388 52.7634 78.4275 49.9916 78.86 46.9997ZM54.18 49.2437C53.76 47.6997 53.08 46.1517 51.912 44.9637C53.8 43.1756 55 40.3276 55 36.9996C55 34.2115 54.436 32.2955 53.416 30.7635C52.9634 30.1046 52.4403 29.497 51.856 28.9515C51.6321 28.7353 51.4054 28.5219 51.176 28.3115C50.932 28.0835 50.708 27.8755 50.416 27.5835C49.816 26.9835 49.748 26.5035 49.748 26.2515C49.7487 26.1114 49.7716 25.9723 49.816 25.8395C49.9989 25.444 50.0476 24.9995 49.9547 24.5738C49.8619 24.1481 49.6325 23.7643 49.3016 23.4809C48.9706 23.1975 48.5562 23.0299 48.1212 23.0036C47.6863 22.9774 47.2547 23.0939 46.892 23.3354L46.884 23.3394L46.872 23.3474L46.836 23.3714L46.716 23.4514C46.116 23.8794 45.5379 24.3373 44.984 24.8234C43.984 25.7075 42.68 27.0155 41.756 28.5755C40.9494 29.8688 40.302 31.2549 39.828 32.7035C39.348 34.1395 39 35.6956 39 36.9996C39 40.3276 40.2 43.1716 42.088 44.9677C40.92 46.1517 40.24 47.6997 39.82 49.2477C39 52.2557 39 55.9758 39 58.8518V58.9998C39 67.2319 40.54 72.1199 42.284 75.028C43.16 76.484 44.072 77.424 44.836 78.016C45.2431 78.3335 45.6861 78.602 46.156 78.816C46.4277 78.9152 46.7116 78.9771 47 79C47.336 79 47.844 78.816 47.844 78.816C48.3139 78.602 48.7569 78.3335 49.164 78.016C49.924 77.424 50.844 76.484 51.716 75.028C53.46 72.1239 55 67.2319 55 58.9998V58.8558C55 55.9758 55 52.2597 54.18 49.2437ZM44.948 47.7637C45.4 47.3077 46.004 46.9997 47 46.9997C48 46.9997 48.6 47.3117 49.052 47.7597C49.556 48.2677 49.992 49.0917 50.32 50.2957C50.984 52.7397 51 55.9478 51 58.9998C51 66.7679 49.54 70.8799 48.284 72.9719C47.804 73.7719 47.352 74.288 47 74.612C46.4971 74.1283 46.0648 73.5762 45.716 72.9719C44.46 70.8759 43 66.7679 43 58.9998C43 55.9478 43.016 52.7397 43.68 50.2957C44.008 49.0957 44.444 48.2717 44.948 47.7637ZM47 42.9996C45.46 42.9996 43 41.2876 43 36.9996C43 36.3076 43.208 35.2116 43.624 33.9715C44.0031 32.8009 44.5257 31.6817 45.18 30.6395C45.528 30.0515 45.98 29.4795 46.468 28.9555C46.744 29.4435 47.108 29.9355 47.588 30.4155C47.88 30.7075 48.26 31.0595 48.584 31.3635L49.08 31.8275C49.5 32.2355 49.824 32.5915 50.084 32.9875C50.564 33.7035 51 34.7875 51 36.9996C51 41.2876 48.54 42.9996 47 42.9996Z" fill="#FFFEE8"/>
</g>
<defs>
<filter id="filter0_d_683_186" x="0" y="8.57434" width="134" height="116.851" filterUnits="userSpaceOnUse" color-interpolation-filters="sRGB">
<feFlood flood-opacity="0" result="BackgroundImageFix"/>
<feColorMatrix in="SourceAlpha" type="matrix" values="0 0 0 0 0 0 0 0 0 0 0 0 0 0 0 0 0 0 127 0" result="hardAlpha"/>
<feOffset dy="3"/>
<feGaussianBlur stdDeviation="1.5"/>
<feComposite in2="hardAlpha" operator="out"/>
<feColorMatrix type="matrix" values="0 0 0 0 0 0 0 0 0 0 0 0 0 0 0 0 0 0 0.25 0"/>
<feBlend mode="normal" in2="BackgroundImageFix" result="effect1_dropShadow_683_186"/>
<feBlend mode="normal" in="SourceGraphic" in2="effect1_dropShadow_683_186" result="shape"/>
</filter>
<filter id="filter1_d_683_186" x="31.7261" y="70.968" width="70.6936" height="43.04" filterUnits="userSpaceOnUse" color-interpolation-filters="sRGB">
<feFlood flood-opacity="0" result="BackgroundImageFix"/>
<feColorMatrix in="SourceAlpha" type="matrix" values="0 0 0 0 0 0 0 0 0 0 0 0 0 0 0 0 0 0 127 0" result="hardAlpha"/>
<feOffset/>
<feGaussianBlur stdDeviation="7.5"/>
<feComposite in2="hardAlpha" operator="out"/>
<feColorMatrix type="matrix" values="0 0 0 0 1 0 0 0 0 0.996078 0 0 0 0 0.909804 0 0 0 0.5 0"/>
<feBlend mode="normal" in2="BackgroundImageFix" result="effect1_dropShadow_683_186"/>
<feBlend mode="normal" in="SourceGraphic" in2="effect1_dropShadow_683_186" result="shape"/>
</filter>
<filter id="filter2_d_683_186" x="24" y="8" width="86" height="86" filterUnits="userSpaceOnUse" color-interpolation-filters="sRGB">
<feFlood flood-opacity="0" result="BackgroundImageFix"/>
<feColorMatrix in="SourceAlpha" type="matrix" values="0 0 0 0 0 0 0 0 0 0 0 0 0 0 0 0 0 0 127 0" result="hardAlpha"/>
<feOffset/>
<feGaussianBlur stdDeviation="7.5"/>
<feComposite in2="hardAlpha" operator="out"/>
<feColorMatrix type="matrix" values="0 0 0 0 1 0 0 0 0 0.996078 0 0 0 0 0.909804 0 0 0 0.5 0"/>
<feBlend mode="normal" in2="BackgroundImageFix" result="effect1_dropShadow_683_186"/>
<feBlend mode="normal" in="SourceGraphic" in2="effect1_dropShadow_683_186" result="shape"/>
</filter>
</defs>
</svg>
