<svg width="292" height="111" viewBox="0 0 292 111" fill="none" xmlns="http://www.w3.org/2000/svg">
<path d="M26.258 57.1785L26.8811 56.0128L26.2686 54.8416L4.12839 12.5H271.069L289.285 55.9893L271.083 98.5H4.17101L26.258 57.1785Z" fill="#401127" stroke="white" stroke-width="5"/>
<g filter="url(#filter0_d_1098_1757)">
<path d="M118.987 67V44.44H121.035L134.635 62.584V44.44H137.067V67H135.083L121.451 48.792V67H118.987ZM149.331 67.288C146.877 67.288 144.936 66.5733 143.507 65.144C142.077 63.6933 141.363 61.7307 141.363 59.256C141.363 57.656 141.683 56.248 142.323 55.032C142.963 53.7947 143.837 52.8453 144.947 52.184C146.077 51.5013 147.379 51.16 148.851 51.16C150.963 51.16 152.616 51.8427 153.811 53.208C155.005 54.552 155.603 56.408 155.603 58.776V59.768H143.891C143.976 61.5387 144.488 62.8933 145.427 63.832C146.365 64.7493 147.667 65.208 149.331 65.208C150.269 65.208 151.165 65.0693 152.019 64.792C152.872 64.4933 153.683 64.0133 154.451 63.352L155.347 65.176C154.643 65.8373 153.747 66.36 152.659 66.744C151.571 67.1067 150.461 67.288 149.331 67.288ZM148.915 53.08C147.443 53.08 146.28 53.5387 145.427 54.456C144.573 55.3733 144.072 56.5787 143.923 58.072H153.363C153.299 56.4933 152.883 55.2667 152.115 54.392C151.368 53.5173 150.301 53.08 148.915 53.08ZM157.245 67L163.709 58.968L157.629 51.448H160.701L165.213 57.176L169.757 51.448H172.797L166.717 58.968L173.181 67H170.109L165.181 60.824L160.317 67H157.245ZM182.281 67.288C180.447 67.288 179.071 66.808 178.153 65.848C177.236 64.8667 176.777 63.4587 176.777 61.624V53.464H173.737V51.448H176.777V46.68H179.369V51.448H184.297V53.464H179.369V61.368C179.369 62.584 179.625 63.512 180.137 64.152C180.649 64.7707 181.481 65.08 182.633 65.08C182.975 65.08 183.316 65.0373 183.657 64.952C183.999 64.8667 184.308 64.7813 184.585 64.696L185.033 66.68C184.756 66.8293 184.351 66.968 183.817 67.096C183.284 67.224 182.772 67.288 182.281 67.288Z" fill="white"/>
</g>
<defs>
<filter id="filter0_d_1098_1757" x="103.987" y="29.4399" width="96.0464" height="52.8481" filterUnits="userSpaceOnUse" color-interpolation-filters="sRGB">
<feFlood flood-opacity="0" result="BackgroundImageFix"/>
<feColorMatrix in="SourceAlpha" type="matrix" values="0 0 0 0 0 0 0 0 0 0 0 0 0 0 0 0 0 0 127 0" result="hardAlpha"/>
<feOffset/>
<feGaussianBlur stdDeviation="7.5"/>
<feComposite in2="hardAlpha" operator="out"/>
<feColorMatrix type="matrix" values="0 0 0 0 1 0 0 0 0 0.996078 0 0 0 0 0.909804 0 0 0 0.5 0"/>
<feBlend mode="normal" in2="BackgroundImageFix" result="effect1_dropShadow_1098_1757"/>
<feBlend mode="normal" in="SourceGraphic" in2="effect1_dropShadow_1098_1757" result="shape"/>
</filter>
</defs>
</svg>
