<svg width="295" height="115" viewBox="0 0 295 115" fill="none" xmlns="http://www.w3.org/2000/svg">
<path d="M265.794 57.7705L265.052 56.5138L265.782 55.2502L290.17 13H20.9314L2.71497 56.4893L20.9172 99H290.122L265.794 57.7705Z" fill="#401127" stroke="#FEC631" stroke-width="5"/>
<g filter="url(#filter0_d_1098_1760)">
<path d="M83.2371 68.4082V45.8482H92.1651C94.5971 45.8482 96.4531 46.4349 97.7331 47.6082C99.0345 48.7815 99.6851 50.4562 99.6851 52.6322C99.6851 54.7869 99.0345 56.4615 97.7331 57.6562C96.4531 58.8295 94.5971 59.4162 92.1651 59.4162H85.8611V68.4082H83.2371ZM85.8611 57.2082H91.8451C95.3438 57.2082 97.0931 55.6829 97.0931 52.6322C97.0931 49.5602 95.3438 48.0242 91.8451 48.0242H85.8611V57.2082ZM102.823 68.4082V52.8562H105.351V55.6402C106.183 53.7629 107.889 52.7282 110.471 52.5362L111.399 52.4402L111.591 54.6802L109.959 54.8722C108.487 55.0002 107.367 55.4695 106.599 56.2802C105.831 57.0695 105.447 58.1575 105.447 59.5442V68.4082H102.823ZM121.112 68.6962C118.659 68.6962 116.717 67.9815 115.288 66.5522C113.859 65.1015 113.144 63.1389 113.144 60.6642C113.144 59.0642 113.464 57.6562 114.104 56.4402C114.744 55.2029 115.619 54.2535 116.728 53.5922C117.859 52.9095 119.16 52.5682 120.632 52.5682C122.744 52.5682 124.397 53.2509 125.592 54.6162C126.787 55.9602 127.384 57.8162 127.384 60.1842V61.1762H115.672C115.757 62.9469 116.269 64.3015 117.208 65.2402C118.147 66.1575 119.448 66.6162 121.112 66.6162C122.051 66.6162 122.947 66.4775 123.8 66.2002C124.653 65.9015 125.464 65.4215 126.232 64.7602L127.128 66.5842C126.424 67.2455 125.528 67.7682 124.44 68.1522C123.352 68.5149 122.243 68.6962 121.112 68.6962ZM120.696 54.4882C119.224 54.4882 118.061 54.9469 117.208 55.8642C116.355 56.7815 115.853 57.9869 115.704 59.4802H125.144C125.08 57.9015 124.664 56.6749 123.896 55.8002C123.149 54.9255 122.083 54.4882 120.696 54.4882ZM135.524 68.4082L128.836 52.8562H131.652L136.804 65.4642L142.02 52.8562H144.676L137.956 68.4082H135.524ZM147.096 48.9842V46.0722H150.296V48.9842H147.096ZM147.416 68.4082V52.8562H150.008V68.4082H147.416ZM161.318 68.6962C159.803 68.6962 158.491 68.3655 157.382 67.7042C156.273 67.0429 155.409 66.1149 154.79 64.9202C154.193 63.7042 153.894 62.2749 153.894 60.6322C153.894 58.9895 154.193 57.5709 154.79 56.3762C155.409 55.1602 156.273 54.2215 157.382 53.5602C158.491 52.8989 159.803 52.5682 161.318 52.5682C162.811 52.5682 164.113 52.8989 165.222 53.5602C166.353 54.2215 167.217 55.1602 167.814 56.3762C168.433 57.5709 168.742 58.9895 168.742 60.6322C168.742 62.2749 168.433 63.7042 167.814 64.9202C167.217 66.1149 166.353 67.0429 165.222 67.7042C164.113 68.3655 162.811 68.6962 161.318 68.6962ZM161.318 66.6162C162.769 66.6162 163.931 66.1042 164.806 65.0802C165.681 64.0349 166.118 62.5522 166.118 60.6322C166.118 58.6909 165.681 57.2082 164.806 56.1842C163.931 55.1602 162.769 54.6482 161.318 54.6482C159.846 54.6482 158.673 55.1602 157.798 56.1842C156.945 57.2082 156.518 58.6909 156.518 60.6322C156.518 62.5522 156.945 64.0349 157.798 65.0802C158.673 66.1042 159.846 66.6162 161.318 66.6162ZM178.139 68.6962C174.406 68.6962 172.539 66.6375 172.539 62.5202V52.8562H175.131V62.4882C175.131 63.8749 175.408 64.8989 175.963 65.5602C176.539 66.2215 177.435 66.5522 178.651 66.5522C179.974 66.5522 181.051 66.1149 181.883 65.2402C182.715 64.3442 183.131 63.1602 183.131 61.6882V52.8562H185.723V68.4082H183.195V65.7842C182.704 66.7229 182.011 67.4482 181.115 67.9602C180.24 68.4509 179.248 68.6962 178.139 68.6962ZM195.821 68.6962C194.605 68.6962 193.453 68.5255 192.365 68.1842C191.277 67.8429 190.381 67.3629 189.677 66.7442L190.509 64.9202C191.277 65.5389 192.119 65.9975 193.037 66.2962C193.975 66.5735 194.925 66.7122 195.885 66.7122C197.101 66.7122 198.018 66.4882 198.637 66.0402C199.255 65.5922 199.565 64.9842 199.565 64.2162C199.565 63.6189 199.362 63.1495 198.957 62.8082C198.551 62.4455 197.911 62.1682 197.037 61.9762L194.125 61.3362C191.479 60.7602 190.157 59.3949 190.157 57.2402C190.157 55.8322 190.711 54.7015 191.821 53.8482C192.951 52.9949 194.423 52.5682 196.237 52.5682C197.303 52.5682 198.317 52.7389 199.277 53.0802C200.258 53.4002 201.069 53.8802 201.709 54.5202L200.845 56.3442C200.226 55.7682 199.501 55.3309 198.669 55.0322C197.858 54.7122 197.047 54.5522 196.237 54.5522C195.042 54.5522 194.135 54.7869 193.517 55.2562C192.898 55.7255 192.589 56.3442 192.589 57.1122C192.589 58.3069 193.378 59.0749 194.957 59.4162L197.869 60.0242C199.234 60.3229 200.269 60.8029 200.973 61.4642C201.677 62.1042 202.029 62.9789 202.029 64.0882C202.029 65.5175 201.463 66.6482 200.333 67.4802C199.202 68.2909 197.698 68.6962 195.821 68.6962Z" fill="#FEC631"/>
</g>
<defs>
<filter id="filter0_d_1098_1760" x="68.2371" y="30.8481" width="148.792" height="52.8481" filterUnits="userSpaceOnUse" color-interpolation-filters="sRGB">
<feFlood flood-opacity="0" result="BackgroundImageFix"/>
<feColorMatrix in="SourceAlpha" type="matrix" values="0 0 0 0 0 0 0 0 0 0 0 0 0 0 0 0 0 0 127 0" result="hardAlpha"/>
<feOffset/>
<feGaussianBlur stdDeviation="7.5"/>
<feComposite in2="hardAlpha" operator="out"/>
<feColorMatrix type="matrix" values="0 0 0 0 1 0 0 0 0 0.996078 0 0 0 0 0.909804 0 0 0 0.5 0"/>
<feBlend mode="normal" in2="BackgroundImageFix" result="effect1_dropShadow_1098_1760"/>
<feBlend mode="normal" in="SourceGraphic" in2="effect1_dropShadow_1098_1760" result="shape"/>
</filter>
</defs>
</svg>
