<svg width="295" height="115" viewBox="0 0 295 115" fill="none" xmlns="http://www.w3.org/2000/svg">
<path d="M265.794 57.8047L265.052 56.548L265.782 55.2844L290.17 13.0342H20.9314L2.71497 56.5235L20.9172 99.0342H290.122L265.794 57.8047Z" fill="#401127" stroke="#8F1B42" stroke-width="5"/>
<g filter="url(#filter0_d_1098_1759)">
<path d="M83.2371 68.4424V45.8824H92.1651C94.5971 45.8824 96.4531 46.469 97.7331 47.6424C99.0345 48.8157 99.6851 50.4904 99.6851 52.6664C99.6851 54.821 99.0345 56.4957 97.7331 57.6904C96.4531 58.8637 94.5971 59.4504 92.1651 59.4504H85.8611V68.4424H83.2371ZM85.8611 57.2424H91.8451C95.3438 57.2424 97.0931 55.717 97.0931 52.6664C97.0931 49.5944 95.3438 48.0584 91.8451 48.0584H85.8611V57.2424ZM102.823 68.4424V52.8904H105.351V55.6744C106.183 53.797 107.889 52.7624 110.471 52.5704L111.399 52.4744L111.591 54.7144L109.959 54.9064C108.487 55.0344 107.367 55.5037 106.599 56.3144C105.831 57.1037 105.447 58.1917 105.447 59.5784V68.4424H102.823ZM121.112 68.7304C118.659 68.7304 116.717 68.0157 115.288 66.5864C113.859 65.1357 113.144 63.173 113.144 60.6984C113.144 59.0984 113.464 57.6904 114.104 56.4744C114.744 55.237 115.619 54.2877 116.728 53.6264C117.859 52.9437 119.16 52.6024 120.632 52.6024C122.744 52.6024 124.397 53.285 125.592 54.6504C126.787 55.9944 127.384 57.8504 127.384 60.2184V61.2104H115.672C115.757 62.981 116.269 64.3357 117.208 65.2744C118.147 66.1917 119.448 66.6504 121.112 66.6504C122.051 66.6504 122.947 66.5117 123.8 66.2344C124.653 65.9357 125.464 65.4557 126.232 64.7944L127.128 66.6184C126.424 67.2797 125.528 67.8024 124.44 68.1864C123.352 68.549 122.243 68.7304 121.112 68.7304ZM120.696 54.5224C119.224 54.5224 118.061 54.981 117.208 55.8984C116.355 56.8157 115.853 58.021 115.704 59.5144H125.144C125.08 57.9357 124.664 56.709 123.896 55.8344C123.149 54.9597 122.083 54.5224 120.696 54.5224ZM135.524 68.4424L128.836 52.8904H131.652L136.804 65.4984L142.02 52.8904H144.676L137.956 68.4424H135.524ZM147.096 49.0184V46.1064H150.296V49.0184H147.096ZM147.416 68.4424V52.8904H150.008V68.4424H147.416ZM161.318 68.7304C159.803 68.7304 158.491 68.3997 157.382 67.7384C156.273 67.077 155.409 66.149 154.79 64.9544C154.193 63.7384 153.894 62.309 153.894 60.6664C153.894 59.0237 154.193 57.605 154.79 56.4104C155.409 55.1944 156.273 54.2557 157.382 53.5944C158.491 52.933 159.803 52.6024 161.318 52.6024C162.811 52.6024 164.113 52.933 165.222 53.5944C166.353 54.2557 167.217 55.1944 167.814 56.4104C168.433 57.605 168.742 59.0237 168.742 60.6664C168.742 62.309 168.433 63.7384 167.814 64.9544C167.217 66.149 166.353 67.077 165.222 67.7384C164.113 68.3997 162.811 68.7304 161.318 68.7304ZM161.318 66.6504C162.769 66.6504 163.931 66.1384 164.806 65.1144C165.681 64.069 166.118 62.5864 166.118 60.6664C166.118 58.725 165.681 57.2424 164.806 56.2184C163.931 55.1944 162.769 54.6824 161.318 54.6824C159.846 54.6824 158.673 55.1944 157.798 56.2184C156.945 57.2424 156.518 58.725 156.518 60.6664C156.518 62.5864 156.945 64.069 157.798 65.1144C158.673 66.1384 159.846 66.6504 161.318 66.6504ZM178.139 68.7304C174.406 68.7304 172.539 66.6717 172.539 62.5544V52.8904H175.131V62.5224C175.131 63.909 175.408 64.933 175.963 65.5944C176.539 66.2557 177.435 66.5864 178.651 66.5864C179.974 66.5864 181.051 66.149 181.883 65.2744C182.715 64.3784 183.131 63.1944 183.131 61.7224V52.8904H185.723V68.4424H183.195V65.8184C182.704 66.757 182.011 67.4824 181.115 67.9944C180.24 68.485 179.248 68.7304 178.139 68.7304ZM195.821 68.7304C194.605 68.7304 193.453 68.5597 192.365 68.2184C191.277 67.877 190.381 67.397 189.677 66.7784L190.509 64.9544C191.277 65.573 192.119 66.0317 193.037 66.3304C193.975 66.6077 194.925 66.7464 195.885 66.7464C197.101 66.7464 198.018 66.5224 198.637 66.0744C199.255 65.6264 199.565 65.0184 199.565 64.2504C199.565 63.653 199.362 63.1837 198.957 62.8424C198.551 62.4797 197.911 62.2024 197.037 62.0104L194.125 61.3704C191.479 60.7944 190.157 59.429 190.157 57.2744C190.157 55.8664 190.711 54.7357 191.821 53.8824C192.951 53.029 194.423 52.6024 196.237 52.6024C197.303 52.6024 198.317 52.773 199.277 53.1144C200.258 53.4344 201.069 53.9144 201.709 54.5544L200.845 56.3784C200.226 55.8024 199.501 55.365 198.669 55.0664C197.858 54.7464 197.047 54.5864 196.237 54.5864C195.042 54.5864 194.135 54.821 193.517 55.2904C192.898 55.7597 192.589 56.3784 192.589 57.1464C192.589 58.341 193.378 59.109 194.957 59.4504L197.869 60.0584C199.234 60.357 200.269 60.837 200.973 61.4984C201.677 62.1384 202.029 63.013 202.029 64.1224C202.029 65.5517 201.463 66.6824 200.333 67.5144C199.202 68.325 197.698 68.7304 195.821 68.7304Z" fill="#FFFEE8"/>
</g>
<defs>
<filter id="filter0_d_1098_1759" x="68.2371" y="30.8823" width="148.792" height="52.8481" filterUnits="userSpaceOnUse" color-interpolation-filters="sRGB">
<feFlood flood-opacity="0" result="BackgroundImageFix"/>
<feColorMatrix in="SourceAlpha" type="matrix" values="0 0 0 0 0 0 0 0 0 0 0 0 0 0 0 0 0 0 127 0" result="hardAlpha"/>
<feOffset/>
<feGaussianBlur stdDeviation="7.5"/>
<feComposite in2="hardAlpha" operator="out"/>
<feColorMatrix type="matrix" values="0 0 0 0 1 0 0 0 0 0.996078 0 0 0 0 0.909804 0 0 0 0.5 0"/>
<feBlend mode="normal" in2="BackgroundImageFix" result="effect1_dropShadow_1098_1759"/>
<feBlend mode="normal" in="SourceGraphic" in2="effect1_dropShadow_1098_1759" result="shape"/>
</filter>
</defs>
</svg>
