<svg width="295" height="112" viewBox="0 0 295 112" fill="none" xmlns="http://www.w3.org/2000/svg">
<path d="M266.256 57.3952L265.514 56.1386L266.244 54.8749L290.632 12.6248H21.3936L3.17712 56.114L21.3794 98.6248H290.584L266.256 57.3952Z" fill="#401127" stroke="white" stroke-width="5"/>
<g filter="url(#filter0_d_1084_1187)">
<path d="M121.652 67.4128C119.881 67.4128 118.281 67.1888 116.852 66.7408C115.422 66.2714 114.185 65.5994 113.14 64.7248L114.068 62.6128C115.156 63.4448 116.297 64.0634 117.492 64.4688C118.686 64.8741 120.073 65.0768 121.652 65.0768C123.572 65.0768 124.99 64.7248 125.908 64.0208C126.846 63.2954 127.316 62.3461 127.316 61.1728C127.316 60.2341 126.974 59.4874 126.292 58.9328C125.63 58.3781 124.51 57.9408 122.932 57.6208L119.604 56.9488C117.598 56.5221 116.094 55.8288 115.092 54.8688C114.11 53.8874 113.62 52.5861 113.62 50.9648C113.62 49.6208 113.961 48.4474 114.644 47.4448C115.348 46.4421 116.318 45.6634 117.556 45.1088C118.793 44.5541 120.222 44.2768 121.844 44.2768C123.358 44.2768 124.766 44.5221 126.068 45.0128C127.369 45.4821 128.468 46.1648 129.364 47.0608L128.436 49.1088C127.476 48.2341 126.462 47.6048 125.396 47.2208C124.329 46.8154 123.134 46.6128 121.812 46.6128C120.126 46.6128 118.782 47.0074 117.78 47.7968C116.777 48.5648 116.276 49.5888 116.276 50.8688C116.276 51.8928 116.585 52.7034 117.204 53.3008C117.844 53.8981 118.878 54.3354 120.308 54.6128L123.636 55.3168C125.79 55.7648 127.38 56.4474 128.404 57.3648C129.449 58.2608 129.972 59.4874 129.972 61.0448C129.972 62.3034 129.63 63.4128 128.948 64.3728C128.286 65.3328 127.326 66.0794 126.068 66.6128C124.83 67.1461 123.358 67.4128 121.652 67.4128ZM133.691 67.1248V44.5648H136.283V58.4848H136.347L143.547 51.5728H146.843L139.035 59.0608L147.515 67.1248H144.219L136.347 59.8288H136.283V67.1248H133.691ZM149.371 47.7008V44.7888H152.571V47.7008H149.371ZM149.691 67.1248V51.5728H152.283V67.1248H149.691ZM157.129 72.8848V51.5728H159.657V54.3568C160.126 53.3968 160.819 52.6501 161.737 52.1168C162.675 51.5621 163.763 51.2848 165.001 51.2848C166.387 51.2848 167.593 51.6154 168.617 52.2768C169.662 52.9168 170.462 53.8448 171.017 55.0608C171.593 56.2554 171.881 57.6848 171.881 59.3488C171.881 60.9914 171.593 62.4208 171.017 63.6368C170.462 64.8314 169.662 65.7594 168.617 66.4208C167.593 67.0821 166.387 67.4128 165.001 67.4128C163.806 67.4128 162.739 67.1461 161.801 66.6128C160.862 66.0794 160.169 65.3434 159.721 64.4048V72.8848H157.129ZM164.457 65.3328C165.907 65.3328 167.07 64.8208 167.945 63.7968C168.819 62.7514 169.257 61.2688 169.257 59.3488C169.257 57.4074 168.819 55.9248 167.945 54.9008C167.07 53.8768 165.907 53.3648 164.457 53.3648C163.006 53.3648 161.843 53.8768 160.969 54.9008C160.094 55.9248 159.657 57.4074 159.657 59.3488C159.657 61.2688 160.094 62.7514 160.969 63.7968C161.843 64.8208 163.006 65.3328 164.457 65.3328Z" fill="white"/>
</g>
<defs>
<filter id="filter0_d_1084_1187" x="98.1396" y="29.2767" width="88.741" height="58.608" filterUnits="userSpaceOnUse" color-interpolation-filters="sRGB">
<feFlood flood-opacity="0" result="BackgroundImageFix"/>
<feColorMatrix in="SourceAlpha" type="matrix" values="0 0 0 0 0 0 0 0 0 0 0 0 0 0 0 0 0 0 127 0" result="hardAlpha"/>
<feOffset/>
<feGaussianBlur stdDeviation="7.5"/>
<feComposite in2="hardAlpha" operator="out"/>
<feColorMatrix type="matrix" values="0 0 0 0 1 0 0 0 0 0.996078 0 0 0 0 0.909804 0 0 0 0.5 0"/>
<feBlend mode="normal" in2="BackgroundImageFix" result="effect1_dropShadow_1084_1187"/>
<feBlend mode="normal" in="SourceGraphic" in2="effect1_dropShadow_1084_1187" result="shape"/>
</filter>
</defs>
</svg>
