<svg width="295" height="111" viewBox="0 0 295 111" fill="none" xmlns="http://www.w3.org/2000/svg">
<path d="M265.794 57.2705L265.052 56.0138L265.782 54.7502L290.17 12.5H20.9314L2.71497 55.9893L20.9172 98.5H290.122L265.794 57.2705Z" fill="#401127" stroke="#8F1B42" stroke-width="5"/>
<g filter="url(#filter0_d_1084_1190)">
<path d="M121.189 67.288C119.419 67.288 117.819 67.064 116.389 66.616C114.96 66.1467 113.723 65.4747 112.677 64.6L113.605 62.488C114.693 63.32 115.835 63.9387 117.029 64.344C118.224 64.7493 119.611 64.952 121.189 64.952C123.109 64.952 124.528 64.6 125.445 63.896C126.384 63.1707 126.853 62.2213 126.853 61.048C126.853 60.1093 126.512 59.3627 125.829 58.808C125.168 58.2533 124.048 57.816 122.469 57.496L119.141 56.824C117.136 56.3973 115.632 55.704 114.629 54.744C113.648 53.7627 113.157 52.4613 113.157 50.84C113.157 49.496 113.499 48.3227 114.181 47.32C114.885 46.3173 115.856 45.5387 117.093 44.984C118.331 44.4293 119.76 44.152 121.381 44.152C122.896 44.152 124.304 44.3973 125.605 44.888C126.907 45.3573 128.005 46.04 128.901 46.936L127.973 48.984C127.013 48.1093 126 47.48 124.933 47.096C123.867 46.6907 122.672 46.488 121.349 46.488C119.664 46.488 118.32 46.8827 117.317 47.672C116.315 48.44 115.813 49.464 115.813 50.744C115.813 51.768 116.123 52.5787 116.741 53.176C117.381 53.7733 118.416 54.2107 119.845 54.488L123.173 55.192C125.328 55.64 126.917 56.3227 127.941 57.24C128.987 58.136 129.509 59.3627 129.509 60.92C129.509 62.1787 129.168 63.288 128.485 64.248C127.824 65.208 126.864 65.9547 125.605 66.488C124.368 67.0213 122.896 67.288 121.189 67.288ZM133.229 67V44.44H135.821V58.36H135.885L143.085 51.448H146.381L138.573 58.936L147.053 67H143.757L135.885 59.704H135.821V67H133.229ZM148.909 47.576V44.664H152.109V47.576H148.909ZM149.229 67V51.448H151.821V67H149.229ZM156.666 72.76V51.448H159.194V54.232C159.664 53.272 160.357 52.5253 161.274 51.992C162.213 51.4373 163.301 51.16 164.538 51.16C165.925 51.16 167.13 51.4907 168.154 52.152C169.2 52.792 170 53.72 170.554 54.936C171.13 56.1307 171.418 57.56 171.418 59.224C171.418 60.8667 171.13 62.296 170.554 63.512C170 64.7067 169.2 65.6347 168.154 66.296C167.13 66.9573 165.925 67.288 164.538 67.288C163.344 67.288 162.277 67.0213 161.338 66.488C160.4 65.9547 159.706 65.2187 159.258 64.28V72.76H156.666ZM163.994 65.208C165.445 65.208 166.608 64.696 167.482 63.672C168.357 62.6267 168.794 61.144 168.794 59.224C168.794 57.2827 168.357 55.8 167.482 54.776C166.608 53.752 165.445 53.24 163.994 53.24C162.544 53.24 161.381 53.752 160.506 54.776C159.632 55.8 159.194 57.2827 159.194 59.224C159.194 61.144 159.632 62.6267 160.506 63.672C161.381 64.696 162.544 65.208 163.994 65.208Z" fill="#FFFEE8"/>
</g>
<defs>
<filter id="filter0_d_1084_1190" x="97.6775" y="29.152" width="88.741" height="58.608" filterUnits="userSpaceOnUse" color-interpolation-filters="sRGB">
<feFlood flood-opacity="0" result="BackgroundImageFix"/>
<feColorMatrix in="SourceAlpha" type="matrix" values="0 0 0 0 0 0 0 0 0 0 0 0 0 0 0 0 0 0 127 0" result="hardAlpha"/>
<feOffset/>
<feGaussianBlur stdDeviation="7.5"/>
<feComposite in2="hardAlpha" operator="out"/>
<feColorMatrix type="matrix" values="0 0 0 0 1 0 0 0 0 0.996078 0 0 0 0 0.909804 0 0 0 0.5 0"/>
<feBlend mode="normal" in2="BackgroundImageFix" result="effect1_dropShadow_1084_1190"/>
<feBlend mode="normal" in="SourceGraphic" in2="effect1_dropShadow_1084_1190" result="shape"/>
</filter>
</defs>
</svg>
