<svg width="292" height="111" viewBox="0 0 292 111" fill="none" xmlns="http://www.w3.org/2000/svg">
<path d="M26.258 57.1785L26.8811 56.0128L26.2686 54.8416L4.12839 12.5H271.069L289.285 55.9893L271.083 98.5H4.17101L26.258 57.1785Z" fill="#401127" stroke="#8F1B42" stroke-width="5"/>
<g filter="url(#filter0_d_1084_1194)">
<path d="M124.439 67.288C122.669 67.288 121.069 67.064 119.639 66.616C118.21 66.1467 116.973 65.4747 115.927 64.6L116.855 62.488C117.943 63.32 119.085 63.9387 120.279 64.344C121.474 64.7493 122.861 64.952 124.439 64.952C126.359 64.952 127.778 64.6 128.695 63.896C129.634 63.1707 130.103 62.2213 130.103 61.048C130.103 60.1093 129.762 59.3627 129.079 58.808C128.418 58.2533 127.298 57.816 125.719 57.496L122.391 56.824C120.386 56.3973 118.882 55.704 117.879 54.744C116.898 53.7627 116.407 52.4613 116.407 50.84C116.407 49.496 116.749 48.3227 117.431 47.32C118.135 46.3173 119.106 45.5387 120.343 44.984C121.581 44.4293 123.01 44.152 124.631 44.152C126.146 44.152 127.554 44.3973 128.855 44.888C130.157 45.3573 131.255 46.04 132.151 46.936L131.223 48.984C130.263 48.1093 129.25 47.48 128.183 47.096C127.117 46.6907 125.922 46.488 124.599 46.488C122.914 46.488 121.57 46.8827 120.567 47.672C119.565 48.44 119.063 49.464 119.063 50.744C119.063 51.768 119.373 52.5787 119.991 53.176C120.631 53.7733 121.666 54.2107 123.095 54.488L126.423 55.192C128.578 55.64 130.167 56.3227 131.191 57.24C132.237 58.136 132.759 59.3627 132.759 60.92C132.759 62.1787 132.418 63.288 131.735 64.248C131.074 65.208 130.114 65.9547 128.855 66.488C127.618 67.0213 126.146 67.288 124.439 67.288ZM142.656 67.288C140.822 67.288 139.446 66.808 138.528 65.848C137.611 64.8667 137.152 63.4587 137.152 61.624V53.464H134.112V51.448H137.152V46.68H139.744V51.448H144.672V53.464H139.744V61.368C139.744 62.584 140 63.512 140.512 64.152C141.024 64.7707 141.856 65.08 143.008 65.08C143.35 65.08 143.691 65.0373 144.032 64.952C144.374 64.8667 144.683 64.7813 144.96 64.696L145.408 66.68C145.131 66.8293 144.726 66.968 144.192 67.096C143.659 67.224 143.147 67.288 142.656 67.288ZM152.5 67.288C151.433 67.288 150.473 67.0853 149.62 66.68C148.788 66.2533 148.127 65.6773 147.636 64.952C147.145 64.2267 146.9 63.416 146.9 62.52C146.9 61.3893 147.188 60.4933 147.764 59.832C148.361 59.1707 149.332 58.7013 150.676 58.424C152.041 58.1253 153.897 57.976 156.244 57.976H157.268V56.984C157.268 55.6613 156.991 54.712 156.436 54.136C155.903 53.5387 155.039 53.24 153.844 53.24C152.905 53.24 151.999 53.3787 151.124 53.656C150.249 53.912 149.353 54.3387 148.436 54.936L147.54 53.048C148.351 52.472 149.332 52.0133 150.484 51.672C151.657 51.3307 152.777 51.16 153.844 51.16C155.849 51.16 157.332 51.6507 158.292 52.632C159.273 53.6133 159.764 55.1387 159.764 57.208V67H157.332V64.312C156.927 65.2293 156.297 65.9547 155.444 66.488C154.612 67.0213 153.631 67.288 152.5 67.288ZM152.916 65.336C154.196 65.336 155.241 64.8987 156.052 64.024C156.863 63.128 157.268 61.9973 157.268 60.632V59.672H156.276C154.548 59.672 153.183 59.7573 152.18 59.928C151.199 60.0773 150.505 60.3547 150.1 60.76C149.716 61.144 149.524 61.6773 149.524 62.36C149.524 63.2347 149.823 63.9493 150.42 64.504C151.039 65.0587 151.871 65.336 152.916 65.336ZM164.573 67V51.448H167.101V54.232C167.933 52.3547 169.639 51.32 172.221 51.128L173.149 51.032L173.341 53.272L171.709 53.464C170.237 53.592 169.117 54.0613 168.349 54.872C167.581 55.6613 167.197 56.7493 167.197 58.136V67H164.573ZM183.125 67.288C181.29 67.288 179.914 66.808 178.997 65.848C178.08 64.8667 177.621 63.4587 177.621 61.624V53.464H174.581V51.448H177.621V46.68H180.213V51.448H185.141V53.464H180.213V61.368C180.213 62.584 180.469 63.512 180.981 64.152C181.493 64.7707 182.325 65.08 183.477 65.08C183.818 65.08 184.16 65.0373 184.501 64.952C184.842 64.8667 185.152 64.7813 185.429 64.696L185.877 66.68C185.6 66.8293 185.194 66.968 184.661 67.096C184.128 67.224 183.616 67.288 183.125 67.288Z" fill="white"/>
</g>
<defs>
<filter id="filter0_d_1084_1194" x="100.927" y="29.152" width="99.9497" height="53.136" filterUnits="userSpaceOnUse" color-interpolation-filters="sRGB">
<feFlood flood-opacity="0" result="BackgroundImageFix"/>
<feColorMatrix in="SourceAlpha" type="matrix" values="0 0 0 0 0 0 0 0 0 0 0 0 0 0 0 0 0 0 127 0" result="hardAlpha"/>
<feOffset/>
<feGaussianBlur stdDeviation="7.5"/>
<feComposite in2="hardAlpha" operator="out"/>
<feColorMatrix type="matrix" values="0 0 0 0 1 0 0 0 0 0.996078 0 0 0 0 0.909804 0 0 0 0.5 0"/>
<feBlend mode="normal" in2="BackgroundImageFix" result="effect1_dropShadow_1084_1194"/>
<feBlend mode="normal" in="SourceGraphic" in2="effect1_dropShadow_1084_1194" result="shape"/>
</filter>
</defs>
</svg>
