<svg width="292" height="118" viewBox="0 0 292 118" fill="none" xmlns="http://www.w3.org/2000/svg">
<path d="M26.258 57.1785L26.8811 56.0128L26.2686 54.8416L4.12839 12.5H271.069L289.285 55.9893L271.083 98.5H4.17101L26.258 57.1785Z" fill="#401127" stroke="#8F1B42" stroke-width="5"/>
<g filter="url(#filter0_d_1237_121)">
<path d="M111.19 67V44.44H125.142V46.648H113.814V54.52H124.502V56.728H113.814V67H111.19ZM128.049 47.576V44.664H131.25V47.576H128.049ZM128.37 67V51.448H130.962V67H128.37ZM135.807 67V51.448H138.335V54.104C138.847 53.1227 139.572 52.3867 140.511 51.896C141.45 51.4053 142.506 51.16 143.679 51.16C147.37 51.16 149.215 53.208 149.215 57.304V67H146.623V57.464C146.623 56.0133 146.335 54.9573 145.759 54.296C145.204 53.6133 144.308 53.272 143.071 53.272C141.642 53.272 140.5 53.72 139.647 54.616C138.815 55.4907 138.399 56.664 138.399 58.136V67H135.807ZM153.674 47.576V44.664H156.875V47.576H153.674ZM153.995 67V51.448H156.587V67H153.995ZM166.68 67.288C165.464 67.288 164.312 67.1173 163.224 66.776C162.136 66.4347 161.24 65.9547 160.536 65.336L161.368 63.512C162.136 64.1307 162.979 64.5893 163.896 64.888C164.835 65.1653 165.784 65.304 166.744 65.304C167.96 65.304 168.877 65.08 169.496 64.632C170.115 64.184 170.424 63.576 170.424 62.808C170.424 62.2107 170.221 61.7413 169.816 61.4C169.411 61.0373 168.771 60.76 167.896 60.568L164.984 59.928C162.339 59.352 161.016 57.9867 161.016 55.832C161.016 54.424 161.571 53.2933 162.68 52.44C163.811 51.5867 165.283 51.16 167.096 51.16C168.163 51.16 169.176 51.3307 170.136 51.672C171.117 51.992 171.928 52.472 172.568 53.112L171.704 54.936C171.085 54.36 170.36 53.9227 169.528 53.624C168.717 53.304 167.907 53.144 167.096 53.144C165.901 53.144 164.995 53.3787 164.376 53.848C163.757 54.3173 163.448 54.936 163.448 55.704C163.448 56.8987 164.237 57.6667 165.816 58.008L168.728 58.616C170.093 58.9147 171.128 59.3947 171.832 60.056C172.536 60.696 172.888 61.5707 172.888 62.68C172.888 64.1093 172.323 65.24 171.192 66.072C170.061 66.8827 168.557 67.288 166.68 67.288ZM176.838 67V44.44H179.43V54.008C179.942 53.0693 180.657 52.3653 181.574 51.896C182.513 51.4053 183.558 51.16 184.71 51.16C188.401 51.16 190.246 53.208 190.246 57.304V67H187.654V57.464C187.654 56.0133 187.366 54.9573 186.79 54.296C186.236 53.6133 185.34 53.272 184.102 53.272C182.673 53.272 181.532 53.72 180.678 54.616C179.846 55.4907 179.43 56.664 179.43 58.136V67H176.838Z" fill="white"/>
</g>
<defs>
<filter id="filter0_d_1237_121" x="96.1902" y="29.4399" width="109.056" height="52.8481" filterUnits="userSpaceOnUse" color-interpolation-filters="sRGB">
<feFlood flood-opacity="0" result="BackgroundImageFix"/>
<feColorMatrix in="SourceAlpha" type="matrix" values="0 0 0 0 0 0 0 0 0 0 0 0 0 0 0 0 0 0 127 0" result="hardAlpha"/>
<feOffset/>
<feGaussianBlur stdDeviation="7.5"/>
<feComposite in2="hardAlpha" operator="out"/>
<feColorMatrix type="matrix" values="0 0 0 0 1 0 0 0 0 0.996078 0 0 0 0 0.909804 0 0 0 0.5 0"/>
<feBlend mode="normal" in2="BackgroundImageFix" result="effect1_dropShadow_1237_121"/>
<feBlend mode="normal" in="SourceGraphic" in2="effect1_dropShadow_1237_121" result="shape"/>
</filter>
</defs>
</svg>
