<svg width="290" height="111" viewBox="0 0 290 111" fill="none" xmlns="http://www.w3.org/2000/svg">
<rect x="2.5" y="12.5" width="285" height="86" fill="#401127" stroke="#FEC631" stroke-width="5"/>
<g filter="url(#filter0_d_1233_135)">
<path d="M131.949 73.432L129.261 69.112C128.536 67.896 127.352 67.288 125.709 67.288C123.618 67.288 121.794 66.8187 120.237 65.88C118.701 64.92 117.506 63.576 116.653 61.848C115.821 60.12 115.405 58.072 115.405 55.704C115.405 53.336 115.821 51.288 116.653 49.56C117.485 47.832 118.669 46.4987 120.205 45.56C121.762 44.6213 123.597 44.152 125.709 44.152C127.842 44.152 129.677 44.6213 131.213 45.56C132.77 46.4987 133.965 47.832 134.797 49.56C135.65 51.2667 136.077 53.304 136.077 55.672C136.077 58.424 135.512 60.7493 134.381 62.648C133.25 64.5253 131.682 65.848 129.677 66.616C130.53 66.8933 131.309 67.6293 132.013 68.824L134.157 72.28L131.949 73.432ZM125.709 64.952C128.12 64.952 129.986 64.1413 131.309 62.52C132.632 60.8987 133.293 58.6267 133.293 55.704C133.293 52.7813 132.632 50.52 131.309 48.92C129.986 47.2987 128.12 46.488 125.709 46.488C123.341 46.488 121.496 47.2987 120.173 48.92C118.85 50.52 118.189 52.7813 118.189 55.704C118.189 58.6053 118.85 60.8773 120.173 62.52C121.496 64.1413 123.341 64.952 125.709 64.952ZM145.92 67.288C142.187 67.288 140.32 65.2293 140.32 61.112V51.448H142.912V61.08C142.912 62.4667 143.19 63.4907 143.744 64.152C144.32 64.8133 145.216 65.144 146.432 65.144C147.755 65.144 148.832 64.7067 149.664 63.832C150.496 62.936 150.912 61.752 150.912 60.28V51.448H153.504V67H150.976V64.376C150.486 65.3147 149.792 66.04 148.896 66.552C148.022 67.0427 147.03 67.288 145.92 67.288ZM158.034 47.576V44.664H161.234V47.576H158.034ZM158.354 67V51.448H160.946V67H158.354ZM172.031 67.288C170.197 67.288 168.821 66.808 167.903 65.848C166.986 64.8667 166.527 63.4587 166.527 61.624V53.464H163.487V51.448H166.527V46.68H169.119V51.448H174.047V53.464H169.119V61.368C169.119 62.584 169.375 63.512 169.887 64.152C170.399 64.7707 171.231 65.08 172.383 65.08C172.725 65.08 173.066 65.0373 173.407 64.952C173.749 64.8667 174.058 64.7813 174.335 64.696L174.783 66.68C174.506 66.8293 174.101 66.968 173.567 67.096C173.034 67.224 172.522 67.288 172.031 67.288Z" fill="#FEC631"/>
</g>
<defs>
<filter id="filter0_d_1233_135" x="100.405" y="29.1519" width="89.3784" height="59.2803" filterUnits="userSpaceOnUse" color-interpolation-filters="sRGB">
<feFlood flood-opacity="0" result="BackgroundImageFix"/>
<feColorMatrix in="SourceAlpha" type="matrix" values="0 0 0 0 0 0 0 0 0 0 0 0 0 0 0 0 0 0 127 0" result="hardAlpha"/>
<feOffset/>
<feGaussianBlur stdDeviation="7.5"/>
<feComposite in2="hardAlpha" operator="out"/>
<feColorMatrix type="matrix" values="0 0 0 0 1 0 0 0 0 0.996078 0 0 0 0 0.909804 0 0 0 0.5 0"/>
<feBlend mode="normal" in2="BackgroundImageFix" result="effect1_dropShadow_1233_135"/>
<feBlend mode="normal" in="SourceGraphic" in2="effect1_dropShadow_1233_135" result="shape"/>
</filter>
</defs>
</svg>
