<svg width="135" height="128" viewBox="0 0 135 128" fill="none" xmlns="http://www.w3.org/2000/svg">
<g filter="url(#filter0_d_1256_25)">
<path d="M131.169 63.5845L99.1688 119.01L35.1688 119.01L3.16884 63.5845L35.1688 8.15884L99.1688 8.15885L131.169 63.5845Z" fill="#401127"/>
<path d="M97.7255 10.6588L128.282 63.5845L97.7255 116.51L36.6122 116.51L6.05558 63.5845L36.6122 10.6588L97.7255 10.6588Z" stroke="#8F1B42" stroke-width="5" stroke-miterlimit="1.36733" stroke-linecap="round"/>
</g>
<g filter="url(#filter1_d_1256_25)">
<path d="M66.6913 47.825L47.1675 68.5033V90.8212C47.1675 91.399 47.346 91.9532 47.6637 92.3618C47.9815 92.7705 48.4124 93 48.8618 93L60.7283 92.9605C61.1762 92.9576 61.605 92.7268 61.9209 92.3185C62.2368 91.9102 62.4142 91.3577 62.4142 90.7817V77.7483C62.4142 77.1704 62.5927 76.6163 62.9104 76.2076C63.2282 75.799 63.6591 75.5695 64.1085 75.5695H70.8857C71.3351 75.5695 71.7661 75.799 72.0838 76.2076C72.4016 76.6163 72.5801 77.1704 72.5801 77.7483V90.7722C72.5794 91.0589 72.6227 91.3429 72.7075 91.6081C72.7923 91.8732 72.917 92.1142 73.0744 92.3172C73.2318 92.5203 73.4189 92.6814 73.6248 92.7913C73.8307 92.9012 74.0514 92.9578 74.2744 92.9578L86.1367 93C86.586 93 87.017 92.7705 87.3348 92.3618C87.6525 91.9532 87.831 91.399 87.831 90.8212V68.4883L68.3114 47.825C68.082 47.5871 67.7961 47.4574 67.5014 47.4574C67.2066 47.4574 66.9207 47.5871 66.6913 47.825ZM97.531 61.8797L88.6782 52.4958V33.6341C88.6782 33.2007 88.5443 32.7851 88.306 32.4786C88.0677 32.1722 87.7444 32 87.4074 32H81.4773C81.1403 32 80.8171 32.1722 80.5788 32.4786C80.3405 32.7851 80.2066 33.2007 80.2066 33.6341V43.5218L70.7258 33.4911C69.816 32.5283 68.6743 32.0019 67.4961 32.0019C66.3178 32.0019 65.1761 32.5283 64.2663 33.4911L37.4612 61.8797C37.3325 62.0165 37.226 62.1845 37.1479 62.3742C37.0697 62.5639 37.0214 62.7715 37.0057 62.9853C36.9899 63.199 37.0071 63.4146 37.0562 63.6198C37.1053 63.825 37.1853 64.0157 37.2917 64.1811L39.9921 68.4025C40.0982 68.5685 40.2287 68.7059 40.3762 68.8069C40.5237 68.9079 40.6853 68.9705 40.8516 68.9912C41.0179 69.0118 41.1858 68.99 41.3456 68.9271C41.5053 68.8642 41.6539 68.7614 41.7827 68.6245L66.6913 42.2418C66.9207 42.0039 67.2066 41.8742 67.5014 41.8742C67.7961 41.8742 68.082 42.0039 68.3114 42.2418L93.221 68.6245C93.3497 68.7614 93.498 68.8643 93.6575 68.9274C93.8171 68.9906 93.9848 69.0126 94.151 68.9924C94.3172 68.9722 94.4786 68.91 94.6261 68.8095C94.7736 68.709 94.9043 68.5721 95.0107 68.4066L97.711 64.1852C97.8173 64.0188 97.897 63.8271 97.9455 63.621C97.994 63.4149 98.0104 63.1986 97.9936 62.9843C97.9769 62.7701 97.9274 62.5622 97.848 62.3726C97.7686 62.1831 97.6609 62.0156 97.531 61.8797Z" fill="white"/>
</g>
<defs>
<filter id="filter0_d_1256_25" x="0.168839" y="8.15894" width="134" height="116.851" filterUnits="userSpaceOnUse" color-interpolation-filters="sRGB">
<feFlood flood-opacity="0" result="BackgroundImageFix"/>
<feColorMatrix in="SourceAlpha" type="matrix" values="0 0 0 0 0 0 0 0 0 0 0 0 0 0 0 0 0 0 127 0" result="hardAlpha"/>
<feOffset dy="3"/>
<feGaussianBlur stdDeviation="1.5"/>
<feComposite in2="hardAlpha" operator="out"/>
<feColorMatrix type="matrix" values="0 0 0 0 0 0 0 0 0 0 0 0 0 0 0 0 0 0 0.25 0"/>
<feBlend mode="normal" in2="BackgroundImageFix" result="effect1_dropShadow_1256_25"/>
<feBlend mode="normal" in="SourceGraphic" in2="effect1_dropShadow_1256_25" result="shape"/>
</filter>
<filter id="filter1_d_1256_25" x="19" y="17" width="94" height="94" filterUnits="userSpaceOnUse" color-interpolation-filters="sRGB">
<feFlood flood-opacity="0" result="BackgroundImageFix"/>
<feColorMatrix in="SourceAlpha" type="matrix" values="0 0 0 0 0 0 0 0 0 0 0 0 0 0 0 0 0 0 127 0" result="hardAlpha"/>
<feOffset/>
<feGaussianBlur stdDeviation="7.5"/>
<feColorMatrix type="matrix" values="0 0 0 0 1 0 0 0 0 0.996078 0 0 0 0 0.909804 0 0 0 0.5 0"/>
<feBlend mode="normal" in2="BackgroundImageFix" result="effect1_dropShadow_1256_25"/>
<feBlend mode="normal" in="SourceGraphic" in2="effect1_dropShadow_1256_25" result="shape"/>
</filter>
</defs>
</svg>
