<svg width="477" height="111" viewBox="0 0 477 111" fill="none" xmlns="http://www.w3.org/2000/svg">
<path d="M34.1854 57.2141L34.8526 56.0132L34.1966 54.8062L11.2041 12.5H443.694L473.944 55.9842L443.71 98.5H11.2488L34.1854 57.2141Z" fill="#401127" stroke="#8F1B42" stroke-width="5"/>
<g filter="url(#filter0_d_1189_657)">
<path d="M153.268 67V44.44H155.892V54.424H169.428V44.44H172.052V67H169.428V56.696H155.892V67H153.268ZM183.724 67.288C182.209 67.288 180.897 66.9573 179.788 66.296C178.679 65.6347 177.815 64.7067 177.196 63.512C176.599 62.296 176.3 60.8667 176.3 59.224C176.3 57.5813 176.599 56.1627 177.196 54.968C177.815 53.752 178.679 52.8133 179.788 52.152C180.897 51.4907 182.209 51.16 183.724 51.16C185.217 51.16 186.519 51.4907 187.628 52.152C188.759 52.8133 189.623 53.752 190.22 54.968C190.839 56.1627 191.148 57.5813 191.148 59.224C191.148 60.8667 190.839 62.296 190.22 63.512C189.623 64.7067 188.759 65.6347 187.628 66.296C186.519 66.9573 185.217 67.288 183.724 67.288ZM183.724 65.208C185.175 65.208 186.337 64.696 187.212 63.672C188.087 62.6267 188.524 61.144 188.524 59.224C188.524 57.2827 188.087 55.8 187.212 54.776C186.337 53.752 185.175 53.24 183.724 53.24C182.252 53.24 181.079 53.752 180.204 54.776C179.351 55.8 178.924 57.2827 178.924 59.224C178.924 61.144 179.351 62.6267 180.204 63.672C181.079 64.696 182.252 65.208 183.724 65.208ZM198.951 67L193.159 51.448H195.879L200.263 63.96L204.807 51.448H207.015L211.495 63.992L215.943 51.448H218.535L212.711 67H210.247L205.863 54.936L201.447 67H198.951ZM236.188 67.288C234.353 67.288 232.977 66.808 232.06 65.848C231.142 64.8667 230.684 63.4587 230.684 61.624V53.464H227.644V51.448H230.684V46.68H233.276V51.448H238.204V53.464H233.276V61.368C233.276 62.584 233.532 63.512 234.044 64.152C234.556 64.7707 235.388 65.08 236.54 65.08C236.881 65.08 237.222 65.0373 237.564 64.952C237.905 64.8667 238.214 64.7813 238.492 64.696L238.94 66.68C238.662 66.8293 238.257 66.968 237.724 67.096C237.19 67.224 236.678 67.288 236.188 67.288ZM247.443 67.288C245.928 67.288 244.616 66.9573 243.507 66.296C242.398 65.6347 241.534 64.7067 240.915 63.512C240.318 62.296 240.019 60.8667 240.019 59.224C240.019 57.5813 240.318 56.1627 240.915 54.968C241.534 53.752 242.398 52.8133 243.507 52.152C244.616 51.4907 245.928 51.16 247.443 51.16C248.936 51.16 250.238 51.4907 251.347 52.152C252.478 52.8133 253.342 53.752 253.939 54.968C254.558 56.1627 254.867 57.5813 254.867 59.224C254.867 60.8667 254.558 62.296 253.939 63.512C253.342 64.7067 252.478 65.6347 251.347 66.296C250.238 66.9573 248.936 67.288 247.443 67.288ZM247.443 65.208C248.894 65.208 250.056 64.696 250.931 63.672C251.806 62.6267 252.243 61.144 252.243 59.224C252.243 57.2827 251.806 55.8 250.931 54.776C250.056 53.752 248.894 53.24 247.443 53.24C245.971 53.24 244.798 53.752 243.923 54.776C243.07 55.8 242.643 57.2827 242.643 59.224C242.643 61.144 243.07 62.6267 243.923 63.672C244.798 64.696 245.971 65.208 247.443 65.208ZM267.331 67V44.44H276.259C278.691 44.44 280.547 45.0267 281.827 46.2C283.128 47.3733 283.779 49.048 283.779 51.224C283.779 53.3787 283.128 55.0533 281.827 56.248C280.547 57.4213 278.691 58.008 276.259 58.008H269.955V67H267.331ZM269.955 55.8H275.939C279.438 55.8 281.187 54.2747 281.187 51.224C281.187 48.152 279.438 46.616 275.939 46.616H269.955V55.8ZM291.997 67.288C290.418 67.288 289.224 66.8293 288.413 65.912C287.624 64.9733 287.229 63.6187 287.229 61.848V44.44H289.821V61.656C289.821 63.9387 290.728 65.08 292.541 65.08C293.074 65.08 293.554 65.016 293.981 64.888L293.917 67.064C293.256 67.2133 292.616 67.288 291.997 67.288ZM301.594 67.288C300.527 67.288 299.567 67.0853 298.714 66.68C297.882 66.2533 297.22 65.6773 296.73 64.952C296.239 64.2267 295.994 63.416 295.994 62.52C295.994 61.3893 296.282 60.4933 296.858 59.832C297.455 59.1707 298.426 58.7013 299.77 58.424C301.135 58.1253 302.991 57.976 305.338 57.976H306.362V56.984C306.362 55.6613 306.084 54.712 305.53 54.136C304.996 53.5387 304.132 53.24 302.938 53.24C301.999 53.24 301.092 53.3787 300.218 53.656C299.343 53.912 298.447 54.3387 297.53 54.936L296.634 53.048C297.444 52.472 298.426 52.0133 299.578 51.672C300.751 51.3307 301.871 51.16 302.938 51.16C304.943 51.16 306.426 51.6507 307.386 52.632C308.367 53.6133 308.858 55.1387 308.858 57.208V67H306.426V64.312C306.02 65.2293 305.391 65.9547 304.538 66.488C303.706 67.0213 302.724 67.288 301.594 67.288ZM302.01 65.336C303.29 65.336 304.335 64.8987 305.146 64.024C305.956 63.128 306.362 61.9973 306.362 60.632V59.672H305.37C303.642 59.672 302.276 59.7573 301.274 59.928C300.292 60.0773 299.599 60.3547 299.194 60.76C298.81 61.144 298.618 61.6773 298.618 62.36C298.618 63.2347 298.916 63.9493 299.514 64.504C300.132 65.0587 300.964 65.336 302.01 65.336ZM315.302 72.76L317.958 66.744L311.398 51.448H314.214L319.366 64.056L324.55 51.448H327.27L318.022 72.76H315.302Z" fill="#FFFEE8"/>
</g>
<defs>
<filter id="filter0_d_1189_657" x="138.268" y="29.4399" width="204.002" height="58.3201" filterUnits="userSpaceOnUse" color-interpolation-filters="sRGB">
<feFlood flood-opacity="0" result="BackgroundImageFix"/>
<feColorMatrix in="SourceAlpha" type="matrix" values="0 0 0 0 0 0 0 0 0 0 0 0 0 0 0 0 0 0 127 0" result="hardAlpha"/>
<feOffset/>
<feGaussianBlur stdDeviation="7.5"/>
<feComposite in2="hardAlpha" operator="out"/>
<feColorMatrix type="matrix" values="0 0 0 0 1 0 0 0 0 0.996078 0 0 0 0 0.909804 0 0 0 0.5 0"/>
<feBlend mode="normal" in2="BackgroundImageFix" result="effect1_dropShadow_1189_657"/>
<feBlend mode="normal" in="SourceGraphic" in2="effect1_dropShadow_1189_657" result="shape"/>
</filter>
</defs>
</svg>
