<svg width="477" height="111" viewBox="0 0 477 111" fill="none" xmlns="http://www.w3.org/2000/svg">
<path d="M34.1854 57.2141L34.8526 56.0132L34.1966 54.8062L11.2041 12.5H443.694L473.944 55.9842L443.71 98.5H11.2488L34.1854 57.2141Z" fill="#401127" stroke="#FEC631" stroke-width="5"/>
<g filter="url(#filter0_d_1181_620)">
<path d="M102.784 67V44.44H111.712C114.144 44.44 116 45.0053 117.28 46.136C118.581 47.2667 119.232 48.8773 119.232 50.968C119.232 52.632 118.773 53.9973 117.856 55.064C116.96 56.1307 115.68 56.824 114.016 57.144C114.997 57.4853 115.84 58.3173 116.544 59.64L120.512 67H117.632L113.728 59.768C113.237 58.872 112.672 58.264 112.032 57.944C111.392 57.624 110.549 57.464 109.504 57.464H105.408V67H102.784ZM105.408 55.384H111.328C114.869 55.384 116.64 53.912 116.64 50.968C116.64 48.0667 114.869 46.616 111.328 46.616H105.408V55.384ZM130.503 67.288C128.049 67.288 126.108 66.5733 124.679 65.144C123.249 63.6933 122.535 61.7307 122.535 59.256C122.535 57.656 122.855 56.248 123.495 55.032C124.135 53.7947 125.009 52.8453 126.119 52.184C127.249 51.5013 128.551 51.16 130.023 51.16C132.135 51.16 133.788 51.8427 134.983 53.208C136.177 54.552 136.775 56.408 136.775 58.776V59.768H125.062C125.148 61.5387 125.66 62.8933 126.599 63.832C127.537 64.7493 128.839 65.208 130.503 65.208C131.441 65.208 132.337 65.0693 133.191 64.792C134.044 64.4933 134.855 64.0133 135.623 63.352L136.519 65.176C135.815 65.8373 134.919 66.36 133.831 66.744C132.743 67.1067 131.633 67.288 130.503 67.288ZM130.087 53.08C128.615 53.08 127.452 53.5387 126.599 54.456C125.745 55.3733 125.244 56.5787 125.095 58.072H134.535C134.471 56.4933 134.055 55.2667 133.287 54.392C132.54 53.5173 131.473 53.08 130.087 53.08ZM146.766 67.288C144.931 67.288 143.555 66.808 142.638 65.848C141.72 64.8667 141.262 63.4587 141.262 61.624V53.464H138.222V51.448H141.262V46.68H143.854V51.448H148.782V53.464H143.854V61.368C143.854 62.584 144.11 63.512 144.622 64.152C145.134 64.7707 145.966 65.08 147.118 65.08C147.459 65.08 147.8 65.0373 148.142 64.952C148.483 64.8667 148.792 64.7813 149.07 64.696L149.518 66.68C149.24 66.8293 148.835 66.968 148.302 67.096C147.768 67.224 147.256 67.288 146.766 67.288ZM157.217 67.288C153.484 67.288 151.617 65.2293 151.617 61.112V51.448H154.209V61.08C154.209 62.4667 154.487 63.4907 155.041 64.152C155.617 64.8133 156.513 65.144 157.729 65.144C159.052 65.144 160.129 64.7067 160.961 63.832C161.793 62.936 162.209 61.752 162.209 60.28V51.448H164.801V67H162.273V64.376C161.783 65.3147 161.089 66.04 160.193 66.552C159.319 67.0427 158.327 67.288 157.217 67.288ZM169.651 67V51.448H172.179V54.232C173.011 52.3547 174.717 51.32 177.299 51.128L178.227 51.032L178.419 53.272L176.787 53.464C175.315 53.592 174.195 54.0613 173.427 54.872C172.659 55.6613 172.275 56.7493 172.275 58.136V67H169.651ZM181.12 67V51.448H183.648V54.104C184.16 53.1227 184.885 52.3867 185.824 51.896C186.762 51.4053 187.818 51.16 188.992 51.16C192.682 51.16 194.528 53.208 194.528 57.304V67H191.936V57.464C191.936 56.0133 191.648 54.9573 191.072 54.296C190.517 53.6133 189.621 53.272 188.384 53.272C186.954 53.272 185.813 53.72 184.96 54.616C184.128 55.4907 183.712 56.664 183.712 58.136V67H181.12ZM213.766 67.288C211.931 67.288 210.555 66.808 209.638 65.848C208.72 64.8667 208.262 63.4587 208.262 61.624V53.464H205.222V51.448H208.262V46.68H210.854V51.448H215.782V53.464H210.854V61.368C210.854 62.584 211.11 63.512 211.622 64.152C212.134 64.7707 212.966 65.08 214.118 65.08C214.459 65.08 214.8 65.0373 215.142 64.952C215.483 64.8667 215.792 64.7813 216.07 64.696L216.518 66.68C216.24 66.8293 215.835 66.968 215.302 67.096C214.768 67.224 214.256 67.288 213.766 67.288ZM225.021 67.288C223.506 67.288 222.194 66.9573 221.085 66.296C219.976 65.6347 219.112 64.7067 218.493 63.512C217.896 62.296 217.597 60.8667 217.597 59.224C217.597 57.5813 217.896 56.1627 218.493 54.968C219.112 53.752 219.976 52.8133 221.085 52.152C222.194 51.4907 223.506 51.16 225.021 51.16C226.514 51.16 227.816 51.4907 228.925 52.152C230.056 52.8133 230.92 53.752 231.517 54.968C232.136 56.1627 232.445 57.5813 232.445 59.224C232.445 60.8667 232.136 62.296 231.517 63.512C230.92 64.7067 230.056 65.6347 228.925 66.296C227.816 66.9573 226.514 67.288 225.021 67.288ZM225.021 65.208C226.472 65.208 227.634 64.696 228.509 63.672C229.384 62.6267 229.821 61.144 229.821 59.224C229.821 57.2827 229.384 55.8 228.509 54.776C227.634 53.752 226.472 53.24 225.021 53.24C223.549 53.24 222.376 53.752 221.501 54.776C220.648 55.8 220.221 57.2827 220.221 59.224C220.221 61.144 220.648 62.6267 221.501 63.672C222.376 64.696 223.549 65.208 225.021 65.208ZM250.797 67.288C248.962 67.288 247.586 66.808 246.669 65.848C245.752 64.8667 245.293 63.4587 245.293 61.624V53.464H242.253V51.448H245.293V46.68H247.885V51.448H252.813V53.464H247.885V61.368C247.885 62.584 248.141 63.512 248.653 64.152C249.165 64.7707 249.997 65.08 251.149 65.08C251.49 65.08 251.832 65.0373 252.173 64.952C252.514 64.8667 252.824 64.7813 253.101 64.696L253.549 66.68C253.272 66.8293 252.866 66.968 252.333 67.096C251.8 67.224 251.288 67.288 250.797 67.288ZM255.745 67V44.44H258.337V54.008C258.849 53.0693 259.563 52.3653 260.481 51.896C261.419 51.4053 262.465 51.16 263.617 51.16C267.307 51.16 269.153 53.208 269.153 57.304V67H266.561V57.464C266.561 56.0133 266.273 54.9573 265.697 54.296C265.142 53.6133 264.246 53.272 263.009 53.272C261.579 53.272 260.438 53.72 259.585 54.616C258.753 55.4907 258.337 56.664 258.337 58.136V67H255.745ZM280.94 67.288C278.487 67.288 276.545 66.5733 275.116 65.144C273.687 63.6933 272.972 61.7307 272.972 59.256C272.972 57.656 273.292 56.248 273.932 55.032C274.572 53.7947 275.447 52.8453 276.556 52.184C277.687 51.5013 278.988 51.16 280.46 51.16C282.572 51.16 284.225 51.8427 285.42 53.208C286.615 54.552 287.212 56.408 287.212 58.776V59.768H275.5C275.585 61.5387 276.097 62.8933 277.036 63.832C277.975 64.7493 279.276 65.208 280.94 65.208C281.879 65.208 282.775 65.0693 283.628 64.792C284.481 64.4933 285.292 64.0133 286.06 63.352L286.956 65.176C286.252 65.8373 285.356 66.36 284.268 66.744C283.18 67.1067 282.071 67.288 280.94 67.288ZM280.524 53.08C279.052 53.08 277.889 53.5387 277.036 54.456C276.183 55.3733 275.681 56.5787 275.532 58.072H284.972C284.908 56.4933 284.492 55.2667 283.724 54.392C282.977 53.5173 281.911 53.08 280.524 53.08ZM306.062 73.048C304.718 73.048 303.449 72.8667 302.254 72.504C301.081 72.1627 300.035 71.64 299.118 70.936L299.982 69.048C300.942 69.7307 301.891 70.2213 302.83 70.52C303.79 70.8187 304.825 70.968 305.934 70.968C309.006 70.968 310.542 69.3893 310.542 66.232V63.48C310.094 64.4613 309.39 65.24 308.43 65.816C307.491 66.3707 306.414 66.648 305.198 66.648C303.769 66.648 302.531 66.3173 301.486 65.656C300.441 64.9947 299.63 64.088 299.054 62.936C298.499 61.7627 298.222 60.408 298.222 58.872C298.222 57.336 298.499 55.992 299.054 54.84C299.63 53.6667 300.441 52.76 301.486 52.12C302.531 51.48 303.769 51.16 305.198 51.16C306.414 51.16 307.491 51.4373 308.43 51.992C309.39 52.5467 310.094 53.304 310.542 54.264V51.448H313.07V65.88C313.07 68.2693 312.473 70.0613 311.278 71.256C310.105 72.4507 308.366 73.048 306.062 73.048ZM305.678 64.536C307.171 64.536 308.355 64.024 309.23 63C310.105 61.976 310.542 60.6 310.542 58.872C310.542 57.144 310.105 55.7787 309.23 54.776C308.355 53.752 307.171 53.24 305.678 53.24C304.206 53.24 303.033 53.752 302.158 54.776C301.283 55.7787 300.846 57.144 300.846 58.872C300.846 60.6 301.283 61.976 302.158 63C303.033 64.024 304.206 64.536 305.678 64.536ZM322.828 67.288C321.761 67.288 320.801 67.0853 319.948 66.68C319.116 66.2533 318.455 65.6773 317.964 64.952C317.473 64.2267 317.228 63.416 317.228 62.52C317.228 61.3893 317.516 60.4933 318.092 59.832C318.689 59.1707 319.66 58.7013 321.004 58.424C322.369 58.1253 324.225 57.976 326.572 57.976H327.596V56.984C327.596 55.6613 327.319 54.712 326.764 54.136C326.231 53.5387 325.367 53.24 324.172 53.24C323.233 53.24 322.327 53.3787 321.452 53.656C320.577 53.912 319.681 54.3387 318.764 54.936L317.868 53.048C318.679 52.472 319.66 52.0133 320.812 51.672C321.985 51.3307 323.105 51.16 324.172 51.16C326.177 51.16 327.66 51.6507 328.62 52.632C329.601 53.6133 330.092 55.1387 330.092 57.208V67H327.66V64.312C327.255 65.2293 326.625 65.9547 325.772 66.488C324.94 67.0213 323.959 67.288 322.828 67.288ZM323.244 65.336C324.524 65.336 325.569 64.8987 326.38 64.024C327.191 63.128 327.596 61.9973 327.596 60.632V59.672H326.604C324.876 59.672 323.511 59.7573 322.508 59.928C321.527 60.0773 320.833 60.3547 320.428 60.76C320.044 61.144 319.852 61.6773 319.852 62.36C319.852 63.2347 320.151 63.9493 320.748 64.504C321.367 65.0587 322.199 65.336 323.244 65.336ZM334.965 67V51.448H337.493V54.072C337.962 53.1333 338.613 52.4187 339.445 51.928C340.277 51.416 341.247 51.16 342.357 51.16C344.789 51.16 346.346 52.216 347.029 54.328C347.498 53.3467 348.191 52.5787 349.109 52.024C350.026 51.448 351.082 51.16 352.277 51.16C355.733 51.16 357.461 53.208 357.461 57.304V67H354.869V57.432C354.869 56.0027 354.613 54.9573 354.101 54.296C353.61 53.6133 352.789 53.272 351.637 53.272C350.378 53.272 349.375 53.72 348.629 54.616C347.882 55.512 347.509 56.7067 347.509 58.2V67H344.917V57.432C344.917 56.0027 344.661 54.9573 344.149 54.296C343.658 53.6133 342.837 53.272 341.685 53.272C340.405 53.272 339.391 53.72 338.645 54.616C337.919 55.512 337.557 56.7067 337.557 58.2V67H334.965ZM369.315 67.288C366.862 67.288 364.92 66.5733 363.491 65.144C362.062 63.6933 361.347 61.7307 361.347 59.256C361.347 57.656 361.667 56.248 362.307 55.032C362.947 53.7947 363.822 52.8453 364.931 52.184C366.062 51.5013 367.363 51.16 368.835 51.16C370.947 51.16 372.6 51.8427 373.795 53.208C374.99 54.552 375.587 56.408 375.587 58.776V59.768H363.875C363.96 61.5387 364.472 62.8933 365.411 63.832C366.35 64.7493 367.651 65.208 369.315 65.208C370.254 65.208 371.15 65.0693 372.003 64.792C372.856 64.4933 373.667 64.0133 374.435 63.352L375.331 65.176C374.627 65.8373 373.731 66.36 372.643 66.744C371.555 67.1067 370.446 67.288 369.315 67.288ZM368.899 53.08C367.427 53.08 366.264 53.5387 365.411 54.456C364.558 55.3733 364.056 56.5787 363.907 58.072H373.347C373.283 56.4933 372.867 55.2667 372.099 54.392C371.352 53.5173 370.286 53.08 368.899 53.08Z" fill="#FEC631"/>
</g>
<defs>
<filter id="filter0_d_1181_620" x="87.784" y="29.4399" width="302.803" height="58.6082" filterUnits="userSpaceOnUse" color-interpolation-filters="sRGB">
<feFlood flood-opacity="0" result="BackgroundImageFix"/>
<feColorMatrix in="SourceAlpha" type="matrix" values="0 0 0 0 0 0 0 0 0 0 0 0 0 0 0 0 0 0 127 0" result="hardAlpha"/>
<feOffset/>
<feGaussianBlur stdDeviation="7.5"/>
<feComposite in2="hardAlpha" operator="out"/>
<feColorMatrix type="matrix" values="0 0 0 0 1 0 0 0 0 0.996078 0 0 0 0 0.909804 0 0 0 0.5 0"/>
<feBlend mode="normal" in2="BackgroundImageFix" result="effect1_dropShadow_1181_620"/>
<feBlend mode="normal" in="SourceGraphic" in2="effect1_dropShadow_1181_620" result="shape"/>
</filter>
</defs>
</svg>
