<svg width="477" height="111" viewBox="0 0 477 111" fill="none" xmlns="http://www.w3.org/2000/svg">
<path d="M34.1854 57.2141L34.8526 56.0132L34.1966 54.8062L11.204 12.5H443.694L473.944 55.9842L443.71 98.5H11.2487L34.1854 57.2141Z" fill="#401127" stroke="#FEC631" stroke-width="5"/>
<g filter="url(#filter0_d_1256_21)">
<path d="M91.8621 67V44.44H100.79C103.222 44.44 105.078 45.0053 106.358 46.136C107.659 47.2667 108.31 48.8773 108.31 50.968C108.31 52.632 107.851 53.9973 106.934 55.064C106.038 56.1307 104.758 56.824 103.094 57.144C104.075 57.4853 104.918 58.3173 105.622 59.64L109.59 67H106.71L102.806 59.768C102.315 58.872 101.75 58.264 101.11 57.944C100.47 57.624 99.6275 57.464 98.5821 57.464H94.4861V67H91.8621ZM94.4861 55.384H100.406C103.947 55.384 105.718 53.912 105.718 50.968C105.718 48.0667 103.947 46.616 100.406 46.616H94.4861V55.384ZM119.581 67.288C117.127 67.288 115.186 66.5733 113.757 65.144C112.327 63.6933 111.613 61.7307 111.613 59.256C111.613 57.656 111.933 56.248 112.573 55.032C113.213 53.7947 114.087 52.8453 115.197 52.184C116.327 51.5013 117.629 51.16 119.101 51.16C121.213 51.16 122.866 51.8427 124.061 53.208C125.255 54.552 125.853 56.408 125.853 58.776V59.768H114.141C114.226 61.5387 114.738 62.8933 115.677 63.832C116.615 64.7493 117.917 65.208 119.581 65.208C120.519 65.208 121.415 65.0693 122.269 64.792C123.122 64.4933 123.933 64.0133 124.701 63.352L125.597 65.176C124.893 65.8373 123.997 66.36 122.909 66.744C121.821 67.1067 120.711 67.288 119.581 67.288ZM119.165 53.08C117.693 53.08 116.53 53.5387 115.677 54.456C114.823 55.3733 114.322 56.5787 114.173 58.072H123.613C123.549 56.4933 123.133 55.2667 122.365 54.392C121.618 53.5173 120.551 53.08 119.165 53.08ZM135.844 67.288C134.009 67.288 132.633 66.808 131.716 65.848C130.799 64.8667 130.34 63.4587 130.34 61.624V53.464H127.3V51.448H130.34V46.68H132.932V51.448H137.86V53.464H132.932V61.368C132.932 62.584 133.188 63.512 133.7 64.152C134.212 64.7707 135.044 65.08 136.196 65.08C136.537 65.08 136.879 65.0373 137.22 64.952C137.561 64.8667 137.871 64.7813 138.148 64.696L138.596 66.68C138.319 66.8293 137.913 66.968 137.38 67.096C136.847 67.224 136.335 67.288 135.844 67.288ZM146.295 67.288C142.562 67.288 140.695 65.2293 140.695 61.112V51.448H143.287V61.08C143.287 62.4667 143.565 63.4907 144.119 64.152C144.695 64.8133 145.591 65.144 146.807 65.144C148.13 65.144 149.207 64.7067 150.039 63.832C150.871 62.936 151.287 61.752 151.287 60.28V51.448H153.879V67H151.351V64.376C150.861 65.3147 150.167 66.04 149.271 66.552C148.397 67.0427 147.405 67.288 146.295 67.288ZM158.729 67V51.448H161.257V54.232C162.089 52.3547 163.796 51.32 166.377 51.128L167.305 51.032L167.497 53.272L165.865 53.464C164.393 53.592 163.273 54.0613 162.505 54.872C161.737 55.6613 161.353 56.7493 161.353 58.136V67H158.729ZM170.198 67V51.448H172.726V54.104C173.238 53.1227 173.963 52.3867 174.902 51.896C175.84 51.4053 176.896 51.16 178.07 51.16C181.76 51.16 183.606 53.208 183.606 57.304V67H181.014V57.464C181.014 56.0133 180.726 54.9573 180.15 54.296C179.595 53.6133 178.699 53.272 177.462 53.272C176.032 53.272 174.891 53.72 174.038 54.616C173.206 55.4907 172.79 56.664 172.79 58.136V67H170.198ZM202.844 67.288C201.009 67.288 199.633 66.808 198.716 65.848C197.799 64.8667 197.34 63.4587 197.34 61.624V53.464H194.3V51.448H197.34V46.68H199.932V51.448H204.86V53.464H199.932V61.368C199.932 62.584 200.188 63.512 200.7 64.152C201.212 64.7707 202.044 65.08 203.196 65.08C203.537 65.08 203.879 65.0373 204.22 64.952C204.561 64.8667 204.871 64.7813 205.148 64.696L205.596 66.68C205.319 66.8293 204.913 66.968 204.38 67.096C203.847 67.224 203.335 67.288 202.844 67.288ZM214.099 67.288C212.584 67.288 211.272 66.9573 210.163 66.296C209.054 65.6347 208.19 64.7067 207.571 63.512C206.974 62.296 206.675 60.8667 206.675 59.224C206.675 57.5813 206.974 56.1627 207.571 54.968C208.19 53.752 209.054 52.8133 210.163 52.152C211.272 51.4907 212.584 51.16 214.099 51.16C215.592 51.16 216.894 51.4907 218.003 52.152C219.134 52.8133 219.998 53.752 220.595 54.968C221.214 56.1627 221.523 57.5813 221.523 59.224C221.523 60.8667 221.214 62.296 220.595 63.512C219.998 64.7067 219.134 65.6347 218.003 66.296C216.894 66.9573 215.592 67.288 214.099 67.288ZM214.099 65.208C215.55 65.208 216.712 64.696 217.587 63.672C218.462 62.6267 218.899 61.144 218.899 59.224C218.899 57.2827 218.462 55.8 217.587 54.776C216.712 53.752 215.55 53.24 214.099 53.24C212.627 53.24 211.454 53.752 210.579 54.776C209.726 55.8 209.299 57.2827 209.299 59.224C209.299 61.144 209.726 62.6267 210.579 63.672C211.454 64.696 212.627 65.208 214.099 65.208ZM234.051 67V44.44H236.259L244.931 60.728L253.539 44.44H255.747V67H253.315V49.368L245.795 63.512H244.067L236.451 49.4V67H234.051ZM265.906 67.288C264.839 67.288 263.879 67.0853 263.026 66.68C262.194 66.2533 261.533 65.6773 261.042 64.952C260.551 64.2267 260.306 63.416 260.306 62.52C260.306 61.3893 260.594 60.4933 261.17 59.832C261.767 59.1707 262.738 58.7013 264.082 58.424C265.447 58.1253 267.303 57.976 269.65 57.976H270.674V56.984C270.674 55.6613 270.397 54.712 269.842 54.136C269.309 53.5387 268.445 53.24 267.25 53.24C266.311 53.24 265.405 53.3787 264.53 53.656C263.655 53.912 262.759 54.3387 261.842 54.936L260.946 53.048C261.757 52.472 262.738 52.0133 263.89 51.672C265.063 51.3307 266.183 51.16 267.25 51.16C269.255 51.16 270.738 51.6507 271.698 52.632C272.679 53.6133 273.17 55.1387 273.17 57.208V67H270.738V64.312C270.333 65.2293 269.703 65.9547 268.85 66.488C268.018 67.0213 267.037 67.288 265.906 67.288ZM266.322 65.336C267.602 65.336 268.647 64.8987 269.458 64.024C270.269 63.128 270.674 61.9973 270.674 60.632V59.672H269.682C267.954 59.672 266.589 59.7573 265.586 59.928C264.605 60.0773 263.911 60.3547 263.506 60.76C263.122 61.144 262.93 61.6773 262.93 62.36C262.93 63.2347 263.229 63.9493 263.826 64.504C264.445 65.0587 265.277 65.336 266.322 65.336ZM277.659 47.576V44.664H280.859V47.576H277.659ZM277.979 67V51.448H280.571V67H277.979ZM285.416 67V51.448H287.944V54.104C288.456 53.1227 289.182 52.3867 290.12 51.896C291.059 51.4053 292.115 51.16 293.288 51.16C296.979 51.16 298.824 53.208 298.824 57.304V67H296.232V57.464C296.232 56.0133 295.944 54.9573 295.368 54.296C294.814 53.6133 293.918 53.272 292.68 53.272C291.251 53.272 290.11 53.72 289.256 54.616C288.424 55.4907 288.008 56.664 288.008 58.136V67H285.416ZM312.239 67V44.44H314.447L323.119 60.728L331.727 44.44H333.935V67H331.503V49.368L323.983 63.512H322.255L314.639 49.4V67H312.239ZM346.206 67.288C343.752 67.288 341.811 66.5733 340.382 65.144C338.952 63.6933 338.238 61.7307 338.238 59.256C338.238 57.656 338.558 56.248 339.198 55.032C339.838 53.7947 340.712 52.8453 341.822 52.184C342.952 51.5013 344.254 51.16 345.726 51.16C347.838 51.16 349.491 51.8427 350.686 53.208C351.88 54.552 352.478 56.408 352.478 58.776V59.768H340.766C340.851 61.5387 341.363 62.8933 342.302 63.832C343.24 64.7493 344.542 65.208 346.206 65.208C347.144 65.208 348.04 65.0693 348.894 64.792C349.747 64.4933 350.558 64.0133 351.326 63.352L352.222 65.176C351.518 65.8373 350.622 66.36 349.534 66.744C348.446 67.1067 347.336 67.288 346.206 67.288ZM345.79 53.08C344.318 53.08 343.155 53.5387 342.302 54.456C341.448 55.3733 340.947 56.5787 340.798 58.072H350.238C350.174 56.4933 349.758 55.2667 348.99 54.392C348.243 53.5173 347.176 53.08 345.79 53.08ZM356.229 67V51.448H358.757V54.104C359.269 53.1227 359.994 52.3867 360.933 51.896C361.872 51.4053 362.928 51.16 364.101 51.16C367.792 51.16 369.637 53.208 369.637 57.304V67H367.045V57.464C367.045 56.0133 366.757 54.9573 366.181 54.296C365.626 53.6133 364.73 53.272 363.493 53.272C362.064 53.272 360.922 53.72 360.069 54.616C359.237 55.4907 358.821 56.664 358.821 58.136V67H356.229ZM379.92 67.288C376.187 67.288 374.32 65.2293 374.32 61.112V51.448H376.912V61.08C376.912 62.4667 377.19 63.4907 377.744 64.152C378.32 64.8133 379.216 65.144 380.432 65.144C381.755 65.144 382.832 64.7067 383.664 63.832C384.496 62.936 384.912 61.752 384.912 60.28V51.448H387.504V67H384.976V64.376C384.486 65.3147 383.792 66.04 382.896 66.552C382.022 67.0427 381.03 67.288 379.92 67.288Z" fill="#FEC631"/>
</g>
<defs>
<filter id="filter0_d_1256_21" x="76.8621" y="29.4399" width="325.642" height="52.8481" filterUnits="userSpaceOnUse" color-interpolation-filters="sRGB">
<feFlood flood-opacity="0" result="BackgroundImageFix"/>
<feColorMatrix in="SourceAlpha" type="matrix" values="0 0 0 0 0 0 0 0 0 0 0 0 0 0 0 0 0 0 127 0" result="hardAlpha"/>
<feOffset/>
<feGaussianBlur stdDeviation="7.5"/>
<feComposite in2="hardAlpha" operator="out"/>
<feColorMatrix type="matrix" values="0 0 0 0 1 0 0 0 0 0.996078 0 0 0 0 0.909804 0 0 0 0.5 0"/>
<feBlend mode="normal" in2="BackgroundImageFix" result="effect1_dropShadow_1256_21"/>
<feBlend mode="normal" in="SourceGraphic" in2="effect1_dropShadow_1256_21" result="shape"/>
</filter>
</defs>
</svg>
