<svg width="135" height="128" viewBox="0 0 135 128" fill="none" xmlns="http://www.w3.org/2000/svg">
<g filter="url(#filter0_d_1189_629)">
<path d="M131.169 63.5845L99.1688 119.01L35.1688 119.01L3.16884 63.5845L35.1688 8.15884L99.1688 8.15885L131.169 63.5845Z" fill="#401127"/>
<path d="M97.7255 10.6588L128.282 63.5845L97.7255 116.51L36.6122 116.51L6.05558 63.5845L36.6122 10.6588L97.7255 10.6588Z" stroke="#FEC631" stroke-width="5" stroke-miterlimit="1.36733" stroke-linecap="round"/>
</g>
<g filter="url(#filter1_d_1189_629)">
<path d="M54.068 38.0549C56.5231 36.1955 59.5203 35.1927 62.6 35.2001C63.6636 35.1762 64.7161 35.421 65.6599 35.9119C66.6038 36.4027 67.4087 37.1237 68 38.0081C68.5913 37.1237 69.3962 36.4027 70.34 35.9119C71.2839 35.421 72.3364 35.1762 73.4 35.2001C76.4797 35.1927 79.4769 36.1955 81.932 38.0549C83.822 39.5237 85.28 41.5577 85.7948 44.0165C86.9756 44.1065 88.0556 44.5961 88.9628 45.3341C90.338 46.4501 91.3388 48.1241 91.9688 49.8953C92.9552 52.6493 93.2216 56.1593 92.1992 59.1473C92.4584 59.2697 92.714 59.4137 92.9624 59.5793C93.9524 60.2381 94.7048 61.1813 95.2592 62.2937C96.35 64.4717 96.8 67.5101 96.8 71.2001C96.8 75.3077 95.234 78.0653 93.2468 79.7681C92.1479 80.7103 90.8511 81.3932 89.4524 81.7661C89.0924 83.7749 88.0844 86.1005 86.504 88.0733C84.452 90.6473 81.2696 92.8001 77 92.8001C73.616 92.8001 70.9232 90.9281 69.1736 89.0921C68.7553 88.6537 68.3634 88.1909 68 87.7061C67.6366 88.1909 67.2447 88.6537 66.8264 89.0921C65.0768 90.9281 62.3876 92.8001 59 92.8001C54.7304 92.8001 51.5516 90.6473 49.496 88.0733C48.0191 86.2393 47.0076 84.0754 46.5476 81.7661C45.1489 81.3932 43.8521 80.7103 42.7532 79.7681C40.766 78.0653 39.2 75.3041 39.2 71.2001C39.2 67.5101 39.6536 64.4681 40.7408 62.2937C41.2561 61.2027 42.0479 60.2657 43.0376 59.5757C43.2807 59.4147 43.5359 59.2727 43.8008 59.1509C42.7784 56.1557 43.0448 52.6493 44.0312 49.8953C44.6612 48.1241 45.662 46.4501 47.0372 45.3341C47.9444 44.5961 49.0244 44.1101 50.2052 44.0165C50.7236 41.5577 52.178 39.5237 54.068 38.0549ZM66.2 44.2001V44.1641L66.1928 43.9841C66.1398 43.0456 65.9531 42.1194 65.6384 41.2337C65.4143 40.565 65.0328 39.96 64.526 39.4697C63.9943 39.0066 63.3043 38.7668 62.6 38.8001C60.321 38.7923 58.1016 39.5278 56.2784 40.8953C54.608 42.1949 53.6 43.9553 53.6 46.0001C53.5998 46.2851 53.5319 46.5661 53.4018 46.8197C53.2718 47.0734 53.0834 47.2926 52.8521 47.4592C52.6208 47.6258 52.3532 47.7351 52.0714 47.7781C51.7896 47.8211 51.5017 47.7966 51.2312 47.7065C50.5544 47.4833 49.9496 47.6093 49.3052 48.1277C48.5996 48.7037 47.912 49.7261 47.4188 51.1049C46.4144 53.9201 46.5188 57.3293 47.8976 59.4029C48.0945 59.6982 48.1997 60.0451 48.2 60.4001H50.9C53.0483 60.4001 55.1085 61.2535 56.6276 62.7725C58.1466 64.2916 59 66.3518 59 68.5001V69.7061C60.201 70.1307 61.2132 70.9662 61.8577 72.0649C62.5023 73.1637 62.7376 74.4549 62.5222 75.7104C62.3068 76.9659 61.6545 78.1048 60.6806 78.9259C59.7067 79.7469 58.4738 80.1972 57.2 80.1972C55.9262 80.1972 54.6933 79.7469 53.7194 78.9259C52.7455 78.1048 52.0932 76.9659 51.8778 75.7104C51.6624 74.4549 51.8977 73.1637 52.5423 72.0649C53.1868 70.9662 54.199 70.1307 55.4 69.7061V68.5001C55.4 66.0161 53.384 64.0001 50.9 64.0001H44.6C44.3848 63.9997 44.1714 63.9607 43.97 63.8849L43.9592 63.9065C43.2464 65.3285 42.8 67.6901 42.8 71.2001C42.8 74.2925 43.934 76.0349 45.0968 77.0321C46.346 78.1049 47.732 78.4001 48.2 78.4001C48.6774 78.4001 49.1352 78.5897 49.4728 78.9273C49.8104 79.2648 50 79.7227 50 80.2001C50 81.5249 50.72 83.8397 52.304 85.8269C53.8484 87.7529 56.0696 89.2001 59 89.2001C61.016 89.2001 62.8232 88.0733 64.22 86.6081C64.9076 85.8881 65.444 85.1429 65.7932 84.5309C65.9522 84.2595 66.0882 83.9753 66.2 83.6813V55.0001H62.294C61.8694 56.2011 61.0339 57.2133 59.9351 57.8578C58.8364 58.5023 57.5452 58.7377 56.2897 58.5223C55.0342 58.3069 53.8953 57.6546 53.0742 56.6807C52.2532 55.7067 51.8028 54.4739 51.8028 53.2001C51.8028 51.9262 52.2532 50.6934 53.0742 49.7195C53.8953 48.7456 55.0342 48.0933 56.2897 47.8778C57.5452 47.6624 58.8364 47.8978 59.9351 48.5423C61.0339 49.1869 61.8694 50.1991 62.294 51.4001H66.2V44.2001ZM69.8 80.1965V83.6777C69.9118 83.9717 70.0479 84.2558 70.2068 84.5273C70.5596 85.1393 71.0924 85.8845 71.7764 86.6045C73.1768 88.0697 74.9876 89.1965 77 89.1965C79.9304 89.1965 82.1516 87.7493 83.696 85.8233C85.28 83.8361 86 81.5213 86 80.1965C86 79.7191 86.1896 79.2612 86.5272 78.9237C86.8648 78.5861 87.3226 78.3965 87.8 78.3965C88.268 78.3965 89.654 78.1013 90.9032 77.0285C92.066 76.0313 93.2 74.2889 93.2 71.1965C93.2 67.6865 92.75 65.3285 92.0408 63.9029C91.8035 63.372 91.4311 62.9127 90.9608 62.5709C90.5555 62.3118 90.0808 62.1824 89.6 62.2001C89.2744 62.1999 88.955 62.1114 88.6757 61.9441C88.3964 61.7767 88.1677 61.5367 88.0141 61.2497C87.8604 60.9626 87.7874 60.6393 87.803 60.3141C87.8185 59.9888 87.922 59.6739 88.1024 59.4029C89.4848 57.3293 89.5856 53.9201 88.5812 51.1049C88.088 49.7261 87.4004 48.7001 86.6948 48.1277C86.0504 47.6093 85.4456 47.4797 84.7688 47.7065C84.4983 47.7966 84.2104 47.8211 83.9286 47.7781C83.6468 47.7351 83.3792 47.6258 83.1479 47.4592C82.9166 47.2926 82.7282 47.0734 82.5982 46.8197C82.4681 46.5661 82.4002 46.2851 82.4 46.0001C82.4 43.9553 81.392 42.1949 79.718 40.8953C77.8958 39.5286 75.6778 38.793 73.4 38.8001C72.6957 38.7668 72.0057 39.0066 71.474 39.4697C70.9656 39.9594 70.5828 40.5645 70.358 41.2337C70.0153 42.174 69.8268 43.1636 69.8 44.1641V76.6001H72.5C74.984 76.6001 77 74.5841 77 72.1001V65.4941C75.799 65.0695 74.7868 64.234 74.1423 63.1352C73.4977 62.0365 73.2624 60.7452 73.4778 59.4898C73.6932 58.2343 74.3455 57.0953 75.3194 56.2743C76.2933 55.4532 77.5262 55.0029 78.8 55.0029C80.0738 55.0029 81.3067 55.4532 82.2806 56.2743C83.2545 57.0953 83.9068 58.2343 84.1222 59.4898C84.3376 60.7452 84.1023 62.0365 83.4577 63.1352C82.8132 64.234 81.801 65.0695 80.6 65.4941V72.1001C80.6 74.2483 79.7466 76.3086 78.2276 77.8276C76.7085 79.3467 74.6483 80.2001 72.5 80.2001H69.8V80.1965ZM55.4 53.2001C55.4 53.6775 55.5896 54.1353 55.9272 54.4729C56.2648 54.8104 56.7226 55.0001 57.2 55.0001C57.6774 55.0001 58.1352 54.8104 58.4728 54.4729C58.8104 54.1353 59 53.6775 59 53.2001C59 52.7227 58.8104 52.2648 58.4728 51.9273C58.1352 51.5897 57.6774 51.4001 57.2 51.4001C56.7226 51.4001 56.2648 51.5897 55.9272 51.9273C55.5896 52.2648 55.4 52.7227 55.4 53.2001ZM78.8 62.2001C79.2774 62.2001 79.7352 62.0104 80.0728 61.6729C80.4104 61.3353 80.6 60.8775 80.6 60.4001C80.6 59.9227 80.4104 59.4648 80.0728 59.1273C79.7352 58.7897 79.2774 58.6001 78.8 58.6001C78.3226 58.6001 77.8648 58.7897 77.5272 59.1273C77.1896 59.4648 77 59.9227 77 60.4001C77 60.8775 77.1896 61.3353 77.5272 61.6729C77.8648 62.0104 78.3226 62.2001 78.8 62.2001ZM57.2 73.0001C56.7226 73.0001 56.2648 73.1897 55.9272 73.5273C55.5896 73.8648 55.4 74.3227 55.4 74.8001C55.4 75.2775 55.5896 75.7353 55.9272 76.0729C56.2648 76.4104 56.7226 76.6001 57.2 76.6001C57.6774 76.6001 58.1352 76.4104 58.4728 76.0729C58.8104 75.7353 59 75.2775 59 74.8001C59 74.3227 58.8104 73.8648 58.4728 73.5273C58.1352 73.1897 57.6774 73.0001 57.2 73.0001Z" fill="#FEC631"/>
</g>
<defs>
<filter id="filter0_d_1189_629" x="0.168839" y="8.15894" width="134" height="116.851" filterUnits="userSpaceOnUse" color-interpolation-filters="sRGB">
<feFlood flood-opacity="0" result="BackgroundImageFix"/>
<feColorMatrix in="SourceAlpha" type="matrix" values="0 0 0 0 0 0 0 0 0 0 0 0 0 0 0 0 0 0 127 0" result="hardAlpha"/>
<feOffset dy="3"/>
<feGaussianBlur stdDeviation="1.5"/>
<feComposite in2="hardAlpha" operator="out"/>
<feColorMatrix type="matrix" values="0 0 0 0 0 0 0 0 0 0 0 0 0 0 0 0 0 0 0.25 0"/>
<feBlend mode="normal" in2="BackgroundImageFix" result="effect1_dropShadow_1189_629"/>
<feBlend mode="normal" in="SourceGraphic" in2="effect1_dropShadow_1189_629" result="shape"/>
</filter>
<filter id="filter1_d_1189_629" x="17" y="13" width="102" height="102" filterUnits="userSpaceOnUse" color-interpolation-filters="sRGB">
<feFlood flood-opacity="0" result="BackgroundImageFix"/>
<feColorMatrix in="SourceAlpha" type="matrix" values="0 0 0 0 0 0 0 0 0 0 0 0 0 0 0 0 0 0 127 0" result="hardAlpha"/>
<feOffset/>
<feGaussianBlur stdDeviation="7.5"/>
<feColorMatrix type="matrix" values="0 0 0 0 1 0 0 0 0 0.996078 0 0 0 0 0.909804 0 0 0 0.5 0"/>
<feBlend mode="normal" in2="BackgroundImageFix" result="effect1_dropShadow_1189_629"/>
<feBlend mode="normal" in="SourceGraphic" in2="effect1_dropShadow_1189_629" result="shape"/>
</filter>
</defs>
</svg>
