<svg width="135" height="128" viewBox="0 0 135 128" fill="none" xmlns="http://www.w3.org/2000/svg">
<g filter="url(#filter0_d_1256_14)">
<path d="M131.169 63.5845L99.1688 119.01L35.1688 119.01L3.16884 63.5845L35.1688 8.15884L99.1688 8.15885L131.169 63.5845Z" fill="#401127"/>
<path d="M97.7255 10.6588L128.282 63.5845L97.7255 116.51L36.6122 116.51L6.05558 63.5845L36.6122 10.6588L97.7255 10.6588Z" stroke="#FEC631" stroke-width="5" stroke-miterlimit="1.36733" stroke-linecap="round"/>
</g>
<g filter="url(#filter1_d_1256_14)">
<path d="M67.6913 47.825L48.1675 68.5033V90.8212C48.1675 91.399 48.346 91.9532 48.6637 92.3618C48.9815 92.7705 49.4124 93 49.8618 93L61.7283 92.9605C62.1762 92.9576 62.605 92.7268 62.9209 92.3185C63.2368 91.9102 63.4142 91.3577 63.4142 90.7817V77.7483C63.4142 77.1704 63.5927 76.6163 63.9104 76.2076C64.2282 75.799 64.6591 75.5695 65.1085 75.5695H71.8857C72.3351 75.5695 72.7661 75.799 73.0838 76.2076C73.4016 76.6163 73.5801 77.1704 73.5801 77.7483V90.7722C73.5794 91.0589 73.6227 91.3429 73.7075 91.6081C73.7923 91.8732 73.917 92.1142 74.0744 92.3172C74.2318 92.5203 74.4189 92.6814 74.6248 92.7913C74.8307 92.9012 75.0514 92.9578 75.2744 92.9578L87.1367 93C87.586 93 88.017 92.7705 88.3348 92.3618C88.6525 91.9532 88.831 91.399 88.831 90.8212V68.4883L69.3114 47.825C69.082 47.5871 68.7961 47.4574 68.5014 47.4574C68.2066 47.4574 67.9207 47.5871 67.6913 47.825ZM98.531 61.8797L89.6782 52.4958V33.6341C89.6782 33.2007 89.5443 32.7851 89.306 32.4786C89.0677 32.1722 88.7444 32 88.4074 32H82.4773C82.1403 32 81.8171 32.1722 81.5788 32.4786C81.3405 32.7851 81.2066 33.2007 81.2066 33.6341V43.5218L71.7258 33.4911C70.816 32.5283 69.6743 32.0019 68.4961 32.0019C67.3178 32.0019 66.1761 32.5283 65.2663 33.4911L38.4612 61.8797C38.3325 62.0165 38.226 62.1845 38.1479 62.3742C38.0697 62.5639 38.0214 62.7715 38.0057 62.9853C37.9899 63.199 38.0071 63.4146 38.0562 63.6198C38.1053 63.825 38.1853 64.0157 38.2917 64.1811L40.9921 68.4025C41.0982 68.5685 41.2287 68.7059 41.3762 68.8069C41.5237 68.9079 41.6853 68.9705 41.8516 68.9912C42.0179 69.0118 42.1858 68.99 42.3456 68.9271C42.5053 68.8642 42.6539 68.7614 42.7827 68.6245L67.6913 42.2418C67.9207 42.0039 68.2066 41.8742 68.5014 41.8742C68.7961 41.8742 69.082 42.0039 69.3114 42.2418L94.221 68.6245C94.3497 68.7614 94.498 68.8643 94.6575 68.9274C94.8171 68.9906 94.9848 69.0126 95.151 68.9924C95.3172 68.9722 95.4786 68.91 95.6261 68.8095C95.7736 68.709 95.9043 68.5721 96.0107 68.4066L98.711 64.1852C98.8173 64.0188 98.897 63.8271 98.9455 63.621C98.994 63.4149 99.0104 63.1986 98.9936 62.9843C98.9769 62.7701 98.9274 62.5622 98.848 62.3726C98.7686 62.1831 98.6609 62.0156 98.531 61.8797Z" fill="#FEC631"/>
</g>
<defs>
<filter id="filter0_d_1256_14" x="0.168839" y="8.15894" width="134" height="116.851" filterUnits="userSpaceOnUse" color-interpolation-filters="sRGB">
<feFlood flood-opacity="0" result="BackgroundImageFix"/>
<feColorMatrix in="SourceAlpha" type="matrix" values="0 0 0 0 0 0 0 0 0 0 0 0 0 0 0 0 0 0 127 0" result="hardAlpha"/>
<feOffset dy="3"/>
<feGaussianBlur stdDeviation="1.5"/>
<feComposite in2="hardAlpha" operator="out"/>
<feColorMatrix type="matrix" values="0 0 0 0 0 0 0 0 0 0 0 0 0 0 0 0 0 0 0.25 0"/>
<feBlend mode="normal" in2="BackgroundImageFix" result="effect1_dropShadow_1256_14"/>
<feBlend mode="normal" in="SourceGraphic" in2="effect1_dropShadow_1256_14" result="shape"/>
</filter>
<filter id="filter1_d_1256_14" x="20" y="17" width="94" height="94" filterUnits="userSpaceOnUse" color-interpolation-filters="sRGB">
<feFlood flood-opacity="0" result="BackgroundImageFix"/>
<feColorMatrix in="SourceAlpha" type="matrix" values="0 0 0 0 0 0 0 0 0 0 0 0 0 0 0 0 0 0 127 0" result="hardAlpha"/>
<feOffset/>
<feGaussianBlur stdDeviation="7.5"/>
<feColorMatrix type="matrix" values="0 0 0 0 1 0 0 0 0 0.996078 0 0 0 0 0.909804 0 0 0 0.5 0"/>
<feBlend mode="normal" in2="BackgroundImageFix" result="effect1_dropShadow_1256_14"/>
<feBlend mode="normal" in="SourceGraphic" in2="effect1_dropShadow_1256_14" result="shape"/>
</filter>
</defs>
</svg>
