<svg width="477" height="111" viewBox="0 0 477 111" fill="none" xmlns="http://www.w3.org/2000/svg">
<path d="M34.1854 57.2141L34.8525 56.0132L34.1965 54.8062L11.204 12.5H443.694L473.944 55.9842L443.71 98.5H11.2487L34.1854 57.2141Z" fill="#401127" stroke="#8F1B42" stroke-width="5"/>
<g filter="url(#filter0_d_1189_652)">
<path d="M226.949 73.432L224.261 69.112C223.536 67.896 222.352 67.288 220.709 67.288C218.618 67.288 216.794 66.8187 215.237 65.88C213.701 64.92 212.506 63.576 211.653 61.848C210.821 60.12 210.405 58.072 210.405 55.704C210.405 53.336 210.821 51.288 211.653 49.56C212.485 47.832 213.669 46.4987 215.205 45.56C216.762 44.6213 218.597 44.152 220.709 44.152C222.842 44.152 224.677 44.6213 226.213 45.56C227.77 46.4987 228.965 47.832 229.797 49.56C230.65 51.2667 231.077 53.304 231.077 55.672C231.077 58.424 230.512 60.7493 229.381 62.648C228.25 64.5253 226.682 65.848 224.677 66.616C225.53 66.8933 226.309 67.6293 227.013 68.824L229.157 72.28L226.949 73.432ZM220.709 64.952C223.12 64.952 224.986 64.1413 226.309 62.52C227.632 60.8987 228.293 58.6267 228.293 55.704C228.293 52.7813 227.632 50.52 226.309 48.92C224.986 47.2987 223.12 46.488 220.709 46.488C218.341 46.488 216.496 47.2987 215.173 48.92C213.85 50.52 213.189 52.7813 213.189 55.704C213.189 58.6053 213.85 60.8773 215.173 62.52C216.496 64.1413 218.341 64.952 220.709 64.952ZM240.92 67.288C237.187 67.288 235.32 65.2293 235.32 61.112V51.448H237.912V61.08C237.912 62.4667 238.19 63.4907 238.744 64.152C239.32 64.8133 240.216 65.144 241.432 65.144C242.755 65.144 243.832 64.7067 244.664 63.832C245.496 62.936 245.912 61.752 245.912 60.28V51.448H248.504V67H245.976V64.376C245.486 65.3147 244.792 66.04 243.896 66.552C243.022 67.0427 242.03 67.288 240.92 67.288ZM253.034 47.576V44.664H256.234V47.576H253.034ZM253.354 67V51.448H255.946V67H253.354ZM267.031 67.288C265.197 67.288 263.821 66.808 262.903 65.848C261.986 64.8667 261.527 63.4587 261.527 61.624V53.464H258.487V51.448H261.527V46.68H264.119V51.448H269.047V53.464H264.119V61.368C264.119 62.584 264.375 63.512 264.887 64.152C265.399 64.7707 266.231 65.08 267.383 65.08C267.725 65.08 268.066 65.0373 268.407 64.952C268.749 64.8667 269.058 64.7813 269.335 64.696L269.783 66.68C269.506 66.8293 269.101 66.968 268.567 67.096C268.034 67.224 267.522 67.288 267.031 67.288Z" fill="#FFFEE8"/>
</g>
<defs>
<filter id="filter0_d_1189_652" x="195.405" y="29.1521" width="89.3782" height="59.2798" filterUnits="userSpaceOnUse" color-interpolation-filters="sRGB">
<feFlood flood-opacity="0" result="BackgroundImageFix"/>
<feColorMatrix in="SourceAlpha" type="matrix" values="0 0 0 0 0 0 0 0 0 0 0 0 0 0 0 0 0 0 127 0" result="hardAlpha"/>
<feOffset/>
<feGaussianBlur stdDeviation="7.5"/>
<feComposite in2="hardAlpha" operator="out"/>
<feColorMatrix type="matrix" values="0 0 0 0 1 0 0 0 0 0.996078 0 0 0 0 0.909804 0 0 0 0.5 0"/>
<feBlend mode="normal" in2="BackgroundImageFix" result="effect1_dropShadow_1189_652"/>
<feBlend mode="normal" in="SourceGraphic" in2="effect1_dropShadow_1189_652" result="shape"/>
</filter>
</defs>
</svg>
