<svg width="477" height="111" viewBox="0 0 477 111" fill="none" xmlns="http://www.w3.org/2000/svg">
<path d="M34.1854 57.2141L34.8526 56.0132L34.1966 54.8062L11.2041 12.5H443.694L473.944 55.9842L443.71 98.5H11.2488L34.1854 57.2141Z" fill="#401127" stroke="#8F1B42" stroke-width="5"/>
<g filter="url(#filter0_d_1181_569)">
<path d="M103.831 67V44.44H112.759C115.191 44.44 117.047 45.0053 118.327 46.136C119.628 47.2667 120.279 48.8773 120.279 50.968C120.279 52.632 119.82 53.9973 118.903 55.064C118.007 56.1307 116.727 56.824 115.063 57.144C116.044 57.4853 116.887 58.3173 117.591 59.64L121.559 67H118.679L114.775 59.768C114.284 58.872 113.719 58.264 113.079 57.944C112.439 57.624 111.596 57.464 110.551 57.464H106.455V67H103.831ZM106.455 55.384H112.375C115.916 55.384 117.687 53.912 117.687 50.968C117.687 48.0667 115.916 46.616 112.375 46.616H106.455V55.384ZM131.549 67.288C129.096 67.288 127.155 66.5733 125.725 65.144C124.296 63.6933 123.581 61.7307 123.581 59.256C123.581 57.656 123.901 56.248 124.541 55.032C125.181 53.7947 126.056 52.8453 127.165 52.184C128.296 51.5013 129.597 51.16 131.069 51.16C133.181 51.16 134.835 51.8427 136.029 53.208C137.224 54.552 137.821 56.408 137.821 58.776V59.768H126.109C126.195 61.5387 126.707 62.8933 127.645 63.832C128.584 64.7493 129.885 65.208 131.549 65.208C132.488 65.208 133.384 65.0693 134.237 64.792C135.091 64.4933 135.901 64.0133 136.669 63.352L137.565 65.176C136.861 65.8373 135.965 66.36 134.877 66.744C133.789 67.1067 132.68 67.288 131.549 67.288ZM131.133 53.08C129.661 53.08 128.499 53.5387 127.645 54.456C126.792 55.3733 126.291 56.5787 126.141 58.072H135.581C135.517 56.4933 135.101 55.2667 134.333 54.392C133.587 53.5173 132.52 53.08 131.133 53.08ZM147.813 67.288C145.978 67.288 144.602 66.808 143.685 65.848C142.767 64.8667 142.309 63.4587 142.309 61.624V53.464H139.269V51.448H142.309V46.68H144.901V51.448H149.829V53.464H144.901V61.368C144.901 62.584 145.157 63.512 145.669 64.152C146.181 64.7707 147.013 65.08 148.165 65.08C148.506 65.08 148.847 65.0373 149.189 64.952C149.53 64.8667 149.839 64.7813 150.117 64.696L150.565 66.68C150.287 66.8293 149.882 66.968 149.349 67.096C148.815 67.224 148.303 67.288 147.813 67.288ZM158.264 67.288C154.531 67.288 152.664 65.2293 152.664 61.112V51.448H155.256V61.08C155.256 62.4667 155.533 63.4907 156.088 64.152C156.664 64.8133 157.56 65.144 158.776 65.144C160.099 65.144 161.176 64.7067 162.008 63.832C162.84 62.936 163.256 61.752 163.256 60.28V51.448H165.848V67H163.32V64.376C162.829 65.3147 162.136 66.04 161.24 66.552C160.365 67.0427 159.373 67.288 158.264 67.288ZM170.698 67V51.448H173.226V54.232C174.058 52.3547 175.764 51.32 178.346 51.128L179.274 51.032L179.466 53.272L177.834 53.464C176.362 53.592 175.242 54.0613 174.474 54.872C173.706 55.6613 173.322 56.7493 173.322 58.136V67H170.698ZM182.166 67V51.448H184.694V54.104C185.206 53.1227 185.932 52.3867 186.87 51.896C187.809 51.4053 188.865 51.16 190.038 51.16C193.729 51.16 195.574 53.208 195.574 57.304V67H192.982V57.464C192.982 56.0133 192.694 54.9573 192.118 54.296C191.564 53.6133 190.668 53.272 189.43 53.272C188.001 53.272 186.86 53.72 186.006 54.616C185.174 55.4907 184.758 56.664 184.758 58.136V67H182.166ZM214.813 67.288C212.978 67.288 211.602 66.808 210.685 65.848C209.767 64.8667 209.309 63.4587 209.309 61.624V53.464H206.269V51.448H209.309V46.68H211.901V51.448H216.829V53.464H211.901V61.368C211.901 62.584 212.157 63.512 212.669 64.152C213.181 64.7707 214.013 65.08 215.165 65.08C215.506 65.08 215.847 65.0373 216.189 64.952C216.53 64.8667 216.839 64.7813 217.117 64.696L217.565 66.68C217.287 66.8293 216.882 66.968 216.349 67.096C215.815 67.224 215.303 67.288 214.813 67.288ZM226.068 67.288C224.553 67.288 223.241 66.9573 222.132 66.296C221.023 65.6347 220.159 64.7067 219.54 63.512C218.943 62.296 218.644 60.8667 218.644 59.224C218.644 57.5813 218.943 56.1627 219.54 54.968C220.159 53.752 221.023 52.8133 222.132 52.152C223.241 51.4907 224.553 51.16 226.068 51.16C227.561 51.16 228.863 51.4907 229.972 52.152C231.103 52.8133 231.967 53.752 232.564 54.968C233.183 56.1627 233.492 57.5813 233.492 59.224C233.492 60.8667 233.183 62.296 232.564 63.512C231.967 64.7067 231.103 65.6347 229.972 66.296C228.863 66.9573 227.561 67.288 226.068 67.288ZM226.068 65.208C227.519 65.208 228.681 64.696 229.556 63.672C230.431 62.6267 230.868 61.144 230.868 59.224C230.868 57.2827 230.431 55.8 229.556 54.776C228.681 53.752 227.519 53.24 226.068 53.24C224.596 53.24 223.423 53.752 222.548 54.776C221.695 55.8 221.268 57.2827 221.268 59.224C221.268 61.144 221.695 62.6267 222.548 63.672C223.423 64.696 224.596 65.208 226.068 65.208ZM251.844 67.288C250.009 67.288 248.633 66.808 247.716 65.848C246.799 64.8667 246.34 63.4587 246.34 61.624V53.464H243.3V51.448H246.34V46.68H248.932V51.448H253.86V53.464H248.932V61.368C248.932 62.584 249.188 63.512 249.7 64.152C250.212 64.7707 251.044 65.08 252.196 65.08C252.537 65.08 252.879 65.0373 253.22 64.952C253.561 64.8667 253.871 64.7813 254.148 64.696L254.596 66.68C254.319 66.8293 253.913 66.968 253.38 67.096C252.847 67.224 252.335 67.288 251.844 67.288ZM256.791 67V44.44H259.383V54.008C259.895 53.0693 260.61 52.3653 261.527 51.896C262.466 51.4053 263.511 51.16 264.663 51.16C268.354 51.16 270.199 53.208 270.199 57.304V67H267.607V57.464C267.607 56.0133 267.319 54.9573 266.743 54.296C266.189 53.6133 265.293 53.272 264.055 53.272C262.626 53.272 261.485 53.72 260.631 54.616C259.799 55.4907 259.383 56.664 259.383 58.136V67H256.791ZM281.987 67.288C279.534 67.288 277.592 66.5733 276.163 65.144C274.734 63.6933 274.019 61.7307 274.019 59.256C274.019 57.656 274.339 56.248 274.979 55.032C275.619 53.7947 276.494 52.8453 277.603 52.184C278.734 51.5013 280.035 51.16 281.507 51.16C283.619 51.16 285.272 51.8427 286.467 53.208C287.662 54.552 288.259 56.408 288.259 58.776V59.768H276.547C276.632 61.5387 277.144 62.8933 278.083 63.832C279.022 64.7493 280.323 65.208 281.987 65.208C282.926 65.208 283.822 65.0693 284.675 64.792C285.528 64.4933 286.339 64.0133 287.107 63.352L288.003 65.176C287.299 65.8373 286.403 66.36 285.315 66.744C284.227 67.1067 283.118 67.288 281.987 67.288ZM281.571 53.08C280.099 53.08 278.936 53.5387 278.083 54.456C277.23 55.3733 276.728 56.5787 276.579 58.072H286.019C285.955 56.4933 285.539 55.2667 284.771 54.392C284.024 53.5173 282.958 53.08 281.571 53.08ZM307.109 73.048C305.765 73.048 304.496 72.8667 303.301 72.504C302.128 72.1627 301.082 71.64 300.165 70.936L301.029 69.048C301.989 69.7307 302.938 70.2213 303.877 70.52C304.837 70.8187 305.872 70.968 306.981 70.968C310.053 70.968 311.589 69.3893 311.589 66.232V63.48C311.141 64.4613 310.437 65.24 309.477 65.816C308.538 66.3707 307.461 66.648 306.245 66.648C304.816 66.648 303.578 66.3173 302.533 65.656C301.488 64.9947 300.677 64.088 300.101 62.936C299.546 61.7627 299.269 60.408 299.269 58.872C299.269 57.336 299.546 55.992 300.101 54.84C300.677 53.6667 301.488 52.76 302.533 52.12C303.578 51.48 304.816 51.16 306.245 51.16C307.461 51.16 308.538 51.4373 309.477 51.992C310.437 52.5467 311.141 53.304 311.589 54.264V51.448H314.117V65.88C314.117 68.2693 313.52 70.0613 312.325 71.256C311.152 72.4507 309.413 73.048 307.109 73.048ZM306.725 64.536C308.218 64.536 309.402 64.024 310.277 63C311.152 61.976 311.589 60.6 311.589 58.872C311.589 57.144 311.152 55.7787 310.277 54.776C309.402 53.752 308.218 53.24 306.725 53.24C305.253 53.24 304.08 53.752 303.205 54.776C302.33 55.7787 301.893 57.144 301.893 58.872C301.893 60.6 302.33 61.976 303.205 63C304.08 64.024 305.253 64.536 306.725 64.536ZM323.875 67.288C322.808 67.288 321.848 67.0853 320.995 66.68C320.163 66.2533 319.502 65.6773 319.011 64.952C318.52 64.2267 318.275 63.416 318.275 62.52C318.275 61.3893 318.563 60.4933 319.139 59.832C319.736 59.1707 320.707 58.7013 322.051 58.424C323.416 58.1253 325.272 57.976 327.619 57.976H328.643V56.984C328.643 55.6613 328.366 54.712 327.811 54.136C327.278 53.5387 326.414 53.24 325.219 53.24C324.28 53.24 323.374 53.3787 322.499 53.656C321.624 53.912 320.728 54.3387 319.811 54.936L318.915 53.048C319.726 52.472 320.707 52.0133 321.859 51.672C323.032 51.3307 324.152 51.16 325.219 51.16C327.224 51.16 328.707 51.6507 329.667 52.632C330.648 53.6133 331.139 55.1387 331.139 57.208V67H328.707V64.312C328.302 65.2293 327.672 65.9547 326.819 66.488C325.987 67.0213 325.006 67.288 323.875 67.288ZM324.291 65.336C325.571 65.336 326.616 64.8987 327.427 64.024C328.238 63.128 328.643 61.9973 328.643 60.632V59.672H327.651C325.923 59.672 324.558 59.7573 323.555 59.928C322.574 60.0773 321.88 60.3547 321.475 60.76C321.091 61.144 320.899 61.6773 320.899 62.36C320.899 63.2347 321.198 63.9493 321.795 64.504C322.414 65.0587 323.246 65.336 324.291 65.336ZM336.012 67V51.448H338.54V54.072C339.009 53.1333 339.66 52.4187 340.492 51.928C341.324 51.416 342.294 51.16 343.404 51.16C345.836 51.16 347.393 52.216 348.076 54.328C348.545 53.3467 349.238 52.5787 350.156 52.024C351.073 51.448 352.129 51.16 353.324 51.16C356.78 51.16 358.508 53.208 358.508 57.304V67H355.916V57.432C355.916 56.0027 355.66 54.9573 355.148 54.296C354.657 53.6133 353.836 53.272 352.684 53.272C351.425 53.272 350.422 53.72 349.676 54.616C348.929 55.512 348.556 56.7067 348.556 58.2V67H345.964V57.432C345.964 56.0027 345.708 54.9573 345.196 54.296C344.705 53.6133 343.884 53.272 342.732 53.272C341.452 53.272 340.438 53.72 339.692 54.616C338.966 55.512 338.604 56.7067 338.604 58.2V67H336.012ZM370.362 67.288C367.909 67.288 365.967 66.5733 364.538 65.144C363.109 63.6933 362.394 61.7307 362.394 59.256C362.394 57.656 362.714 56.248 363.354 55.032C363.994 53.7947 364.869 52.8453 365.978 52.184C367.109 51.5013 368.41 51.16 369.882 51.16C371.994 51.16 373.647 51.8427 374.842 53.208C376.037 54.552 376.634 56.408 376.634 58.776V59.768H364.922C365.007 61.5387 365.519 62.8933 366.458 63.832C367.397 64.7493 368.698 65.208 370.362 65.208C371.301 65.208 372.197 65.0693 373.05 64.792C373.903 64.4933 374.714 64.0133 375.482 63.352L376.378 65.176C375.674 65.8373 374.778 66.36 373.69 66.744C372.602 67.1067 371.493 67.288 370.362 67.288ZM369.946 53.08C368.474 53.08 367.311 53.5387 366.458 54.456C365.605 55.3733 365.103 56.5787 364.954 58.072H374.394C374.33 56.4933 373.914 55.2667 373.146 54.392C372.399 53.5173 371.333 53.08 369.946 53.08Z" fill="#FFFEE8"/>
</g>
<defs>
<filter id="filter0_d_1181_569" x="88.8309" y="29.4399" width="302.803" height="58.6082" filterUnits="userSpaceOnUse" color-interpolation-filters="sRGB">
<feFlood flood-opacity="0" result="BackgroundImageFix"/>
<feColorMatrix in="SourceAlpha" type="matrix" values="0 0 0 0 0 0 0 0 0 0 0 0 0 0 0 0 0 0 127 0" result="hardAlpha"/>
<feOffset/>
<feGaussianBlur stdDeviation="7.5"/>
<feComposite in2="hardAlpha" operator="out"/>
<feColorMatrix type="matrix" values="0 0 0 0 1 0 0 0 0 0.996078 0 0 0 0 0.909804 0 0 0 0.5 0"/>
<feBlend mode="normal" in2="BackgroundImageFix" result="effect1_dropShadow_1181_569"/>
<feBlend mode="normal" in="SourceGraphic" in2="effect1_dropShadow_1181_569" result="shape"/>
</filter>
</defs>
</svg>
