<svg width="292" height="112" viewBox="0 0 292 112" fill="none" xmlns="http://www.w3.org/2000/svg">
<path d="M26.258 57.1785L26.8811 56.0128L26.2686 54.8416L4.12839 12.5L271.069 12.5L289.285 55.9893L271.083 98.5L4.17101 98.5L26.258 57.1785Z" fill="#F2CDA2" stroke="#FEC631" stroke-width="5"/>
<g filter="url(#filter0_d_1057_1572)">
<path d="M55.1746 67.0945L55.1746 44.5345L64.1986 44.5345C66.524 44.5345 68.316 45.0571 69.5746 46.1025C70.8546 47.1265 71.4946 48.5665 71.4946 50.4225C71.4946 51.6598 71.1746 52.7158 70.5346 53.5905C69.8946 54.4651 69.0093 55.1051 67.8786 55.5105C69.18 55.8518 70.1933 56.4811 70.9186 57.3985C71.6653 58.3158 72.0386 59.4785 72.0386 60.8865C72.0386 62.8918 71.388 64.4278 70.0866 65.4945C68.7853 66.5611 66.9506 67.0945 64.5826 67.0945L55.1746 67.0945ZM57.7346 54.6145L63.8146 54.6145C67.2066 54.6145 68.9026 53.2918 68.9026 50.6465C68.9026 47.9798 67.2066 46.6465 63.8146 46.6465L57.7346 46.6465L57.7346 54.6145ZM57.7346 64.9825L64.3266 64.9825C67.74 64.9825 69.4466 63.6065 69.4466 60.8545C69.4466 58.1025 67.74 56.7265 64.3266 56.7265L57.7346 56.7265L57.7346 64.9825ZM81.3436 67.3825C80.277 67.3825 79.317 67.1798 78.4636 66.7745C77.6316 66.3478 76.9703 65.7718 76.4796 65.0465C75.989 64.3211 75.7436 63.5105 75.7436 62.6145C75.7436 61.4838 76.0316 60.5878 76.6076 59.9265C77.205 59.2651 78.1756 58.7958 79.5196 58.5185C80.885 58.2198 82.741 58.0705 85.0876 58.0705L86.1116 58.0705L86.1116 57.0785C86.1116 55.7558 85.8343 54.8065 85.2796 54.2305C84.7463 53.6331 83.8823 53.3345 82.6876 53.3345C81.749 53.3345 80.8423 53.4731 79.9676 53.7505C79.093 54.0065 78.197 54.4331 77.2796 55.0305L76.3836 53.1425C77.1943 52.5665 78.1756 52.1078 79.3276 51.7665C80.501 51.4251 81.621 51.2545 82.6876 51.2545C84.693 51.2545 86.1756 51.7451 87.1356 52.7265C88.117 53.7078 88.6076 55.2331 88.6076 57.3025L88.6076 67.0945L86.1756 67.0945L86.1756 64.4065C85.7703 65.3238 85.141 66.0491 84.2876 66.5825C83.4556 67.1158 82.4743 67.3825 81.3436 67.3825ZM81.7596 65.4305C83.0396 65.4305 84.085 64.9931 84.8956 64.1185C85.7063 63.2225 86.1116 62.0918 86.1116 60.7265L86.1116 59.7665L85.1196 59.7665C83.3916 59.7665 82.0263 59.8518 81.0236 60.0225C80.0423 60.1718 79.349 60.4491 78.9436 60.8545C78.5596 61.2385 78.3676 61.7718 78.3676 62.4545C78.3676 63.3291 78.6663 64.0438 79.2636 64.5985C79.8823 65.1531 80.7143 65.4305 81.7596 65.4305ZM100.008 67.3825C98.451 67.3825 97.107 67.0518 95.9764 66.3905C94.8457 65.7078 93.971 64.7585 93.3524 63.5425C92.755 62.3051 92.4564 60.8651 92.4564 59.2225C92.4564 56.7478 93.1284 54.8065 94.4724 53.3985C95.8164 51.9691 97.6617 51.2545 100.008 51.2545C100.968 51.2545 101.918 51.4251 102.856 51.7665C103.795 52.1078 104.574 52.5878 105.192 53.2065L104.296 55.0945C103.678 54.4971 102.995 54.0598 102.248 53.7825C101.523 53.5051 100.83 53.3665 100.168 53.3665C98.547 53.3665 97.299 53.8785 96.4244 54.9025C95.5497 55.9051 95.1124 57.3558 95.1124 59.2545C95.1124 61.1105 95.5497 62.5825 96.4244 63.6705C97.299 64.7371 98.547 65.2705 100.168 65.2705C100.83 65.2705 101.523 65.1318 102.248 64.8545C102.995 64.5771 103.678 64.1291 104.296 63.5105L105.192 65.3985C104.574 66.0171 103.784 66.5078 102.824 66.8705C101.886 67.2118 100.947 67.3825 100.008 67.3825ZM108.229 67.0945L108.229 44.5345L110.821 44.5345L110.821 58.4545L110.885 58.4545L118.085 51.5425L121.381 51.5425L113.573 59.0305L122.053 67.0945L118.757 67.0945L110.885 59.7985L110.821 59.7985L110.821 67.0945L108.229 67.0945ZM138.688 67.3825C136.853 67.3825 135.477 66.9025 134.56 65.9425C133.642 64.9611 133.184 63.5531 133.184 61.7185L133.184 53.5585L130.144 53.5585L130.144 51.5425L133.184 51.5425L133.184 46.7745L135.776 46.7745L135.776 51.5425L140.704 51.5425L140.704 53.5585L135.776 53.5585L135.776 61.4625C135.776 62.6785 136.032 63.6065 136.544 64.2465C137.056 64.8651 137.888 65.1745 139.04 65.1745C139.381 65.1745 139.722 65.1318 140.064 65.0465C140.405 64.9611 140.714 64.8758 140.992 64.7905L141.44 66.7745C141.162 66.9238 140.757 67.0625 140.224 67.1905C139.69 67.3185 139.178 67.3825 138.688 67.3825ZM149.943 67.3825C148.428 67.3825 147.116 67.0518 146.007 66.3905C144.898 65.7291 144.034 64.8011 143.415 63.6065C142.818 62.3905 142.519 60.9611 142.519 59.3185C142.519 57.6758 142.818 56.2571 143.415 55.0625C144.034 53.8465 144.898 52.9078 146.007 52.2465C147.116 51.5851 148.428 51.2545 149.943 51.2545C151.436 51.2545 152.738 51.5851 153.847 52.2465C154.978 52.9078 155.842 53.8465 156.439 55.0625C157.058 56.2571 157.367 57.6758 157.367 59.3185C157.367 60.9611 157.058 62.3905 156.439 63.6065C155.842 64.8011 154.978 65.7291 153.847 66.3905C152.738 67.0518 151.436 67.3825 149.943 67.3825ZM149.943 65.3025C151.394 65.3025 152.556 64.7905 153.431 63.7665C154.306 62.7211 154.743 61.2385 154.743 59.3185C154.743 57.3771 154.306 55.8945 153.431 54.8705C152.556 53.8465 151.394 53.3345 149.943 53.3345C148.471 53.3345 147.298 53.8465 146.423 54.8705C145.57 55.8945 145.143 57.3771 145.143 59.3185C145.143 61.2385 145.57 62.7211 146.423 63.7665C147.298 64.7905 148.471 65.3025 149.943 65.3025ZM169.543 67.0945L169.543 51.5425L172.071 51.5425L172.071 54.1665C172.54 53.2278 173.191 52.5131 174.023 52.0225C174.855 51.5105 175.826 51.2545 176.935 51.2545C179.367 51.2545 180.924 52.3105 181.607 54.4225C182.076 53.4411 182.77 52.6731 183.687 52.1185C184.604 51.5425 185.66 51.2545 186.855 51.2545C190.311 51.2545 192.039 53.3025 192.039 57.3985L192.039 67.0945L189.447 67.0945L189.447 57.5265C189.447 56.0971 189.191 55.0518 188.679 54.3905C188.188 53.7078 187.367 53.3665 186.215 53.3665C184.956 53.3665 183.954 53.8145 183.207 54.7105C182.46 55.6065 182.087 56.8011 182.087 58.2945L182.087 67.0945L179.495 67.0945L179.495 57.5265C179.495 56.0971 179.239 55.0518 178.727 54.3905C178.236 53.7078 177.415 53.3665 176.263 53.3665C174.983 53.3665 173.97 53.8145 173.223 54.7105C172.498 55.6065 172.135 56.8011 172.135 58.2945L172.135 67.0945L169.543 67.0945ZM203.893 67.3825C201.44 67.3825 199.498 66.6678 198.069 65.2385C196.64 63.7878 195.925 61.8251 195.925 59.3505C195.925 57.7505 196.245 56.3425 196.885 55.1265C197.525 53.8891 198.4 52.9398 199.509 52.2785C200.64 51.5958 201.941 51.2545 203.413 51.2545C205.525 51.2545 207.178 51.9371 208.373 53.3025C209.568 54.6465 210.165 56.5025 210.165 58.8705L210.165 59.8625L198.453 59.8625C198.538 61.6331 199.05 62.9878 199.989 63.9265C200.928 64.8438 202.229 65.3025 203.893 65.3025C204.832 65.3025 205.728 65.1638 206.581 64.8865C207.434 64.5878 208.245 64.1078 209.013 63.4465L209.909 65.2705C209.205 65.9318 208.309 66.4545 207.221 66.8385C206.133 67.2011 205.024 67.3825 203.893 67.3825ZM203.477 53.1745C202.005 53.1745 200.842 53.6331 199.989 54.5505C199.136 55.4678 198.634 56.6731 198.485 58.1665L207.925 58.1665C207.861 56.5878 207.445 55.3611 206.677 54.4865C205.93 53.6118 204.864 53.1745 203.477 53.1745ZM213.916 67.0945L213.916 51.5425L216.444 51.5425L216.444 54.1985C216.956 53.2171 217.682 52.4811 218.62 51.9905C219.559 51.4998 220.615 51.2545 221.788 51.2545C225.479 51.2545 227.324 53.3025 227.324 57.3985L227.324 67.0945L224.732 67.0945L224.732 57.5585C224.732 56.1078 224.444 55.0518 223.868 54.3905C223.314 53.7078 222.418 53.3665 221.18 53.3665C219.751 53.3665 218.61 53.8145 217.756 54.7105C216.924 55.5851 216.508 56.7585 216.508 58.2305L216.508 67.0945L213.916 67.0945ZM237.608 67.3825C233.875 67.3825 232.008 65.3238 232.008 61.2065L232.008 51.5425L234.6 51.5425L234.6 61.1745C234.6 62.5611 234.877 63.5851 235.432 64.2465C236.008 64.9078 236.904 65.2385 238.12 65.2385C239.443 65.2385 240.52 64.8011 241.352 63.9265C242.184 63.0305 242.6 61.8465 242.6 60.3745L242.6 51.5425L245.192 51.5425L245.192 67.0945L242.664 67.0945L242.664 64.4705C242.173 65.4091 241.48 66.1345 240.584 66.6465C239.709 67.1371 238.717 67.3825 237.608 67.3825Z" fill="#FFFEE8"/>
</g>
<defs>
<filter id="filter0_d_1057_1572" x="40.1746" y="29.5345" width="220.017" height="52.848" filterUnits="userSpaceOnUse" color-interpolation-filters="sRGB">
<feFlood flood-opacity="0" result="BackgroundImageFix"/>
<feColorMatrix in="SourceAlpha" type="matrix" values="0 0 0 0 0 0 0 0 0 0 0 0 0 0 0 0 0 0 127 0" result="hardAlpha"/>
<feOffset/>
<feGaussianBlur stdDeviation="7.5"/>
<feComposite in2="hardAlpha" operator="out"/>
<feColorMatrix type="matrix" values="0 0 0 0 1 0 0 0 0 0.996078 0 0 0 0 0.909804 0 0 0 0.5 0"/>
<feBlend mode="normal" in2="BackgroundImageFix" result="effect1_dropShadow_1057_1572"/>
<feBlend mode="normal" in="SourceGraphic" in2="effect1_dropShadow_1057_1572" result="shape"/>
</filter>
</defs>
</svg>
