<svg width="295" height="112" viewBox="0 0 295 112" fill="none" xmlns="http://www.w3.org/2000/svg">
<path d="M265.794 57.2705L265.052 56.0139L265.782 54.7502L290.17 12.5L20.9314 12.5L2.715 55.9893L20.9172 98.5L290.122 98.5L265.794 57.2705Z" fill="#85576C" stroke="#FFFEE8" stroke-width="5"/>
<g filter="url(#filter0_d_1057_1578)">
<path d="M84.7106 67.0944L84.7106 46.8064L76.5186 46.8064L76.5186 44.5344L95.5586 44.5344L95.5586 46.8064L87.3666 46.8064L87.3666 67.0944L84.7106 67.0944ZM95.6351 67.0944L95.6351 51.5424L98.1631 51.5424L98.1631 54.3264C98.9951 52.4491 100.702 51.4144 103.283 51.2224L104.211 51.1264L104.403 53.3664L102.771 53.5584C101.299 53.6864 100.179 54.1558 99.4111 54.9664C98.6431 55.7558 98.2591 56.8438 98.2591 58.2304L98.2591 67.0944L95.6351 67.0944ZM109.865 72.8544L112.521 66.8384L105.961 51.5424L108.777 51.5424L113.929 64.1504L119.113 51.5424L121.833 51.5424L112.585 72.8544L109.865 72.8544ZM137.625 67.3824C136.558 67.3824 135.598 67.1798 134.745 66.7744C133.913 66.3478 133.252 65.7718 132.761 65.0464C132.27 64.3211 132.025 63.5104 132.025 62.6144C132.025 61.4838 132.313 60.5878 132.889 59.9264C133.486 59.2651 134.457 58.7958 135.801 58.5184C137.166 58.2198 139.022 58.0704 141.369 58.0704L142.393 58.0704L142.393 57.0784C142.393 55.7558 142.116 54.8064 141.561 54.2304C141.028 53.6331 140.164 53.3344 138.969 53.3344C138.03 53.3344 137.124 53.4731 136.249 53.7504C135.374 54.0064 134.478 54.4331 133.561 55.0304L132.665 53.1424C133.476 52.5664 134.457 52.1078 135.609 51.7664C136.782 51.4251 137.902 51.2544 138.969 51.2544C140.974 51.2544 142.457 51.7451 143.417 52.7264C144.398 53.7078 144.889 55.2331 144.889 57.3024L144.889 67.0944L142.457 67.0944L142.457 64.4064C142.052 65.3238 141.422 66.0491 140.569 66.5824C139.737 67.1158 138.756 67.3824 137.625 67.3824ZM138.041 65.4304C139.321 65.4304 140.366 64.9931 141.177 64.1184C141.988 63.2224 142.393 62.0918 142.393 60.7264L142.393 59.7664L141.401 59.7664C139.673 59.7664 138.308 59.8518 137.305 60.0224C136.324 60.1718 135.63 60.4491 135.225 60.8544C134.841 61.2384 134.649 61.7718 134.649 62.4544C134.649 63.3291 134.948 64.0438 135.545 64.5984C136.164 65.1531 136.996 65.4304 138.041 65.4304ZM156.578 73.1424C155.234 73.1424 153.964 72.9611 152.77 72.5984C151.596 72.2571 150.551 71.7344 149.634 71.0304L150.498 69.1424C151.458 69.8251 152.407 70.3158 153.346 70.6144C154.306 70.9131 155.34 71.0624 156.45 71.0624C159.522 71.0624 161.058 69.4838 161.058 66.3264L161.058 63.5744C160.61 64.5558 159.906 65.3344 158.946 65.9104C158.007 66.4651 156.93 66.7424 155.714 66.7424C154.284 66.7424 153.047 66.4118 152.002 65.7504C150.956 65.0891 150.146 64.1824 149.57 63.0304C149.015 61.8571 148.738 60.5024 148.738 58.9664C148.738 57.4304 149.015 56.0864 149.57 54.9344C150.146 53.7611 150.956 52.8544 152.002 52.2144C153.047 51.5744 154.284 51.2544 155.714 51.2544C156.93 51.2544 158.007 51.5318 158.946 52.0864C159.906 52.6411 160.61 53.3984 161.058 54.3584L161.058 51.5424L163.586 51.5424L163.586 65.9744C163.586 68.3638 162.988 70.1558 161.794 71.3504C160.62 72.5451 158.882 73.1424 156.578 73.1424ZM156.194 64.6304C157.687 64.6304 158.871 64.1184 159.746 63.0944C160.62 62.0704 161.058 60.6944 161.058 58.9664C161.058 57.2384 160.62 55.8731 159.746 54.8704C158.871 53.8464 157.687 53.3344 156.194 53.3344C154.722 53.3344 153.548 53.8464 152.674 54.8704C151.799 55.8731 151.362 57.2384 151.362 58.9664C151.362 60.6944 151.799 62.0704 152.674 63.0944C153.548 64.1184 154.722 64.6304 156.194 64.6304ZM173.344 67.3824C172.277 67.3824 171.317 67.1798 170.464 66.7744C169.632 66.3478 168.97 65.7718 168.48 65.0464C167.989 64.3211 167.744 63.5104 167.744 62.6144C167.744 61.4838 168.032 60.5878 168.608 59.9264C169.205 59.2651 170.176 58.7958 171.52 58.5184C172.885 58.2198 174.741 58.0704 177.088 58.0704L178.112 58.0704L178.112 57.0784C178.112 55.7558 177.834 54.8064 177.28 54.2304C176.746 53.6331 175.882 53.3344 174.688 53.3344C173.749 53.3344 172.842 53.4731 171.968 53.7504C171.093 54.0064 170.197 54.4331 169.28 55.0304L168.384 53.1424C169.194 52.5664 170.176 52.1078 171.328 51.7664C172.501 51.4251 173.621 51.2544 174.688 51.2544C176.693 51.2544 178.176 51.7451 179.136 52.7264C180.117 53.7078 180.608 55.2331 180.608 57.3024L180.608 67.0944L178.176 67.0944L178.176 64.4064C177.77 65.3238 177.141 66.0491 176.288 66.5824C175.456 67.1158 174.474 67.3824 173.344 67.3824ZM173.76 65.4304C175.04 65.4304 176.085 64.9931 176.896 64.1184C177.706 63.2224 178.112 62.0918 178.112 60.7264L178.112 59.7664L177.12 59.7664C175.392 59.7664 174.026 59.8518 173.024 60.0224C172.042 60.1718 171.349 60.4491 170.944 60.8544C170.56 61.2384 170.368 61.7718 170.368 62.4544C170.368 63.3291 170.666 64.0438 171.264 64.5984C171.882 65.1531 172.714 65.4304 173.76 65.4304ZM185.096 47.6704L185.096 44.7584L188.296 44.7584L188.296 47.6704L185.096 47.6704ZM185.416 67.0944L185.416 51.5424L188.008 51.5424L188.008 67.0944L185.416 67.0944ZM192.854 67.0944L192.854 51.5424L195.382 51.5424L195.382 54.1984C195.894 53.2171 196.619 52.4811 197.558 51.9904C198.497 51.4998 199.553 51.2544 200.726 51.2544C204.417 51.2544 206.262 53.3024 206.262 57.3984L206.262 67.0944L203.67 67.0944L203.67 57.5584C203.67 56.1078 203.382 55.0518 202.806 54.3904C202.251 53.7078 201.355 53.3664 200.118 53.3664C198.689 53.3664 197.547 53.8144 196.694 54.7104C195.862 55.5851 195.446 56.7584 195.446 58.2304L195.446 67.0944L192.854 67.0944Z" fill="#FFFEE8"/>
</g>
<defs>
<filter id="filter0_d_1057_1578" x="61.5186" y="29.5344" width="159.743" height="58.608" filterUnits="userSpaceOnUse" color-interpolation-filters="sRGB">
<feFlood flood-opacity="0" result="BackgroundImageFix"/>
<feColorMatrix in="SourceAlpha" type="matrix" values="0 0 0 0 0 0 0 0 0 0 0 0 0 0 0 0 0 0 127 0" result="hardAlpha"/>
<feOffset/>
<feGaussianBlur stdDeviation="7.5"/>
<feComposite in2="hardAlpha" operator="out"/>
<feColorMatrix type="matrix" values="0 0 0 0 1 0 0 0 0 0.996078 0 0 0 0 0.909804 0 0 0 0.5 0"/>
<feBlend mode="normal" in2="BackgroundImageFix" result="effect1_dropShadow_1057_1578"/>
<feBlend mode="normal" in="SourceGraphic" in2="effect1_dropShadow_1057_1578" result="shape"/>
</filter>
</defs>
</svg>
