<svg width="1213" height="793" viewBox="0 0 1213 793" fill="none" xmlns="http://www.w3.org/2000/svg">
<rect width="740.89" height="1155.04" rx="24" transform="matrix(-0.00451763 -0.99999 0.99999 -0.00454276 56.991 793.003)" fill="#8F1B42"/>
<path d="M99.5748 767.79C90.7383 767.83 83.5426 760.699 83.5027 751.863L80.528 93.4159C80.4881 84.5794 87.6191 77.3835 96.4556 77.3433L111.211 77.2763L1165.75 72.4857C1174.59 72.4456 1181.78 79.5764 1181.82 88.4129L1184.8 746.86C1184.84 755.696 1177.71 762.892 1168.87 762.932L99.5748 767.79Z" fill="#401127" fill-opacity="0.8"/>
<g style="mix-blend-mode:overlay">
<path d="M91.2391 778.131C81.298 778.176 73.2029 770.154 73.1579 760.213L70.1091 85.3353C70.0642 75.3943 78.0865 67.2989 88.0276 67.2538L101.331 67.1933L1172.96 62.3251C1182.9 62.28 1190.99 70.3022 1191.04 80.2432L1194.09 755.121C1194.13 765.062 1186.11 773.157 1176.17 773.203L91.2391 778.131Z" fill="#401127" fill-opacity="0.7"/>
</g>
<g filter="url(#filter0_d_1057_1593)">
<path d="M131.562 62.7537L99.5618 116.596L35.5618 116.596L3.56178 62.7537L35.5618 8.91098L99.5618 8.91098L131.562 62.7537Z" fill="#401127"/>
<path d="M98.1394 11.411L128.654 62.7537L98.1394 114.096L36.9842 114.096L6.46998 62.7537L36.9842 11.411L98.1394 11.411Z" stroke="#8F1B42" stroke-width="5" stroke-miterlimit="1.36733" stroke-linecap="round"/>
</g>
<g clip-path="url(#clip0_1057_1593)">
<path fill-rule="evenodd" clip-rule="evenodd" d="M89.7707 40.2866C88.5888 40.4061 87.4523 40.8051 86.455 41.4506C85.4578 42.096 84.6283 42.9694 84.0352 43.9987L84.0112 44.0402C83.5664 44.8227 83.2773 45.6534 83.1335 46.4935C83.0203 47.1695 82.186 47.5227 81.8161 46.9454C81.1298 45.8704 80.7276 44.6387 80.6472 43.3659C80.6128 42.8195 80.0777 42.4083 79.5891 42.6545C77.9794 43.4642 76.6497 44.7385 75.7723 46.3124C74.8949 47.8863 74.5101 49.6874 74.6678 51.4824C74.8255 53.2774 75.5184 54.9838 76.6568 56.3806C77.7952 57.7774 79.3267 58.8003 81.053 59.3169C82.7793 59.8336 84.6209 59.8201 86.3395 59.2782C88.058 58.7364 89.5744 57.6912 90.6922 56.2779C91.8101 54.8646 92.4779 53.1482 92.6093 51.3511C92.7407 49.5539 92.3296 47.7587 91.4293 46.1978L91.4293 46.1857C90.5589 44.6815 90.2401 42.9209 90.5279 41.207C90.6097 40.7173 90.2615 40.2374 89.7707 40.2866ZM86.1512 48.8957C86.659 49.4312 87.0273 50.0832 87.2238 50.7944C87.4204 51.5057 87.439 52.2544 87.2782 52.9745C87.1174 53.6947 86.7819 54.3643 86.3015 54.9243C85.821 55.4844 85.2103 55.9177 84.5229 56.1862C83.8356 56.4547 83.0928 56.5502 82.36 56.4641C81.6271 56.3781 80.9266 56.1132 80.3202 55.6927C79.7138 55.2723 79.22 54.7092 78.8823 54.0531C78.5447 53.397 78.3735 52.6679 78.3839 51.9301C78.3913 51.3022 79.1837 51.1898 79.6318 51.6287C80.31 52.2936 81.1361 52.7883 82.0424 53.0724C82.4653 53.204 82.8684 52.8807 82.9589 52.448C83.0903 51.8313 83.3181 51.2392 83.6341 50.6935C84.0728 49.9336 84.6527 49.3071 85.3208 48.8251C85.4441 48.7341 85.5965 48.6912 85.7492 48.7044C85.9019 48.7177 86.0453 48.7848 86.1512 48.8957Z" fill="#FFFEE8"/>
</g>
<g clip-path="url(#clip1_1057_1593)">
<path fill-rule="evenodd" clip-rule="evenodd" d="M95.3199 69.4499C96.0711 70.3701 96.5926 71.4559 96.8414 72.6174C97.0902 73.779 97.0591 74.9831 96.7507 76.1303L96.7382 76.1766C96.4995 77.0444 96.1165 77.8363 95.6241 78.5321C95.2262 79.0901 95.5664 79.9297 96.2362 79.7831C97.4816 79.5082 98.6369 78.9217 99.5938 78.0785C100.004 77.7165 100.674 77.8042 100.845 78.3237C101.411 80.0345 101.45 81.8758 100.957 83.6092C100.465 85.3425 99.4634 86.8881 98.0826 88.0459C96.7018 89.2036 95.0053 89.9203 93.2126 90.103C91.42 90.2857 89.6137 89.9261 88.0278 89.0707C86.4418 88.2153 85.1491 86.9036 84.317 85.3052C83.4849 83.7069 83.1518 81.8956 83.3608 80.1058C83.5697 78.316 84.3111 76.6301 85.4889 75.2664C86.6668 73.9027 88.2269 72.924 89.9673 72.4569L89.9758 72.4484C91.6549 72.0002 93.1253 70.9807 94.1336 69.5653C94.4221 69.1611 95.0076 69.068 95.3199 69.4499ZM91.7917 78.0968C91.0541 78.1164 90.3325 78.317 89.6906 78.6809C89.0487 79.0449 88.5062 79.5611 88.1107 80.184C87.7152 80.807 87.4789 81.5176 87.4226 82.2534C87.3663 82.9892 87.4918 83.7275 87.7879 84.4033C88.084 85.0792 88.5418 85.6719 89.1209 86.1293C89.6999 86.5866 90.3826 86.8946 91.1086 87.0262C91.8347 87.1577 92.582 87.1087 93.2847 86.8835C93.9874 86.6583 94.624 86.2638 95.1384 85.7348C95.5771 85.2855 95.0963 84.6458 94.4691 84.6392C93.5194 84.6298 92.5854 84.3955 91.7437 83.9555C91.3517 83.7495 91.2952 83.2359 91.5372 82.866C91.8803 82.337 92.1379 81.7572 92.3004 81.1479C92.5275 80.3003 92.5604 79.4473 92.4289 78.634C92.406 78.4825 92.3286 78.3444 92.2112 78.2458C92.0939 78.1472 91.945 78.0933 91.7917 78.0968Z" fill="#FFFEE8"/>
</g>
<path d="M57.591 51.8035C58.2275 51.8035 58.838 51.5506 59.2881 51.1005C59.7382 50.6504 59.991 50.04 59.991 49.4035C59.991 48.767 59.7382 48.1565 59.2881 47.7064C58.838 47.2563 58.2275 47.0035 57.591 47.0035C56.9545 47.0035 56.344 47.2563 55.894 47.7064C55.4439 48.1565 55.191 48.767 55.191 49.4035C55.191 50.04 55.4439 50.6504 55.894 51.1005C56.344 51.5506 56.9545 51.8035 57.591 51.8035ZM59.991 59.0035C59.991 59.64 59.7382 60.2504 59.2881 60.7005C58.838 61.1506 58.2275 61.4035 57.591 61.4035C56.9545 61.4035 56.344 61.1506 55.894 60.7005C55.4439 60.2504 55.191 59.64 55.191 59.0035C55.191 58.367 55.4439 57.7565 55.894 57.3064C56.344 56.8563 56.9545 56.6035 57.591 56.6035C58.2275 56.6035 58.838 56.8563 59.2881 57.3064C59.7382 57.7565 59.991 58.367 59.991 59.0035ZM57.591 71.0035C57.9062 71.0035 58.2183 70.9414 58.5095 70.8208C58.8006 70.7002 59.0652 70.5234 59.2881 70.3005C59.5109 70.0777 59.6877 69.8131 59.8083 69.5219C59.9289 69.2307 59.991 68.9186 59.991 68.6035C59.991 68.2883 59.9289 67.9762 59.8083 67.685C59.6877 67.3939 59.5109 67.1293 59.2881 66.9064C59.0652 66.6836 58.8006 66.5068 58.5095 66.3862C58.2183 66.2656 57.9062 66.2035 57.591 66.2035C56.9545 66.2035 56.344 66.4563 55.894 66.9064C55.4439 67.3565 55.191 67.967 55.191 68.6035C55.191 69.24 55.4439 69.8504 55.894 70.3005C56.344 70.7506 56.9545 71.0035 57.591 71.0035ZM69.591 49.4035C69.591 50.04 69.3382 50.6504 68.8881 51.1005C68.438 51.5506 67.8275 51.8035 67.191 51.8035C66.5545 51.8035 65.944 51.5506 65.494 51.1005C65.0439 50.6504 64.791 50.04 64.791 49.4035C64.791 48.767 65.0439 48.1565 65.494 47.7064C65.944 47.2563 66.5545 47.0035 67.191 47.0035C67.8275 47.0035 68.438 47.2563 68.8881 47.7064C69.3382 48.1565 69.591 48.767 69.591 49.4035ZM67.191 61.4035C67.8275 61.4035 68.438 61.1506 68.8881 60.7005C69.3382 60.2504 69.591 59.64 69.591 59.0035C69.591 58.367 69.3382 57.7565 68.8881 57.3064C68.438 56.8563 67.8275 56.6035 67.191 56.6035C66.5545 56.6035 65.944 56.8563 65.494 57.3064C65.0439 57.7565 64.791 58.367 64.791 59.0035C64.791 59.64 65.0439 60.2504 65.494 60.7005C65.944 61.1506 66.5545 61.4035 67.191 61.4035ZM69.591 68.6035C69.591 69.24 69.3382 69.8504 68.8881 70.3005C68.438 70.7506 67.8275 71.0035 67.191 71.0035C66.5545 71.0035 65.944 70.7506 65.494 70.3005C65.0439 69.8504 64.791 69.24 64.791 68.6035C64.791 67.967 65.0439 67.3565 65.494 66.9064C65.944 66.4563 66.5545 66.2035 67.191 66.2035C67.8275 66.2035 68.438 66.4563 68.8881 66.9064C69.3382 67.3565 69.591 67.967 69.591 68.6035ZM76.791 71.0035C77.1062 71.0035 77.4183 70.9414 77.7095 70.8208C78.0006 70.7002 78.2652 70.5234 78.4881 70.3005C78.7109 70.0777 78.8877 69.8131 79.0083 69.5219C79.1289 69.2307 79.191 68.9186 79.191 68.6035C79.191 68.2883 79.1289 67.9762 79.0083 67.685C78.8877 67.3939 78.7109 67.1293 78.4881 66.9064C78.2652 66.6836 78.0006 66.5068 77.7095 66.3862C77.4183 66.2656 77.1062 66.2035 76.791 66.2035C76.1545 66.2035 75.544 66.4563 75.094 66.9064C74.6439 67.3565 74.391 67.967 74.391 68.6035C74.391 69.24 74.6439 69.8504 75.094 70.3005C75.544 70.7506 76.1545 71.0035 76.791 71.0035ZM50.391 88.6035C49.9667 88.6035 49.5597 88.4349 49.2596 88.1348C48.9596 87.8348 48.791 87.4278 48.791 87.0035V42.2035C48.791 40.9304 49.2967 39.7095 50.1969 38.8094C51.0971 37.9092 52.318 37.4035 53.591 37.4035H72.791C74.0641 37.4035 75.285 37.9092 76.1851 38.8094C77.0853 39.7095 77.591 40.9304 77.591 42.2035V56.6035H82.391C83.6641 56.6035 84.885 57.1092 85.7851 58.0094C86.6853 58.9095 87.191 60.1304 87.191 61.4035V87.0035C87.191 87.4278 87.0224 87.8348 86.7224 88.1348C86.4223 88.4349 86.0154 88.6035 85.591 88.6035H50.391ZM51.991 42.2035V85.4035H58.391V77.4035C58.391 76.9791 58.5596 76.5722 58.8596 76.2721C59.1597 75.972 59.5667 75.8035 59.991 75.8035H75.991C76.4154 75.8035 76.8223 75.972 77.1224 76.2721C77.4224 76.5722 77.591 76.9791 77.591 77.4035V85.4035H83.991V61.4035C83.991 60.9791 83.8224 60.5722 83.5224 60.2721C83.2223 59.972 82.8154 59.8035 82.391 59.8035H75.991C75.5667 59.8035 75.1597 59.6349 74.8596 59.3348C74.5596 59.0348 74.391 58.6278 74.391 58.2035V42.2035C74.391 41.7791 74.2224 41.3722 73.9224 41.0721C73.6223 40.772 73.2154 40.6035 72.791 40.6035H53.591C53.1667 40.6035 52.7597 40.772 52.4596 41.0721C52.1596 41.3722 51.991 41.7791 51.991 42.2035ZM74.391 79.0035H69.591V85.4035H74.391V79.0035ZM66.391 79.0035H61.591V85.4035H66.391V79.0035Z" fill="#FFFEE8"/>
<g clip-path="url(#clip2_1057_1593)">
<path fill-rule="evenodd" clip-rule="evenodd" d="M41.0563 67.4499C40.3051 68.3701 39.7836 69.4559 39.5348 70.6174C39.2861 71.779 39.3172 72.9831 39.6256 74.1303L39.638 74.1766C39.8767 75.0444 40.2597 75.8363 40.7521 76.5321C41.1501 77.0901 40.8098 77.9297 40.14 77.7831C38.8946 77.5082 37.7393 76.9217 36.7824 76.0785C36.3717 75.7165 35.7026 75.8042 35.5313 76.3237C34.9655 78.0345 34.9264 79.8758 35.4188 81.6092C35.9113 83.3425 36.9128 84.8881 38.2936 86.0459C39.6744 87.2036 41.3709 87.9203 43.1636 88.103C44.9562 88.2857 46.7625 87.9261 48.3485 87.0707C49.9344 86.2153 51.2271 84.9036 52.0592 83.3052C52.8913 81.7069 53.2244 79.8956 53.0155 78.1058C52.8065 76.316 52.0651 74.6301 50.8873 73.2664C49.7094 71.9027 48.1493 70.924 46.409 70.4569L46.4005 70.4484C44.7213 70.0002 43.251 68.9807 42.2426 67.5653C41.9542 67.1611 41.3686 67.068 41.0563 67.4499ZM44.5845 76.0968C45.3222 76.1164 46.0437 76.317 46.6856 76.6809C47.3275 77.0449 47.8701 77.5611 48.2656 78.184C48.6611 78.807 48.8974 79.5176 48.9536 80.2534C49.0099 80.9892 48.8845 81.7275 48.5883 82.4033C48.2922 83.0792 47.8344 83.6719 47.2554 84.1293C46.6763 84.5866 45.9937 84.8946 45.2676 85.0262C44.5415 85.1577 43.7942 85.1087 43.0915 84.8835C42.3888 84.6583 41.7522 84.2638 41.2378 83.7348C40.7991 83.2855 41.2799 82.6458 41.9071 82.6392C42.8568 82.6298 43.7908 82.3955 44.6325 81.9555C45.0245 81.7495 45.081 81.2359 44.839 80.866C44.4959 80.337 44.2383 79.7572 44.0759 79.1479C43.8488 78.3003 43.8158 77.4473 43.9473 76.634C43.9702 76.4825 44.0476 76.3444 44.165 76.2458C44.2823 76.1472 44.4312 76.0933 44.5845 76.0968Z" fill="#FFFEE8"/>
</g>
<defs>
<filter id="filter0_d_1057_1593" x="0.561768" y="8.91098" width="134" height="113.685" filterUnits="userSpaceOnUse" color-interpolation-filters="sRGB">
<feFlood flood-opacity="0" result="BackgroundImageFix"/>
<feColorMatrix in="SourceAlpha" type="matrix" values="0 0 0 0 0 0 0 0 0 0 0 0 0 0 0 0 0 0 127 0" result="hardAlpha"/>
<feOffset dy="3"/>
<feGaussianBlur stdDeviation="1.5"/>
<feComposite in2="hardAlpha" operator="out"/>
<feColorMatrix type="matrix" values="0 0 0 0 0 0 0 0 0 0 0 0 0 0 0 0 0 0 0.25 0"/>
<feBlend mode="normal" in2="BackgroundImageFix" result="effect1_dropShadow_1057_1593"/>
<feBlend mode="normal" in="SourceGraphic" in2="effect1_dropShadow_1057_1593" result="shape"/>
</filter>
<clipPath id="clip0_1057_1593">
<rect width="24" height="24" fill="white" transform="translate(79.991 33.0035) rotate(30)"/>
</clipPath>
<clipPath id="clip1_1057_1593">
<rect width="24" height="24" fill="white" transform="matrix(-0.965926 -0.258819 -0.258819 0.965926 107.385 72.2151)"/>
</clipPath>
<clipPath id="clip2_1057_1593">
<rect width="24" height="24" fill="white" transform="translate(27.991 69.2151) rotate(-15)"/>
</clipPath>
</defs>
</svg>
