<svg width="1213" height="793" viewBox="0 0 1213 793" fill="none" xmlns="http://www.w3.org/2000/svg">
<rect width="740.89" height="1155.04" rx="24" transform="matrix(-0.00451763 -0.99999 0.99999 -0.00454276 56.991 793.003)" fill="#8F1B42"/>
<path d="M99.5748 767.79C90.7383 767.83 83.5426 760.699 83.5027 751.863L80.528 93.4158C80.4881 84.5794 87.6191 77.3834 96.4556 77.3433L111.211 77.2763L1165.75 72.4857C1174.59 72.4455 1181.78 79.5764 1181.82 88.4128L1184.8 746.86C1184.84 755.696 1177.71 762.892 1168.87 762.932L99.5748 767.79Z" fill="#401127" fill-opacity="0.8"/>
<g style="mix-blend-mode:overlay">
<path d="M91.2391 778.131C81.2981 778.176 73.2029 770.154 73.1579 760.213L70.1091 85.3353C70.0642 75.3943 78.0865 67.2989 88.0276 67.2537L101.331 67.1933L1172.96 62.3251C1182.9 62.28 1190.99 70.3022 1191.04 80.2432L1194.09 755.121C1194.13 765.062 1186.11 773.157 1176.17 773.203L91.2391 778.131Z" fill="#401127" fill-opacity="0.7"/>
</g>
<g filter="url(#filter0_d_1057_1608)">
<path d="M131.562 62.7537L99.5618 116.596L35.5618 116.596L3.56178 62.7537L35.5618 8.91098L99.5618 8.91098L131.562 62.7537Z" fill="#401127"/>
<path d="M98.1394 11.411L128.654 62.7537L98.1394 114.096L36.9842 114.096L6.46998 62.7537L36.9842 11.411L98.1394 11.411Z" stroke="#8F1B42" stroke-width="5" stroke-miterlimit="1.36733" stroke-linecap="round"/>
</g>
<path d="M94.9512 88.2302L42.3645 35.6168L38.9512 39.0035L52.8178 52.8702L51.9912 55.0035H54.9512L58.9512 59.0035H41.3245V63.0035H62.9512L71.9912 71.9902C71.6712 72.6302 71.4578 73.2702 71.2978 73.9368C68.7645 72.8435 66.4178 73.1368 64.6845 73.9102C63.5912 69.1635 59.4312 65.6702 54.4978 65.6702C48.7112 65.6702 43.9912 70.4435 43.9912 76.3368C43.9912 82.2302 48.7112 87.0035 54.4978 87.0035C59.9912 87.0035 64.4712 82.6835 64.8978 77.1902C65.8045 76.5502 68.1778 75.3502 71.0845 77.2435C71.5645 82.7102 75.9912 87.0035 81.4845 87.0035C83.0845 87.0035 84.5778 86.6302 85.9112 85.9635L91.5645 91.6168L94.9512 88.2302ZM54.4978 83.9635C50.3378 83.9635 47.0045 80.5502 47.0045 76.3368C47.0045 72.1235 50.3645 68.7102 54.4978 68.7102C58.6578 68.7102 61.9912 72.1235 61.9912 76.3368C61.9912 80.5502 58.6578 83.9635 54.4978 83.9635ZM81.4845 83.9635C77.3245 83.9635 73.9912 80.5502 73.9912 76.3368C73.9912 75.6435 74.0978 75.0035 74.2845 74.3368L83.5645 83.6168C82.8978 83.8302 82.2312 83.9635 81.4845 83.9635ZM94.6578 63.0035H76.5245L72.5245 59.0035H94.6578V63.0035ZM81.4845 65.6702C87.2712 65.6702 91.9912 70.4435 91.9912 76.3368C91.9912 77.0035 91.9112 77.6702 91.8045 78.2835L88.8978 75.3768C88.6987 73.7034 87.9442 72.145 86.755 70.951C85.5657 69.7569 84.0105 68.9961 82.3378 68.7902L79.4312 65.9102C80.0978 65.7502 80.7912 65.6702 81.4845 65.6702ZM68.5245 55.0035L56.5778 43.0035L58.4712 38.1502C59.0045 36.7902 60.4978 36.0435 61.9112 36.4435L62.0445 36.4702L67.9912 38.4435L73.9112 36.4702C75.3245 36.0168 76.8445 36.7102 77.4312 38.0168L77.4845 38.1502L83.9912 55.0035H68.5245Z" fill="#FFFEE8"/>
<defs>
<filter id="filter0_d_1057_1608" x="0.561768" y="8.91095" width="134" height="113.685" filterUnits="userSpaceOnUse" color-interpolation-filters="sRGB">
<feFlood flood-opacity="0" result="BackgroundImageFix"/>
<feColorMatrix in="SourceAlpha" type="matrix" values="0 0 0 0 0 0 0 0 0 0 0 0 0 0 0 0 0 0 127 0" result="hardAlpha"/>
<feOffset dy="3"/>
<feGaussianBlur stdDeviation="1.5"/>
<feComposite in2="hardAlpha" operator="out"/>
<feColorMatrix type="matrix" values="0 0 0 0 0 0 0 0 0 0 0 0 0 0 0 0 0 0 0.25 0"/>
<feBlend mode="normal" in2="BackgroundImageFix" result="effect1_dropShadow_1057_1608"/>
<feBlend mode="normal" in="SourceGraphic" in2="effect1_dropShadow_1057_1608" result="shape"/>
</filter>
</defs>
</svg>
