<svg width="750" height="71" viewBox="0 0 750 71" fill="none" xmlns="http://www.w3.org/2000/svg">
<path d="M0 2L750 2V70L0 70L0 2Z" fill="#10C44D"/>
<path d="M58.3061 2L9.94095 2L39.3621 36.3816L9.94095 69H58.3061L83.7431 36.3816L58.3061 2Z" fill="#056114" stroke="#056114" stroke-width="3"/>
<path d="M151.057 2L102.692 2L132.113 36.3816L102.692 69H151.057L176.494 36.3816L151.057 2Z" fill="#056114" stroke="#056114" stroke-width="3"/>
<path d="M243.809 2L195.444 2L224.865 36.3816L195.444 69H243.809L269.246 36.3816L243.809 2Z" fill="#056114" stroke="#056114" stroke-width="3"/>
<path d="M336.56 2L288.195 2L317.616 36.3816L288.195 69H336.56L361.997 36.3816L336.56 2Z" fill="#056114" stroke="#056114" stroke-width="3"/>
<path d="M429.311 2L380.946 2L410.367 36.3816L380.946 69H429.311L454.748 36.3816L429.311 2Z" fill="#056114" stroke="#056114" stroke-width="3"/>
<path d="M522.063 2L473.698 2L503.119 36.3816L473.698 69H522.063L547.5 36.3816L522.063 2Z" fill="#056114" stroke="#056114" stroke-width="3"/>
<path d="M614.814 2L566.449 2L595.87 36.3816L566.449 69H614.814L640.251 36.3816L614.814 2Z" fill="#056114" stroke="#056114" stroke-width="3"/>
<path d="M707.565 2L659.2 2L688.621 36.3816L659.2 69H707.565L733.002 36.3816L707.565 2Z" fill="#056114" stroke="#056114" stroke-width="3"/>
</svg>
