<svg width="764" height="96" viewBox="0 0 764 96" fill="none" xmlns="http://www.w3.org/2000/svg">
<g style="mix-blend-mode:multiply">
<path d="M22.5 2.90526L739 0L750 6.77895L753 15.0105H10L15 6.29474L22.5 2.90526Z" fill="url(#paint0_radial_875_29)"/>
</g>
<path d="M650.5 5.32631H734.5L751 18.4H634L650.5 5.32631Z" fill="#8F1B42" stroke="#401127" stroke-width="5"/>
<path d="M650.5 5.32632L734.5 4.84211L745.5 15.9789H640L650.5 5.32632Z" fill="url(#paint1_radial_875_29)"/>
<g filter="url(#filter0_d_875_29)">
<g style="mix-blend-mode:lighten" filter="url(#filter1_f_875_29)">
<path d="M667.792 6.7224L671.027 6.09581C671.728 5.9601 672.341 6.58091 672.197 7.27981L671.562 10.3509C671.522 10.5475 671.423 10.7273 671.279 10.867L668.747 13.3188C668.587 13.4737 668.38 13.5708 668.158 13.5947L665.243 13.9084C664.606 13.9769 664.069 13.4368 664.142 12.8001L664.459 10.0397C664.486 9.80983 664.591 9.59624 664.757 9.4353L667.286 6.9858C667.426 6.85082 667.601 6.7593 667.792 6.7224Z" fill="#FEC631"/>
</g>
<g style="mix-blend-mode:soft-light">
<path d="M667.792 6.7224L671.027 6.09581C671.728 5.9601 672.341 6.58091 672.197 7.27981L671.562 10.3509C671.522 10.5475 671.423 10.7273 671.279 10.867L668.747 13.3188C668.587 13.4737 668.38 13.5708 668.158 13.5947L665.243 13.9084C664.606 13.9769 664.069 13.4368 664.142 12.8001L664.459 10.0397C664.486 9.80983 664.591 9.59624 664.757 9.4353L667.286 6.9858C667.426 6.85082 667.601 6.7593 667.792 6.7224Z" fill="#FEC631"/>
</g>
<g style="mix-blend-mode:lighten" filter="url(#filter2_f_875_29)">
<path d="M657.792 6.7224L661.027 6.09581C661.728 5.9601 662.341 6.58091 662.197 7.27981L661.562 10.3509C661.522 10.5475 661.423 10.7273 661.279 10.867L658.747 13.3188C658.587 13.4737 658.38 13.5708 658.158 13.5947L655.243 13.9084C654.606 13.9769 654.069 13.4368 654.142 12.8001L654.459 10.0397C654.486 9.80983 654.591 9.59624 654.757 9.4353L657.286 6.9858C657.426 6.85082 657.601 6.7593 657.792 6.7224Z" fill="#FEC631"/>
</g>
<g style="mix-blend-mode:soft-light">
<path d="M657.792 6.7224L661.027 6.09581C661.728 5.9601 662.341 6.58091 662.197 7.27981L661.562 10.3509C661.522 10.5475 661.423 10.7273 661.279 10.867L658.747 13.3188C658.587 13.4737 658.38 13.5708 658.158 13.5947L655.243 13.9084C654.606 13.9769 654.069 13.4368 654.142 12.8001L654.459 10.0397C654.486 9.80983 654.591 9.59624 654.757 9.4353L657.286 6.9858C657.426 6.85082 657.601 6.7593 657.792 6.7224Z" fill="#FEC631"/>
</g>
<g style="mix-blend-mode:lighten" filter="url(#filter3_f_875_29)">
<path d="M677.792 6.7224L681.027 6.09581C681.728 5.9601 682.341 6.58091 682.197 7.27981L681.562 10.3509C681.522 10.5475 681.423 10.7273 681.279 10.867L678.747 13.3188C678.587 13.4737 678.38 13.5708 678.158 13.5947L675.243 13.9084C674.606 13.9769 674.069 13.4368 674.142 12.8001L674.459 10.0397C674.486 9.80983 674.591 9.59624 674.757 9.4353L677.286 6.9858C677.426 6.85082 677.601 6.7593 677.792 6.7224Z" fill="#FEC631"/>
</g>
<g style="mix-blend-mode:soft-light">
<path d="M677.792 6.7224L681.027 6.09581C681.728 5.9601 682.341 6.58091 682.197 7.27981L681.562 10.3509C681.522 10.5475 681.423 10.7273 681.279 10.867L678.747 13.3188C678.587 13.4737 678.38 13.5708 678.158 13.5947L675.243 13.9084C674.606 13.9769 674.069 13.4368 674.142 12.8001L674.459 10.0397C674.486 9.80983 674.591 9.59624 674.757 9.4353L677.286 6.9858C677.426 6.85082 677.601 6.7593 677.792 6.7224Z" fill="#FEC631"/>
</g>
</g>
<path d="M501.308 5.81052H548.692L558 18.4H492L501.308 5.81052Z" fill="#8F1B42" stroke="#401127" stroke-width="5"/>
<path d="M500.972 5.34737L548.744 4.84211L555 16.4632H495L500.972 5.34737Z" fill="url(#paint2_radial_875_29)"/>
<g filter="url(#filter4_d_875_29)">
<g style="mix-blend-mode:lighten" filter="url(#filter5_f_875_29)">
<path d="M504.792 6.7224L508.027 6.09581C508.728 5.9601 509.341 6.58091 509.197 7.27981L508.562 10.3509C508.522 10.5475 508.423 10.7273 508.279 10.867L505.747 13.3188C505.587 13.4737 505.38 13.5708 505.158 13.5947L502.243 13.9084C501.606 13.9769 501.069 13.4368 501.142 12.8001L501.459 10.0397C501.486 9.80983 501.591 9.59624 501.757 9.4353L504.286 6.9858C504.426 6.85082 504.601 6.7593 504.792 6.7224Z" fill="#FEC631"/>
</g>
<g style="mix-blend-mode:soft-light">
<path d="M504.792 6.7224L508.027 6.09581C508.728 5.9601 509.341 6.58091 509.197 7.27981L508.562 10.3509C508.522 10.5475 508.423 10.7273 508.279 10.867L505.747 13.3188C505.587 13.4737 505.38 13.5708 505.158 13.5947L502.243 13.9084C501.606 13.9769 501.069 13.4368 501.142 12.8001L501.459 10.0397C501.486 9.80983 501.591 9.59624 501.757 9.4353L504.286 6.9858C504.426 6.85082 504.601 6.7593 504.792 6.7224Z" fill="#FEC631"/>
</g>
<g style="mix-blend-mode:plus-lighter" filter="url(#filter6_f_875_29)">
<path d="M515.792 6.7224L519.027 6.09581C519.728 5.9601 520.341 6.58091 520.197 7.27981L519.562 10.3509C519.522 10.5475 519.423 10.7273 519.279 10.867L516.747 13.3188C516.587 13.4737 516.38 13.5708 516.158 13.5947L513.243 13.9084C512.606 13.9769 512.069 13.4368 512.142 12.8001L512.459 10.0397C512.486 9.80983 512.591 9.59624 512.757 9.4353L515.286 6.9858C515.426 6.85082 515.601 6.7593 515.792 6.7224Z" fill="#8F1B42"/>
</g>
<g style="mix-blend-mode:color-burn">
<path d="M515.792 6.7224L519.027 6.09581C519.728 5.9601 520.341 6.58091 520.197 7.27981L519.562 10.3509C519.522 10.5475 519.423 10.7273 519.279 10.867L516.747 13.3188C516.587 13.4737 516.38 13.5708 516.158 13.5947L513.243 13.9084C512.606 13.9769 512.069 13.4368 512.142 12.8001L512.459 10.0397C512.486 9.80983 512.591 9.59624 512.757 9.4353L515.286 6.9858C515.426 6.85082 515.601 6.7593 515.792 6.7224Z" fill="#8F1B42"/>
</g>
</g>
<path d="M4 25.1789L11 18.4H752L760 25.1789V84.2526L753 92H11L4 85.2211V25.1789Z" stroke="#8F1B42" stroke-width="7"/>
<path d="M4 25.1789L11 18.4H752L760 25.1789V84.2526L753 92H11L4 85.2211V25.1789Z" stroke="#401127" stroke-width="2"/>
<defs>
<filter id="filter0_d_875_29" x="650" y="5.81052" width="36.5" height="16.2316" filterUnits="userSpaceOnUse" color-interpolation-filters="sRGB">
<feFlood flood-opacity="0" result="BackgroundImageFix"/>
<feColorMatrix in="SourceAlpha" type="matrix" values="0 0 0 0 0 0 0 0 0 0 0 0 0 0 0 0 0 0 127 0" result="hardAlpha"/>
<feOffset dy="4"/>
<feGaussianBlur stdDeviation="2"/>
<feComposite in2="hardAlpha" operator="out"/>
<feColorMatrix type="matrix" values="0 0 0 0 0 0 0 0 0 0 0 0 0 0 0 0 0 0 0.25 0"/>
<feBlend mode="normal" in2="BackgroundImageFix" result="effect1_dropShadow_875_29"/>
<feBlend mode="normal" in="SourceGraphic" in2="effect1_dropShadow_875_29" result="shape"/>
</filter>
<filter id="filter1_f_875_29" x="660.136" y="2.07703" width="16.082" height="15.8372" filterUnits="userSpaceOnUse" color-interpolation-filters="sRGB">
<feFlood flood-opacity="0" result="BackgroundImageFix"/>
<feBlend mode="normal" in="SourceGraphic" in2="BackgroundImageFix" result="shape"/>
<feGaussianBlur stdDeviation="2" result="effect1_foregroundBlur_875_29"/>
</filter>
<filter id="filter2_f_875_29" x="650.136" y="2.07703" width="16.082" height="15.8372" filterUnits="userSpaceOnUse" color-interpolation-filters="sRGB">
<feFlood flood-opacity="0" result="BackgroundImageFix"/>
<feBlend mode="normal" in="SourceGraphic" in2="BackgroundImageFix" result="shape"/>
<feGaussianBlur stdDeviation="2" result="effect1_foregroundBlur_875_29"/>
</filter>
<filter id="filter3_f_875_29" x="670.136" y="2.07703" width="16.082" height="15.8372" filterUnits="userSpaceOnUse" color-interpolation-filters="sRGB">
<feFlood flood-opacity="0" result="BackgroundImageFix"/>
<feBlend mode="normal" in="SourceGraphic" in2="BackgroundImageFix" result="shape"/>
<feGaussianBlur stdDeviation="2" result="effect1_foregroundBlur_875_29"/>
</filter>
<filter id="filter4_d_875_29" x="497" y="5.81052" width="27.5" height="16.2316" filterUnits="userSpaceOnUse" color-interpolation-filters="sRGB">
<feFlood flood-opacity="0" result="BackgroundImageFix"/>
<feColorMatrix in="SourceAlpha" type="matrix" values="0 0 0 0 0 0 0 0 0 0 0 0 0 0 0 0 0 0 127 0" result="hardAlpha"/>
<feOffset dy="4"/>
<feGaussianBlur stdDeviation="2"/>
<feComposite in2="hardAlpha" operator="out"/>
<feColorMatrix type="matrix" values="0 0 0 0 0 0 0 0 0 0 0 0 0 0 0 0 0 0 0.25 0"/>
<feBlend mode="normal" in2="BackgroundImageFix" result="effect1_dropShadow_875_29"/>
<feBlend mode="normal" in="SourceGraphic" in2="effect1_dropShadow_875_29" result="shape"/>
</filter>
<filter id="filter5_f_875_29" x="497.136" y="2.07703" width="16.082" height="15.8372" filterUnits="userSpaceOnUse" color-interpolation-filters="sRGB">
<feFlood flood-opacity="0" result="BackgroundImageFix"/>
<feBlend mode="normal" in="SourceGraphic" in2="BackgroundImageFix" result="shape"/>
<feGaussianBlur stdDeviation="2" result="effect1_foregroundBlur_875_29"/>
</filter>
<filter id="filter6_f_875_29" x="508.136" y="2.07703" width="16.082" height="15.8372" filterUnits="userSpaceOnUse" color-interpolation-filters="sRGB">
<feFlood flood-opacity="0" result="BackgroundImageFix"/>
<feBlend mode="normal" in="SourceGraphic" in2="BackgroundImageFix" result="shape"/>
<feGaussianBlur stdDeviation="2" result="effect1_foregroundBlur_875_29"/>
</filter>
<radialGradient id="paint0_radial_875_29" cx="0" cy="0" r="1" gradientUnits="userSpaceOnUse" gradientTransform="translate(381.75 16.4632) rotate(89.6887) scale(46.0007 1680.62)">
<stop offset="0.19" stop-color="#8F1B42"/>
<stop offset="0.325" stop-color="#696969"/>
<stop offset="0.505" stop-color="#696969" stop-opacity="0"/>
</radialGradient>
<radialGradient id="paint1_radial_875_29" cx="0" cy="0" r="1" gradientUnits="userSpaceOnUse" gradientTransform="translate(698 9.68421) rotate(90) scale(6.29474 83.2812)">
<stop stop-color="#8E5266"/>
<stop offset="0.472243" stop-color="#8B1C46"/>
<stop offset="1" stop-color="#6A1D41"/>
</radialGradient>
<radialGradient id="paint2_radial_875_29" cx="0" cy="0" r="1" gradientUnits="userSpaceOnUse" gradientTransform="translate(527.986 9.89474) rotate(90) scale(6.56842 47.3638)">
<stop stop-color="#8E5266"/>
<stop offset="0.472243" stop-color="#8B1C46"/>
<stop offset="1" stop-color="#6A1D41"/>
</radialGradient>
</defs>
</svg>
