<svg width="751" height="80" viewBox="0 0 751 80" fill="none" xmlns="http://www.w3.org/2000/svg">
<rect y="5" width="751" height="73" fill="#175DE4"/>
<rect y="5" width="751" height="73" fill="#175DE4"/>
<path d="M111 2H61.4948L13 78H61.4948L111 2Z" fill="#230F9F" stroke="#230F9F" stroke-width="3"/>
<path d="M209 2H159.495L111 78H159.495L209 2Z" fill="#230F9F" stroke="#230F9F" stroke-width="3"/>
<path d="M307 2H257.495L209 78H257.495L307 2Z" fill="#230F9F" stroke="#230F9F" stroke-width="3"/>
<path d="M405 2H355.495L307 78H355.495L405 2Z" fill="#230F9F" stroke="#230F9F" stroke-width="3"/>
<path d="M503 2H453.495L405 78H453.495L503 2Z" fill="#230F9F" stroke="#230F9F" stroke-width="3"/>
<path d="M601 2H551.495L503 78H551.495L601 2Z" fill="#230F9F" stroke="#230F9F" stroke-width="3"/>
<path d="M699 2H649.495L601 78H649.495L699 2Z" fill="#230F9F" stroke="#230F9F" stroke-width="3"/>
</svg>
