<svg width="751" height="80" viewBox="0 0 751 80" fill="none" xmlns="http://www.w3.org/2000/svg">
<rect y="5" width="751" height="73" fill="#175DE4"/>
<path d="M61.4948 2L13 2L42.5 41L13 78H61.4948L87 41L61.4948 2Z" fill="#230F9F" stroke="#230F9F" stroke-width="3"/>
<path d="M154.495 2L106 2L135.5 41L106 78H154.495L180 41L154.495 2Z" fill="#230F9F" stroke="#230F9F" stroke-width="3"/>
<path d="M247.495 2L199 2L228.5 41L199 78H247.495L273 41L247.495 2Z" fill="#230F9F" stroke="#230F9F" stroke-width="3"/>
<path d="M340.495 2L292 2L321.5 41L292 78H340.495L366 41L340.495 2Z" fill="#230F9F" stroke="#230F9F" stroke-width="3"/>
<path d="M433.495 2L385 2L414.5 41L385 78H433.495L459 41L433.495 2Z" fill="#230F9F" stroke="#230F9F" stroke-width="3"/>
<path d="M526.495 2L478 2L507.5 41L478 78H526.495L552 41L526.495 2Z" fill="#230F9F" stroke="#230F9F" stroke-width="3"/>
<path d="M619.495 2L571 2L600.5 41L571 78H619.495L645 41L619.495 2Z" fill="#230F9F" stroke="#230F9F" stroke-width="3"/>
<path d="M712.495 2L664 2L693.5 41L664 78H712.495L738 41L712.495 2Z" fill="#230F9F" stroke="#230F9F" stroke-width="3"/>
</svg>
