<svg width="751" height="80" viewBox="0 0 751 80" fill="none" xmlns="http://www.w3.org/2000/svg">
<rect x="751" y="75" width="751" height="73" transform="rotate(180 751 75)" fill="#10C44D"/>
<path d="M689.505 78H738L708.5 39L738 2.00001H689.505L664 39L689.505 78Z" fill="#056114" stroke="#056114" stroke-width="3"/>
<path d="M596.505 78H645L615.5 39L645 2.00001H596.505L571 39L596.505 78Z" fill="#056114" stroke="#056114" stroke-width="3"/>
<path d="M503.505 78H552L522.5 39L552 2.00001H503.505L478 39L503.505 78Z" fill="#056114" stroke="#056114" stroke-width="3"/>
<path d="M410.505 78H459L429.5 39L459 2.00001H410.505L385 39L410.505 78Z" fill="#056114" stroke="#056114" stroke-width="3"/>
<path d="M317.505 78H366L336.5 39L366 2.00001H317.505L292 39L317.505 78Z" fill="#056114" stroke="#056114" stroke-width="3"/>
<path d="M224.505 78H273L243.5 39L273 2.00001H224.505L199 39L224.505 78Z" fill="#056114" stroke="#056114" stroke-width="3"/>
<path d="M131.505 78H180L150.5 39L180 2.00001H131.505L106 39L131.505 78Z" fill="#056114" stroke="#056114" stroke-width="3"/>
<path d="M38.5052 78H87L57.5 39L87 2.00001H38.5052L13 39L38.5052 78Z" fill="#056114" stroke="#056114" stroke-width="3"/>
</svg>
