<svg width="742" height="99" viewBox="0 0 742 99" fill="none" xmlns="http://www.w3.org/2000/svg">
<rect x="8" y="15" width="462" height="73" fill="#FEC631"/>
<path d="M45.8306 12L15.9975 12L34.1453 51L15.9975 88L45.8305 88L61.5208 51L45.8306 12Z" fill="#FF9520" stroke="#FF9520" stroke-width="3"/>
<path d="M103.042 12L73.209 12L91.3568 51L73.209 88L103.042 88L118.732 51L103.042 12Z" fill="#FF9520" stroke="#FF9520" stroke-width="3"/>
<path d="M160.254 12L130.421 12L148.569 51L130.421 88L160.254 88L175.944 51L160.254 12Z" fill="#FF9520" stroke="#FF9520" stroke-width="3"/>
<path d="M217.466 12L187.632 12L205.78 51L187.632 88L217.465 88L233.156 51L217.466 12Z" fill="#FF9520" stroke="#FF9520" stroke-width="3"/>
<path d="M274.677 12L244.844 12L262.992 51L244.844 88L274.677 88L290.368 51L274.677 12Z" fill="#FF9520" stroke="#FF9520" stroke-width="3"/>
<path d="M331.889 12L302.056 12L320.204 51L302.056 88L331.889 88L347.579 51L331.889 12Z" fill="#FF9520" stroke="#FF9520" stroke-width="3"/>
<path d="M389.101 12L359.268 12L377.415 51L359.268 88L389.101 88L404.791 51L389.101 12Z" fill="#FF9520" stroke="#FF9520" stroke-width="3"/>
<path d="M446.312 12L416.479 12L434.627 51L416.479 88L446.312 88L462.003 51L446.312 12Z" fill="#FF9520" stroke="#FF9520" stroke-width="3"/>
<path d="M4 19L10.787 12H729.243L737 19V80L730.213 88H10.787L4 81V19Z" stroke="#8F1B42" stroke-width="7"/>
<path d="M4 19L10.787 12H729.243L737 19V80L730.213 88H10.787L4 81V19Z" stroke="#401127" stroke-width="2"/>
<path d="M740 9.91667L733.913 2L700.471 2L698 9.91667L725.176 49.5L698 89.0833L700.471 97H733.913L740 89.0833V49.5V9.91667Z" fill="#8F1B42" stroke="#401127" stroke-width="3"/>
</svg>