<svg width="795" height="97" viewBox="0 0 795 97" fill="none" xmlns="http://www.w3.org/2000/svg">
<path d="M750 8L753 16H9.5L12.9818 8L25.1682 0H739.5L750 8Z" fill="#8F1B42"/>
<path d="M4 26.1789L11 19.4H752L760 26.1789V85.2526L753 93H11L4 86.221V26.1789Z" stroke="#8F1B42" stroke-width="7"/>
<path d="M4 26.1789L11 19.4H752L760 26.1789V85.2526L753 93H11L4 86.221V26.1789Z" stroke="#401127" stroke-width="2"/>
<path d="M501.308 7H548.692L558 18H492L501.308 7Z" fill="#8F1B42" stroke="#401127" stroke-width="5"/>
<path d="M492 18L501 7H548L558 18H492Z" fill="#8F1B42"/>
<g filter="url(#filter0_d_889_170)">
<g style="mix-blend-mode:lighten" filter="url(#filter1_f_889_170)">
<path d="M503.776 9.82677L507.017 9.25946C507.722 9.13622 508.324 9.77035 508.165 10.4673L507.572 13.0588C507.525 13.2643 507.415 13.4498 507.256 13.5886L504.742 15.7884C504.585 15.926 504.388 16.0109 504.18 16.0311L501.247 16.3163C500.608 16.3784 500.077 15.8315 500.158 15.195L500.452 12.8766C500.483 12.634 500.602 12.4111 500.786 12.25L503.289 10.0592C503.427 9.93872 503.595 9.85832 503.776 9.82677Z" fill="#FEC631"/>
</g>
<g style="mix-blend-mode:soft-light">
<path d="M503.776 9.82677L507.017 9.25946C507.722 9.13622 508.324 9.77035 508.165 10.4673L507.572 13.0588C507.525 13.2643 507.415 13.4498 507.256 13.5886L504.742 15.7884C504.585 15.926 504.388 16.0109 504.18 16.0311L501.247 16.3163C500.608 16.3784 500.077 15.8315 500.158 15.195L500.452 12.8766C500.483 12.634 500.602 12.4111 500.786 12.25L503.289 10.0592C503.427 9.93872 503.595 9.85832 503.776 9.82677Z" fill="#FEC631"/>
</g>
<g style="mix-blend-mode:plus-lighter" filter="url(#filter2_f_889_170)">
<path d="M514.776 9.82677L518.017 9.25946C518.722 9.13622 519.324 9.77035 519.165 10.4673L518.572 13.0588C518.525 13.2643 518.415 13.4498 518.256 13.5886L515.742 15.7884C515.585 15.926 515.388 16.0109 515.18 16.0311L512.247 16.3163C511.608 16.3784 511.077 15.8315 511.158 15.195L511.452 12.8766C511.483 12.634 511.602 12.4111 511.786 12.25L514.289 10.0592C514.427 9.93872 514.595 9.85832 514.776 9.82677Z" fill="#8F1B42"/>
</g>
<g style="mix-blend-mode:color-burn">
<path d="M514.776 9.82677L518.017 9.25946C518.722 9.13622 519.324 9.77035 519.165 10.4673L518.572 13.0588C518.525 13.2643 518.415 13.4498 518.256 13.5886L515.742 15.7884C515.585 15.926 515.388 16.0109 515.18 16.0311L512.247 16.3163C511.608 16.3784 511.077 15.8315 511.158 15.195L511.452 12.8766C511.483 12.634 511.602 12.4111 511.786 12.25L514.289 10.0592C514.427 9.93872 514.595 9.85832 514.776 9.82677Z" fill="#8F1B42"/>
</g>
</g>
<path d="M672.705 7H732.295L744 18H661L672.705 7Z" fill="#8F1B42" stroke="#401127" stroke-width="5"/>
<path d="M661 18L672.318 7H731.424L744 18H661Z" fill="#8F1B42"/>
<g filter="url(#filter3_d_889_170)">
<g style="mix-blend-mode:lighten" filter="url(#filter4_f_889_170)">
<path d="M694.776 9.82677L698.017 9.25946C698.722 9.13622 699.324 9.77035 699.165 10.4673L698.572 13.0588C698.525 13.2643 698.415 13.4498 698.256 13.5886L695.742 15.7884C695.585 15.926 695.388 16.0109 695.18 16.0311L692.247 16.3163C691.608 16.3784 691.077 15.8315 691.158 15.195L691.452 12.8766C691.483 12.634 691.602 12.4111 691.786 12.25L694.289 10.0592C694.427 9.93872 694.595 9.85832 694.776 9.82677Z" fill="#FEC631"/>
</g>
<g style="mix-blend-mode:soft-light">
<path d="M694.776 9.82677L698.017 9.25946C698.722 9.13622 699.324 9.77035 699.165 10.4673L698.572 13.0588C698.525 13.2643 698.415 13.4498 698.256 13.5886L695.742 15.7884C695.585 15.926 695.388 16.0109 695.18 16.0311L692.247 16.3163C691.608 16.3784 691.077 15.8315 691.158 15.195L691.452 12.8766C691.483 12.634 691.602 12.4111 691.786 12.25L694.289 10.0592C694.427 9.93872 694.595 9.85832 694.776 9.82677Z" fill="#FEC631"/>
</g>
<g style="mix-blend-mode:lighten" filter="url(#filter5_f_889_170)">
<path d="M705.776 9.82677L709.017 9.25946C709.722 9.13622 710.324 9.77035 710.165 10.4673L709.572 13.0588C709.525 13.2643 709.415 13.4498 709.256 13.5886L706.742 15.7884C706.585 15.926 706.388 16.0109 706.18 16.0311L703.247 16.3163C702.608 16.3784 702.077 15.8315 702.158 15.195L702.452 12.8766C702.483 12.634 702.602 12.4111 702.786 12.25L705.289 10.0592C705.427 9.93872 705.595 9.85832 705.776 9.82677Z" fill="#FEC631"/>
</g>
<g style="mix-blend-mode:soft-light">
<path d="M705.776 9.82677L709.017 9.25946C709.722 9.13622 710.324 9.77035 710.165 10.4673L709.572 13.0588C709.525 13.2643 709.415 13.4498 709.256 13.5886L706.742 15.7884C706.585 15.926 706.388 16.0109 706.18 16.0311L703.247 16.3163C702.608 16.3784 702.077 15.8315 702.158 15.195L702.452 12.8766C702.483 12.634 702.602 12.4111 702.786 12.25L705.289 10.0592C705.427 9.93872 705.595 9.85832 705.776 9.82677Z" fill="#FEC631"/>
</g>
<g style="mix-blend-mode:lighten" filter="url(#filter6_f_889_170)">
<path d="M683.776 9.82677L687.017 9.25946C687.722 9.13622 688.324 9.77035 688.165 10.4673L687.572 13.0588C687.525 13.2643 687.415 13.4498 687.256 13.5886L684.742 15.7884C684.585 15.926 684.388 16.0109 684.18 16.0311L681.247 16.3163C680.608 16.3784 680.077 15.8315 680.158 15.195L680.452 12.8766C680.483 12.634 680.602 12.4111 680.786 12.25L683.289 10.0592C683.427 9.93872 683.595 9.85832 683.776 9.82677Z" fill="#FEC631"/>
</g>
<g style="mix-blend-mode:soft-light">
<path d="M683.776 9.82677L687.017 9.25946C687.722 9.13622 688.324 9.77035 688.165 10.4673L687.572 13.0588C687.525 13.2643 687.415 13.4498 687.256 13.5886L684.742 15.7884C684.585 15.926 684.388 16.0109 684.18 16.0311L681.247 16.3163C680.608 16.3784 680.077 15.8315 680.158 15.195L680.452 12.8766C680.483 12.634 680.602 12.4111 680.786 12.25L683.289 10.0592C683.427 9.93872 683.595 9.85832 683.776 9.82677Z" fill="#FEC631"/>
</g>
</g>
<g style="mix-blend-mode:lighten" filter="url(#filter7_f_889_170)">
<path d="M673.776 9.82677L677.017 9.25946C677.722 9.13622 678.324 9.77035 678.165 10.4673L677.572 13.0588C677.525 13.2643 677.415 13.4498 677.256 13.5886L674.742 15.7884C674.585 15.926 674.388 16.0109 674.18 16.0311L671.247 16.3163C670.608 16.3784 670.077 15.8315 670.158 15.195L670.452 12.8766C670.483 12.634 670.602 12.4111 670.786 12.25L673.289 10.0592C673.427 9.93872 673.595 9.85832 673.776 9.82677Z" fill="#FEC631"/>
</g>
<g style="mix-blend-mode:soft-light">
<path d="M673.776 9.82677L677.017 9.25946C677.722 9.13622 678.324 9.77035 678.165 10.4673L677.572 13.0588C677.525 13.2643 677.415 13.4498 677.256 13.5886L674.742 15.7884C674.585 15.926 674.388 16.0109 674.18 16.0311L671.247 16.3163C670.608 16.3784 670.077 15.8315 670.158 15.195L670.452 12.8766C670.483 12.634 670.602 12.4111 670.786 12.25L673.289 10.0592C673.427 9.93872 673.595 9.85832 673.776 9.82677Z" fill="#FEC631"/>
</g>
<defs>
<filter id="filter0_d_889_170" x="496" y="9" width="27.5" height="15.4375" filterUnits="userSpaceOnUse" color-interpolation-filters="sRGB">
<feFlood flood-opacity="0" result="BackgroundImageFix"/>
<feColorMatrix in="SourceAlpha" type="matrix" values="0 0 0 0 0 0 0 0 0 0 0 0 0 0 0 0 0 0 127 0" result="hardAlpha"/>
<feOffset dy="4"/>
<feGaussianBlur stdDeviation="2"/>
<feComposite in2="hardAlpha" operator="out"/>
<feColorMatrix type="matrix" values="0 0 0 0 0 0 0 0 0 0 0 0 0 0 0 0 0 0 0.25 0"/>
<feBlend mode="normal" in2="BackgroundImageFix" result="effect1_dropShadow_889_170"/>
<feBlend mode="normal" in="SourceGraphic" in2="effect1_dropShadow_889_170" result="shape"/>
</filter>
<filter id="filter1_f_889_170" x="496.15" y="5.24402" width="16.0408" height="15.0771" filterUnits="userSpaceOnUse" color-interpolation-filters="sRGB">
<feFlood flood-opacity="0" result="BackgroundImageFix"/>
<feBlend mode="normal" in="SourceGraphic" in2="BackgroundImageFix" result="shape"/>
<feGaussianBlur stdDeviation="2" result="effect1_foregroundBlur_889_170"/>
</filter>
<filter id="filter2_f_889_170" x="507.15" y="5.24402" width="16.0408" height="15.0771" filterUnits="userSpaceOnUse" color-interpolation-filters="sRGB">
<feFlood flood-opacity="0" result="BackgroundImageFix"/>
<feBlend mode="normal" in="SourceGraphic" in2="BackgroundImageFix" result="shape"/>
<feGaussianBlur stdDeviation="2" result="effect1_foregroundBlur_889_170"/>
</filter>
<filter id="filter3_d_889_170" x="676" y="9" width="38.5" height="15.4375" filterUnits="userSpaceOnUse" color-interpolation-filters="sRGB">
<feFlood flood-opacity="0" result="BackgroundImageFix"/>
<feColorMatrix in="SourceAlpha" type="matrix" values="0 0 0 0 0 0 0 0 0 0 0 0 0 0 0 0 0 0 127 0" result="hardAlpha"/>
<feOffset dy="4"/>
<feGaussianBlur stdDeviation="2"/>
<feComposite in2="hardAlpha" operator="out"/>
<feColorMatrix type="matrix" values="0 0 0 0 0 0 0 0 0 0 0 0 0 0 0 0 0 0 0.25 0"/>
<feBlend mode="normal" in2="BackgroundImageFix" result="effect1_dropShadow_889_170"/>
<feBlend mode="normal" in="SourceGraphic" in2="effect1_dropShadow_889_170" result="shape"/>
</filter>
<filter id="filter4_f_889_170" x="687.15" y="5.24402" width="16.0408" height="15.0771" filterUnits="userSpaceOnUse" color-interpolation-filters="sRGB">
<feFlood flood-opacity="0" result="BackgroundImageFix"/>
<feBlend mode="normal" in="SourceGraphic" in2="BackgroundImageFix" result="shape"/>
<feGaussianBlur stdDeviation="2" result="effect1_foregroundBlur_889_170"/>
</filter>
<filter id="filter5_f_889_170" x="698.15" y="5.24402" width="16.0408" height="15.0771" filterUnits="userSpaceOnUse" color-interpolation-filters="sRGB">
<feFlood flood-opacity="0" result="BackgroundImageFix"/>
<feBlend mode="normal" in="SourceGraphic" in2="BackgroundImageFix" result="shape"/>
<feGaussianBlur stdDeviation="2" result="effect1_foregroundBlur_889_170"/>
</filter>
<filter id="filter6_f_889_170" x="676.15" y="5.24402" width="16.0408" height="15.0771" filterUnits="userSpaceOnUse" color-interpolation-filters="sRGB">
<feFlood flood-opacity="0" result="BackgroundImageFix"/>
<feBlend mode="normal" in="SourceGraphic" in2="BackgroundImageFix" result="shape"/>
<feGaussianBlur stdDeviation="2" result="effect1_foregroundBlur_889_170"/>
</filter>
<filter id="filter7_f_889_170" x="666.15" y="5.24402" width="16.0408" height="15.0771" filterUnits="userSpaceOnUse" color-interpolation-filters="sRGB">
<feFlood flood-opacity="0" result="BackgroundImageFix"/>
<feBlend mode="normal" in="SourceGraphic" in2="BackgroundImageFix" result="shape"/>
<feGaussianBlur stdDeviation="2" result="effect1_foregroundBlur_889_170"/>
</filter>
</defs>
</svg>
