<svg width="742" height="99" viewBox="0 0 742 99" fill="none" xmlns="http://www.w3.org/2000/svg">
<rect x="740" y="84" width="736" height="73" transform="rotate(180 740 84)" fill="#FEC631"/>
<path d="M679.733 87H727.26L698.349 48L727.26 11H679.733L654.738 48L679.733 87Z" fill="#FF9520" stroke="#FF9520" stroke-width="3"/>
<path d="M588.591 87H636.117L607.206 48L636.117 11H588.591L563.595 48L588.591 87Z" fill="#FF9520" stroke="#FF9520" stroke-width="3"/>
<path d="M497.448 87H544.975L516.064 48L544.975 11H497.448L472.453 48L497.448 87Z" fill="#FF9520" stroke="#FF9520" stroke-width="3"/>
<path d="M406.306 87H453.832L424.921 48L453.832 11H406.306L381.31 48L406.306 87Z" fill="#FF9520" stroke="#FF9520" stroke-width="3"/>
<path d="M315.163 87H362.69L333.779 48L362.69 11H315.163L290.168 48L315.163 87Z" fill="#FF9520" stroke="#FF9520" stroke-width="3"/>
<path d="M224.021 87H271.547L242.636 48L271.547 11H224.021L199.025 48L224.021 87Z" fill="#FF9520" stroke="#FF9520" stroke-width="3"/>
<path d="M132.879 87H180.405L151.494 48L180.405 11H132.879L107.883 48L132.879 87Z" fill="#FF9520" stroke="#FF9520" stroke-width="3"/>
<path d="M41.7361 87H89.2623L60.3515 48L89.2623 11H41.7361L16.7404 48L41.7361 87Z" fill="#FF9520" stroke="#FF9520" stroke-width="3"/>
<path d="M4 19L10.787 12H729.243L737 19V80L730.213 88H10.787L4 81V19Z" stroke="#8F1B42" stroke-width="7"/>
<path d="M4 19L10.787 12H729.243L737 19V80L730.213 88H10.787L4 81V19Z" stroke="#401127" stroke-width="2"/>
<path d="M740 9.91667L733.913 2L700.471 2L698 9.91667L725.176 49.5L698 89.0833L700.471 97H733.913L740 89.0833V49.5V9.91667Z" fill="#8F1B42" stroke="#401127" stroke-width="3"/>
</svg>
