<svg width="470" height="91" viewBox="0 0 470 91" fill="none" xmlns="http://www.w3.org/2000/svg">
<path d="M27.1854 47.2141L27.8526 46.0132L27.1966 44.8062L4.20406 2.5H436.694L466.944 45.9842L436.71 88.5H4.24879L27.1854 47.2141Z" fill="#F21E2C" fill-opacity="0.2" stroke="#FEC631" stroke-width="5"/>
<g filter="url(#filter0_d_555_74)">
<path d="M149.268 57V34.44H151.892V44.424H165.428V34.44H168.052V57H165.428V46.696H151.892V57H149.268ZM179.724 57.288C178.209 57.288 176.897 56.9573 175.788 56.296C174.679 55.6347 173.815 54.7067 173.196 53.512C172.599 52.296 172.3 50.8667 172.3 49.224C172.3 47.5813 172.599 46.1627 173.196 44.968C173.815 43.752 174.679 42.8133 175.788 42.152C176.897 41.4907 178.209 41.16 179.724 41.16C181.217 41.16 182.519 41.4907 183.628 42.152C184.759 42.8133 185.623 43.752 186.22 44.968C186.839 46.1627 187.148 47.5813 187.148 49.224C187.148 50.8667 186.839 52.296 186.22 53.512C185.623 54.7067 184.759 55.6347 183.628 56.296C182.519 56.9573 181.217 57.288 179.724 57.288ZM179.724 55.208C181.175 55.208 182.337 54.696 183.212 53.672C184.087 52.6267 184.524 51.144 184.524 49.224C184.524 47.2827 184.087 45.8 183.212 44.776C182.337 43.752 181.175 43.24 179.724 43.24C178.252 43.24 177.079 43.752 176.204 44.776C175.351 45.8 174.924 47.2827 174.924 49.224C174.924 51.144 175.351 52.6267 176.204 53.672C177.079 54.696 178.252 55.208 179.724 55.208ZM194.951 57L189.159 41.448H191.879L196.263 53.96L200.807 41.448H203.015L207.495 53.992L211.943 41.448H214.535L208.711 57H206.247L201.863 44.936L197.447 57H194.951ZM232.188 57.288C230.353 57.288 228.977 56.808 228.06 55.848C227.142 54.8667 226.684 53.4587 226.684 51.624V43.464H223.644V41.448H226.684V36.68H229.276V41.448H234.204V43.464H229.276V51.368C229.276 52.584 229.532 53.512 230.044 54.152C230.556 54.7707 231.388 55.08 232.54 55.08C232.881 55.08 233.222 55.0373 233.564 54.952C233.905 54.8667 234.214 54.7813 234.492 54.696L234.94 56.68C234.662 56.8293 234.257 56.968 233.724 57.096C233.19 57.224 232.678 57.288 232.188 57.288ZM243.443 57.288C241.928 57.288 240.616 56.9573 239.507 56.296C238.398 55.6347 237.534 54.7067 236.915 53.512C236.318 52.296 236.019 50.8667 236.019 49.224C236.019 47.5813 236.318 46.1627 236.915 44.968C237.534 43.752 238.398 42.8133 239.507 42.152C240.616 41.4907 241.928 41.16 243.443 41.16C244.936 41.16 246.238 41.4907 247.347 42.152C248.478 42.8133 249.342 43.752 249.939 44.968C250.558 46.1627 250.867 47.5813 250.867 49.224C250.867 50.8667 250.558 52.296 249.939 53.512C249.342 54.7067 248.478 55.6347 247.347 56.296C246.238 56.9573 244.936 57.288 243.443 57.288ZM243.443 55.208C244.894 55.208 246.056 54.696 246.931 53.672C247.806 52.6267 248.243 51.144 248.243 49.224C248.243 47.2827 247.806 45.8 246.931 44.776C246.056 43.752 244.894 43.24 243.443 43.24C241.971 43.24 240.798 43.752 239.923 44.776C239.07 45.8 238.643 47.2827 238.643 49.224C238.643 51.144 239.07 52.6267 239.923 53.672C240.798 54.696 241.971 55.208 243.443 55.208ZM263.331 57V34.44H272.259C274.691 34.44 276.547 35.0267 277.827 36.2C279.128 37.3733 279.779 39.048 279.779 41.224C279.779 43.3787 279.128 45.0533 277.827 46.248C276.547 47.4213 274.691 48.008 272.259 48.008H265.955V57H263.331ZM265.955 45.8H271.939C275.438 45.8 277.187 44.2747 277.187 41.224C277.187 38.152 275.438 36.616 271.939 36.616H265.955V45.8ZM287.997 57.288C286.418 57.288 285.224 56.8293 284.413 55.912C283.624 54.9733 283.229 53.6187 283.229 51.848V34.44H285.821V51.656C285.821 53.9387 286.728 55.08 288.541 55.08C289.074 55.08 289.554 55.016 289.981 54.888L289.917 57.064C289.256 57.2133 288.616 57.288 287.997 57.288ZM297.594 57.288C296.527 57.288 295.567 57.0853 294.714 56.68C293.882 56.2533 293.22 55.6773 292.73 54.952C292.239 54.2267 291.994 53.416 291.994 52.52C291.994 51.3893 292.282 50.4933 292.858 49.832C293.455 49.1707 294.426 48.7013 295.77 48.424C297.135 48.1253 298.991 47.976 301.338 47.976H302.362V46.984C302.362 45.6613 302.084 44.712 301.53 44.136C300.996 43.5387 300.132 43.24 298.938 43.24C297.999 43.24 297.092 43.3787 296.218 43.656C295.343 43.912 294.447 44.3387 293.53 44.936L292.634 43.048C293.444 42.472 294.426 42.0133 295.578 41.672C296.751 41.3307 297.871 41.16 298.938 41.16C300.943 41.16 302.426 41.6507 303.386 42.632C304.367 43.6133 304.858 45.1387 304.858 47.208V57H302.426V54.312C302.02 55.2293 301.391 55.9547 300.538 56.488C299.706 57.0213 298.724 57.288 297.594 57.288ZM298.01 55.336C299.29 55.336 300.335 54.8987 301.146 54.024C301.956 53.128 302.362 51.9973 302.362 50.632V49.672H301.37C299.642 49.672 298.276 49.7573 297.274 49.928C296.292 50.0773 295.599 50.3547 295.194 50.76C294.81 51.144 294.618 51.6773 294.618 52.36C294.618 53.2347 294.916 53.9493 295.514 54.504C296.132 55.0587 296.964 55.336 298.01 55.336ZM311.302 62.76L313.958 56.744L307.398 41.448H310.214L315.366 54.056L320.55 41.448H323.27L314.022 62.76H311.302Z" fill="#FEC631"/>
</g>
<defs>
<filter id="filter0_d_555_74" x="134.268" y="19.4399" width="204.002" height="58.3201" filterUnits="userSpaceOnUse" color-interpolation-filters="sRGB">
<feFlood flood-opacity="0" result="BackgroundImageFix"/>
<feColorMatrix in="SourceAlpha" type="matrix" values="0 0 0 0 0 0 0 0 0 0 0 0 0 0 0 0 0 0 127 0" result="hardAlpha"/>
<feOffset/>
<feGaussianBlur stdDeviation="7.5"/>
<feColorMatrix type="matrix" values="0 0 0 0 0.996078 0 0 0 0 0.776471 0 0 0 0 0.192157 0 0 0 0.5 0"/>
<feBlend mode="normal" in2="BackgroundImageFix" result="effect1_dropShadow_555_74"/>
<feBlend mode="normal" in="SourceGraphic" in2="effect1_dropShadow_555_74" result="shape"/>
</filter>
</defs>
</svg>
