<svg width="470" height="91" viewBox="0 0 470 91" fill="none" xmlns="http://www.w3.org/2000/svg">
<path d="M442.815 43.7859L442.147 44.9868L442.803 46.1938L465.796 88.5L33.3063 88.5L3.05643 45.0158L33.2899 2.5L465.751 2.5L442.815 43.7859Z" fill="#401127" fill-opacity="0.5" stroke="#8F1B42" stroke-width="5"/>
<g filter="url(#filter0_d_268_322)">
<path d="M100.393 57.288C98.6219 57.288 97.0219 57.064 95.5926 56.616C94.1632 56.1467 92.9259 55.4747 91.8806 54.6L92.8086 52.488C93.8966 53.32 95.0379 53.9387 96.2326 54.344C97.4272 54.7493 98.8139 54.952 100.393 54.952C102.313 54.952 103.731 54.6 104.649 53.896C105.587 53.1707 106.057 52.2213 106.057 51.048C106.057 50.1093 105.715 49.3627 105.033 48.808C104.371 48.2533 103.251 47.816 101.673 47.496L98.3446 46.824C96.3392 46.3973 94.8352 45.704 93.8326 44.744C92.8512 43.7627 92.3606 42.4613 92.3606 40.84C92.3606 39.496 92.7019 38.3227 93.3846 37.32C94.0886 36.3173 95.0592 35.5387 96.2966 34.984C97.5339 34.4293 98.9632 34.152 100.585 34.152C102.099 34.152 103.507 34.3973 104.809 34.888C106.11 35.3573 107.209 36.04 108.105 36.936L107.177 38.984C106.217 38.1093 105.203 37.48 104.137 37.096C103.07 36.6907 101.875 36.488 100.553 36.488C98.8672 36.488 97.5232 36.8827 96.5206 37.672C95.5179 38.44 95.0166 39.464 95.0166 40.744C95.0166 41.768 95.3259 42.5787 95.9446 43.176C96.5846 43.7733 97.6192 44.2107 99.0486 44.488L102.377 45.192C104.531 45.64 106.121 46.3227 107.145 47.24C108.19 48.136 108.713 49.3627 108.713 50.92C108.713 52.1787 108.371 53.288 107.689 54.248C107.027 55.208 106.067 55.9547 104.809 56.488C103.571 57.0213 102.099 57.288 100.393 57.288ZM112.432 62.76V41.448H114.96V44.232C115.429 43.272 116.123 42.5253 117.04 41.992C117.979 41.4373 119.067 41.16 120.304 41.16C121.691 41.16 122.896 41.4907 123.92 42.152C124.965 42.792 125.765 43.72 126.32 44.936C126.896 46.1307 127.184 47.56 127.184 49.224C127.184 50.8667 126.896 52.296 126.32 53.512C125.765 54.7067 124.965 55.6347 123.92 56.296C122.896 56.9573 121.691 57.288 120.304 57.288C119.109 57.288 118.043 57.0213 117.104 56.488C116.165 55.9547 115.472 55.2187 115.024 54.28V62.76H112.432ZM119.76 55.208C121.211 55.208 122.373 54.696 123.248 53.672C124.123 52.6267 124.56 51.144 124.56 49.224C124.56 47.2827 124.123 45.8 123.248 44.776C122.373 43.752 121.211 43.24 119.76 43.24C118.309 43.24 117.147 43.752 116.272 44.776C115.397 45.8 114.96 47.2827 114.96 49.224C114.96 51.144 115.397 52.6267 116.272 53.672C117.147 54.696 118.309 55.208 119.76 55.208ZM135.984 57.288C134.918 57.288 133.958 57.0853 133.104 56.68C132.272 56.2533 131.611 55.6773 131.12 54.952C130.63 54.2267 130.384 53.416 130.384 52.52C130.384 51.3893 130.672 50.4933 131.248 49.832C131.846 49.1707 132.816 48.7013 134.16 48.424C135.526 48.1253 137.382 47.976 139.728 47.976H140.752V46.984C140.752 45.6613 140.475 44.712 139.92 44.136C139.387 43.5387 138.523 43.24 137.328 43.24C136.39 43.24 135.483 43.3787 134.608 43.656C133.734 43.912 132.838 44.3387 131.92 44.936L131.024 43.048C131.835 42.472 132.816 42.0133 133.968 41.672C135.142 41.3307 136.262 41.16 137.328 41.16C139.334 41.16 140.816 41.6507 141.776 42.632C142.758 43.6133 143.248 45.1387 143.248 47.208V57H140.816V54.312C140.411 55.2293 139.782 55.9547 138.928 56.488C138.096 57.0213 137.115 57.288 135.984 57.288ZM136.4 55.336C137.68 55.336 138.726 54.8987 139.536 54.024C140.347 53.128 140.752 51.9973 140.752 50.632V49.672H139.76C138.032 49.672 136.667 49.7573 135.664 49.928C134.683 50.0773 133.99 50.3547 133.584 50.76C133.2 51.144 133.008 51.6773 133.008 52.36C133.008 53.2347 133.307 53.9493 133.904 54.504C134.523 55.0587 135.355 55.336 136.4 55.336ZM154.649 57.288C153.092 57.288 151.748 56.9573 150.617 56.296C149.486 55.6133 148.612 54.664 147.993 53.448C147.396 52.2107 147.097 50.7707 147.097 49.128C147.097 46.6533 147.769 44.712 149.113 43.304C150.457 41.8747 152.302 41.16 154.649 41.16C155.609 41.16 156.558 41.3307 157.497 41.672C158.436 42.0133 159.214 42.4933 159.833 43.112L158.937 45C158.318 44.4027 157.636 43.9653 156.889 43.688C156.164 43.4107 155.47 43.272 154.809 43.272C153.188 43.272 151.94 43.784 151.065 44.808C150.19 45.8107 149.753 47.2613 149.753 49.16C149.753 51.016 150.19 52.488 151.065 53.576C151.94 54.6427 153.188 55.176 154.809 55.176C155.47 55.176 156.164 55.0373 156.889 54.76C157.636 54.4827 158.318 54.0347 158.937 53.416L159.833 55.304C159.214 55.9227 158.425 56.4133 157.465 56.776C156.526 57.1173 155.588 57.288 154.649 57.288ZM169.565 57.288C167.112 57.288 165.17 56.5733 163.741 55.144C162.312 53.6933 161.597 51.7307 161.597 49.256C161.597 47.656 161.917 46.248 162.557 45.032C163.197 43.7947 164.072 42.8453 165.181 42.184C166.312 41.5013 167.613 41.16 169.085 41.16C171.197 41.16 172.85 41.8427 174.045 43.208C175.24 44.552 175.837 46.408 175.837 48.776V49.768H164.125C164.21 51.5387 164.722 52.8933 165.661 53.832C166.6 54.7493 167.901 55.208 169.565 55.208C170.504 55.208 171.4 55.0693 172.253 54.792C173.106 54.4933 173.917 54.0133 174.685 53.352L175.581 55.176C174.877 55.8373 173.981 56.36 172.893 56.744C171.805 57.1067 170.696 57.288 169.565 57.288ZM169.149 43.08C167.677 43.08 166.514 43.5387 165.661 44.456C164.808 45.3733 164.306 46.5787 164.157 48.072H173.597C173.533 46.4933 173.117 45.2667 172.349 44.392C171.602 43.5173 170.536 43.08 169.149 43.08ZM197.919 57.288C195.7 57.288 193.802 56.8187 192.223 55.88C190.644 54.9413 189.428 53.608 188.575 51.88C187.743 50.152 187.327 48.0933 187.327 45.704C187.327 43.336 187.743 41.288 188.575 39.56C189.428 37.832 190.644 36.4987 192.223 35.56C193.802 34.6213 195.7 34.152 197.919 34.152C199.476 34.152 200.906 34.3973 202.207 34.888C203.53 35.3787 204.65 36.0933 205.567 37.032L204.543 39.176C203.562 38.2587 202.538 37.5973 201.471 37.192C200.426 36.7653 199.263 36.552 197.983 36.552C195.444 36.552 193.503 37.352 192.159 38.952C190.815 40.552 190.143 42.8027 190.143 45.704C190.143 48.6267 190.815 50.888 192.159 52.488C193.503 54.088 195.444 54.888 197.983 54.888C199.263 54.888 200.426 54.6853 201.471 54.28C202.538 53.8533 203.562 53.1813 204.543 52.264L205.567 54.408C204.65 55.3253 203.53 56.04 202.207 56.552C200.906 57.0427 199.476 57.288 197.919 57.288ZM214.677 57.288C213.163 57.288 211.851 56.9573 210.741 56.296C209.632 55.6347 208.768 54.7067 208.149 53.512C207.552 52.296 207.253 50.8667 207.253 49.224C207.253 47.5813 207.552 46.1627 208.149 44.968C208.768 43.752 209.632 42.8133 210.741 42.152C211.851 41.4907 213.163 41.16 214.677 41.16C216.171 41.16 217.472 41.4907 218.581 42.152C219.712 42.8133 220.576 43.752 221.173 44.968C221.792 46.1627 222.101 47.5813 222.101 49.224C222.101 50.8667 221.792 52.296 221.173 53.512C220.576 54.7067 219.712 55.6347 218.581 56.296C217.472 56.9573 216.171 57.288 214.677 57.288ZM214.677 55.208C216.128 55.208 217.291 54.696 218.165 53.672C219.04 52.6267 219.477 51.144 219.477 49.224C219.477 47.2827 219.04 45.8 218.165 44.776C217.291 43.752 216.128 43.24 214.677 43.24C213.205 43.24 212.032 43.752 211.157 44.776C210.304 45.8 209.877 47.2827 209.877 49.224C209.877 51.144 210.304 52.6267 211.157 53.672C212.032 54.696 213.205 55.208 214.677 55.208ZM231.915 57.288C230.528 57.288 229.312 56.9573 228.267 56.296C227.243 55.6347 226.443 54.7067 225.867 53.512C225.312 52.296 225.035 50.8667 225.035 49.224C225.035 47.56 225.312 46.1307 225.867 44.936C226.443 43.72 227.243 42.792 228.267 42.152C229.312 41.4907 230.528 41.16 231.915 41.16C233.131 41.16 234.197 41.4267 235.115 41.96C236.053 42.4933 236.747 43.2293 237.195 44.168V34.44H239.787V57H237.259V54.152C236.811 55.1333 236.117 55.9013 235.179 56.456C234.24 57.0107 233.152 57.288 231.915 57.288ZM232.459 55.208C233.909 55.208 235.072 54.696 235.947 53.672C236.821 52.6267 237.259 51.144 237.259 49.224C237.259 47.2827 236.821 45.8 235.947 44.776C235.072 43.752 233.909 43.24 232.459 43.24C230.987 43.24 229.813 43.752 228.939 44.776C228.085 45.8 227.659 47.2827 227.659 49.224C227.659 51.144 228.085 52.6267 228.939 53.672C229.813 54.696 230.987 55.208 232.459 55.208ZM251.659 57.288C249.205 57.288 247.264 56.5733 245.835 55.144C244.405 53.6933 243.691 51.7307 243.691 49.256C243.691 47.656 244.011 46.248 244.651 45.032C245.291 43.7947 246.165 42.8453 247.275 42.184C248.405 41.5013 249.707 41.16 251.179 41.16C253.291 41.16 254.944 41.8427 256.139 43.208C257.333 44.552 257.931 46.408 257.931 48.776V49.768H246.219C246.304 51.5387 246.816 52.8933 247.755 53.832C248.693 54.7493 249.995 55.208 251.659 55.208C252.597 55.208 253.493 55.0693 254.347 54.792C255.2 54.4933 256.011 54.0133 256.779 53.352L257.675 55.176C256.971 55.8373 256.075 56.36 254.987 56.744C253.899 57.1067 252.789 57.288 251.659 57.288ZM251.243 43.08C249.771 43.08 248.608 43.5387 247.755 44.456C246.901 45.3733 246.4 46.5787 246.251 48.072H255.691C255.627 46.4933 255.211 45.2667 254.443 44.392C253.696 43.5173 252.629 43.08 251.243 43.08ZM270.317 57V34.44H272.525L281.197 50.728L289.805 34.44H292.013V57H289.581V39.368L282.061 53.512H280.333L272.717 39.4V57H270.317ZM303.74 57.288C302.225 57.288 300.913 56.9573 299.804 56.296C298.694 55.6347 297.83 54.7067 297.212 53.512C296.614 52.296 296.316 50.8667 296.316 49.224C296.316 47.5813 296.614 46.1627 297.212 44.968C297.83 43.752 298.694 42.8133 299.804 42.152C300.913 41.4907 302.225 41.16 303.74 41.16C305.233 41.16 306.534 41.4907 307.644 42.152C308.774 42.8133 309.638 43.752 310.236 44.968C310.854 46.1627 311.164 47.5813 311.164 49.224C311.164 50.8667 310.854 52.296 310.236 53.512C309.638 54.7067 308.774 55.6347 307.644 56.296C306.534 56.9573 305.233 57.288 303.74 57.288ZM303.74 55.208C305.19 55.208 306.353 54.696 307.228 53.672C308.102 52.6267 308.54 51.144 308.54 49.224C308.54 47.2827 308.102 45.8 307.228 44.776C306.353 43.752 305.19 43.24 303.74 43.24C302.268 43.24 301.094 43.752 300.22 44.776C299.366 45.8 298.94 47.2827 298.94 49.224C298.94 51.144 299.366 52.6267 300.22 53.672C301.094 54.696 302.268 55.208 303.74 55.208ZM315.057 57V41.448H317.585V44.104C318.097 43.1227 318.822 42.3867 319.761 41.896C320.7 41.4053 321.756 41.16 322.929 41.16C326.62 41.16 328.465 43.208 328.465 47.304V57H325.873V47.464C325.873 46.0133 325.585 44.9573 325.009 44.296C324.454 43.6133 323.558 43.272 322.321 43.272C320.892 43.272 319.75 43.72 318.897 44.616C318.065 45.4907 317.649 46.664 317.649 48.136V57H315.057ZM333.245 57V34.44H335.837V48.36H335.901L343.101 41.448H346.397L338.589 48.936L347.069 57H343.773L335.901 49.704H335.837V57H333.245ZM355.846 57.288C353.393 57.288 351.452 56.5733 350.022 55.144C348.593 53.6933 347.878 51.7307 347.878 49.256C347.878 47.656 348.198 46.248 348.838 45.032C349.478 43.7947 350.353 42.8453 351.462 42.184C352.593 41.5013 353.894 41.16 355.366 41.16C357.478 41.16 359.132 41.8427 360.326 43.208C361.521 44.552 362.118 46.408 362.118 48.776V49.768H350.406C350.492 51.5387 351.004 52.8933 351.942 53.832C352.881 54.7493 354.182 55.208 355.846 55.208C356.785 55.208 357.681 55.0693 358.534 54.792C359.388 54.4933 360.198 54.0133 360.966 53.352L361.862 55.176C361.158 55.8373 360.262 56.36 359.174 56.744C358.086 57.1067 356.977 57.288 355.846 57.288ZM355.43 43.08C353.958 43.08 352.796 43.5387 351.942 44.456C351.089 45.3733 350.588 46.5787 350.438 48.072H359.878C359.814 46.4933 359.398 45.2667 358.63 44.392C357.884 43.5173 356.817 43.08 355.43 43.08ZM367.474 62.76L370.13 56.744L363.57 41.448H366.386L371.538 54.056L376.722 41.448H379.442L370.194 62.76H367.474Z" fill="#FFFEE8"/>
</g>
<defs>
<filter id="filter0_d_268_322" x="76.8806" y="19.152" width="317.562" height="58.608" filterUnits="userSpaceOnUse" color-interpolation-filters="sRGB">
<feFlood flood-opacity="0" result="BackgroundImageFix"/>
<feColorMatrix in="SourceAlpha" type="matrix" values="0 0 0 0 0 0 0 0 0 0 0 0 0 0 0 0 0 0 127 0" result="hardAlpha"/>
<feOffset/>
<feGaussianBlur stdDeviation="7.5"/>
<feColorMatrix type="matrix" values="0 0 0 0 1 0 0 0 0 0.996078 0 0 0 0 0.909804 0 0 0 0.5 0"/>
<feBlend mode="normal" in2="BackgroundImageFix" result="effect1_dropShadow_268_322"/>
<feBlend mode="normal" in="SourceGraphic" in2="effect1_dropShadow_268_322" result="shape"/>
</filter>
</defs>
</svg>
