<svg width="470" height="91" viewBox="0 0 470 91" fill="none" xmlns="http://www.w3.org/2000/svg">
<path d="M442.815 43.7859L442.147 44.9868L442.803 46.1938L465.796 88.5L33.3063 88.5L3.05642 45.0158L33.2898 2.50004L465.751 2.5L442.815 43.7859Z" fill="#401127" fill-opacity="0.5" stroke="#8F1B42" stroke-width="5"/>
<g filter="url(#filter0_d_268_326)">
<path d="M123.831 57V34.44H132.759C135.191 34.44 137.047 35.0053 138.327 36.136C139.628 37.2667 140.279 38.8773 140.279 40.968C140.279 42.632 139.82 43.9973 138.903 45.064C138.007 46.1307 136.727 46.824 135.063 47.144C136.044 47.4853 136.887 48.3173 137.591 49.64L141.559 57H138.679L134.775 49.768C134.284 48.872 133.719 48.264 133.079 47.944C132.439 47.624 131.596 47.464 130.551 47.464H126.455V57H123.831ZM126.455 45.384H132.375C135.916 45.384 137.687 43.912 137.687 40.968C137.687 38.0667 135.916 36.616 132.375 36.616H126.455V45.384ZM151.005 57.288C149.491 57.288 148.179 56.9573 147.069 56.296C145.96 55.6347 145.096 54.7067 144.477 53.512C143.88 52.296 143.581 50.8667 143.581 49.224C143.581 47.5813 143.88 46.1627 144.477 44.968C145.096 43.752 145.96 42.8133 147.069 42.152C148.179 41.4907 149.491 41.16 151.005 41.16C152.499 41.16 153.8 41.4907 154.909 42.152C156.04 42.8133 156.904 43.752 157.501 44.968C158.12 46.1627 158.429 47.5813 158.429 49.224C158.429 50.8667 158.12 52.296 157.501 53.512C156.904 54.7067 156.04 55.6347 154.909 56.296C153.8 56.9573 152.499 57.288 151.005 57.288ZM151.005 55.208C152.456 55.208 153.619 54.696 154.493 53.672C155.368 52.6267 155.805 51.144 155.805 49.224C155.805 47.2827 155.368 45.8 154.493 44.776C153.619 43.752 152.456 43.24 151.005 43.24C149.533 43.24 148.36 43.752 147.485 44.776C146.632 45.8 146.205 47.2827 146.205 49.224C146.205 51.144 146.632 52.6267 147.485 53.672C148.36 54.696 149.533 55.208 151.005 55.208ZM168.915 57.288C167.357 57.288 166.013 56.9573 164.883 56.296C163.752 55.6133 162.877 54.664 162.259 53.448C161.661 52.2107 161.363 50.7707 161.363 49.128C161.363 46.6533 162.035 44.712 163.379 43.304C164.723 41.8747 166.568 41.16 168.915 41.16C169.875 41.16 170.824 41.3307 171.763 41.672C172.701 42.0133 173.48 42.4933 174.099 43.112L173.203 45C172.584 44.4027 171.901 43.9653 171.155 43.688C170.429 43.4107 169.736 43.272 169.075 43.272C167.453 43.272 166.205 43.784 165.331 44.808C164.456 45.8107 164.019 47.2613 164.019 49.16C164.019 51.016 164.456 52.488 165.331 53.576C166.205 54.6427 167.453 55.176 169.075 55.176C169.736 55.176 170.429 55.0373 171.155 54.76C171.901 54.4827 172.584 54.0347 173.203 53.416L174.099 55.304C173.48 55.9227 172.691 56.4133 171.731 56.776C170.792 57.1173 169.853 57.288 168.915 57.288ZM177.135 57V34.44H179.727V48.36H179.791L186.991 41.448H190.287L182.479 48.936L190.959 57H187.663L179.791 49.704H179.727V57H177.135ZM199.737 57.288C197.283 57.288 195.342 56.5733 193.913 55.144C192.483 53.6933 191.769 51.7307 191.769 49.256C191.769 47.656 192.089 46.248 192.729 45.032C193.369 43.7947 194.243 42.8453 195.353 42.184C196.483 41.5013 197.785 41.16 199.257 41.16C201.369 41.16 203.022 41.8427 204.217 43.208C205.411 44.552 206.009 46.408 206.009 48.776V49.768H194.297C194.382 51.5387 194.894 52.8933 195.833 53.832C196.771 54.7493 198.073 55.208 199.737 55.208C200.675 55.208 201.571 55.0693 202.425 54.792C203.278 54.4933 204.089 54.0133 204.857 53.352L205.753 55.176C205.049 55.8373 204.153 56.36 203.065 56.744C201.977 57.1067 200.867 57.288 199.737 57.288ZM199.321 43.08C197.849 43.08 196.686 43.5387 195.833 44.456C194.979 45.3733 194.478 46.5787 194.329 48.072H203.769C203.705 46.4933 203.289 45.2667 202.521 44.392C201.774 43.5173 200.707 43.08 199.321 43.08ZM216 57.288C214.165 57.288 212.789 56.808 211.872 55.848C210.955 54.8667 210.496 53.4587 210.496 51.624V43.464H207.456V41.448H210.496V36.68H213.088V41.448H218.016V43.464H213.088V51.368C213.088 52.584 213.344 53.512 213.856 54.152C214.368 54.7707 215.2 55.08 216.352 55.08C216.693 55.08 217.035 55.0373 217.376 54.952C217.717 54.8667 218.027 54.7813 218.304 54.696L218.752 56.68C218.475 56.8293 218.069 56.968 217.536 57.096C217.003 57.224 216.491 57.288 216 57.288ZM236.814 57.288C235.044 57.288 233.444 57.064 232.014 56.616C230.585 56.1467 229.348 55.4747 228.302 54.6L229.23 52.488C230.318 53.32 231.46 53.9387 232.654 54.344C233.849 54.7493 235.236 54.952 236.814 54.952C238.734 54.952 240.153 54.6 241.07 53.896C242.009 53.1707 242.478 52.2213 242.478 51.048C242.478 50.1093 242.137 49.3627 241.454 48.808C240.793 48.2533 239.673 47.816 238.094 47.496L234.766 46.824C232.761 46.3973 231.257 45.704 230.254 44.744C229.273 43.7627 228.782 42.4613 228.782 40.84C228.782 39.496 229.124 38.3227 229.806 37.32C230.51 36.3173 231.481 35.5387 232.718 34.984C233.956 34.4293 235.385 34.152 237.006 34.152C238.521 34.152 239.929 34.3973 241.23 34.888C242.532 35.3573 243.63 36.04 244.526 36.936L243.598 38.984C242.638 38.1093 241.625 37.48 240.558 37.096C239.492 36.6907 238.297 36.488 236.974 36.488C235.289 36.488 233.945 36.8827 232.942 37.672C231.94 38.44 231.438 39.464 231.438 40.744C231.438 41.768 231.748 42.5787 232.366 43.176C233.006 43.7733 234.041 44.2107 235.47 44.488L238.798 45.192C240.953 45.64 242.542 46.3227 243.566 47.24C244.612 48.136 245.134 49.3627 245.134 50.92C245.134 52.1787 244.793 53.288 244.11 54.248C243.449 55.208 242.489 55.9547 241.23 56.488C239.993 57.0213 238.521 57.288 236.814 57.288ZM255.446 57.288C253.888 57.288 252.544 56.9573 251.414 56.296C250.283 55.6133 249.408 54.664 248.79 53.448C248.192 52.2107 247.894 50.7707 247.894 49.128C247.894 46.6533 248.566 44.712 249.91 43.304C251.254 41.8747 253.099 41.16 255.446 41.16C256.406 41.16 257.355 41.3307 258.294 41.672C259.232 42.0133 260.011 42.4933 260.63 43.112L259.734 45C259.115 44.4027 258.432 43.9653 257.686 43.688C256.96 43.4107 256.267 43.272 255.606 43.272C253.984 43.272 252.736 43.784 251.862 44.808C250.987 45.8107 250.55 47.2613 250.55 49.16C250.55 51.016 250.987 52.488 251.862 53.576C252.736 54.6427 253.984 55.176 255.606 55.176C256.267 55.176 256.96 55.0373 257.686 54.76C258.432 54.4827 259.115 54.0347 259.734 53.416L260.63 55.304C260.011 55.9227 259.222 56.4133 258.262 56.776C257.323 57.1173 256.384 57.288 255.446 57.288ZM263.346 37.576V34.664H266.546V37.576H263.346ZM263.666 57V41.448H266.258V57H263.666ZM278.112 57.288C275.658 57.288 273.717 56.5733 272.288 55.144C270.858 53.6933 270.144 51.7307 270.144 49.256C270.144 47.656 270.464 46.248 271.104 45.032C271.744 43.7947 272.618 42.8453 273.728 42.184C274.858 41.5013 276.16 41.16 277.632 41.16C279.744 41.16 281.397 41.8427 282.592 43.208C283.786 44.552 284.384 46.408 284.384 48.776V49.768H272.672C272.757 51.5387 273.269 52.8933 274.208 53.832C275.146 54.7493 276.448 55.208 278.112 55.208C279.05 55.208 279.946 55.0693 280.8 54.792C281.653 54.4933 282.464 54.0133 283.232 53.352L284.128 55.176C283.424 55.8373 282.528 56.36 281.44 56.744C280.352 57.1067 279.242 57.288 278.112 57.288ZM277.696 43.08C276.224 43.08 275.061 43.5387 274.208 44.456C273.354 45.3733 272.853 46.5787 272.704 48.072H282.144C282.08 46.4933 281.664 45.2667 280.896 44.392C280.149 43.5173 279.082 43.08 277.696 43.08ZM288.135 57V41.448H290.663V44.104C291.175 43.1227 291.9 42.3867 292.839 41.896C293.778 41.4053 294.834 41.16 296.007 41.16C299.698 41.16 301.543 43.208 301.543 47.304V57H298.951V47.464C298.951 46.0133 298.663 44.9573 298.087 44.296C297.532 43.6133 296.636 43.272 295.399 43.272C293.97 43.272 292.828 43.72 291.975 44.616C291.143 45.4907 290.727 46.664 290.727 48.136V57H288.135ZM312.563 57.288C310.728 57.288 309.352 56.808 308.435 55.848C307.517 54.8667 307.059 53.4587 307.059 51.624V43.464H304.019V41.448H307.059V36.68H309.651V41.448H314.579V43.464H309.651V51.368C309.651 52.584 309.907 53.512 310.419 54.152C310.931 54.7707 311.763 55.08 312.915 55.08C313.256 55.08 313.597 55.0373 313.939 54.952C314.28 54.8667 314.589 54.7813 314.867 54.696L315.315 56.68C315.037 56.8293 314.632 56.968 314.099 57.096C313.565 57.224 313.053 57.288 312.563 57.288ZM317.19 37.576V34.664H320.39V37.576H317.19ZM317.51 57V41.448H320.102V57H317.51ZM330.196 57.288C328.98 57.288 327.828 57.1173 326.74 56.776C325.652 56.4347 324.756 55.9547 324.052 55.336L324.884 53.512C325.652 54.1307 326.494 54.5893 327.412 54.888C328.35 55.1653 329.3 55.304 330.26 55.304C331.476 55.304 332.393 55.08 333.012 54.632C333.63 54.184 333.94 53.576 333.94 52.808C333.94 52.2107 333.737 51.7413 333.332 51.4C332.926 51.0373 332.286 50.76 331.412 50.568L328.5 49.928C325.854 49.352 324.532 47.9867 324.532 45.832C324.532 44.424 325.086 43.2933 326.196 42.44C327.326 41.5867 328.798 41.16 330.612 41.16C331.678 41.16 332.692 41.3307 333.652 41.672C334.633 41.992 335.444 42.472 336.084 43.112L335.22 44.936C334.601 44.36 333.876 43.9227 333.044 43.624C332.233 43.304 331.422 43.144 330.612 43.144C329.417 43.144 328.51 43.3787 327.892 43.848C327.273 44.3173 326.964 44.936 326.964 45.704C326.964 46.8987 327.753 47.6667 329.332 48.008L332.244 48.616C333.609 48.9147 334.644 49.3947 335.348 50.056C336.052 50.696 336.404 51.5707 336.404 52.68C336.404 54.1093 335.838 55.24 334.708 56.072C333.577 56.8827 332.073 57.288 330.196 57.288ZM346.438 57.288C344.603 57.288 343.227 56.808 342.31 55.848C341.392 54.8667 340.934 53.4587 340.934 51.624V43.464H337.894V41.448H340.934V36.68H343.526V41.448H348.454V43.464H343.526V51.368C343.526 52.584 343.782 53.512 344.294 54.152C344.806 54.7707 345.638 55.08 346.79 55.08C347.131 55.08 347.472 55.0373 347.814 54.952C348.155 54.8667 348.464 54.7813 348.742 54.696L349.19 56.68C348.912 56.8293 348.507 56.968 347.974 57.096C347.44 57.224 346.928 57.288 346.438 57.288Z" fill="#FFFEE8"/>
</g>
<defs>
<filter id="filter0_d_268_326" x="108.831" y="19.152" width="255.359" height="53.136" filterUnits="userSpaceOnUse" color-interpolation-filters="sRGB">
<feFlood flood-opacity="0" result="BackgroundImageFix"/>
<feColorMatrix in="SourceAlpha" type="matrix" values="0 0 0 0 0 0 0 0 0 0 0 0 0 0 0 0 0 0 127 0" result="hardAlpha"/>
<feOffset/>
<feGaussianBlur stdDeviation="7.5"/>
<feColorMatrix type="matrix" values="0 0 0 0 1 0 0 0 0 0.996078 0 0 0 0 0.909804 0 0 0 0.5 0"/>
<feBlend mode="normal" in2="BackgroundImageFix" result="effect1_dropShadow_268_326"/>
<feBlend mode="normal" in="SourceGraphic" in2="effect1_dropShadow_268_326" result="shape"/>
</filter>
</defs>
</svg>
