<svg width="134" height="128" viewBox="0 0 134 128" fill="none" xmlns="http://www.w3.org/2000/svg">
<g filter="url(#filter0_d_530_214)">
<path d="M131 64L99 119.426L35 119.426L3 64L35 8.57437L99 8.57437L131 64Z" fill="#F21E2C" fill-opacity="0.2" shape-rendering="crispEdges"/>
<path d="M97.5566 11.0744L128.113 64L97.5566 116.926L36.4434 116.926L5.88675 64L36.4434 11.0744L97.5566 11.0744Z" stroke="#FEC631" stroke-width="5" stroke-miterlimit="1.36733" stroke-linecap="round" shape-rendering="crispEdges"/>
</g>
<g filter="url(#filter1_d_530_214)">
<path d="M67.788 55.7887C66.1466 55.6266 64.4952 55.9758 63.06 56.7885C61.6247 57.6012 60.4757 58.8377 59.7703 60.3286C59.0649 61.8195 58.8376 63.4921 59.1194 65.1172C59.4013 66.7423 60.1786 68.2406 61.3449 69.4069C62.5112 70.5732 64.0095 71.3505 65.6346 71.6323C67.2597 71.9142 68.9322 71.6869 70.4232 70.9815C71.9141 70.2761 73.1506 69.1271 73.9632 67.6918C74.7759 66.2565 75.1251 64.6052 74.963 62.9638C74.7782 61.1237 73.9629 59.4042 72.6553 58.0965C71.3476 56.7889 69.6281 55.9736 67.788 55.7887ZM87.0505 63.75C87.0454 64.6196 86.9815 65.4878 86.8593 66.3488L92.5105 70.7812C92.7566 70.9852 92.9224 71.2698 92.9785 71.5845C93.0346 71.8992 92.9773 72.2236 92.8168 72.5L87.4705 81.75C87.3082 82.0238 87.0544 82.2314 86.7539 82.3364C86.4534 82.4414 86.1255 82.4369 85.828 82.3237L80.2155 80.0638C79.906 79.9405 79.5708 79.896 79.2398 79.9342C78.9089 79.9724 78.5926 80.092 78.3193 80.2825C77.4627 80.8723 76.5626 81.3963 75.6268 81.85C75.3326 81.993 75.0781 82.2062 74.8858 82.4709C74.6935 82.7356 74.5694 83.0435 74.5243 83.3675L73.683 89.3537C73.6278 89.6699 73.4644 89.957 73.2209 90.1661C72.9774 90.3752 72.6689 90.4932 72.348 90.5H61.6555C61.34 90.4945 61.0357 90.3817 60.7928 90.1802C60.5499 89.9787 60.3829 89.7004 60.3193 89.3913L59.4793 83.4137C59.4321 83.0862 59.3047 82.7753 59.1085 82.5088C58.9122 82.2423 58.6531 82.0285 58.3543 81.8862C57.4195 81.4351 56.5225 80.9096 55.6718 80.315C55.3994 80.1255 55.0841 80.0067 54.7544 79.9694C54.4247 79.9321 54.0909 79.9774 53.783 80.1012L48.1718 82.36C47.8744 82.4732 47.5466 82.4779 47.2462 82.3732C46.9457 82.2684 46.6918 82.061 46.5293 81.7875L41.183 72.5375C41.0223 72.2611 40.9649 71.9367 41.0209 71.622C41.077 71.3072 41.243 71.0226 41.4893 70.8187L46.2655 67.0687C46.5272 66.861 46.7329 66.5913 46.8638 66.2839C46.9948 65.9766 47.0469 65.6414 47.0155 65.3088C46.9705 64.7875 46.943 64.2675 46.943 63.7463C46.943 63.225 46.9693 62.7125 47.0155 62.2025C47.0435 61.8719 46.9888 61.5396 46.8564 61.2354C46.7239 60.9312 46.5179 60.6647 46.2568 60.46L41.483 56.71C41.2407 56.5051 41.0783 56.2215 41.0241 55.9088C40.9699 55.5962 41.0275 55.2745 41.1868 55L46.533 45.75C46.6954 45.4762 46.9492 45.2686 47.2497 45.1636C47.5501 45.0586 47.878 45.0631 48.1755 45.1763L53.788 47.4362C54.0975 47.5595 54.4328 47.604 54.7637 47.5658C55.0947 47.5277 55.411 47.408 55.6843 47.2175C56.5408 46.6277 57.4409 46.1036 58.3768 45.65C58.671 45.507 58.9255 45.2938 59.1178 45.0291C59.31 44.7644 59.4342 44.4565 59.4793 44.1325L60.3205 38.1462C60.3758 37.8301 60.5391 37.543 60.7826 37.3339C61.0261 37.1248 61.3347 37.0068 61.6555 37H72.348C72.6636 37.0055 72.9679 37.1183 73.2108 37.3198C73.4537 37.5213 73.6207 37.7996 73.6843 38.1087L74.5243 44.0863C74.5714 44.4138 74.6988 44.7247 74.8951 44.9912C75.0914 45.2577 75.3504 45.4715 75.6493 45.6138C76.584 46.0649 77.4811 46.5904 78.3318 47.185C78.6042 47.3745 78.9194 47.4933 79.2491 47.5306C79.5789 47.5679 79.9127 47.5226 80.2205 47.3988L85.8318 45.14C86.1291 45.0268 86.4569 45.0221 86.7574 45.1268C87.0579 45.2316 87.3117 45.439 87.4743 45.7125L92.8205 54.9625C92.9813 55.2389 93.0387 55.5633 92.9826 55.878C92.9265 56.1928 92.7606 56.4774 92.5143 56.6812L87.738 60.4312C87.4752 60.6383 87.2684 60.9078 87.1363 61.2152C87.0042 61.5226 86.9511 61.8581 86.9818 62.1912C87.023 62.7087 87.0505 63.2287 87.0505 63.75Z" stroke="#FEC631" stroke-width="4" stroke-linecap="round" stroke-linejoin="round"/>
</g>
<defs>
<filter id="filter0_d_530_214" x="0" y="8.57434" width="134" height="116.851" filterUnits="userSpaceOnUse" color-interpolation-filters="sRGB">
<feFlood flood-opacity="0" result="BackgroundImageFix"/>
<feColorMatrix in="SourceAlpha" type="matrix" values="0 0 0 0 0 0 0 0 0 0 0 0 0 0 0 0 0 0 127 0" result="hardAlpha"/>
<feOffset dy="3"/>
<feGaussianBlur stdDeviation="1.5"/>
<feComposite in2="hardAlpha" operator="out"/>
<feColorMatrix type="matrix" values="0 0 0 0 0 0 0 0 0 0 0 0 0 0 0 0 0 0 0.25 0"/>
<feBlend mode="normal" in2="BackgroundImageFix" result="effect1_dropShadow_530_214"/>
<feBlend mode="normal" in="SourceGraphic" in2="effect1_dropShadow_530_214" result="shape"/>
</filter>
<filter id="filter1_d_530_214" x="20" y="17" width="94" height="94" filterUnits="userSpaceOnUse" color-interpolation-filters="sRGB">
<feFlood flood-opacity="0" result="BackgroundImageFix"/>
<feColorMatrix in="SourceAlpha" type="matrix" values="0 0 0 0 0 0 0 0 0 0 0 0 0 0 0 0 0 0 127 0" result="hardAlpha"/>
<feOffset/>
<feGaussianBlur stdDeviation="7.5"/>
<feColorMatrix type="matrix" values="0 0 0 0 0.996078 0 0 0 0 0.776471 0 0 0 0 0.192157 0 0 0 0.5 0"/>
<feBlend mode="normal" in2="BackgroundImageFix" result="effect1_dropShadow_530_214"/>
<feBlend mode="normal" in="SourceGraphic" in2="effect1_dropShadow_530_214" result="shape"/>
</filter>
</defs>
</svg>
