<svg width="470" height="91" viewBox="0 0 470 91" fill="none" xmlns="http://www.w3.org/2000/svg">
<path d="M442.815 43.7859L442.147 44.9868L442.803 46.1938L465.796 88.5L33.3063 88.5L3.05642 45.0158L33.2898 2.50004L465.751 2.5L442.815 43.7859Z" fill="#401127" fill-opacity="0.5" stroke="#8F1B42" stroke-width="5"/>
<g filter="url(#filter0_d_268_330)">
<path d="M131.424 57.288C129.653 57.288 128.053 57.064 126.624 56.616C125.194 56.1467 123.957 55.4747 122.912 54.6L123.84 52.488C124.928 53.32 126.069 53.9387 127.264 54.344C128.458 54.7493 129.845 54.952 131.424 54.952C133.344 54.952 134.762 54.6 135.68 53.896C136.618 53.1707 137.088 52.2213 137.088 51.048C137.088 50.1093 136.746 49.3627 136.064 48.808C135.402 48.2533 134.282 47.816 132.704 47.496L129.376 46.824C127.37 46.3973 125.866 45.704 124.864 44.744C123.882 43.7627 123.392 42.4613 123.392 40.84C123.392 39.496 123.733 38.3227 124.416 37.32C125.12 36.3173 126.09 35.5387 127.328 34.984C128.565 34.4293 129.994 34.152 131.616 34.152C133.13 34.152 134.538 34.3973 135.84 34.888C137.141 35.3573 138.24 36.04 139.136 36.936L138.208 38.984C137.248 38.1093 136.234 37.48 135.168 37.096C134.101 36.6907 132.906 36.488 131.584 36.488C129.898 36.488 128.554 36.8827 127.552 37.672C126.549 38.44 126.048 39.464 126.048 40.744C126.048 41.768 126.357 42.5787 126.976 43.176C127.616 43.7733 128.65 44.2107 130.08 44.488L133.408 45.192C135.562 45.64 137.152 46.3227 138.176 47.24C139.221 48.136 139.744 49.3627 139.744 50.92C139.744 52.1787 139.402 53.288 138.72 54.248C138.058 55.208 137.098 55.9547 135.84 56.488C134.602 57.0213 133.13 57.288 131.424 57.288ZM149.927 57.288C148.413 57.288 147.101 56.9573 145.991 56.296C144.882 55.6347 144.018 54.7067 143.399 53.512C142.802 52.296 142.503 50.8667 142.503 49.224C142.503 47.5813 142.802 46.1627 143.399 44.968C144.018 43.752 144.882 42.8133 145.991 42.152C147.101 41.4907 148.413 41.16 149.927 41.16C151.421 41.16 152.722 41.4907 153.831 42.152C154.962 42.8133 155.826 43.752 156.423 44.968C157.042 46.1627 157.351 47.5813 157.351 49.224C157.351 50.8667 157.042 52.296 156.423 53.512C155.826 54.7067 154.962 55.6347 153.831 56.296C152.722 56.9573 151.421 57.288 149.927 57.288ZM149.927 55.208C151.378 55.208 152.541 54.696 153.415 53.672C154.29 52.6267 154.727 51.144 154.727 49.224C154.727 47.2827 154.29 45.8 153.415 44.776C152.541 43.752 151.378 43.24 149.927 43.24C148.455 43.24 147.282 43.752 146.407 44.776C145.554 45.8 145.127 47.2827 145.127 49.224C145.127 51.144 145.554 52.6267 146.407 53.672C147.282 54.696 148.455 55.208 149.927 55.208ZM161.92 57V43.464H158.848V41.448H161.92V40.904C161.92 38.8347 162.432 37.2667 163.456 36.2C164.502 35.1333 166.102 34.536 168.256 34.408L169.504 34.344L169.728 36.328L168.256 36.424C166.934 36.5307 165.974 36.9253 165.376 37.608C164.8 38.2907 164.512 39.2827 164.512 40.584V41.448H168.992V43.464H164.512V57H161.92ZM177.203 57.288C175.369 57.288 173.993 56.808 173.075 55.848C172.158 54.8667 171.699 53.4587 171.699 51.624V43.464H168.659V41.448H171.699V36.68H174.291V41.448H179.219V43.464H174.291V51.368C174.291 52.584 174.547 53.512 175.059 54.152C175.571 54.7707 176.403 55.08 177.555 55.08C177.897 55.08 178.238 55.0373 178.579 54.952C178.921 54.8667 179.23 54.7813 179.507 54.696L179.955 56.68C179.678 56.8293 179.273 56.968 178.739 57.096C178.206 57.224 177.694 57.288 177.203 57.288ZM186.466 57L180.674 41.448H183.394L187.778 53.96L192.322 41.448H194.53L199.01 53.992L203.458 41.448H206.05L200.226 57H197.762L193.378 44.936L188.962 57H186.466ZM213.828 57.288C212.761 57.288 211.801 57.0853 210.948 56.68C210.116 56.2533 209.455 55.6773 208.964 54.952C208.473 54.2267 208.228 53.416 208.228 52.52C208.228 51.3893 208.516 50.4933 209.092 49.832C209.689 49.1707 210.66 48.7013 212.004 48.424C213.369 48.1253 215.225 47.976 217.572 47.976H218.596V46.984C218.596 45.6613 218.319 44.712 217.764 44.136C217.231 43.5387 216.367 43.24 215.172 43.24C214.233 43.24 213.327 43.3787 212.452 43.656C211.577 43.912 210.681 44.3387 209.764 44.936L208.868 43.048C209.679 42.472 210.66 42.0133 211.812 41.672C212.985 41.3307 214.105 41.16 215.172 41.16C217.177 41.16 218.66 41.6507 219.62 42.632C220.601 43.6133 221.092 45.1387 221.092 47.208V57H218.66V54.312C218.255 55.2293 217.625 55.9547 216.772 56.488C215.94 57.0213 214.959 57.288 213.828 57.288ZM214.244 55.336C215.524 55.336 216.569 54.8987 217.38 54.024C218.191 53.128 218.596 51.9973 218.596 50.632V49.672H217.604C215.876 49.672 214.511 49.7573 213.508 49.928C212.527 50.0773 211.833 50.3547 211.428 50.76C211.044 51.144 210.852 51.6773 210.852 52.36C210.852 53.2347 211.151 53.9493 211.748 54.504C212.367 55.0587 213.199 55.336 214.244 55.336ZM225.901 57V41.448H228.429V44.232C229.261 42.3547 230.967 41.32 233.549 41.128L234.477 41.032L234.669 43.272L233.037 43.464C231.565 43.592 230.445 44.0613 229.677 44.872C228.909 45.6613 228.525 46.7493 228.525 48.136V57H225.901ZM244.19 57.288C241.737 57.288 239.795 56.5733 238.366 55.144C236.937 53.6933 236.222 51.7307 236.222 49.256C236.222 47.656 236.542 46.248 237.182 45.032C237.822 43.7947 238.697 42.8453 239.806 42.184C240.937 41.5013 242.238 41.16 243.71 41.16C245.822 41.16 247.475 41.8427 248.67 43.208C249.865 44.552 250.462 46.408 250.462 48.776V49.768H238.75C238.835 51.5387 239.347 52.8933 240.286 53.832C241.225 54.7493 242.526 55.208 244.19 55.208C245.129 55.208 246.025 55.0693 246.878 54.792C247.731 54.4933 248.542 54.0133 249.31 53.352L250.206 55.176C249.502 55.8373 248.606 56.36 247.518 56.744C246.43 57.1067 245.321 57.288 244.19 57.288ZM243.774 43.08C242.302 43.08 241.139 43.5387 240.286 44.456C239.433 45.3733 238.931 46.5787 238.782 48.072H248.222C248.158 46.4933 247.742 45.2667 246.974 44.392C246.227 43.5173 245.161 43.08 243.774 43.08ZM270.08 57.288C268.309 57.288 266.709 57.064 265.28 56.616C263.851 56.1467 262.613 55.4747 261.568 54.6L262.496 52.488C263.584 53.32 264.725 53.9387 265.92 54.344C267.115 54.7493 268.501 54.952 270.08 54.952C272 54.952 273.419 54.6 274.336 53.896C275.275 53.1707 275.744 52.2213 275.744 51.048C275.744 50.1093 275.403 49.3627 274.72 48.808C274.059 48.2533 272.939 47.816 271.36 47.496L268.032 46.824C266.027 46.3973 264.523 45.704 263.52 44.744C262.539 43.7627 262.048 42.4613 262.048 40.84C262.048 39.496 262.389 38.3227 263.072 37.32C263.776 36.3173 264.747 35.5387 265.984 34.984C267.221 34.4293 268.651 34.152 270.272 34.152C271.787 34.152 273.195 34.3973 274.496 34.888C275.797 35.3573 276.896 36.04 277.792 36.936L276.864 38.984C275.904 38.1093 274.891 37.48 273.824 37.096C272.757 36.6907 271.563 36.488 270.24 36.488C268.555 36.488 267.211 36.8827 266.208 37.672C265.205 38.44 264.704 39.464 264.704 40.744C264.704 41.768 265.013 42.5787 265.632 43.176C266.272 43.7733 267.307 44.2107 268.736 44.488L272.064 45.192C274.219 45.64 275.808 46.3227 276.832 47.24C277.877 48.136 278.4 49.3627 278.4 50.92C278.4 52.1787 278.059 53.288 277.376 54.248C276.715 55.208 275.755 55.9547 274.496 56.488C273.259 57.0213 271.787 57.288 270.08 57.288ZM287.623 57.288C283.89 57.288 282.023 55.2293 282.023 51.112V41.448H284.615V51.08C284.615 52.4667 284.893 53.4907 285.447 54.152C286.023 54.8133 286.919 55.144 288.135 55.144C289.458 55.144 290.535 54.7067 291.367 53.832C292.199 52.936 292.615 51.752 292.615 50.28V41.448H295.207V57H292.679V54.376C292.189 55.3147 291.495 56.04 290.599 56.552C289.725 57.0427 288.733 57.288 287.623 57.288ZM300.057 57V41.448H302.585V44.232C303.417 42.3547 305.124 41.32 307.705 41.128L308.633 41.032L308.825 43.272L307.193 43.464C305.721 43.592 304.601 44.0613 303.833 44.872C303.065 45.6613 302.681 46.7493 302.681 48.136V57H300.057ZM313.201 57V43.464H310.129V41.448H313.201V40.904C313.201 38.8347 313.713 37.2667 314.737 36.2C315.783 35.1333 317.383 34.536 319.537 34.408L320.785 34.344L321.009 36.328L319.537 36.424C318.215 36.5307 317.255 36.9253 316.657 37.608C316.081 38.2907 315.793 39.2827 315.793 40.584V41.448H320.273V43.464H315.793V57H313.201ZM329.596 57.288C327.143 57.288 325.202 56.5733 323.772 55.144C322.343 53.6933 321.628 51.7307 321.628 49.256C321.628 47.656 321.948 46.248 322.588 45.032C323.228 43.7947 324.103 42.8453 325.212 42.184C326.343 41.5013 327.644 41.16 329.116 41.16C331.228 41.16 332.882 41.8427 334.076 43.208C335.271 44.552 335.868 46.408 335.868 48.776V49.768H324.156C324.242 51.5387 324.754 52.8933 325.692 53.832C326.631 54.7493 327.932 55.208 329.596 55.208C330.535 55.208 331.431 55.0693 332.284 54.792C333.138 54.4933 333.948 54.0133 334.716 53.352L335.612 55.176C334.908 55.8373 334.012 56.36 332.924 56.744C331.836 57.1067 330.727 57.288 329.596 57.288ZM329.18 43.08C327.708 43.08 326.546 43.5387 325.692 44.456C324.839 45.3733 324.338 46.5787 324.188 48.072H333.628C333.564 46.4933 333.148 45.2667 332.38 44.392C331.634 43.5173 330.567 43.08 329.18 43.08ZM339.619 57V41.448H342.147V44.232C342.979 42.3547 344.686 41.32 347.267 41.128L348.195 41.032L348.387 43.272L346.755 43.464C345.283 43.592 344.163 44.0613 343.395 44.872C342.627 45.6613 342.243 46.7493 342.243 48.136V57H339.619Z" fill="#FFFEE8"/>
</g>
<defs>
<filter id="filter0_d_268_330" x="107.912" y="19.152" width="255.476" height="53.136" filterUnits="userSpaceOnUse" color-interpolation-filters="sRGB">
<feFlood flood-opacity="0" result="BackgroundImageFix"/>
<feColorMatrix in="SourceAlpha" type="matrix" values="0 0 0 0 0 0 0 0 0 0 0 0 0 0 0 0 0 0 127 0" result="hardAlpha"/>
<feOffset/>
<feGaussianBlur stdDeviation="7.5"/>
<feColorMatrix type="matrix" values="0 0 0 0 1 0 0 0 0 0.996078 0 0 0 0 0.909804 0 0 0 0.5 0"/>
<feBlend mode="normal" in2="BackgroundImageFix" result="effect1_dropShadow_268_330"/>
<feBlend mode="normal" in="SourceGraphic" in2="effect1_dropShadow_268_330" result="shape"/>
</filter>
</defs>
</svg>
