<svg width="470" height="91" viewBox="0 0 470 91" fill="none" xmlns="http://www.w3.org/2000/svg">
<path d="M27.1854 47.2141L27.8526 46.0132L27.1966 44.8062L4.20406 2.5H436.694L466.944 45.9842L436.71 88.5H4.24879L27.1854 47.2141Z" fill="#F21E2C" fill-opacity="0.2" stroke="#FEC631" stroke-width="5"/>
<g filter="url(#filter0_d_555_75)">
<path d="M190.74 57.288C188.65 57.288 186.826 56.8187 185.268 55.88C183.732 54.92 182.538 53.576 181.684 51.848C180.852 50.12 180.436 48.072 180.436 45.704C180.436 43.336 180.852 41.288 181.684 39.56C182.516 37.832 183.7 36.4987 185.236 35.56C186.794 34.6213 188.628 34.152 190.74 34.152C192.874 34.152 194.708 34.6213 196.244 35.56C197.802 36.4987 198.996 37.832 199.828 39.56C200.682 41.2667 201.108 43.304 201.108 45.672C201.108 48.04 200.682 50.0987 199.828 51.848C198.975 53.576 197.77 54.92 196.212 55.88C194.676 56.8187 192.852 57.288 190.74 57.288ZM190.74 54.952C193.151 54.952 195.018 54.1413 196.34 52.52C197.663 50.8987 198.324 48.6267 198.324 45.704C198.324 42.7813 197.663 40.52 196.34 38.92C195.018 37.2987 193.151 36.488 190.74 36.488C188.372 36.488 186.527 37.2987 185.204 38.92C183.882 40.52 183.22 42.7813 183.22 45.704C183.22 48.6053 183.882 50.8773 185.204 52.52C186.527 54.1413 188.372 54.952 190.74 54.952ZM205.448 62.76V41.448H207.976V44.232C208.445 43.272 209.138 42.5253 210.056 41.992C210.994 41.4373 212.082 41.16 213.32 41.16C214.706 41.16 215.912 41.4907 216.936 42.152C217.981 42.792 218.781 43.72 219.336 44.936C219.912 46.1307 220.2 47.56 220.2 49.224C220.2 50.8667 219.912 52.296 219.336 53.512C218.781 54.7067 217.981 55.6347 216.936 56.296C215.912 56.9573 214.706 57.288 213.32 57.288C212.125 57.288 211.058 57.0213 210.12 56.488C209.181 55.9547 208.488 55.2187 208.04 54.28V62.76H205.448ZM212.776 55.208C214.226 55.208 215.389 54.696 216.264 53.672C217.138 52.6267 217.576 51.144 217.576 49.224C217.576 47.2827 217.138 45.8 216.264 44.776C215.389 43.752 214.226 43.24 212.776 43.24C211.325 43.24 210.162 43.752 209.288 44.776C208.413 45.8 207.976 47.2827 207.976 49.224C207.976 51.144 208.413 52.6267 209.288 53.672C210.162 54.696 211.325 55.208 212.776 55.208ZM230.188 57.288C228.353 57.288 226.977 56.808 226.06 55.848C225.142 54.8667 224.684 53.4587 224.684 51.624V43.464H221.644V41.448H224.684V36.68H227.276V41.448H232.204V43.464H227.276V51.368C227.276 52.584 227.532 53.512 228.044 54.152C228.556 54.7707 229.388 55.08 230.54 55.08C230.881 55.08 231.222 55.0373 231.564 54.952C231.905 54.8667 232.214 54.7813 232.492 54.696L232.94 56.68C232.662 56.8293 232.257 56.968 231.724 57.096C231.19 57.224 230.678 57.288 230.188 57.288ZM234.815 37.576V34.664H238.015V37.576H234.815ZM235.135 57V41.448H237.727V57H235.135ZM249.037 57.288C247.522 57.288 246.21 56.9573 245.101 56.296C243.991 55.6347 243.127 54.7067 242.509 53.512C241.911 52.296 241.613 50.8667 241.613 49.224C241.613 47.5813 241.911 46.1627 242.509 44.968C243.127 43.752 243.991 42.8133 245.101 42.152C246.21 41.4907 247.522 41.16 249.037 41.16C250.53 41.16 251.831 41.4907 252.941 42.152C254.071 42.8133 254.935 43.752 255.533 44.968C256.151 46.1627 256.461 47.5813 256.461 49.224C256.461 50.8667 256.151 52.296 255.533 53.512C254.935 54.7067 254.071 55.6347 252.941 56.296C251.831 56.9573 250.53 57.288 249.037 57.288ZM249.037 55.208C250.487 55.208 251.65 54.696 252.525 53.672C253.399 52.6267 253.837 51.144 253.837 49.224C253.837 47.2827 253.399 45.8 252.525 44.776C251.65 43.752 250.487 43.24 249.037 43.24C247.565 43.24 246.391 43.752 245.517 44.776C244.663 45.8 244.237 47.2827 244.237 49.224C244.237 51.144 244.663 52.6267 245.517 53.672C246.391 54.696 247.565 55.208 249.037 55.208ZM260.354 57V41.448H262.882V44.104C263.394 43.1227 264.119 42.3867 265.058 41.896C265.997 41.4053 267.053 41.16 268.226 41.16C271.917 41.16 273.762 43.208 273.762 47.304V57H271.17V47.464C271.17 46.0133 270.882 44.9573 270.306 44.296C269.751 43.6133 268.855 43.272 267.618 43.272C266.189 43.272 265.047 43.72 264.194 44.616C263.362 45.4907 262.946 46.664 262.946 48.136V57H260.354ZM283.789 57.288C282.573 57.288 281.421 57.1173 280.333 56.776C279.245 56.4347 278.349 55.9547 277.645 55.336L278.477 53.512C279.245 54.1307 280.088 54.5893 281.005 54.888C281.944 55.1653 282.893 55.304 283.853 55.304C285.069 55.304 285.987 55.08 286.605 54.632C287.224 54.184 287.533 53.576 287.533 52.808C287.533 52.2107 287.331 51.7413 286.925 51.4C286.52 51.0373 285.88 50.76 285.005 50.568L282.093 49.928C279.448 49.352 278.125 47.9867 278.125 45.832C278.125 44.424 278.68 43.2933 279.789 42.44C280.92 41.5867 282.392 41.16 284.205 41.16C285.272 41.16 286.285 41.3307 287.245 41.672C288.227 41.992 289.037 42.472 289.677 43.112L288.813 44.936C288.195 44.36 287.469 43.9227 286.637 43.624C285.827 43.304 285.016 43.144 284.205 43.144C283.011 43.144 282.104 43.3787 281.485 43.848C280.867 44.3173 280.557 44.936 280.557 45.704C280.557 46.8987 281.347 47.6667 282.925 48.008L285.837 48.616C287.203 48.9147 288.237 49.3947 288.941 50.056C289.645 50.696 289.997 51.5707 289.997 52.68C289.997 54.1093 289.432 55.24 288.301 56.072C287.171 56.8827 285.667 57.288 283.789 57.288Z" fill="#FEC631"/>
</g>
<defs>
<filter id="filter0_d_555_75" x="165.436" y="19.152" width="139.561" height="58.608" filterUnits="userSpaceOnUse" color-interpolation-filters="sRGB">
<feFlood flood-opacity="0" result="BackgroundImageFix"/>
<feColorMatrix in="SourceAlpha" type="matrix" values="0 0 0 0 0 0 0 0 0 0 0 0 0 0 0 0 0 0 127 0" result="hardAlpha"/>
<feOffset/>
<feGaussianBlur stdDeviation="7.5"/>
<feColorMatrix type="matrix" values="0 0 0 0 0.996078 0 0 0 0 0.776471 0 0 0 0 0.192157 0 0 0 0.5 0"/>
<feBlend mode="normal" in2="BackgroundImageFix" result="effect1_dropShadow_555_75"/>
<feBlend mode="normal" in="SourceGraphic" in2="effect1_dropShadow_555_75" result="shape"/>
</filter>
</defs>
</svg>
