<svg width="470" height="91" viewBox="0 0 470 91" fill="none" xmlns="http://www.w3.org/2000/svg">
<path d="M442.815 43.7859L442.147 44.9868L442.803 46.1938L465.796 88.5L33.3063 88.5L3.05642 45.0158L33.2898 2.50004L465.751 2.5L442.815 43.7859Z" fill="#F21E2C" fill-opacity="0.2" stroke="#FEC631" stroke-width="5"/>
<g filter="url(#filter0_d_555_66)">
<path d="M140.909 57V34.44H142.957L156.557 52.584V34.44H158.989V57H157.005L143.373 38.792V57H140.909ZM170.709 57.288C169.194 57.288 167.882 56.9573 166.773 56.296C165.663 55.6347 164.799 54.7067 164.181 53.512C163.583 52.296 163.285 50.8667 163.285 49.224C163.285 47.5813 163.583 46.1627 164.181 44.968C164.799 43.752 165.663 42.8133 166.773 42.152C167.882 41.4907 169.194 41.16 170.709 41.16C172.202 41.16 173.503 41.4907 174.613 42.152C175.743 42.8133 176.607 43.752 177.205 44.968C177.823 46.1627 178.133 47.5813 178.133 49.224C178.133 50.8667 177.823 52.296 177.205 53.512C176.607 54.7067 175.743 55.6347 174.613 56.296C173.503 56.9573 172.202 57.288 170.709 57.288ZM170.709 55.208C172.159 55.208 173.322 54.696 174.197 53.672C175.071 52.6267 175.509 51.144 175.509 49.224C175.509 47.2827 175.071 45.8 174.197 44.776C173.322 43.752 172.159 43.24 170.709 43.24C169.237 43.24 168.063 43.752 167.189 44.776C166.335 45.8 165.909 47.2827 165.909 49.224C165.909 51.144 166.335 52.6267 167.189 53.672C168.063 54.696 169.237 55.208 170.709 55.208ZM188.11 57.288C186.275 57.288 184.899 56.808 183.982 55.848C183.064 54.8667 182.606 53.4587 182.606 51.624V43.464H179.566V41.448H182.606V36.68H185.198V41.448H190.126V43.464H185.198V51.368C185.198 52.584 185.454 53.512 185.966 54.152C186.478 54.7707 187.31 55.08 188.462 55.08C188.803 55.08 189.144 55.0373 189.486 54.952C189.827 54.8667 190.136 54.7813 190.414 54.696L190.862 56.68C190.584 56.8293 190.179 56.968 189.646 57.096C189.112 57.224 188.6 57.288 188.11 57.288ZM201.276 57V41.448H203.804V44.232C204.636 42.3547 206.342 41.32 208.924 41.128L209.852 41.032L210.044 43.272L208.412 43.464C206.94 43.592 205.82 44.0613 205.052 44.872C204.284 45.6613 203.9 46.7493 203.9 48.136V57H201.276ZM219.565 57.288C217.112 57.288 215.17 56.5733 213.741 55.144C212.312 53.6933 211.597 51.7307 211.597 49.256C211.597 47.656 211.917 46.248 212.557 45.032C213.197 43.7947 214.072 42.8453 215.181 42.184C216.312 41.5013 217.613 41.16 219.085 41.16C221.197 41.16 222.85 41.8427 224.045 43.208C225.24 44.552 225.837 46.408 225.837 48.776V49.768H214.125C214.21 51.5387 214.722 52.8933 215.661 53.832C216.6 54.7493 217.901 55.208 219.565 55.208C220.504 55.208 221.4 55.0693 222.253 54.792C223.106 54.4933 223.917 54.0133 224.685 53.352L225.581 55.176C224.877 55.8373 223.981 56.36 222.893 56.744C221.805 57.1067 220.696 57.288 219.565 57.288ZM219.149 43.08C217.677 43.08 216.514 43.5387 215.661 44.456C214.808 45.3733 214.306 46.5787 214.157 48.072H223.597C223.533 46.4933 223.117 45.2667 222.349 44.392C221.602 43.5173 220.536 43.08 219.149 43.08ZM234.484 57.288C233.418 57.288 232.458 57.0853 231.604 56.68C230.772 56.2533 230.111 55.6773 229.62 54.952C229.13 54.2267 228.884 53.416 228.884 52.52C228.884 51.3893 229.172 50.4933 229.748 49.832C230.346 49.1707 231.316 48.7013 232.66 48.424C234.026 48.1253 235.882 47.976 238.228 47.976H239.252V46.984C239.252 45.6613 238.975 44.712 238.42 44.136C237.887 43.5387 237.023 43.24 235.828 43.24C234.89 43.24 233.983 43.3787 233.108 43.656C232.234 43.912 231.338 44.3387 230.42 44.936L229.524 43.048C230.335 42.472 231.316 42.0133 232.468 41.672C233.642 41.3307 234.762 41.16 235.828 41.16C237.834 41.16 239.316 41.6507 240.276 42.632C241.258 43.6133 241.748 45.1387 241.748 47.208V57H239.316V54.312C238.911 55.2293 238.282 55.9547 237.428 56.488C236.596 57.0213 235.615 57.288 234.484 57.288ZM234.9 55.336C236.18 55.336 237.226 54.8987 238.036 54.024C238.847 53.128 239.252 51.9973 239.252 50.632V49.672H238.26C236.532 49.672 235.167 49.7573 234.164 49.928C233.183 50.0773 232.49 50.3547 232.084 50.76C231.7 51.144 231.508 51.6773 231.508 52.36C231.508 53.2347 231.807 53.9493 232.404 54.504C233.023 55.0587 233.855 55.336 234.9 55.336ZM252.477 57.288C251.09 57.288 249.874 56.9573 248.829 56.296C247.805 55.6347 247.005 54.7067 246.429 53.512C245.874 52.296 245.597 50.8667 245.597 49.224C245.597 47.56 245.874 46.1307 246.429 44.936C247.005 43.72 247.805 42.792 248.829 42.152C249.874 41.4907 251.09 41.16 252.477 41.16C253.693 41.16 254.76 41.4267 255.677 41.96C256.616 42.4933 257.309 43.2293 257.757 44.168V34.44H260.349V57H257.821V54.152C257.373 55.1333 256.68 55.9013 255.741 56.456C254.802 57.0107 253.714 57.288 252.477 57.288ZM253.021 55.208C254.472 55.208 255.634 54.696 256.509 53.672C257.384 52.6267 257.821 51.144 257.821 49.224C257.821 47.2827 257.384 45.8 256.509 44.776C255.634 43.752 254.472 43.24 253.021 43.24C251.549 43.24 250.376 43.752 249.501 44.776C248.648 45.8 248.221 47.2827 248.221 49.224C248.221 51.144 248.648 52.6267 249.501 53.672C250.376 54.696 251.549 55.208 253.021 55.208ZM267.005 62.76L269.661 56.744L263.101 41.448H265.917L271.069 54.056L276.253 41.448H278.973L269.725 62.76H267.005ZM291.661 62.76L294.318 56.744L287.758 41.448H290.574L295.726 54.056L300.91 41.448H303.63L294.382 62.76H291.661ZM313.096 57.288C310.643 57.288 308.702 56.5733 307.272 55.144C305.843 53.6933 305.128 51.7307 305.128 49.256C305.128 47.656 305.448 46.248 306.088 45.032C306.728 43.7947 307.603 42.8453 308.712 42.184C309.843 41.5013 311.144 41.16 312.616 41.16C314.728 41.16 316.382 41.8427 317.576 43.208C318.771 44.552 319.368 46.408 319.368 48.776V49.768H307.656C307.742 51.5387 308.254 52.8933 309.192 53.832C310.131 54.7493 311.432 55.208 313.096 55.208C314.035 55.208 314.931 55.0693 315.784 54.792C316.638 54.4933 317.448 54.0133 318.216 53.352L319.112 55.176C318.408 55.8373 317.512 56.36 316.424 56.744C315.336 57.1067 314.227 57.288 313.096 57.288ZM312.68 43.08C311.208 43.08 310.046 43.5387 309.192 44.456C308.339 45.3733 307.838 46.5787 307.688 48.072H317.128C317.064 46.4933 316.648 45.2667 315.88 44.392C315.134 43.5173 314.067 43.08 312.68 43.08ZM329.36 57.288C327.525 57.288 326.149 56.808 325.232 55.848C324.314 54.8667 323.856 53.4587 323.856 51.624V43.464H320.816V41.448H323.856V36.68H326.448V41.448H331.376V43.464H326.448V51.368C326.448 52.584 326.704 53.512 327.216 54.152C327.728 54.7707 328.56 55.08 329.712 55.08C330.053 55.08 330.394 55.0373 330.736 54.952C331.077 54.8667 331.386 54.7813 331.664 54.696L332.112 56.68C331.834 56.8293 331.429 56.968 330.896 57.096C330.362 57.224 329.85 57.288 329.36 57.288Z" fill="#FEC631"/>
</g>
<defs>
<filter id="filter0_d_555_66" x="125.909" y="19.4399" width="221.202" height="58.3201" filterUnits="userSpaceOnUse" color-interpolation-filters="sRGB">
<feFlood flood-opacity="0" result="BackgroundImageFix"/>
<feColorMatrix in="SourceAlpha" type="matrix" values="0 0 0 0 0 0 0 0 0 0 0 0 0 0 0 0 0 0 127 0" result="hardAlpha"/>
<feOffset/>
<feGaussianBlur stdDeviation="7.5"/>
<feColorMatrix type="matrix" values="0 0 0 0 0.996078 0 0 0 0 0.776471 0 0 0 0 0.192157 0 0 0 0.5 0"/>
<feBlend mode="normal" in2="BackgroundImageFix" result="effect1_dropShadow_555_66"/>
<feBlend mode="normal" in="SourceGraphic" in2="effect1_dropShadow_555_66" result="shape"/>
</filter>
</defs>
</svg>
