<svg width="903" height="386" viewBox="0 0 903 386" fill="none" xmlns="http://www.w3.org/2000/svg">
<g filter="url(#filter0_d_530_218)">
<path d="M30.6 311.5V310.875L35.725 300.062L87.225 278.125L92.35 288.938V289.562L49.6 306.875L92.35 324.188V324.812L87.225 335.625L30.6 311.5ZM170.313 355.5V270H143.563V269.375L148.625 258.625H209.563V259.25L204.5 270H182.813V349.875L170.938 355.5H170.313ZM254.525 353V261.75L261.15 258.625H300.775V259.25L295.713 270H267.025V300.125H300.775V300.75L295.713 311.5H267.025V341.625H311.213V342.25L306.15 353H254.525ZM384.675 353C370.092 353 362.8 345.708 362.8 331.125V324.25L374.675 318.625H375.3V331.125C375.3 338.208 378.425 341.75 384.675 341.75H404.05C410.3 341.75 413.425 338.208 413.425 331.125V318C413.425 310.917 410.3 307.375 404.05 307.375H387.175C374.675 307.375 368.425 301.125 368.425 288.625V277.375C368.425 264.875 374.675 258.625 387.175 258.625H401.55C414.05 258.625 420.3 264.875 420.3 277.375V280.688L408.425 286.312H407.8V277.375C407.8 272.375 405.717 269.875 401.55 269.875H387.175C383.008 269.875 380.925 272.375 380.925 277.375V288.625C380.925 293.625 383.008 296.125 387.175 296.125H404.05C418.633 296.125 425.925 303.417 425.925 318V331.125C425.925 345.708 418.633 353 404.05 353H384.675ZM492.013 355.5V270H465.263V269.375L470.325 258.625H531.263V259.25L526.2 270H504.513V349.875L492.638 355.5H492.013ZM872.4 302.25V302.875L867.275 313.688L815.775 335.625L810.65 324.812V324.188L853.4 306.875L810.65 289.562V288.938L815.775 278.125L872.4 302.25Z" fill="#FEC631" fill-opacity="0.7" shape-rendering="crispEdges"/>
<path d="M576.225 353V261.75L582.85 258.625H622.475V259.25L617.412 270H588.725V300.125H622.475V300.75L617.412 311.5H588.725V341.625H632.912V342.25L627.85 353H576.225ZM699.5 269.875V309.875H727C733.25 309.875 736.375 306.333 736.375 299.25V280.5C736.375 273.417 733.25 269.875 727 269.875H699.5ZM687 355.5V261.75L693.625 258.625H727C741.583 258.625 748.875 265.917 748.875 280.5V299.25C748.875 312.833 742.562 320.083 729.938 321L750.375 350.312L739.375 355.5H738.75L714.688 321.125H699.5V349.875L687.625 355.5H687Z" fill="#8F1B42" shape-rendering="crispEdges"/>
<path d="M30.6 311.5H29.1V312.491L30.0121 312.88L30.6 311.5ZM30.6 310.875L29.2446 310.233L29.1 310.538V310.875H30.6ZM35.725 300.062L35.1372 298.682L34.6134 298.906L34.3696 299.42L35.725 300.062ZM87.225 278.125L88.5805 277.483L87.9631 276.18L86.6372 276.745L87.225 278.125ZM92.35 288.938H93.85V288.6L93.7055 288.295L92.35 288.938ZM92.35 289.562L92.913 290.953L93.85 290.573V289.562H92.35ZM49.6 306.875L49.037 305.485L45.6038 306.875L49.037 308.265L49.6 306.875ZM92.35 324.188H93.85V323.177L92.913 322.797L92.35 324.188ZM92.35 324.812L93.7055 325.455L93.85 325.15V324.812H92.35ZM87.225 335.625L86.6371 337.005L87.9631 337.57L88.5805 336.267L87.225 335.625ZM32.1 311.5V310.875H29.1V311.5H32.1ZM31.9555 311.517L37.0805 300.705L34.3696 299.42L29.2446 310.233L31.9555 311.517ZM36.3129 301.443L87.8129 279.505L86.6372 276.745L35.1372 298.682L36.3129 301.443ZM85.8696 278.767L90.9946 289.58L93.7055 288.295L88.5805 277.483L85.8696 278.767ZM90.85 288.938V289.562H93.85V288.938H90.85ZM91.787 288.172L49.037 305.485L50.163 308.265L92.913 290.953L91.787 288.172ZM49.037 308.265L91.787 325.578L92.913 322.797L50.163 305.485L49.037 308.265ZM90.85 324.188V324.812H93.85V324.188H90.85ZM90.9946 324.17L85.8696 334.983L88.5805 336.267L93.7055 325.455L90.9946 324.17ZM87.8129 334.245L31.1879 310.12L30.0121 312.88L86.6371 337.005L87.8129 334.245ZM170.313 355.5H168.813V357H170.313V355.5ZM170.313 270H171.813V268.5H170.313V270ZM143.563 270H142.063V271.5H143.563V270ZM143.563 269.375L142.205 268.736L142.063 269.039V269.375H143.563ZM148.625 258.625V257.125H147.673L147.268 257.986L148.625 258.625ZM209.563 258.625H211.063V257.125H209.563V258.625ZM209.563 259.25L210.92 259.889L211.063 259.586V259.25H209.563ZM204.5 270V271.5H205.452L205.857 270.639L204.5 270ZM182.813 270V268.5H181.313V270H182.813ZM182.813 349.875L183.455 351.231L184.313 350.824V349.875H182.813ZM170.938 355.5V357H171.275L171.58 356.856L170.938 355.5ZM171.813 355.5V270H168.813V355.5H171.813ZM170.313 268.5H143.563V271.5H170.313V268.5ZM145.063 270V269.375H142.063V270H145.063ZM144.92 270.014L149.982 259.264L147.268 257.986L142.205 268.736L144.92 270.014ZM148.625 260.125H209.563V257.125H148.625V260.125ZM208.063 258.625V259.25H211.063V258.625H208.063ZM208.205 258.611L203.143 269.361L205.857 270.639L210.92 259.889L208.205 258.611ZM204.5 268.5H182.813V271.5H204.5V268.5ZM181.313 270V349.875H184.313V270H181.313ZM182.17 348.519L170.295 354.144L171.58 356.856L183.455 351.231L182.17 348.519ZM170.938 354H170.313V357H170.938V354ZM254.525 353H253.025V354.5H254.525V353ZM254.525 261.75L253.885 260.393L253.025 260.799V261.75H254.525ZM261.15 258.625V257.125H260.814L260.51 257.268L261.15 258.625ZM300.775 258.625H302.275V257.125H300.775V258.625ZM300.775 259.25L302.132 259.889L302.275 259.586V259.25H300.775ZM295.713 270V271.5H296.664L297.07 270.639L295.713 270ZM267.025 270V268.5H265.525V270H267.025ZM267.025 300.125H265.525V301.625H267.025V300.125ZM300.775 300.125H302.275V298.625H300.775V300.125ZM300.775 300.75L302.132 301.389L302.275 301.086V300.75H300.775ZM295.713 311.5V313H296.664L297.07 312.139L295.713 311.5ZM267.025 311.5V310H265.525V311.5H267.025ZM267.025 341.625H265.525V343.125H267.025V341.625ZM311.213 341.625H312.713V340.125H311.213V341.625ZM311.213 342.25L312.57 342.889L312.713 342.586V342.25H311.213ZM306.15 353V354.5H307.102L307.507 353.639L306.15 353ZM256.025 353V261.75H253.025V353H256.025ZM255.165 263.107L261.79 259.982L260.51 257.268L253.885 260.393L255.165 263.107ZM261.15 260.125H300.775V257.125H261.15V260.125ZM299.275 258.625V259.25H302.275V258.625H299.275ZM299.418 258.611L294.355 269.361L297.07 270.639L302.132 259.889L299.418 258.611ZM295.713 268.5H267.025V271.5H295.713V268.5ZM265.525 270V300.125H268.525V270H265.525ZM267.025 301.625H300.775V298.625H267.025V301.625ZM299.275 300.125V300.75H302.275V300.125H299.275ZM299.418 300.111L294.355 310.861L297.07 312.139L302.132 301.389L299.418 300.111ZM295.713 310H267.025V313H295.713V310ZM265.525 311.5V341.625H268.525V311.5H265.525ZM267.025 343.125H311.213V340.125H267.025V343.125ZM309.713 341.625V342.25H312.713V341.625H309.713ZM309.855 341.611L304.793 352.361L307.507 353.639L312.57 342.889L309.855 341.611ZM306.15 351.5H254.525V354.5H306.15V351.5ZM362.8 324.25L362.158 322.894L361.3 323.301V324.25H362.8ZM374.675 318.625V317.125H374.338L374.033 317.269L374.675 318.625ZM375.3 318.625H376.8V317.125H375.3V318.625ZM420.3 280.688L420.942 282.043L421.8 281.637V280.688H420.3ZM408.425 286.312V287.812H408.762L409.067 287.668L408.425 286.312ZM407.8 286.312H406.3V287.812H407.8V286.312ZM384.675 351.5C377.615 351.5 372.595 349.736 369.329 346.471C366.064 343.205 364.3 338.185 364.3 331.125H361.3C361.3 338.648 363.182 344.566 367.208 348.592C371.234 352.618 377.152 354.5 384.675 354.5V351.5ZM364.3 331.125V324.25H361.3V331.125H364.3ZM363.442 325.606L375.317 319.981L374.033 317.269L362.158 322.894L363.442 325.606ZM374.675 320.125H375.3V317.125H374.675V320.125ZM373.8 318.625V331.125H376.8V318.625H373.8ZM373.8 331.125C373.8 334.855 374.619 337.933 376.519 340.086C378.451 342.276 381.267 343.25 384.675 343.25V340.25C381.833 340.25 379.962 339.454 378.769 338.101C377.544 336.713 376.8 334.478 376.8 331.125H373.8ZM384.675 343.25H404.05V340.25H384.675V343.25ZM404.05 343.25C407.458 343.25 410.274 342.276 412.206 340.086C414.106 337.933 414.925 334.855 414.925 331.125H411.925C411.925 334.478 411.181 336.713 409.957 338.101C408.763 339.454 406.892 340.25 404.05 340.25V343.25ZM414.925 331.125V318H411.925V331.125H414.925ZM414.925 318C414.925 314.27 414.106 311.192 412.206 309.039C410.274 306.849 407.458 305.875 404.05 305.875V308.875C406.892 308.875 408.763 309.671 409.957 311.024C411.181 312.412 411.925 314.647 411.925 318H414.925ZM404.05 305.875H387.175V308.875H404.05V305.875ZM387.175 305.875C381.156 305.875 376.918 304.371 374.173 301.627C371.429 298.882 369.925 294.644 369.925 288.625H366.925C366.925 295.106 368.546 300.243 372.052 303.748C375.557 307.254 380.694 308.875 387.175 308.875V305.875ZM369.925 288.625V277.375H366.925V288.625H369.925ZM369.925 277.375C369.925 271.356 371.429 267.118 374.173 264.373C376.918 261.629 381.156 260.125 387.175 260.125V257.125C380.694 257.125 375.557 258.746 372.052 262.252C368.546 265.757 366.925 270.894 366.925 277.375H369.925ZM387.175 260.125H401.55V257.125H387.175V260.125ZM401.55 260.125C407.569 260.125 411.807 261.629 414.552 264.373C417.296 267.118 418.8 271.356 418.8 277.375H421.8C421.8 270.894 420.179 265.757 416.673 262.252C413.168 258.746 408.031 257.125 401.55 257.125V260.125ZM418.8 277.375V280.688H421.8V277.375H418.8ZM419.658 279.332L407.783 284.957L409.067 287.668L420.942 282.043L419.658 279.332ZM408.425 284.812H407.8V287.812H408.425V284.812ZM409.3 286.312V277.375H406.3V286.312H409.3ZM409.3 277.375C409.3 274.704 408.749 272.421 407.39 270.79C405.987 269.106 403.944 268.375 401.55 268.375V271.375C403.323 271.375 404.405 271.894 405.085 272.71C405.809 273.579 406.3 275.046 406.3 277.375H409.3ZM401.55 268.375H387.175V271.375H401.55V268.375ZM387.175 268.375C384.781 268.375 382.738 269.106 381.335 270.79C379.976 272.421 379.425 274.704 379.425 277.375H382.425C382.425 275.046 382.916 273.579 383.64 272.71C384.32 271.894 385.402 271.375 387.175 271.375V268.375ZM379.425 277.375V288.625H382.425V277.375H379.425ZM379.425 288.625C379.425 291.296 379.976 293.579 381.335 295.21C382.738 296.894 384.781 297.625 387.175 297.625V294.625C385.402 294.625 384.32 294.106 383.64 293.29C382.916 292.421 382.425 290.954 382.425 288.625H379.425ZM387.175 297.625H404.05V294.625H387.175V297.625ZM404.05 297.625C411.11 297.625 416.13 299.389 419.396 302.654C422.661 305.92 424.425 310.94 424.425 318H427.425C427.425 310.477 425.543 304.559 421.517 300.533C417.491 296.507 411.573 294.625 404.05 294.625V297.625ZM424.425 318V331.125H427.425V318H424.425ZM424.425 331.125C424.425 338.185 422.661 343.205 419.396 346.471C416.13 349.736 411.11 351.5 404.05 351.5V354.5C411.573 354.5 417.491 352.618 421.517 348.592C425.543 344.566 427.425 338.648 427.425 331.125H424.425ZM404.05 351.5H384.675V354.5H404.05V351.5ZM492.013 355.5H490.513V357H492.013V355.5ZM492.013 270H493.513V268.5H492.013V270ZM465.263 270H463.763V271.5H465.263V270ZM465.263 269.375L463.905 268.736L463.763 269.039V269.375H465.263ZM470.325 258.625V257.125H469.373L468.968 257.986L470.325 258.625ZM531.263 258.625H532.763V257.125H531.263V258.625ZM531.263 259.25L532.62 259.889L532.763 259.586V259.25H531.263ZM526.2 270V271.5H527.152L527.557 270.639L526.2 270ZM504.513 270V268.5H503.013V270H504.513ZM504.513 349.875L505.155 351.231L506.013 350.824V349.875H504.513ZM492.638 355.5V357H492.975L493.28 356.856L492.638 355.5ZM493.513 355.5V270H490.513V355.5H493.513ZM492.013 268.5H465.263V271.5H492.013V268.5ZM466.763 270V269.375H463.763V270H466.763ZM466.62 270.014L471.682 259.264L468.968 257.986L463.905 268.736L466.62 270.014ZM470.325 260.125H531.263V257.125H470.325V260.125ZM529.763 258.625V259.25H532.763V258.625H529.763ZM529.905 258.611L524.843 269.361L527.557 270.639L532.62 259.889L529.905 258.611ZM526.2 268.5H504.513V271.5H526.2V268.5ZM503.013 270V349.875H506.013V270H503.013ZM503.87 348.519L491.995 354.144L493.28 356.856L505.155 351.231L503.87 348.519ZM492.638 354H492.013V357H492.638V354ZM576.225 353H574.725V354.5H576.225V353ZM576.225 261.75L575.585 260.393L574.725 260.799V261.75H576.225ZM582.85 258.625V257.125H582.514L582.21 257.268L582.85 258.625ZM622.475 258.625H623.975V257.125H622.475V258.625ZM622.475 259.25L623.832 259.889L623.975 259.586V259.25H622.475ZM617.412 270V271.5H618.364L618.77 270.639L617.412 270ZM588.725 270V268.5H587.225V270H588.725ZM588.725 300.125H587.225V301.625H588.725V300.125ZM622.475 300.125H623.975V298.625H622.475V300.125ZM622.475 300.75L623.832 301.389L623.975 301.086V300.75H622.475ZM617.412 311.5V313H618.364L618.77 312.139L617.412 311.5ZM588.725 311.5V310H587.225V311.5H588.725ZM588.725 341.625H587.225V343.125H588.725V341.625ZM632.912 341.625H634.412V340.125H632.912V341.625ZM632.912 342.25L634.27 342.889L634.412 342.586V342.25H632.912ZM627.85 353V354.5H628.802L629.207 353.639L627.85 353ZM577.725 353V261.75H574.725V353H577.725ZM576.865 263.107L583.49 259.982L582.21 257.268L575.585 260.393L576.865 263.107ZM582.85 260.125H622.475V257.125H582.85V260.125ZM620.975 258.625V259.25H623.975V258.625H620.975ZM621.118 258.611L616.055 269.361L618.77 270.639L623.832 259.889L621.118 258.611ZM617.412 268.5H588.725V271.5H617.412V268.5ZM587.225 270V300.125H590.225V270H587.225ZM588.725 301.625H622.475V298.625H588.725V301.625ZM620.975 300.125V300.75H623.975V300.125H620.975ZM621.118 300.111L616.055 310.861L618.77 312.139L623.832 301.389L621.118 300.111ZM617.412 310H588.725V313H617.412V310ZM587.225 311.5V341.625H590.225V311.5H587.225ZM588.725 343.125H632.912V340.125H588.725V343.125ZM631.412 341.625V342.25H634.412V341.625H631.412ZM631.555 341.611L626.493 352.361L629.207 353.639L634.27 342.889L631.555 341.611ZM627.85 351.5H576.225V354.5H627.85V351.5ZM699.5 269.875V268.375H698V269.875H699.5ZM699.5 309.875H698V311.375H699.5V309.875ZM687 355.5H685.5V357H687V355.5ZM687 261.75L686.36 260.393L685.5 260.799V261.75H687ZM693.625 258.625V257.125H693.289L692.985 257.268L693.625 258.625ZM729.938 321L729.829 319.504L727.199 319.695L728.707 321.858L729.938 321ZM750.375 350.312L751.015 351.669L752.621 350.912L751.605 349.455L750.375 350.312ZM739.375 355.5V357H739.711L740.015 356.857L739.375 355.5ZM738.75 355.5L737.521 356.36L737.969 357H738.75V355.5ZM714.688 321.125L715.916 320.265L715.468 319.625H714.688V321.125ZM699.5 321.125V319.625H698V321.125H699.5ZM699.5 349.875L700.142 351.231L701 350.824V349.875H699.5ZM687.625 355.5V357H687.962L688.267 356.856L687.625 355.5ZM698 269.875V309.875H701V269.875H698ZM699.5 311.375H727V308.375H699.5V311.375ZM727 311.375C730.408 311.375 733.224 310.401 735.156 308.211C737.056 306.058 737.875 302.98 737.875 299.25H734.875C734.875 302.603 734.131 304.838 732.906 306.226C731.713 307.579 729.842 308.375 727 308.375V311.375ZM737.875 299.25V280.5H734.875V299.25H737.875ZM737.875 280.5C737.875 276.77 737.056 273.692 735.156 271.539C733.224 269.349 730.408 268.375 727 268.375V271.375C729.842 271.375 731.713 272.171 732.906 273.524C734.131 274.912 734.875 277.147 734.875 280.5H737.875ZM727 268.375H699.5V271.375H727V268.375ZM688.5 355.5V261.75H685.5V355.5H688.5ZM687.64 263.107L694.265 259.982L692.985 257.268L686.36 260.393L687.64 263.107ZM693.625 260.125H727V257.125H693.625V260.125ZM727 260.125C734.06 260.125 739.08 261.889 742.346 265.154C745.611 268.42 747.375 273.44 747.375 280.5H750.375C750.375 272.977 748.493 267.059 744.467 263.033C740.441 259.007 734.523 257.125 727 257.125V260.125ZM747.375 280.5V299.25H750.375V280.5H747.375ZM747.375 299.25C747.375 305.828 745.846 310.632 743.009 313.89C740.188 317.131 735.876 319.065 729.829 319.504L730.046 322.496C736.624 322.018 741.781 319.869 745.272 315.86C748.748 311.868 750.375 306.256 750.375 299.25H747.375ZM728.707 321.858L749.145 351.17L751.605 349.455L731.168 320.142L728.707 321.858ZM749.735 348.956L738.735 354.143L740.015 356.857L751.015 351.669L749.735 348.956ZM739.375 354H738.75V357H739.375V354ZM739.979 354.64L715.916 320.265L713.459 321.985L737.521 356.36L739.979 354.64ZM714.688 319.625H699.5V322.625H714.688V319.625ZM698 321.125V349.875H701V321.125H698ZM698.858 348.519L686.983 354.144L688.267 356.856L700.142 351.231L698.858 348.519ZM687.625 354H687V357H687.625V354ZM872.4 302.25H873.9V301.259L872.988 300.87L872.4 302.25ZM872.4 302.875L873.755 303.517L873.9 303.212V302.875H872.4ZM867.275 313.688L867.863 315.068L868.387 314.844L868.63 314.33L867.275 313.688ZM815.775 335.625L814.42 336.267L815.037 337.57L816.363 337.005L815.775 335.625ZM810.65 324.812H809.15V325.15L809.295 325.455L810.65 324.812ZM810.65 324.188L810.087 322.797L809.15 323.177V324.188H810.65ZM853.4 306.875L853.963 308.265L857.396 306.875L853.963 305.485L853.4 306.875ZM810.65 289.562H809.15V290.573L810.087 290.953L810.65 289.562ZM810.65 288.938L809.295 288.295L809.15 288.6V288.938H810.65ZM815.775 278.125L816.363 276.745L815.037 276.18L814.42 277.483L815.775 278.125ZM870.9 302.25V302.875H873.9V302.25H870.9ZM871.045 302.233L865.92 313.045L868.63 314.33L873.755 303.517L871.045 302.233ZM866.687 312.307L815.187 334.245L816.363 337.005L867.863 315.068L866.687 312.307ZM817.13 334.983L812.005 324.17L809.295 325.455L814.42 336.267L817.13 334.983ZM812.15 324.812V324.188H809.15V324.812H812.15ZM811.213 325.578L853.963 308.265L852.837 305.485L810.087 322.797L811.213 325.578ZM853.963 305.485L811.213 288.172L810.087 290.953L852.837 308.265L853.963 305.485ZM812.15 289.562V288.938H809.15V289.562H812.15ZM812.005 289.58L817.13 278.767L814.42 277.483L809.295 288.295L812.005 289.58ZM815.187 279.505L871.812 303.63L872.988 300.87L816.363 276.745L815.187 279.505Z" fill="#401127" fill-opacity="0.8"/>
</g>
<g filter="url(#filter1_d_530_218)">
<path d="M355.481 220.25V203.938H353.762C346.471 203.938 342.825 200.292 342.825 193V173.375L348.762 170.562H349.075V193C349.075 196.542 350.637 198.312 353.762 198.312H363.45C366.575 198.312 368.137 196.542 368.137 193V173.375L374.075 170.562H374.387V193C374.387 200.292 370.742 203.938 363.45 203.938H361.731V217.438L355.794 220.25H355.481ZM413.9 213.375H423.587C426.712 213.375 428.275 211.604 428.275 208.062V182.75C428.275 179.208 426.712 177.438 423.587 177.438H413.9C410.775 177.438 409.212 179.208 409.212 182.75V208.062C409.212 211.604 410.775 213.375 413.9 213.375ZM413.9 219C406.608 219 402.962 215.354 402.962 208.062V182.75C402.962 175.458 406.608 171.812 413.9 171.812H423.587C430.879 171.812 434.525 175.458 434.525 182.75V208.062C434.525 215.354 430.879 219 423.587 219H413.9ZM477.163 219C469.871 219 466.225 215.354 466.225 208.062V173.375L472.163 170.562H472.475V208.062C472.475 211.604 474.038 213.375 477.163 213.375H486.85C489.975 213.375 491.538 211.604 491.538 208.062V173.375L497.475 170.562H497.788V208.062C497.788 215.354 494.142 219 486.85 219H477.163ZM535.738 177.438V197.438H549.488C552.613 197.438 554.175 195.667 554.175 192.125V182.75C554.175 179.208 552.613 177.438 549.488 177.438H535.738ZM529.488 220.25V173.375L532.8 171.812H549.488C556.779 171.812 560.425 175.458 560.425 182.75V192.125C560.425 198.917 557.269 202.542 550.956 203L561.175 217.656L555.675 220.25H555.363L543.331 203.062H535.738V217.438L529.8 220.25H529.488Z" fill="#8F1B42" shape-rendering="crispEdges"/>
<path d="M355.481 220.25H354.481V221.25H355.481V220.25ZM355.481 203.938H356.481V202.938H355.481V203.938ZM342.825 173.375L342.397 172.471L341.825 172.742V173.375H342.825ZM348.762 170.562V169.562H348.538L348.334 169.659L348.762 170.562ZM349.075 170.562H350.075V169.562H349.075V170.562ZM368.137 173.375L367.709 172.471L367.137 172.742V173.375H368.137ZM374.075 170.562V169.562H373.85L373.647 169.659L374.075 170.562ZM374.387 170.562H375.387V169.562H374.387V170.562ZM361.731 203.938V202.938H360.731V203.938H361.731ZM361.731 217.438L362.159 218.341L362.731 218.07V217.438H361.731ZM355.794 220.25V221.25H356.019L356.222 221.154L355.794 220.25ZM356.481 220.25V203.938H354.481V220.25H356.481ZM355.481 202.938H353.762V204.938H355.481V202.938ZM353.762 202.938C350.271 202.938 347.836 202.065 346.266 200.496C344.697 198.927 343.825 196.492 343.825 193H341.825C341.825 196.8 342.776 199.834 344.852 201.91C346.929 203.987 349.963 204.938 353.762 204.938V202.938ZM343.825 193V173.375H341.825V193H343.825ZM343.253 174.279L349.191 171.466L348.334 169.659L342.397 172.471L343.253 174.279ZM348.762 171.562H349.075V169.562H348.762V171.562ZM348.075 170.562V193H350.075V170.562H348.075ZM348.075 193C348.075 194.896 348.491 196.505 349.497 197.646C350.525 198.811 352.011 199.312 353.762 199.312V197.312C352.389 197.312 351.532 196.929 350.997 196.323C350.441 195.693 350.075 194.645 350.075 193H348.075ZM353.762 199.312H363.45V197.312H353.762V199.312ZM363.45 199.312C365.201 199.312 366.688 198.811 367.715 197.646C368.722 196.505 369.137 194.896 369.137 193H367.137C367.137 194.645 366.772 195.693 366.216 196.323C365.681 196.929 364.824 197.312 363.45 197.312V199.312ZM369.137 193V173.375H367.137V193H369.137ZM368.566 174.279L374.503 171.466L373.647 169.659L367.709 172.471L368.566 174.279ZM374.075 171.562H374.387V169.562H374.075V171.562ZM373.387 170.562V193H375.387V170.562H373.387ZM373.387 193C373.387 196.492 372.515 198.927 370.946 200.496C369.377 202.065 366.942 202.938 363.45 202.938V204.938C367.25 204.938 370.284 203.987 372.36 201.91C374.437 199.834 375.387 196.8 375.387 193H373.387ZM363.45 202.938H361.731V204.938H363.45V202.938ZM360.731 203.938V217.438H362.731V203.938H360.731ZM361.303 216.534L355.366 219.346L356.222 221.154L362.159 218.341L361.303 216.534ZM355.794 219.25H355.481V221.25H355.794V219.25ZM413.9 214.375H423.587V212.375H413.9V214.375ZM423.587 214.375C425.339 214.375 426.825 213.873 427.853 212.708C428.859 211.568 429.275 209.959 429.275 208.062H427.275C427.275 209.708 426.909 210.755 426.353 211.385C425.818 211.992 424.961 212.375 423.587 212.375V214.375ZM429.275 208.062V182.75H427.275V208.062H429.275ZM429.275 182.75C429.275 180.854 428.859 179.245 427.853 178.104C426.825 176.939 425.339 176.438 423.587 176.438V178.438C424.961 178.438 425.818 178.821 426.353 179.427C426.909 180.057 427.275 181.105 427.275 182.75H429.275ZM423.587 176.438H413.9V178.438H423.587V176.438ZM413.9 176.438C412.149 176.438 410.662 176.939 409.635 178.104C408.628 179.245 408.212 180.854 408.212 182.75H410.212C410.212 181.105 410.578 180.057 411.134 179.427C411.669 178.821 412.526 178.438 413.9 178.438V176.438ZM408.212 182.75V208.062H410.212V182.75H408.212ZM408.212 208.062C408.212 209.959 408.628 211.568 409.635 212.708C410.662 213.873 412.149 214.375 413.9 214.375V212.375C412.526 212.375 411.669 211.992 411.134 211.385C410.578 210.755 410.212 209.708 410.212 208.062H408.212ZM413.9 218C410.408 218 407.973 217.128 406.404 215.559C404.835 213.989 403.962 211.554 403.962 208.062H401.962C401.962 211.862 402.913 214.896 404.99 216.973C407.066 219.049 410.1 220 413.9 220V218ZM403.962 208.062V182.75H401.962V208.062H403.962ZM403.962 182.75C403.962 179.258 404.835 176.823 406.404 175.254C407.973 173.685 410.408 172.812 413.9 172.812V170.812C410.1 170.812 407.066 171.763 404.99 173.84C402.913 175.916 401.962 178.95 401.962 182.75H403.962ZM413.9 172.812H423.587V170.812H413.9V172.812ZM423.587 172.812C427.079 172.812 429.514 173.685 431.084 175.254C432.653 176.823 433.525 179.258 433.525 182.75H435.525C435.525 178.95 434.574 175.916 432.498 173.84C430.421 171.763 427.387 170.812 423.587 170.812V172.812ZM433.525 182.75V208.062H435.525V182.75H433.525ZM433.525 208.062C433.525 211.554 432.653 213.989 431.084 215.559C429.514 217.128 427.079 218 423.587 218V220C427.387 220 430.421 219.049 432.498 216.973C434.574 214.896 435.525 211.862 435.525 208.062H433.525ZM423.587 218H413.9V220H423.587V218ZM466.225 173.375L465.797 172.471L465.225 172.742V173.375H466.225ZM472.163 170.562V169.562H471.938L471.734 169.659L472.163 170.562ZM472.475 170.562H473.475V169.562H472.475V170.562ZM491.538 173.375L491.109 172.471L490.538 172.742V173.375H491.538ZM497.475 170.562V169.562H497.25L497.047 169.659L497.475 170.562ZM497.788 170.562H498.788V169.562H497.788V170.562ZM477.163 218C473.671 218 471.236 217.128 469.666 215.559C468.097 213.989 467.225 211.554 467.225 208.062H465.225C465.225 211.862 466.176 214.896 468.252 216.973C470.329 219.049 473.363 220 477.163 220V218ZM467.225 208.062V173.375H465.225V208.062H467.225ZM466.653 174.279L472.591 171.466L471.734 169.659L465.797 172.471L466.653 174.279ZM472.163 171.562H472.475V169.562H472.163V171.562ZM471.475 170.562V208.062H473.475V170.562H471.475ZM471.475 208.062C471.475 209.959 471.891 211.568 472.897 212.708C473.925 213.873 475.411 214.375 477.163 214.375V212.375C475.789 212.375 474.932 211.992 474.397 211.385C473.841 210.755 473.475 209.708 473.475 208.062H471.475ZM477.163 214.375H486.85V212.375H477.163V214.375ZM486.85 214.375C488.601 214.375 490.088 213.873 491.115 212.708C492.122 211.568 492.538 209.959 492.538 208.062H490.538C490.538 209.708 490.172 210.755 489.616 211.385C489.081 211.992 488.224 212.375 486.85 212.375V214.375ZM492.538 208.062V173.375H490.538V208.062H492.538ZM491.966 174.279L497.903 171.466L497.047 169.659L491.109 172.471L491.966 174.279ZM497.475 171.562H497.788V169.562H497.475V171.562ZM496.788 170.562V208.062H498.788V170.562H496.788ZM496.788 208.062C496.788 211.554 495.915 213.989 494.346 215.559C492.777 217.128 490.342 218 486.85 218V220C490.65 220 493.684 219.049 495.76 216.973C497.837 214.896 498.788 211.862 498.788 208.062H496.788ZM486.85 218H477.163V220H486.85V218ZM535.738 177.438V176.438H534.738V177.438H535.738ZM535.738 197.438H534.738V198.438H535.738V197.438ZM529.488 220.25H528.488V221.25H529.488V220.25ZM529.488 173.375L529.061 172.471L528.488 172.741V173.375H529.488ZM532.8 171.812V170.812H532.576L532.373 170.908L532.8 171.812ZM550.956 203L550.884 202.003L549.131 202.13L550.136 203.572L550.956 203ZM561.175 217.656L561.602 218.561L562.673 218.056L561.995 217.084L561.175 217.656ZM555.675 220.25V221.25H555.899L556.102 221.154L555.675 220.25ZM555.363 220.25L554.543 220.823L554.842 221.25H555.363V220.25ZM543.331 203.062L544.15 202.489L543.852 202.062H543.331V203.062ZM535.738 203.062V202.062H534.738V203.062H535.738ZM535.738 217.438L536.166 218.341L536.738 218.07V217.438H535.738ZM529.8 220.25V221.25H530.025L530.228 221.154L529.8 220.25ZM534.738 177.438V197.438H536.738V177.438H534.738ZM535.738 198.438H549.488V196.438H535.738V198.438ZM549.488 198.438C551.239 198.438 552.725 197.936 553.753 196.771C554.759 195.63 555.175 194.021 555.175 192.125H553.175C553.175 193.77 552.809 194.818 552.253 195.448C551.718 196.054 550.861 196.438 549.488 196.438V198.438ZM555.175 192.125V182.75H553.175V192.125H555.175ZM555.175 182.75C555.175 180.854 554.759 179.245 553.753 178.104C552.725 176.939 551.239 176.438 549.488 176.438V178.438C550.861 178.438 551.718 178.821 552.253 179.427C552.809 180.057 553.175 181.105 553.175 182.75H555.175ZM549.488 176.438H535.738V178.438H549.488V176.438ZM530.488 220.25V173.375H528.488V220.25H530.488ZM529.914 174.279L533.227 172.717L532.373 170.908L529.061 172.471L529.914 174.279ZM532.8 172.812H549.488V170.812H532.8V172.812ZM549.488 172.812C552.979 172.812 555.414 173.685 556.984 175.254C558.553 176.823 559.425 179.258 559.425 182.75H561.425C561.425 178.95 560.474 175.916 558.398 173.84C556.321 171.763 553.287 170.812 549.488 170.812V172.812ZM559.425 182.75V192.125H561.425V182.75H559.425ZM559.425 192.125C559.425 195.378 558.669 197.713 557.304 199.281C555.949 200.837 553.863 201.786 550.884 202.003L551.029 203.997C554.362 203.755 557.011 202.663 558.812 200.594C560.603 198.537 561.425 195.663 561.425 192.125H559.425ZM550.136 203.572L560.355 218.228L561.995 217.084L551.777 202.428L550.136 203.572ZM560.748 216.752L555.248 219.346L556.102 221.154L561.602 218.561L560.748 216.752ZM555.675 219.25H555.363V221.25H555.675V219.25ZM556.182 219.677L544.15 202.489L542.512 203.636L554.543 220.823L556.182 219.677ZM543.331 202.062H535.738V204.062H543.331V202.062ZM534.738 203.062V217.438H536.738V203.062H534.738ZM535.309 216.534L529.372 219.346L530.228 221.154L536.166 218.341L535.309 216.534ZM529.8 219.25H529.488V221.25H529.8V219.25Z" fill="#401127" fill-opacity="0.8"/>
</g>
<g filter="url(#filter2_d_530_218)">
<path d="M234.962 127.5V52.5C234.962 37.9167 242.254 30.625 256.837 30.625H276.212C283.712 30.625 288.921 32.625 291.837 36.625C295.171 32.625 300.379 30.625 307.462 30.625H326.837C341.421 30.625 348.712 37.9167 348.712 52.5V121.875L336.837 127.5H336.212V52.5C336.212 45.4167 333.087 41.875 326.837 41.875H307.462C301.212 41.875 298.087 45.4167 298.087 52.5V121.875L286.212 127.5H285.587V52.5C285.587 45.4167 282.462 41.875 276.212 41.875H256.837C250.587 41.875 247.462 45.4167 247.462 52.5V121.875L235.587 127.5H234.962ZM412.112 125V33.75L418.737 30.625H458.362V31.25L453.3 42H424.612V72.125H458.362V72.75L453.3 83.5H424.612V113.625H468.8V114.25L463.737 125H412.112ZM522.887 125V33.75L529.512 30.625H569.137V31.25L564.075 42H535.387V72.125H569.137V72.75L564.075 83.5H535.387V113.625H579.575V114.25L574.512 125H522.887ZM641.975 127.5V42H615.225V41.375L620.288 30.625H681.225V31.25L676.163 42H654.475V121.875L642.6 127.5H641.975Z" fill="#8F1B42" shape-rendering="crispEdges"/>
<path d="M234.962 127.5H233.462V129H234.962V127.5ZM291.837 36.625L290.625 37.5088L291.759 39.0627L292.99 37.5853L291.837 36.625ZM348.712 121.875L349.355 123.231L350.212 122.824V121.875H348.712ZM336.837 127.5V129H337.175L337.48 128.856L336.837 127.5ZM336.212 127.5H334.712V129H336.212V127.5ZM298.087 121.875L298.73 123.231L299.587 122.824V121.875H298.087ZM286.212 127.5V129H286.55L286.855 128.856L286.212 127.5ZM285.587 127.5H284.087V129H285.587V127.5ZM247.462 121.875L248.105 123.231L248.962 122.824V121.875H247.462ZM235.587 127.5V129H235.925L236.23 128.856L235.587 127.5ZM236.462 127.5V52.5H233.462V127.5H236.462ZM236.462 52.5C236.462 45.4396 238.227 40.4197 241.492 37.1544C244.757 33.8891 249.777 32.125 256.837 32.125V29.125C249.315 29.125 243.397 31.0067 239.371 35.0331C235.344 39.0594 233.462 44.9771 233.462 52.5H236.462ZM256.837 32.125H276.212V29.125H256.837V32.125ZM276.212 32.125C283.489 32.125 288.114 34.0646 290.625 37.5088L293.05 35.7412C289.728 31.1854 283.936 29.125 276.212 29.125V32.125ZM292.99 37.5853C295.945 34.0391 300.655 32.125 307.462 32.125V29.125C300.104 29.125 294.397 31.2109 290.685 35.6647L292.99 37.5853ZM307.462 32.125H326.837V29.125H307.462V32.125ZM326.837 32.125C333.898 32.125 338.918 33.8891 342.183 37.1544C345.448 40.4197 347.212 45.4396 347.212 52.5H350.212C350.212 44.9771 348.331 39.0594 344.304 35.0331C340.278 31.0067 334.36 29.125 326.837 29.125V32.125ZM347.212 52.5V121.875H350.212V52.5H347.212ZM348.07 120.519L336.195 126.144L337.48 128.856L349.355 123.231L348.07 120.519ZM336.837 126H336.212V129H336.837V126ZM337.712 127.5V52.5H334.712V127.5H337.712ZM337.712 52.5C337.712 48.7701 336.894 45.6925 334.994 43.5388C333.062 41.3493 330.246 40.375 326.837 40.375V43.375C329.679 43.375 331.551 44.1715 332.744 45.5237C333.969 46.9117 334.712 49.1466 334.712 52.5H337.712ZM326.837 40.375H307.462V43.375H326.837V40.375ZM307.462 40.375C304.054 40.375 301.238 41.3493 299.306 43.5388C297.406 45.6925 296.587 48.7701 296.587 52.5H299.587C299.587 49.1466 300.331 46.9117 301.556 45.5237C302.749 44.1715 304.621 43.375 307.462 43.375V40.375ZM296.587 52.5V121.875H299.587V52.5H296.587ZM297.445 120.519L285.57 126.144L286.855 128.856L298.73 123.231L297.445 120.519ZM286.212 126H285.587V129H286.212V126ZM287.087 127.5V52.5H284.087V127.5H287.087ZM287.087 52.5C287.087 48.7701 286.269 45.6925 284.369 43.5388C282.437 41.3493 279.621 40.375 276.212 40.375V43.375C279.054 43.375 280.926 44.1715 282.119 45.5237C283.344 46.9117 284.087 49.1466 284.087 52.5H287.087ZM276.212 40.375H256.837V43.375H276.212V40.375ZM256.837 40.375C253.429 40.375 250.613 41.3493 248.681 43.5388C246.781 45.6925 245.962 48.7701 245.962 52.5H248.962C248.962 49.1466 249.706 46.9117 250.931 45.5237C252.124 44.1715 253.996 43.375 256.837 43.375V40.375ZM245.962 52.5V121.875H248.962V52.5H245.962ZM246.82 120.519L234.945 126.144L236.23 128.856L248.105 123.231L246.82 120.519ZM235.587 126H234.962V129H235.587V126ZM412.112 125H410.612V126.5H412.112V125ZM412.112 33.75L411.473 32.3934L410.612 32.799V33.75H412.112ZM418.737 30.625V29.125H418.401L418.098 29.2684L418.737 30.625ZM458.362 30.625H459.862V29.125H458.362V30.625ZM458.362 31.25L459.72 31.8891L459.862 31.5855V31.25H458.362ZM453.3 42V43.5H454.252L454.657 42.6391L453.3 42ZM424.612 42V40.5H423.112V42H424.612ZM424.612 72.125H423.112V73.625H424.612V72.125ZM458.362 72.125H459.862V70.625H458.362V72.125ZM458.362 72.75L459.72 73.3891L459.862 73.0855V72.75H458.362ZM453.3 83.5V85H454.252L454.657 84.1391L453.3 83.5ZM424.612 83.5V82H423.112V83.5H424.612ZM424.612 113.625H423.112V115.125H424.612V113.625ZM468.8 113.625H470.3V112.125H468.8V113.625ZM468.8 114.25L470.157 114.889L470.3 114.586V114.25H468.8ZM463.737 125V126.5H464.689L465.095 125.639L463.737 125ZM413.612 125V33.75H410.612V125H413.612ZM412.752 35.1066L419.377 31.9816L418.098 29.2684L411.473 32.3934L412.752 35.1066ZM418.737 32.125H458.362V29.125H418.737V32.125ZM456.862 30.625V31.25H459.862V30.625H456.862ZM457.005 30.6109L451.943 41.3609L454.657 42.6391L459.72 31.8891L457.005 30.6109ZM453.3 40.5H424.612V43.5H453.3V40.5ZM423.112 42V72.125H426.112V42H423.112ZM424.612 73.625H458.362V70.625H424.612V73.625ZM456.862 72.125V72.75H459.862V72.125H456.862ZM457.005 72.1109L451.943 82.8609L454.657 84.1391L459.72 73.3891L457.005 72.1109ZM453.3 82H424.612V85H453.3V82ZM423.112 83.5V113.625H426.112V83.5H423.112ZM424.612 115.125H468.8V112.125H424.612V115.125ZM467.3 113.625V114.25H470.3V113.625H467.3ZM467.443 113.611L462.38 124.361L465.095 125.639L470.157 114.889L467.443 113.611ZM463.737 123.5H412.112V126.5H463.737V123.5ZM522.887 125H521.387V126.5H522.887V125ZM522.887 33.75L522.248 32.3934L521.387 32.799V33.75H522.887ZM529.512 30.625V29.125H529.176L528.873 29.2684L529.512 30.625ZM569.137 30.625H570.637V29.125H569.137V30.625ZM569.137 31.25L570.495 31.8891L570.637 31.5855V31.25H569.137ZM564.075 42V43.5H565.027L565.432 42.6391L564.075 42ZM535.387 42V40.5H533.887V42H535.387ZM535.387 72.125H533.887V73.625H535.387V72.125ZM569.137 72.125H570.637V70.625H569.137V72.125ZM569.137 72.75L570.495 73.3891L570.637 73.0855V72.75H569.137ZM564.075 83.5V85H565.027L565.432 84.1391L564.075 83.5ZM535.387 83.5V82H533.887V83.5H535.387ZM535.387 113.625H533.887V115.125H535.387V113.625ZM579.575 113.625H581.075V112.125H579.575V113.625ZM579.575 114.25L580.932 114.889L581.075 114.586V114.25H579.575ZM574.512 125V126.5H575.464L575.87 125.639L574.512 125ZM524.387 125V33.75H521.387V125H524.387ZM523.527 35.1066L530.152 31.9816L528.873 29.2684L522.248 32.3934L523.527 35.1066ZM529.512 32.125H569.137V29.125H529.512V32.125ZM567.637 30.625V31.25H570.637V30.625H567.637ZM567.78 30.6109L562.718 41.3609L565.432 42.6391L570.495 31.8891L567.78 30.6109ZM564.075 40.5H535.387V43.5H564.075V40.5ZM533.887 42V72.125H536.887V42H533.887ZM535.387 73.625H569.137V70.625H535.387V73.625ZM567.637 72.125V72.75H570.637V72.125H567.637ZM567.78 72.1109L562.718 82.8609L565.432 84.1391L570.495 73.3891L567.78 72.1109ZM564.075 82H535.387V85H564.075V82ZM533.887 83.5V113.625H536.887V83.5H533.887ZM535.387 115.125H579.575V112.125H535.387V115.125ZM578.075 113.625V114.25H581.075V113.625H578.075ZM578.218 113.611L573.155 124.361L575.87 125.639L580.932 114.889L578.218 113.611ZM574.512 123.5H522.887V126.5H574.512V123.5ZM641.975 127.5H640.475V129H641.975V127.5ZM641.975 42H643.475V40.5H641.975V42ZM615.225 42H613.725V43.5H615.225V42ZM615.225 41.375L613.868 40.7359L613.725 41.0395V41.375H615.225ZM620.288 30.625V29.125H619.336L618.93 29.9859L620.288 30.625ZM681.225 30.625H682.725V29.125H681.225V30.625ZM681.225 31.25L682.582 31.8891L682.725 31.5855V31.25H681.225ZM676.163 42V43.5H677.114L677.52 42.6391L676.163 42ZM654.475 42V40.5H652.975V42H654.475ZM654.475 121.875L655.117 123.231L655.975 122.824V121.875H654.475ZM642.6 127.5V129H642.937L643.242 128.856L642.6 127.5ZM643.475 127.5V42H640.475V127.5H643.475ZM641.975 40.5H615.225V43.5H641.975V40.5ZM616.725 42V41.375H613.725V42H616.725ZM616.582 42.0141L621.645 31.2641L618.93 29.9859L613.868 40.7359L616.582 42.0141ZM620.288 32.125H681.225V29.125H620.288V32.125ZM679.725 30.625V31.25H682.725V30.625H679.725ZM679.868 30.6109L674.805 41.3609L677.52 42.6391L682.582 31.8891L679.868 30.6109ZM676.163 40.5H654.475V43.5H676.163V40.5ZM652.975 42V121.875H655.975V42H652.975ZM653.833 120.519L641.958 126.144L643.242 128.856L655.117 123.231L653.833 120.519ZM642.6 126H641.975V129H642.6V126Z" fill="#401127" fill-opacity="0.8"/>
</g>
<defs>
<filter id="filter0_d_530_218" x="0.599976" y="228.625" width="901.8" height="156.875" filterUnits="userSpaceOnUse" color-interpolation-filters="sRGB">
<feFlood flood-opacity="0" result="BackgroundImageFix"/>
<feColorMatrix in="SourceAlpha" type="matrix" values="0 0 0 0 0 0 0 0 0 0 0 0 0 0 0 0 0 0 127 0" result="hardAlpha"/>
<feOffset/>
<feGaussianBlur stdDeviation="15"/>
<feComposite in2="hardAlpha" operator="out"/>
<feColorMatrix type="matrix" values="0 0 0 0 0.25098 0 0 0 0 0.0666667 0 0 0 0 0.152941 0 0 0 0.6 0"/>
<feBlend mode="normal" in2="BackgroundImageFix" result="effect1_dropShadow_530_218"/>
<feBlend mode="normal" in="SourceGraphic" in2="effect1_dropShadow_530_218" result="shape"/>
</filter>
<filter id="filter1_d_530_218" x="312.825" y="140.562" width="278.35" height="109.688" filterUnits="userSpaceOnUse" color-interpolation-filters="sRGB">
<feFlood flood-opacity="0" result="BackgroundImageFix"/>
<feColorMatrix in="SourceAlpha" type="matrix" values="0 0 0 0 0 0 0 0 0 0 0 0 0 0 0 0 0 0 127 0" result="hardAlpha"/>
<feOffset/>
<feGaussianBlur stdDeviation="15"/>
<feComposite in2="hardAlpha" operator="out"/>
<feColorMatrix type="matrix" values="0 0 0 0 0.25098 0 0 0 0 0.0666667 0 0 0 0 0.152941 0 0 0 0.6 0"/>
<feBlend mode="normal" in2="BackgroundImageFix" result="effect1_dropShadow_530_218"/>
<feBlend mode="normal" in="SourceGraphic" in2="effect1_dropShadow_530_218" result="shape"/>
</filter>
<filter id="filter2_d_530_218" x="204.963" y="0.625" width="506.262" height="156.875" filterUnits="userSpaceOnUse" color-interpolation-filters="sRGB">
<feFlood flood-opacity="0" result="BackgroundImageFix"/>
<feColorMatrix in="SourceAlpha" type="matrix" values="0 0 0 0 0 0 0 0 0 0 0 0 0 0 0 0 0 0 127 0" result="hardAlpha"/>
<feOffset/>
<feGaussianBlur stdDeviation="15"/>
<feComposite in2="hardAlpha" operator="out"/>
<feColorMatrix type="matrix" values="0 0 0 0 0.25098 0 0 0 0 0.0666667 0 0 0 0 0.152941 0 0 0 0.6 0"/>
<feBlend mode="normal" in2="BackgroundImageFix" result="effect1_dropShadow_530_218"/>
<feBlend mode="normal" in="SourceGraphic" in2="effect1_dropShadow_530_218" result="shape"/>
</filter>
</defs>
</svg>
