<svg width="295" height="112" viewBox="0 0 295 112" fill="none" xmlns="http://www.w3.org/2000/svg">
<path d="M266.256 57.3952L265.514 56.1386L266.244 54.8749L290.632 12.6248H21.3936L3.17712 56.114L21.3794 98.6248H290.584L266.256 57.3952Z" fill="#401127" stroke="white" stroke-width="5"/>
<g filter="url(#filter0_d_1031_982)">
<path d="M106.412 67.4128C104.194 67.4128 102.295 66.9434 100.716 66.0048C99.1377 65.0661 97.9217 63.7328 97.0684 62.0048C96.2364 60.2768 95.8204 58.2181 95.8204 55.8288C95.8204 53.4608 96.2364 51.4128 97.0684 49.6848C97.9217 47.9568 99.1377 46.6234 100.716 45.6848C102.295 44.7461 104.194 44.2768 106.412 44.2768C107.97 44.2768 109.399 44.5221 110.7 45.0128C112.023 45.5034 113.143 46.2181 114.06 47.1568L113.036 49.3008C112.055 48.3834 111.031 47.7221 109.964 47.3168C108.919 46.8901 107.756 46.6768 106.476 46.6768C103.938 46.6768 101.996 47.4768 100.652 49.0768C99.3084 50.6768 98.6364 52.9274 98.6364 55.8288C98.6364 58.7514 99.3084 61.0128 100.652 62.6128C101.996 64.2128 103.938 65.0128 106.476 65.0128C107.756 65.0128 108.919 64.8101 109.964 64.4048C111.031 63.9781 112.055 63.3061 113.036 62.3888L114.06 64.5328C113.143 65.4501 112.023 66.1648 110.7 66.6768C109.399 67.1674 107.97 67.4128 106.412 67.4128ZM122.228 67.4128C121.161 67.4128 120.201 67.2101 119.348 66.8048C118.516 66.3781 117.854 65.8021 117.364 65.0768C116.873 64.3514 116.628 63.5408 116.628 62.6448C116.628 61.5141 116.916 60.6181 117.492 59.9568C118.089 59.2954 119.06 58.8261 120.404 58.5488C121.769 58.2501 123.625 58.1008 125.972 58.1008H126.996V57.1088C126.996 55.7861 126.718 54.8368 126.164 54.2608C125.63 53.6634 124.766 53.3648 123.572 53.3648C122.633 53.3648 121.726 53.5034 120.852 53.7808C119.977 54.0368 119.081 54.4634 118.164 55.0608L117.268 53.1728C118.078 52.5968 119.06 52.1381 120.212 51.7968C121.385 51.4554 122.505 51.2848 123.572 51.2848C125.577 51.2848 127.06 51.7754 128.02 52.7568C129.001 53.7381 129.492 55.2634 129.492 57.3328V67.1248H127.06V64.4368C126.654 65.3541 126.025 66.0794 125.172 66.6128C124.34 67.1461 123.358 67.4128 122.228 67.4128ZM122.644 65.4608C123.924 65.4608 124.969 65.0234 125.78 64.1488C126.59 63.2528 126.996 62.1221 126.996 60.7568V59.7968H126.004C124.276 59.7968 122.91 59.8821 121.908 60.0528C120.926 60.2021 120.233 60.4794 119.828 60.8848C119.444 61.2688 119.252 61.8021 119.252 62.4848C119.252 63.3594 119.55 64.0741 120.148 64.6288C120.766 65.1834 121.598 65.4608 122.644 65.4608ZM134.3 67.1248V51.5728H136.828V54.2288C137.34 53.2474 138.066 52.5114 139.004 52.0208C139.943 51.5301 140.999 51.2848 142.172 51.2848C145.863 51.2848 147.708 53.3328 147.708 57.4288V67.1248H145.116V57.5888C145.116 56.1381 144.828 55.0821 144.252 54.4208C143.698 53.7381 142.802 53.3968 141.564 53.3968C140.135 53.3968 138.994 53.8448 138.14 54.7408C137.308 55.6154 136.892 56.7888 136.892 58.2608V67.1248H134.3ZM159.08 67.4128C157.523 67.4128 156.179 67.0821 155.048 66.4208C153.917 65.7381 153.043 64.7888 152.424 63.5728C151.827 62.3354 151.528 60.8954 151.528 59.2528C151.528 56.7781 152.2 54.8368 153.544 53.4288C154.888 51.9994 156.733 51.2848 159.08 51.2848C160.04 51.2848 160.989 51.4554 161.928 51.7968C162.867 52.1381 163.645 52.6181 164.264 53.2368L163.368 55.1248C162.749 54.5274 162.067 54.0901 161.32 53.8128C160.595 53.5354 159.901 53.3968 159.24 53.3968C157.619 53.3968 156.371 53.9088 155.496 54.9328C154.621 55.9354 154.184 57.3861 154.184 59.2848C154.184 61.1408 154.621 62.6128 155.496 63.7008C156.371 64.7674 157.619 65.3008 159.24 65.3008C159.901 65.3008 160.595 65.1621 161.32 64.8848C162.067 64.6074 162.749 64.1594 163.368 63.5408L164.264 65.4288C163.645 66.0474 162.856 66.5381 161.896 66.9008C160.957 67.2421 160.019 67.4128 159.08 67.4128ZM173.996 67.4128C171.543 67.4128 169.601 66.6981 168.172 65.2688C166.743 63.8181 166.028 61.8554 166.028 59.3808C166.028 57.7808 166.348 56.3728 166.988 55.1568C167.628 53.9194 168.503 52.9701 169.612 52.3088C170.743 51.6261 172.044 51.2848 173.516 51.2848C175.628 51.2848 177.281 51.9674 178.476 53.3328C179.671 54.6768 180.268 56.5328 180.268 58.9008V59.8928H168.556C168.641 61.6634 169.153 63.0181 170.092 63.9568C171.031 64.8741 172.332 65.3328 173.996 65.3328C174.935 65.3328 175.831 65.1941 176.684 64.9168C177.537 64.6181 178.348 64.1381 179.116 63.4768L180.012 65.3008C179.308 65.9621 178.412 66.4848 177.324 66.8688C176.236 67.2314 175.127 67.4128 173.996 67.4128ZM173.58 53.2048C172.108 53.2048 170.945 53.6634 170.092 54.5808C169.239 55.4981 168.737 56.7034 168.588 58.1968H178.028C177.964 56.6181 177.548 55.3914 176.78 54.5168C176.033 53.6421 174.967 53.2048 173.58 53.2048ZM188.787 67.4128C187.208 67.4128 186.014 66.9541 185.203 66.0368C184.414 65.0981 184.019 63.7434 184.019 61.9728V44.5648H186.611V61.7808C186.611 64.0634 187.518 65.2048 189.331 65.2048C189.864 65.2048 190.344 65.1408 190.771 65.0128L190.707 67.1888C190.046 67.3381 189.406 67.4128 188.787 67.4128Z" fill="white"/>
</g>
<defs>
<filter id="filter0_d_1031_982" x="80.8203" y="29.2767" width="124.951" height="53.136" filterUnits="userSpaceOnUse" color-interpolation-filters="sRGB">
<feFlood flood-opacity="0" result="BackgroundImageFix"/>
<feColorMatrix in="SourceAlpha" type="matrix" values="0 0 0 0 0 0 0 0 0 0 0 0 0 0 0 0 0 0 127 0" result="hardAlpha"/>
<feOffset/>
<feGaussianBlur stdDeviation="7.5"/>
<feComposite in2="hardAlpha" operator="out"/>
<feColorMatrix type="matrix" values="0 0 0 0 1 0 0 0 0 0.996078 0 0 0 0 0.909804 0 0 0 0.5 0"/>
<feBlend mode="normal" in2="BackgroundImageFix" result="effect1_dropShadow_1031_982"/>
<feBlend mode="normal" in="SourceGraphic" in2="effect1_dropShadow_1031_982" result="shape"/>
</filter>
</defs>
</svg>
