<svg width="839" height="618" viewBox="0 0 839 618" fill="none" xmlns="http://www.w3.org/2000/svg">
<rect x="56" y="561" width="502.461" height="782.273" rx="24" transform="rotate(-90.2596 56 561)" fill="#8F1B42"/>
<path d="M89.9998 542.928C81.1634 542.968 73.9675 535.837 73.9275 527L71.9571 92.0457C71.917 83.2092 79.048 76.0134 87.8844 75.9733L92.7143 75.9515L801.762 72.7393C810.598 72.6993 817.794 79.8302 817.834 88.6667L819.804 523.621C819.844 532.458 812.713 539.653 803.877 539.693L89.9998 542.928Z" fill="#4E2626" fill-opacity="0.69"/>
<g style="mix-blend-mode:overlay">
<path d="M84.9998 549.918C75.0588 549.963 66.9635 541.941 66.9185 532L64.9035 87.2282C64.8585 77.2872 72.8808 69.1918 82.8218 69.1468L86.023 69.1323L805.995 65.8707C815.936 65.8256 824.031 73.8479 824.076 83.7889L826.091 528.561C826.136 538.502 818.114 546.597 808.173 546.642L84.9998 549.918Z" fill="#401127"/>
</g>
<g filter="url(#filter0_d_1305_76)">
<path d="M124.136 236.269L144.061 191.14L148.541 191.139L168.424 236.25L162.984 236.253L157.998 224.735L134.51 224.744L129.576 236.266L124.136 236.269ZM146.234 197.284L136.432 220.328L156.144 220.319L146.362 197.283L146.234 197.284ZM174.409 236.248L174.423 205.144L179.479 205.142L179.477 210.71C181.143 206.954 184.557 204.884 189.72 204.498L191.576 204.305L191.958 208.785L188.694 209.17C185.749 209.427 183.509 210.367 181.972 211.989C180.436 213.568 179.667 215.744 179.665 218.518L179.657 236.246L174.409 236.248ZM210.988 236.809C206.081 236.811 202.199 235.383 199.341 232.526C196.484 229.625 195.057 225.701 195.059 220.751C195.06 217.551 195.702 214.735 196.983 212.303C198.264 209.827 200.014 207.928 202.233 206.604C204.495 205.238 207.098 204.554 210.042 204.553C214.266 204.551 217.572 205.915 219.96 208.645C222.348 211.332 223.541 215.044 223.539 219.78L223.538 221.764L200.114 221.773C200.283 225.315 201.306 228.023 203.183 229.9C205.059 231.734 207.661 232.65 210.989 232.649C212.867 232.648 214.659 232.37 216.366 231.815C218.073 231.217 219.695 230.256 221.231 228.933L223.021 232.58C221.613 233.903 219.82 234.949 217.644 235.718C215.468 236.444 213.249 236.808 210.988 236.809ZM210.168 208.393C207.224 208.394 204.899 209.313 203.191 211.148C201.484 212.983 200.48 215.394 200.18 218.381L219.06 218.373C218.933 215.216 218.102 212.763 216.567 211.015C215.075 209.266 212.942 208.392 210.168 208.393ZM251.051 247.736L256.368 235.702L243.262 205.116L248.894 205.113L259.186 230.325L269.566 205.105L275.006 205.102L256.491 247.734L251.051 247.736ZM292.837 236.775C289.808 236.776 287.184 236.116 284.966 234.794C282.748 233.473 281.021 231.617 279.784 229.228C278.591 226.797 277.995 223.939 277.996 220.653C277.998 217.368 278.596 214.53 279.792 212.14C281.031 209.708 282.759 207.83 284.979 206.506C287.198 205.183 289.822 204.52 292.852 204.519C295.838 204.518 298.441 205.178 300.659 206.5C302.919 207.822 304.647 209.698 305.84 212.13C307.076 214.519 307.694 217.356 307.692 220.641C307.691 223.926 307.071 226.785 305.832 229.218C304.637 231.608 302.908 233.464 300.646 234.788C298.427 236.111 295.824 236.774 292.837 236.775ZM292.839 232.615C295.74 232.614 298.066 231.589 299.816 229.54C301.567 227.449 302.443 224.483 302.444 220.643C302.446 216.76 301.573 213.795 299.824 211.748C298.076 209.701 295.751 208.678 292.85 208.679C289.906 208.68 287.559 209.705 285.808 211.754C284.101 213.803 283.246 216.768 283.244 220.651C283.243 224.491 284.095 227.456 285.8 229.546C287.549 231.593 289.895 232.616 292.839 232.615ZM326.48 236.761C319.013 236.764 315.281 232.648 315.285 224.414L315.294 205.086L320.478 205.084L320.469 224.348C320.468 227.121 321.022 229.169 322.13 230.491C323.282 231.813 325.073 232.474 327.505 232.473C330.151 232.472 332.306 231.596 333.971 229.846C335.635 228.053 336.469 225.685 336.47 222.741L336.478 205.077L341.662 205.075L341.648 236.179L336.592 236.181L336.594 230.933C335.612 232.811 334.225 234.262 332.432 235.287C330.682 236.269 328.698 236.76 326.48 236.761ZM378.28 236.74C375.848 236.741 373.544 236.4 371.368 235.719C369.193 235.037 367.401 234.078 365.994 232.841L367.659 229.192C369.195 230.429 370.88 231.346 372.714 231.942C374.591 232.496 376.49 232.773 378.41 232.772C380.842 232.771 382.677 232.322 383.914 231.426C385.152 230.529 385.771 229.313 385.772 227.777C385.773 226.582 385.368 225.644 384.557 224.961C383.747 224.236 382.467 223.682 380.718 223.299L374.895 222.021C369.605 220.871 366.96 218.142 366.962 213.833C366.964 211.017 368.074 208.755 370.293 207.047C372.556 205.34 375.5 204.485 379.127 204.484C381.26 204.483 383.287 204.823 385.206 205.505C387.169 206.144 388.789 207.104 390.069 208.383L388.339 212.032C387.102 210.88 385.652 210.006 383.988 209.41C382.367 208.77 380.746 208.451 379.125 208.452C376.736 208.453 374.922 208.923 373.684 209.862C372.446 210.801 371.827 212.039 371.827 213.575C371.825 215.964 373.403 217.499 376.56 218.181L382.384 219.394C385.114 219.99 387.183 220.95 388.591 222.272C389.998 223.551 390.701 225.3 390.7 227.519C390.699 230.377 389.567 232.639 387.305 234.304C385.043 235.926 382.035 236.738 378.28 236.74ZM409.605 236.727C402.138 236.73 398.406 232.614 398.41 224.38L398.419 205.052L403.603 205.049L403.594 224.313C403.593 227.087 404.147 229.135 405.255 230.457C406.407 231.779 408.198 232.44 410.63 232.439C413.276 232.437 415.431 231.562 417.096 229.812C418.76 228.019 419.594 225.651 419.595 222.707L419.603 205.043L424.787 205.041L424.773 236.145L419.717 236.147L419.719 230.899C418.737 232.777 417.35 234.228 415.557 235.252C413.807 236.235 411.823 236.726 409.605 236.727ZM434.472 236.141L434.486 205.037L439.542 205.035L439.539 210.603C441.205 206.847 444.619 204.777 449.782 204.39L451.638 204.198L452.02 208.677L448.756 209.063C445.812 209.32 443.572 210.26 442.035 211.882C440.498 213.461 439.729 215.637 439.728 218.411L439.72 236.139L434.472 236.141ZM471.05 236.702C466.143 236.704 462.261 235.276 459.404 232.418C456.547 229.518 455.119 225.594 455.121 220.644C455.123 217.444 455.764 214.628 457.045 212.195C458.326 209.72 460.076 207.821 462.296 206.497C464.558 205.131 467.161 204.447 470.105 204.446C474.329 204.444 477.635 205.808 480.023 208.538C482.411 211.225 483.604 214.936 483.602 219.672L483.601 221.656L460.177 221.666C460.346 225.207 461.369 227.916 463.245 229.793C465.122 231.627 467.724 232.543 471.052 232.542C472.929 232.541 474.721 232.263 476.428 231.707C478.135 231.109 479.757 230.149 481.294 228.825L483.084 232.473C481.675 233.796 479.883 234.842 477.707 235.611C475.53 236.337 473.311 236.701 471.05 236.702ZM470.231 208.286C467.287 208.287 464.961 209.205 463.254 211.041C461.546 212.876 460.542 215.287 460.242 218.274L479.122 218.266C478.996 215.109 478.165 212.656 476.63 210.907C475.137 209.159 473.004 208.285 470.231 208.286ZM511.113 247.629L516.431 235.595L503.324 205.008L508.956 205.006L519.249 230.218L529.628 204.997L535.068 204.995L516.553 247.627L511.113 247.629ZM552.9 236.668C549.87 236.669 547.246 236.009 545.028 234.687C542.81 233.365 541.083 231.51 539.847 229.121C538.653 226.69 538.057 223.831 538.059 220.546C538.06 217.261 538.659 214.423 539.855 212.033C541.093 209.601 542.822 207.723 545.041 206.399C547.261 205.076 549.885 204.413 552.914 204.412C555.901 204.411 558.503 205.071 560.721 206.393C562.982 207.714 564.709 209.591 565.903 212.023C567.139 214.411 567.756 217.248 567.755 220.534C567.753 223.819 567.133 226.678 565.895 229.111C564.699 231.5 562.97 233.357 560.708 234.681C558.489 236.004 555.886 236.667 552.9 236.668ZM552.901 232.508C555.803 232.507 558.129 231.482 559.879 229.433C561.629 227.342 562.505 224.376 562.507 220.536C562.509 216.653 561.635 213.688 559.887 211.641C558.138 209.594 555.814 208.571 552.912 208.572C549.968 208.573 547.621 209.598 545.871 211.647C544.163 213.695 543.309 216.661 543.307 220.544C543.305 224.384 544.157 227.349 545.863 229.439C547.611 231.486 549.957 232.509 552.901 232.508ZM586.542 236.654C579.075 236.657 575.344 232.541 575.348 224.307L575.356 204.979L580.54 204.976L580.532 224.24C580.53 227.014 581.084 229.062 582.193 230.384C583.344 231.706 585.136 232.367 587.568 232.366C590.213 232.365 592.368 231.489 594.033 229.739C595.698 227.946 596.531 225.578 596.532 222.634L596.54 204.97L601.724 204.968L601.71 236.072L596.654 236.074L596.657 230.826C595.674 232.704 594.287 234.155 592.495 235.18C590.745 236.162 588.761 236.653 586.542 236.654ZM636.103 236.058L624.533 204.958L629.973 204.956L638.73 229.977L647.829 204.949L652.245 204.947L661.194 230.031L670.101 204.94L675.285 204.937L663.623 236.046L658.695 236.048L649.938 211.924L641.095 236.056L636.103 236.058ZM690.826 236.611C688.693 236.612 686.773 236.207 685.067 235.397C683.403 234.545 682.081 233.393 681.1 231.943C680.119 230.493 679.63 228.872 679.63 227.08C679.631 224.818 680.208 223.026 681.361 221.703C682.556 220.38 684.498 219.44 687.186 218.885C689.917 218.286 693.629 217.986 698.322 217.984L700.37 217.983L700.371 215.999C700.373 213.354 699.819 211.455 698.71 210.304C697.644 209.11 695.916 208.513 693.527 208.514C691.649 208.515 689.836 208.793 688.086 209.348C686.337 209.861 684.544 210.715 682.709 211.91L680.919 208.135C682.541 206.982 684.504 206.064 686.808 205.381C689.155 204.697 691.395 204.355 693.529 204.354C697.539 204.352 700.504 205.332 702.423 207.294C704.385 209.256 705.365 212.306 705.363 216.445L705.354 236.029L700.49 236.031L700.493 230.655C699.681 232.49 698.422 233.941 696.715 235.009C695.05 236.076 693.087 236.61 690.826 236.611ZM691.66 232.707C694.22 232.706 696.311 231.83 697.933 230.08C699.555 228.287 700.367 226.026 700.368 223.295L700.369 221.375L698.385 221.376C694.929 221.377 692.198 221.549 690.193 221.891C688.23 222.191 686.843 222.746 686.032 223.557C685.264 224.325 684.879 225.392 684.878 226.757C684.878 228.507 685.474 229.936 686.669 231.045C687.905 232.154 689.569 232.708 691.66 232.707ZM714.972 236.025L714.986 204.921L720.042 204.919L720.039 210.231C721.064 208.268 722.516 206.795 724.393 205.813C726.271 204.831 728.383 204.34 730.73 204.339C738.111 204.336 741.8 208.43 741.797 216.622L741.788 236.014L736.604 236.016L736.612 216.944C736.614 214.043 736.039 211.931 734.887 210.609C733.779 209.244 731.987 208.562 729.512 208.563C726.654 208.564 724.37 209.461 722.663 211.254C720.998 213.004 720.165 215.351 720.164 218.295L720.156 236.023L714.972 236.025ZM763.827 236.581C760.157 236.582 757.406 235.624 755.572 233.704C753.738 231.742 752.822 228.927 752.824 225.257L752.831 208.937L746.751 208.94L746.753 204.908L752.833 204.905L752.837 195.369L758.021 195.367L758.017 204.903L767.873 204.899L767.871 208.931L758.015 208.935L758.008 224.743C758.007 227.175 758.518 229.031 759.541 230.311C760.565 231.548 762.229 232.166 764.533 232.165C765.215 232.164 765.898 232.079 766.581 231.908C767.263 231.737 767.882 231.566 768.437 231.395L769.331 235.363C768.776 235.662 767.965 235.939 766.899 236.196C765.832 236.452 764.808 236.581 763.827 236.581ZM169.193 323.826C165.524 323.828 162.772 322.869 160.939 320.949C159.105 318.988 158.189 316.172 158.19 312.503L158.198 296.183L152.118 296.185L152.12 292.153L158.2 292.151L158.204 282.615L163.388 282.612L163.384 292.148L173.24 292.144L173.238 296.176L163.382 296.18L163.375 311.988C163.374 314.42 163.885 316.276 164.908 317.556C165.932 318.793 167.595 319.411 169.899 319.41C170.582 319.409 171.265 319.324 171.947 319.153C172.63 318.982 173.249 318.811 173.804 318.64L174.698 322.608C174.143 322.907 173.332 323.184 172.266 323.441C171.199 323.697 170.175 323.826 169.193 323.826ZM191.704 323.817C188.675 323.818 186.051 323.158 183.833 321.836C181.615 320.514 179.888 318.659 178.651 316.27C177.458 313.839 176.862 310.98 176.863 307.695C176.865 304.41 177.463 301.572 178.659 299.182C179.897 296.75 181.626 294.872 183.846 293.548C186.065 292.224 188.689 291.562 191.718 291.561C194.705 291.56 197.308 292.22 199.526 293.542C201.786 294.863 203.513 296.74 204.707 299.171C205.943 301.56 206.561 304.397 206.559 307.683C206.558 310.968 205.938 313.827 204.699 316.259C203.504 318.649 201.775 320.506 199.513 321.83C197.293 323.153 194.691 323.816 191.704 323.817ZM191.706 319.657C194.607 319.656 196.933 318.631 198.683 316.582C200.433 314.49 201.309 311.525 201.311 307.685C201.313 303.802 200.44 300.837 198.691 298.79C196.943 296.743 194.618 295.72 191.717 295.721C188.773 295.722 186.425 296.747 184.675 298.796C182.968 300.844 182.113 303.81 182.111 307.693C182.109 311.533 182.961 314.498 184.667 316.588C186.416 318.635 188.762 319.658 191.706 319.657ZM230.776 323.225L230.79 292.121L235.846 292.119L235.844 297.687C237.509 293.931 240.924 291.86 246.086 291.474L247.943 291.282L248.325 295.761L245.06 296.147C242.116 296.404 239.876 297.344 238.339 298.966C236.802 300.545 236.033 302.721 236.032 305.494L236.024 323.222L230.776 323.225ZM267.354 323.786C262.448 323.788 258.566 322.36 255.708 319.502C252.851 316.602 251.423 312.677 251.426 307.728C251.427 304.528 252.068 301.712 253.349 299.279C254.631 296.804 256.381 294.905 258.6 293.581C260.862 292.215 263.465 291.531 266.409 291.53C270.633 291.528 273.939 292.892 276.327 295.622C278.715 298.309 279.908 302.02 279.906 306.756L279.905 308.74L256.481 308.75C256.65 312.291 257.673 315 259.549 316.877C261.426 318.711 264.028 319.627 267.356 319.626C269.234 319.625 271.026 319.347 272.733 318.791C274.44 318.193 276.061 317.233 277.598 315.909L279.388 319.557C277.98 320.88 276.187 321.926 274.011 322.695C271.835 323.421 269.616 323.785 267.354 323.786ZM266.535 295.37C263.591 295.371 261.265 296.289 259.558 298.125C257.85 299.96 256.847 302.371 256.547 305.358L275.427 305.35C275.3 302.193 274.469 299.74 272.934 297.991C271.441 296.243 269.309 295.369 266.535 295.37ZM299.881 323.772C296.212 323.774 293.46 322.815 291.626 320.896C289.792 318.934 288.876 316.118 288.878 312.449L288.885 296.129L282.805 296.131L282.807 292.099L288.887 292.097L288.892 282.561L294.076 282.559L294.071 292.095L303.927 292.09L303.925 296.122L294.069 296.127L294.062 311.935C294.061 314.367 294.572 316.222 295.596 317.502C296.619 318.739 298.283 319.357 300.587 319.356C301.27 319.356 301.952 319.27 302.635 319.099C303.318 318.928 303.936 318.757 304.491 318.586L305.385 322.554C304.831 322.853 304.02 323.13 302.953 323.387C301.886 323.643 300.862 323.772 299.881 323.772ZM320.784 323.764C313.317 323.767 309.586 319.651 309.589 311.416L309.598 292.088L314.782 292.086L314.773 311.35C314.772 314.123 315.326 316.171 316.435 317.493C317.586 318.816 319.378 319.476 321.81 319.475C324.455 319.474 326.61 318.598 328.275 316.848C329.94 315.056 330.773 312.687 330.774 309.743L330.782 292.079L335.966 292.077L335.952 323.181L330.896 323.183L330.898 317.935C329.916 319.813 328.529 321.264 326.737 322.289C324.987 323.271 323.003 323.763 320.784 323.764ZM345.651 323.177L345.665 292.073L350.721 292.071L350.719 297.639C352.384 293.884 355.799 291.813 360.961 291.427L362.818 291.234L363.2 295.714L359.935 296.099C356.991 296.357 354.751 297.296 353.214 298.918C351.677 300.497 350.908 302.674 350.907 305.447L350.899 323.175L345.651 323.177ZM368.589 323.168L368.603 292.064L373.659 292.062L373.656 297.374C374.681 295.411 376.133 293.938 378.01 292.956C379.888 291.974 382 291.482 384.347 291.481C391.728 291.478 395.417 295.573 395.413 303.765L395.405 323.157L390.221 323.159L390.229 304.087C390.231 301.186 389.656 299.074 388.504 297.752C387.395 296.387 385.604 295.705 383.129 295.706C380.27 295.707 377.987 296.604 376.28 298.397C374.615 300.147 373.782 302.494 373.781 305.438L373.773 323.166L368.589 323.168ZM433.881 323.717C430.211 323.718 427.46 322.76 425.626 320.84C423.792 318.878 422.876 316.063 422.878 312.393L422.885 296.073L416.805 296.076L416.807 292.044L422.887 292.041L422.892 282.505L428.076 282.503L428.071 292.039L437.927 292.035L437.925 296.067L428.069 296.071L428.062 311.879C428.061 314.311 428.572 316.167 429.596 317.447C430.619 318.684 432.283 319.302 434.587 319.301C435.269 319.3 435.952 319.215 436.635 319.044C437.318 318.873 437.936 318.702 438.491 318.531L439.385 322.499C438.831 322.798 438.02 323.075 436.953 323.332C435.886 323.588 434.862 323.717 433.881 323.717ZM456.391 323.708C453.362 323.709 450.738 323.049 448.52 321.727C446.302 320.405 444.575 318.55 443.339 316.161C442.145 313.73 441.549 310.871 441.551 307.586C441.552 304.3 442.151 301.463 443.346 299.073C444.585 296.641 446.314 294.762 448.533 293.439C450.752 292.115 453.377 291.453 456.406 291.452C459.393 291.45 461.995 292.111 464.213 293.432C466.474 294.754 468.201 296.631 469.395 299.062C470.631 301.451 471.248 304.288 471.247 307.574C471.245 310.859 470.625 313.718 469.387 316.15C468.191 318.54 466.462 320.397 464.2 321.72C461.981 323.044 459.378 323.706 456.391 323.708ZM456.393 319.548C459.295 319.546 461.62 318.521 463.371 316.473C465.121 314.381 465.997 311.416 465.999 307.576C466 303.693 465.127 300.728 463.379 298.681C461.63 296.633 459.305 295.61 456.404 295.612C453.46 295.613 451.113 296.638 449.363 298.687C447.655 300.735 446.8 303.701 446.799 307.584C446.797 311.424 447.649 314.389 449.355 316.479C451.103 318.526 453.449 319.549 456.393 319.548ZM507.943 323.686C504.274 323.688 501.522 322.729 499.689 320.81C497.855 318.848 496.939 316.032 496.94 312.363L496.948 296.043L490.868 296.045L490.87 292.013L496.95 292.011L496.954 282.475L502.138 282.473L502.134 292.009L511.99 292.005L511.988 296.037L502.132 296.041L502.125 311.849C502.124 314.281 502.635 316.137 503.658 317.416C504.682 318.653 506.345 319.271 508.649 319.27C509.332 319.27 510.015 319.184 510.697 319.013C511.38 318.842 511.999 318.671 512.554 318.5L513.448 322.468C512.893 322.767 512.082 323.045 511.015 323.301C509.949 323.558 508.925 323.686 507.943 323.686ZM517.839 323.106L517.859 277.986L523.043 277.984L523.034 297.12C524.059 295.242 525.489 293.834 527.324 292.894C529.202 291.912 531.293 291.421 533.597 291.42C540.978 291.417 544.667 295.511 544.663 303.703L544.655 323.095L539.471 323.097L539.479 304.025C539.481 301.124 538.906 299.012 537.754 297.69C536.645 296.325 534.854 295.643 532.379 295.644C529.52 295.646 527.237 296.542 525.53 298.335C523.865 300.085 523.032 302.432 523.031 305.376L523.023 323.104L517.839 323.106ZM568.229 323.662C563.323 323.664 559.441 322.236 556.583 319.378C553.726 316.478 552.298 312.553 552.301 307.604C552.302 304.404 552.943 301.588 554.224 299.155C555.506 296.68 557.256 294.781 559.475 293.457C561.737 292.091 564.34 291.407 567.284 291.406C571.508 291.404 574.814 292.768 577.202 295.498C579.59 298.185 580.783 301.896 580.781 306.632L580.78 308.616L557.356 308.626C557.525 312.167 558.548 314.876 560.424 316.753C562.301 318.587 564.903 319.503 568.231 319.502C570.109 319.501 571.901 319.223 573.608 318.667C575.315 318.069 576.936 317.109 578.473 315.785L580.263 319.433C578.855 320.756 577.062 321.802 574.886 322.571C572.709 323.297 570.491 323.661 568.229 323.662ZM567.41 295.246C564.466 295.247 562.14 296.165 560.433 298.001C558.725 299.836 557.722 302.247 557.422 305.234L576.302 305.226C576.175 302.069 575.344 299.616 573.809 297.867C572.316 296.119 570.184 295.245 567.41 295.246ZM604.842 323.07L604.856 291.966L609.912 291.964L609.909 297.212C610.849 295.335 612.151 293.905 613.815 292.923C615.48 291.898 617.421 291.385 619.64 291.384C624.504 291.382 627.618 293.493 628.981 297.717C629.921 295.753 631.308 294.217 633.143 293.107C634.978 291.954 637.091 291.377 639.48 291.376C646.392 291.373 649.846 295.468 649.842 303.66L649.834 323.052L644.65 323.054L644.658 303.918C644.66 301.059 644.149 298.969 643.125 297.647C642.144 296.282 640.502 295.6 638.198 295.601C635.681 295.602 633.675 296.499 632.181 298.291C630.687 300.084 629.939 302.473 629.938 305.46L629.93 323.06L624.746 323.062L624.754 303.926C624.756 301.068 624.245 298.977 623.221 297.655C622.24 296.29 620.598 295.608 618.294 295.609C615.734 295.61 613.707 296.507 612.213 298.299C610.761 300.092 610.035 302.482 610.034 305.468L610.026 323.068L604.842 323.07ZM669.318 323.62C667.184 323.621 665.265 323.216 663.558 322.406C661.895 321.554 660.573 320.402 659.592 318.952C658.611 317.502 658.121 315.88 658.122 314.088C658.123 311.827 658.7 310.035 659.853 308.712C661.048 307.389 662.99 306.449 665.678 305.893C668.409 305.295 672.121 304.995 676.814 304.993L678.862 304.992L678.863 303.008C678.864 300.363 678.311 298.464 677.202 297.313C676.136 296.118 674.408 295.522 672.019 295.523C670.141 295.524 668.328 295.802 666.578 296.357C664.829 296.87 663.036 297.724 661.201 298.919L659.411 295.144C661.033 293.991 662.996 293.073 665.3 292.39C667.647 291.706 669.887 291.364 672.02 291.363C676.031 291.361 678.996 292.341 680.915 294.303C682.877 296.265 683.857 299.315 683.855 303.454L683.846 323.038L678.982 323.04L678.985 317.664C678.173 319.499 676.914 320.95 675.207 322.017C673.542 323.085 671.579 323.619 669.318 323.62ZM670.152 319.716C672.712 319.714 674.803 318.839 676.425 317.089C678.047 315.296 678.859 313.035 678.86 310.304L678.861 308.384L676.877 308.385C673.421 308.386 670.69 308.558 668.684 308.9C666.722 309.2 665.335 309.755 664.524 310.566C663.755 311.334 663.371 312.401 663.37 313.766C663.369 315.516 663.966 316.945 665.16 318.054C666.397 319.162 668.061 319.716 670.152 319.716ZM692.841 284.186L692.844 278.362L699.244 278.36L699.241 284.184L692.841 284.186ZM693.464 323.034L693.478 291.93L698.662 291.928L698.648 323.032L693.464 323.034ZM708.339 323.028L708.353 291.924L713.409 291.922L713.406 297.234C714.431 295.271 715.882 293.798 717.76 292.816C719.638 291.834 721.75 291.342 724.097 291.341C731.478 291.338 735.167 295.433 735.163 303.625L735.155 323.017L729.971 323.019L729.979 303.947C729.981 301.046 729.405 298.934 728.254 297.612C727.145 296.247 725.354 295.565 722.879 295.566C720.02 295.567 717.737 296.464 716.03 298.257C714.365 300.007 713.532 302.354 713.531 305.298L713.523 323.026L708.339 323.028ZM356.365 410.173L356.379 379.069L361.435 379.067L361.432 384.315C362.372 382.437 363.674 381.007 365.338 380.025C367.003 379 368.944 378.488 371.163 378.487C376.027 378.485 379.141 380.595 380.504 384.819C381.444 382.856 382.831 381.319 384.666 380.209C386.501 379.056 388.614 378.48 391.003 378.479C397.915 378.476 401.369 382.57 401.365 390.762L401.357 410.154L396.173 410.156L396.181 391.02C396.183 388.162 395.672 386.071 394.648 384.749C393.667 383.384 392.025 382.702 389.721 382.703C387.204 382.704 385.198 383.601 383.704 385.394C382.21 387.186 381.462 389.576 381.461 392.563L381.453 410.163L376.269 410.165L376.277 391.029C376.279 388.17 375.768 386.08 374.744 384.757C373.763 383.392 372.121 382.71 369.817 382.711C367.257 382.712 365.23 383.609 363.736 385.402C362.284 387.194 361.558 389.584 361.557 392.571L361.549 410.171L356.365 410.173ZM425.065 410.721C420.158 410.723 416.276 409.295 413.419 406.437C410.561 403.537 409.134 399.612 409.136 394.663C409.138 391.463 409.779 388.647 411.06 386.214C412.341 383.739 414.091 381.84 416.311 380.516C418.573 379.15 421.176 378.466 424.12 378.465C428.344 378.463 431.65 379.827 434.038 382.557C436.426 385.244 437.619 388.955 437.617 393.691L437.616 395.675L414.192 395.685C414.361 399.226 415.384 401.935 417.26 403.812C419.137 405.646 421.739 406.562 425.067 406.561C426.944 406.56 428.736 406.282 430.443 405.726C432.15 405.128 433.772 404.168 435.308 402.844L437.099 406.492C435.69 407.815 433.898 408.861 431.721 409.63C429.545 410.356 427.326 410.72 425.065 410.721ZM424.246 382.305C421.302 382.306 418.976 383.224 417.269 385.06C415.561 386.895 414.557 389.306 414.257 392.293L433.137 392.285C433.011 389.128 432.18 386.675 430.645 384.926C429.152 383.178 427.019 382.304 424.246 382.305ZM445.112 410.136L445.126 379.032L450.182 379.03L450.179 384.342C451.204 382.379 452.656 380.906 454.533 379.924C456.411 378.942 458.523 378.451 460.87 378.45C468.251 378.447 471.94 382.541 471.936 390.733L471.928 410.125L466.744 410.127L466.752 391.055C466.754 388.154 466.179 386.042 465.027 384.72C463.918 383.355 462.127 382.673 459.652 382.674C456.793 382.675 454.51 383.572 452.803 385.365C451.138 387.115 450.305 389.462 450.304 392.406L450.296 410.134L445.112 410.136ZM492.494 410.693C485.028 410.696 481.296 406.58 481.3 398.345L481.309 379.017L486.493 379.015L486.484 398.279C486.483 401.053 487.036 403.1 488.145 404.423C489.297 405.745 491.088 406.405 493.52 406.404C496.166 406.403 498.321 405.528 499.986 403.778C501.65 401.985 502.483 399.617 502.485 396.673L502.493 379.009L507.677 379.006L507.663 410.11L502.607 410.113L502.609 404.865C501.627 406.742 500.24 408.194 498.447 409.218C496.697 410.2 494.713 410.692 492.494 410.693ZM523.526 398.328L523.527 396.472C523.528 394.296 523.934 392.269 524.746 390.391C525.557 388.471 526.987 386.316 529.037 383.926C530.659 382.048 531.79 380.447 532.431 379.124C533.071 377.801 533.392 376.393 533.393 374.9C533.393 373.108 532.754 371.7 531.475 370.677C530.195 369.611 528.425 369.078 526.163 369.079C523.817 369.08 521.64 369.507 519.635 370.362C517.629 371.216 515.73 372.497 513.937 374.204L512.019 370.109C513.684 368.401 515.796 367.035 518.357 366.01C520.917 364.942 523.605 364.408 526.421 364.407C530.091 364.405 533.056 365.343 535.316 367.219C537.577 369.053 538.706 371.484 538.705 374.514C538.704 376.519 538.255 378.397 537.358 380.146C536.504 381.896 534.989 383.923 532.811 386.228C530.805 388.362 529.375 390.24 528.521 391.862C527.71 393.441 527.197 395.062 526.983 396.727L526.854 398.327L523.526 398.328ZM521.921 410.105L521.924 403.577L528.452 403.574L528.449 410.102L521.921 410.105Z" fill="white"/>
</g>
<g filter="url(#filter1_d_1305_76)">
<path d="M131.571 64.5708L99.5708 118.264L35.5708 118.264L3.57077 64.5708L35.5708 10.8772L99.5708 10.8772L131.571 64.5708Z" fill="#401127"/>
<path d="M98.1504 13.3772L128.66 64.5708L98.1504 115.764L36.9911 115.764L6.48108 64.5708L36.9911 13.3772L98.1504 13.3772Z" stroke="#8F1B42" stroke-width="5" stroke-miterlimit="1.36733" stroke-linecap="round"/>
</g>
<g filter="url(#filter2_d_1305_76)">
<path d="M57.4062 40.0818C57.4062 37.8281 59.2348 35.9995 61.4885 35.9995H90.0599C92.3137 35.9995 94.1422 37.8281 94.1422 40.0818V89.0601C94.1422 91.3138 92.3137 93.1424 90.0599 93.1424H75.7742" stroke="#FFFEE8" stroke-width="3.5" stroke-linecap="round" stroke-linejoin="round"/>
<path d="M45.164 60.4891H53.4749C54.6872 60.4893 55.8498 60.9711 56.7069 61.8285L68.3137 73.4399C69.1716 74.2956 70.3341 74.7757 71.5457 74.7748H77.8132M63.5275 57.4308C63.5275 59.3258 64.2803 61.1432 65.6202 62.4832C66.9602 63.8231 68.7776 64.5759 70.6726 64.5759C72.5676 64.5759 74.385 63.8231 75.725 62.4832C77.065 61.1432 77.8177 59.3258 77.8177 57.4308C77.8177 55.5358 77.065 53.7184 75.725 52.3784C74.385 51.0384 72.5676 50.2856 70.6726 50.2856C68.7776 50.2856 66.9602 51.0384 65.6202 52.3784C64.2803 53.7184 63.5275 55.5358 63.5275 57.4308Z" stroke="#FFFEE8" stroke-width="3.5" stroke-linecap="round" stroke-linejoin="round"/>
<path d="M61.4886 66.6099L50.5812 77.5173C49.7241 78.3747 48.5615 78.8565 47.3492 78.8567H36.9995" stroke="#FFFEE8" stroke-width="3.5" stroke-linecap="round" stroke-linejoin="round"/>
<path d="M53.3242 74.7739L60.1493 81.5991C61.0067 82.4562 61.4885 83.6187 61.4888 84.8311V93.1419" stroke="#FFFEE8" stroke-width="3.5" stroke-linecap="round" stroke-linejoin="round"/>
</g>
<g filter="url(#filter3_d_1305_76)">
<path d="M507.15 553.584L476.15 609.01L414.15 609.01L383.15 553.584L414.15 498.159L476.15 498.159L507.15 553.584Z" fill="#401127"/>
<path d="M474.684 500.659L504.286 553.584L474.684 606.51L415.616 606.51L386.015 553.584L415.616 500.659L474.684 500.659Z" stroke="#8F1B42" stroke-width="5" stroke-miterlimit="1.36733" stroke-linecap="round"/>
</g>
<g filter="url(#filter4_d_1305_76)">
<path d="M429.674 547V540.75C429.674 533.458 433.32 529.812 440.612 529.812H450.299C457.591 529.812 461.237 533.458 461.237 540.75V544.188C461.237 549.333 457.705 554.115 450.643 558.531C448.83 559.656 447.893 561.083 447.83 562.812L441.799 565.719H441.487C441.507 560.427 443.33 556.667 446.955 554.438C452.309 551.146 454.987 547.719 454.987 544.156V540.75C454.987 537.208 453.424 535.438 450.299 535.438H440.612C437.487 535.438 435.924 537.208 435.924 540.75V544.188L429.987 547H429.674ZM442.487 576.5C441.757 575.75 441.393 574.854 441.393 573.812C441.393 572.75 441.757 571.844 442.487 571.094C443.216 570.344 444.101 569.969 445.143 569.969C446.184 569.969 447.07 570.344 447.799 571.094C448.528 571.844 448.893 572.75 448.893 573.812C448.893 574.854 448.528 575.75 447.799 576.5C447.07 577.25 446.184 577.625 445.143 577.625C444.101 577.625 443.216 577.25 442.487 576.5Z" fill="#FFFEE8"/>
</g>
<defs>
<filter id="filter0_d_1305_76" x="109.057" y="175.883" width="675.294" height="249.962" filterUnits="userSpaceOnUse" color-interpolation-filters="sRGB">
<feFlood flood-opacity="0" result="BackgroundImageFix"/>
<feColorMatrix in="SourceAlpha" type="matrix" values="0 0 0 0 0 0 0 0 0 0 0 0 0 0 0 0 0 0 127 0" result="hardAlpha"/>
<feOffset/>
<feGaussianBlur stdDeviation="7.5"/>
<feComposite in2="hardAlpha" operator="out"/>
<feColorMatrix type="matrix" values="0 0 0 0 1 0 0 0 0 0.996078 0 0 0 0 0.909804 0 0 0 0.5 0"/>
<feBlend mode="normal" in2="BackgroundImageFix" result="effect1_dropShadow_1305_76"/>
<feBlend mode="normal" in="SourceGraphic" in2="effect1_dropShadow_1305_76" result="shape"/>
</filter>
<filter id="filter1_d_1305_76" x="0.57077" y="10.8772" width="134" height="113.387" filterUnits="userSpaceOnUse" color-interpolation-filters="sRGB">
<feFlood flood-opacity="0" result="BackgroundImageFix"/>
<feColorMatrix in="SourceAlpha" type="matrix" values="0 0 0 0 0 0 0 0 0 0 0 0 0 0 0 0 0 0 127 0" result="hardAlpha"/>
<feOffset dy="3"/>
<feGaussianBlur stdDeviation="1.5"/>
<feComposite in2="hardAlpha" operator="out"/>
<feColorMatrix type="matrix" values="0 0 0 0 0 0 0 0 0 0 0 0 0 0 0 0 0 0 0.25 0"/>
<feBlend mode="normal" in2="BackgroundImageFix" result="effect1_dropShadow_1305_76"/>
<feBlend mode="normal" in="SourceGraphic" in2="effect1_dropShadow_1305_76" result="shape"/>
</filter>
<filter id="filter2_d_1305_76" x="18.5708" y="17.5708" width="94" height="94" filterUnits="userSpaceOnUse" color-interpolation-filters="sRGB">
<feFlood flood-opacity="0" result="BackgroundImageFix"/>
<feColorMatrix in="SourceAlpha" type="matrix" values="0 0 0 0 0 0 0 0 0 0 0 0 0 0 0 0 0 0 127 0" result="hardAlpha"/>
<feOffset/>
<feGaussianBlur stdDeviation="7.5"/>
<feColorMatrix type="matrix" values="0 0 0 0 1 0 0 0 0 0.996078 0 0 0 0 0.909804 0 0 0 0.5 0"/>
<feBlend mode="normal" in2="BackgroundImageFix" result="effect1_dropShadow_1305_76"/>
<feBlend mode="normal" in="SourceGraphic" in2="effect1_dropShadow_1305_76" result="shape"/>
</filter>
<filter id="filter3_d_1305_76" x="380.15" y="498.159" width="130" height="116.851" filterUnits="userSpaceOnUse" color-interpolation-filters="sRGB">
<feFlood flood-opacity="0" result="BackgroundImageFix"/>
<feColorMatrix in="SourceAlpha" type="matrix" values="0 0 0 0 0 0 0 0 0 0 0 0 0 0 0 0 0 0 127 0" result="hardAlpha"/>
<feOffset dy="3"/>
<feGaussianBlur stdDeviation="1.5"/>
<feComposite in2="hardAlpha" operator="out"/>
<feColorMatrix type="matrix" values="0 0 0 0 0 0 0 0 0 0 0 0 0 0 0 0 0 0 0.25 0"/>
<feBlend mode="normal" in2="BackgroundImageFix" result="effect1_dropShadow_1305_76"/>
<feBlend mode="normal" in="SourceGraphic" in2="effect1_dropShadow_1305_76" result="shape"/>
</filter>
<filter id="filter4_d_1305_76" x="414.674" y="514.812" width="61.5625" height="77.8125" filterUnits="userSpaceOnUse" color-interpolation-filters="sRGB">
<feFlood flood-opacity="0" result="BackgroundImageFix"/>
<feColorMatrix in="SourceAlpha" type="matrix" values="0 0 0 0 0 0 0 0 0 0 0 0 0 0 0 0 0 0 127 0" result="hardAlpha"/>
<feOffset/>
<feGaussianBlur stdDeviation="7.5"/>
<feComposite in2="hardAlpha" operator="out"/>
<feColorMatrix type="matrix" values="0 0 0 0 1 0 0 0 0 0.996078 0 0 0 0 0.909804 0 0 0 0.5 0"/>
<feBlend mode="normal" in2="BackgroundImageFix" result="effect1_dropShadow_1305_76"/>
<feBlend mode="normal" in="SourceGraphic" in2="effect1_dropShadow_1305_76" result="shape"/>
</filter>
</defs>
</svg>
