<svg width="292" height="111" viewBox="0 0 292 111" fill="none" xmlns="http://www.w3.org/2000/svg">
<path d="M26.258 57.1785L26.8811 56.0128L26.2686 54.8416L4.12839 12.5H271.069L289.285 55.9893L271.083 98.5H4.17101L26.258 57.1785Z" fill="#401127" stroke="#FEC631" stroke-width="5"/>
<g filter="url(#filter0_d_1305_119)">
<path d="M104.847 67V44.44H113.775C116.207 44.44 118.063 45.0053 119.343 46.136C120.644 47.2667 121.295 48.8773 121.295 50.968C121.295 52.632 120.836 53.9973 119.919 55.064C119.023 56.1307 117.743 56.824 116.079 57.144C117.06 57.4853 117.903 58.3173 118.607 59.64L122.575 67H119.694L115.791 59.768C115.3 58.872 114.735 58.264 114.095 57.944C113.455 57.624 112.612 57.464 111.567 57.464H107.471V67H104.847ZM107.471 55.384H113.391C116.932 55.384 118.703 53.912 118.703 50.968C118.703 48.0667 116.932 46.616 113.391 46.616H107.471V55.384ZM132.565 67.288C130.112 67.288 128.17 66.5733 126.741 65.144C125.312 63.6933 124.597 61.7307 124.597 59.256C124.597 57.656 124.917 56.248 125.557 55.032C126.197 53.7947 127.072 52.8453 128.181 52.184C129.312 51.5013 130.613 51.16 132.085 51.16C134.197 51.16 135.85 51.8427 137.045 53.208C138.24 54.552 138.837 56.408 138.837 58.776V59.768H127.125C127.21 61.5387 127.722 62.8933 128.661 63.832C129.6 64.7493 130.901 65.208 132.565 65.208C133.504 65.208 134.4 65.0693 135.253 64.792C136.106 64.4933 136.917 64.0133 137.685 63.352L138.581 65.176C137.877 65.8373 136.981 66.36 135.893 66.744C134.805 67.1067 133.696 67.288 132.565 67.288ZM132.149 53.08C130.677 53.08 129.514 53.5387 128.661 54.456C127.808 55.3733 127.306 56.5787 127.157 58.072H136.597C136.533 56.4933 136.117 55.2667 135.349 54.392C134.602 53.5173 133.536 53.08 132.149 53.08ZM148.828 67.288C146.994 67.288 145.618 66.808 144.7 65.848C143.783 64.8667 143.324 63.4587 143.324 61.624V53.464H140.284V51.448H143.324V46.68H145.916V51.448H150.844V53.464H145.916V61.368C145.916 62.584 146.172 63.512 146.684 64.152C147.196 64.7707 148.028 65.08 149.18 65.08C149.522 65.08 149.863 65.0373 150.204 64.952C150.546 64.8667 150.855 64.7813 151.132 64.696L151.58 66.68C151.303 66.8293 150.898 66.968 150.364 67.096C149.831 67.224 149.319 67.288 148.828 67.288ZM159.28 67.288C155.546 67.288 153.68 65.2293 153.68 61.112V51.448H156.272V61.08C156.272 62.4667 156.549 63.4907 157.104 64.152C157.68 64.8133 158.576 65.144 159.792 65.144C161.114 65.144 162.192 64.7067 163.024 63.832C163.856 62.936 164.272 61.752 164.272 60.28V51.448H166.864V67H164.336V64.376C163.845 65.3147 163.152 66.04 162.256 66.552C161.381 67.0427 160.389 67.288 159.28 67.288ZM171.713 67V51.448H174.241V54.232C175.073 52.3547 176.78 51.32 179.361 51.128L180.289 51.032L180.481 53.272L178.849 53.464C177.377 53.592 176.257 54.0613 175.489 54.872C174.721 55.6613 174.337 56.7493 174.337 58.136V67H171.713ZM183.182 67V51.448H185.71V54.104C186.222 53.1227 186.947 52.3867 187.886 51.896C188.825 51.4053 189.881 51.16 191.054 51.16C194.745 51.16 196.59 53.208 196.59 57.304V67H193.998V57.464C193.998 56.0133 193.71 54.9573 193.134 54.296C192.579 53.6133 191.683 53.272 190.446 53.272C189.017 53.272 187.875 53.72 187.022 54.616C186.19 55.4907 185.774 56.664 185.774 58.136V67H183.182Z" fill="#FEC631"/>
</g>
<defs>
<filter id="filter0_d_1305_119" x="89.8466" y="29.4399" width="121.743" height="52.8481" filterUnits="userSpaceOnUse" color-interpolation-filters="sRGB">
<feFlood flood-opacity="0" result="BackgroundImageFix"/>
<feColorMatrix in="SourceAlpha" type="matrix" values="0 0 0 0 0 0 0 0 0 0 0 0 0 0 0 0 0 0 127 0" result="hardAlpha"/>
<feOffset/>
<feGaussianBlur stdDeviation="7.5"/>
<feComposite in2="hardAlpha" operator="out"/>
<feColorMatrix type="matrix" values="0 0 0 0 1 0 0 0 0 0.996078 0 0 0 0 0.909804 0 0 0 0.5 0"/>
<feBlend mode="normal" in2="BackgroundImageFix" result="effect1_dropShadow_1305_119"/>
<feBlend mode="normal" in="SourceGraphic" in2="effect1_dropShadow_1305_119" result="shape"/>
</filter>
</defs>
</svg>
