<svg width="46" height="54" viewBox="0 0 46 54" fill="none" xmlns="http://www.w3.org/2000/svg">
<g filter="url(#filter0_d_704_1422)">
<path d="M19 15C19.3536 15 19.6928 15.1405 19.9428 15.3905C20.1929 15.6406 20.3333 15.9797 20.3333 16.3333V37.6667C20.3333 38.0203 20.1929 38.3594 19.9428 38.6095C19.6928 38.8595 19.3536 39 19 39H16.3333C15.9797 39 15.6406 38.8595 15.3905 38.6095C15.1405 38.3594 15 38.0203 15 37.6667V16.3333C15 15.9797 15.1405 15.6406 15.3905 15.3905C15.6406 15.1405 15.9797 15 16.3333 15H19ZM29.6667 15C30.0203 15 30.3594 15.1405 30.6095 15.3905C30.8595 15.6406 31 15.9797 31 16.3333V37.6667C31 38.0203 30.8595 38.3594 30.6095 38.6095C30.3594 38.8595 30.0203 39 29.6667 39H27C26.6464 39 26.3072 38.8595 26.0572 38.6095C25.8071 38.3594 25.6667 38.0203 25.6667 37.6667V16.3333C25.6667 15.9797 25.8071 15.6406 26.0572 15.3905C26.3072 15.1405 26.6464 15 27 15H29.6667Z" fill="#FFFEE8"/>
</g>
<defs>
<filter id="filter0_d_704_1422" x="0" y="0" width="46" height="54" filterUnits="userSpaceOnUse" color-interpolation-filters="sRGB">
<feFlood flood-opacity="0" result="BackgroundImageFix"/>
<feColorMatrix in="SourceAlpha" type="matrix" values="0 0 0 0 0 0 0 0 0 0 0 0 0 0 0 0 0 0 127 0" result="hardAlpha"/>
<feOffset/>
<feGaussianBlur stdDeviation="7.5"/>
<feComposite in2="hardAlpha" operator="out"/>
<feColorMatrix type="matrix" values="0 0 0 0 1 0 0 0 0 0.996078 0 0 0 0 0.909804 0 0 0 0.4 0"/>
<feBlend mode="normal" in2="BackgroundImageFix" result="effect1_dropShadow_704_1422"/>
<feBlend mode="normal" in="SourceGraphic" in2="effect1_dropShadow_704_1422" result="shape"/>
</filter>
</defs>
</svg>
