<svg width="470" height="91" viewBox="0 0 470 91" fill="none" xmlns="http://www.w3.org/2000/svg">
<path d="M27.1854 47.2141L27.8526 46.0132L27.1966 44.8062L4.20406 2.5H436.694L466.944 45.9842L436.71 88.5H4.24879L27.1854 47.2141Z" fill="#F21E2C" fill-opacity="0.2" stroke="#FEC631" stroke-width="5"/>
<g filter="url(#filter0_d_555_76)">
<path d="M222.949 63.432L220.261 59.112C219.536 57.896 218.352 57.288 216.709 57.288C214.618 57.288 212.794 56.8187 211.237 55.88C209.701 54.92 208.506 53.576 207.653 51.848C206.821 50.12 206.405 48.072 206.405 45.704C206.405 43.336 206.821 41.288 207.653 39.56C208.485 37.832 209.669 36.4987 211.205 35.56C212.762 34.6213 214.597 34.152 216.709 34.152C218.842 34.152 220.677 34.6213 222.213 35.56C223.77 36.4987 224.965 37.832 225.797 39.56C226.65 41.2667 227.077 43.304 227.077 45.672C227.077 48.424 226.512 50.7493 225.381 52.648C224.25 54.5253 222.682 55.848 220.677 56.616C221.53 56.8933 222.309 57.6293 223.013 58.824L225.157 62.28L222.949 63.432ZM216.709 54.952C219.12 54.952 220.986 54.1413 222.309 52.52C223.632 50.8987 224.293 48.6267 224.293 45.704C224.293 42.7813 223.632 40.52 222.309 38.92C220.986 37.2987 219.12 36.488 216.709 36.488C214.341 36.488 212.496 37.2987 211.173 38.92C209.85 40.52 209.189 42.7813 209.189 45.704C209.189 48.6053 209.85 50.8773 211.173 52.52C212.496 54.1413 214.341 54.952 216.709 54.952ZM236.92 57.288C233.187 57.288 231.32 55.2293 231.32 51.112V41.448H233.912V51.08C233.912 52.4667 234.19 53.4907 234.744 54.152C235.32 54.8133 236.216 55.144 237.432 55.144C238.755 55.144 239.832 54.7067 240.664 53.832C241.496 52.936 241.912 51.752 241.912 50.28V41.448H244.504V57H241.976V54.376C241.486 55.3147 240.792 56.04 239.896 56.552C239.022 57.0427 238.03 57.288 236.92 57.288ZM249.034 37.576V34.664H252.234V37.576H249.034ZM249.354 57V41.448H251.946V57H249.354ZM263.031 57.288C261.197 57.288 259.821 56.808 258.903 55.848C257.986 54.8667 257.527 53.4587 257.527 51.624V43.464H254.487V41.448H257.527V36.68H260.119V41.448H265.047V43.464H260.119V51.368C260.119 52.584 260.375 53.512 260.887 54.152C261.399 54.7707 262.231 55.08 263.383 55.08C263.725 55.08 264.066 55.0373 264.407 54.952C264.749 54.8667 265.058 54.7813 265.335 54.696L265.783 56.68C265.506 56.8293 265.101 56.968 264.567 57.096C264.034 57.224 263.522 57.288 263.031 57.288Z" fill="#FEC631"/>
</g>
<defs>
<filter id="filter0_d_555_76" x="191.405" y="19.152" width="89.3782" height="59.28" filterUnits="userSpaceOnUse" color-interpolation-filters="sRGB">
<feFlood flood-opacity="0" result="BackgroundImageFix"/>
<feColorMatrix in="SourceAlpha" type="matrix" values="0 0 0 0 0 0 0 0 0 0 0 0 0 0 0 0 0 0 127 0" result="hardAlpha"/>
<feOffset/>
<feGaussianBlur stdDeviation="7.5"/>
<feColorMatrix type="matrix" values="0 0 0 0 0.996078 0 0 0 0 0.776471 0 0 0 0 0.192157 0 0 0 0.5 0"/>
<feBlend mode="normal" in2="BackgroundImageFix" result="effect1_dropShadow_555_76"/>
<feBlend mode="normal" in="SourceGraphic" in2="effect1_dropShadow_555_76" result="shape"/>
</filter>
</defs>
</svg>
