<svg width="470" height="91" viewBox="0 0 470 91" fill="none" xmlns="http://www.w3.org/2000/svg">
<path d="M27.1854 47.2141L27.8526 46.0132L27.1966 44.8062L4.20406 2.5H436.694L466.944 45.9842L436.71 88.5H4.24879L27.1854 47.2141Z" fill="#F21E2C" fill-opacity="0.2" stroke="#FEC631" stroke-width="5"/>
<g filter="url(#filter0_d_555_73)">
<path d="M163.08 57.288C161.309 57.288 159.709 57.064 158.28 56.616C156.851 56.1467 155.613 55.4747 154.568 54.6L155.496 52.488C156.584 53.32 157.725 53.9387 158.92 54.344C160.115 54.7493 161.501 54.952 163.08 54.952C165 54.952 166.419 54.6 167.336 53.896C168.275 53.1707 168.744 52.2213 168.744 51.048C168.744 50.1093 168.403 49.3627 167.72 48.808C167.059 48.2533 165.939 47.816 164.36 47.496L161.032 46.824C159.027 46.3973 157.523 45.704 156.52 44.744C155.539 43.7627 155.048 42.4613 155.048 40.84C155.048 39.496 155.389 38.3227 156.072 37.32C156.776 36.3173 157.747 35.5387 158.984 34.984C160.221 34.4293 161.651 34.152 163.272 34.152C164.787 34.152 166.195 34.3973 167.496 34.888C168.797 35.3573 169.896 36.04 170.792 36.936L169.864 38.984C168.904 38.1093 167.891 37.48 166.824 37.096C165.757 36.6907 164.563 36.488 163.24 36.488C161.555 36.488 160.211 36.8827 159.208 37.672C158.205 38.44 157.704 39.464 157.704 40.744C157.704 41.768 158.013 42.5787 158.632 43.176C159.272 43.7733 160.307 44.2107 161.736 44.488L165.064 45.192C167.219 45.64 168.808 46.3227 169.832 47.24C170.877 48.136 171.4 49.3627 171.4 50.92C171.4 52.1787 171.059 53.288 170.376 54.248C169.715 55.208 168.755 55.9547 167.496 56.488C166.259 57.0213 164.787 57.288 163.08 57.288ZM181.297 57.288C179.462 57.288 178.086 56.808 177.169 55.848C176.252 54.8667 175.793 53.4587 175.793 51.624V43.464H172.753V41.448H175.793V36.68H178.385V41.448H183.313V43.464H178.385V51.368C178.385 52.584 178.641 53.512 179.153 54.152C179.665 54.7707 180.497 55.08 181.649 55.08C181.99 55.08 182.332 55.0373 182.673 54.952C183.014 54.8667 183.324 54.7813 183.601 54.696L184.049 56.68C183.772 56.8293 183.366 56.968 182.833 57.096C182.3 57.224 181.788 57.288 181.297 57.288ZM191.141 57.288C190.074 57.288 189.114 57.0853 188.261 56.68C187.429 56.2533 186.767 55.6773 186.277 54.952C185.786 54.2267 185.541 53.416 185.541 52.52C185.541 51.3893 185.829 50.4933 186.405 49.832C187.002 49.1707 187.973 48.7013 189.317 48.424C190.682 48.1253 192.538 47.976 194.885 47.976H195.909V46.984C195.909 45.6613 195.631 44.712 195.077 44.136C194.543 43.5387 193.679 43.24 192.485 43.24C191.546 43.24 190.639 43.3787 189.765 43.656C188.89 43.912 187.994 44.3387 187.077 44.936L186.181 43.048C186.991 42.472 187.973 42.0133 189.125 41.672C190.298 41.3307 191.418 41.16 192.485 41.16C194.49 41.16 195.973 41.6507 196.933 42.632C197.914 43.6133 198.405 45.1387 198.405 47.208V57H195.973V54.312C195.567 55.2293 194.938 55.9547 194.085 56.488C193.253 57.0213 192.271 57.288 191.141 57.288ZM191.557 55.336C192.837 55.336 193.882 54.8987 194.693 54.024C195.503 53.128 195.909 51.9973 195.909 50.632V49.672H194.917C193.189 49.672 191.823 49.7573 190.821 49.928C189.839 50.0773 189.146 50.3547 188.741 50.76C188.357 51.144 188.165 51.6773 188.165 52.36C188.165 53.2347 188.463 53.9493 189.061 54.504C189.679 55.0587 190.511 55.336 191.557 55.336ZM203.213 57V41.448H205.741V44.232C206.573 42.3547 208.28 41.32 210.861 41.128L211.789 41.032L211.981 43.272L210.349 43.464C208.877 43.592 207.757 44.0613 206.989 44.872C206.221 45.6613 205.837 46.7493 205.837 48.136V57H203.213ZM221.766 57.288C219.931 57.288 218.555 56.808 217.638 55.848C216.72 54.8667 216.262 53.4587 216.262 51.624V43.464H213.222V41.448H216.262V36.68H218.854V41.448H223.782V43.464H218.854V51.368C218.854 52.584 219.11 53.512 219.622 54.152C220.134 54.7707 220.966 55.08 222.118 55.08C222.459 55.08 222.8 55.0373 223.142 54.952C223.483 54.8667 223.792 54.7813 224.07 54.696L224.518 56.68C224.24 56.8293 223.835 56.968 223.302 57.096C222.768 57.224 222.256 57.288 221.766 57.288ZM245.588 57.288C241.961 57.288 239.199 56.264 237.3 54.216C235.401 52.168 234.452 49.3413 234.452 45.736C234.452 43.3467 234.879 41.288 235.732 39.56C236.585 37.832 237.812 36.4987 239.412 35.56C241.012 34.6213 242.943 34.152 245.204 34.152C246.804 34.152 248.276 34.3973 249.62 34.888C250.964 35.3573 252.105 36.0507 253.044 36.968L252.02 39.08C250.996 38.184 249.94 37.5333 248.852 37.128C247.764 36.7227 246.537 36.52 245.172 36.52C242.612 36.52 240.649 37.3307 239.284 38.952C237.919 40.552 237.236 42.8133 237.236 45.736C237.236 48.7227 237.94 51.0053 239.348 52.584C240.756 54.1627 242.857 54.952 245.652 54.952C247.465 54.952 249.204 54.6427 250.868 54.024V47.336H245.14V45.256H253.14V55.688C252.543 56.008 251.817 56.2853 250.964 56.52C250.132 56.7547 249.247 56.936 248.308 57.064C247.369 57.2133 246.463 57.288 245.588 57.288ZM263.047 57.288C261.98 57.288 261.02 57.0853 260.167 56.68C259.335 56.2533 258.673 55.6773 258.183 54.952C257.692 54.2267 257.447 53.416 257.447 52.52C257.447 51.3893 257.735 50.4933 258.311 49.832C258.908 49.1707 259.879 48.7013 261.223 48.424C262.588 48.1253 264.444 47.976 266.791 47.976H267.815V46.984C267.815 45.6613 267.537 44.712 266.983 44.136C266.449 43.5387 265.585 43.24 264.391 43.24C263.452 43.24 262.545 43.3787 261.671 43.656C260.796 43.912 259.9 44.3387 258.983 44.936L258.087 43.048C258.897 42.472 259.879 42.0133 261.031 41.672C262.204 41.3307 263.324 41.16 264.391 41.16C266.396 41.16 267.879 41.6507 268.839 42.632C269.82 43.6133 270.311 45.1387 270.311 47.208V57H267.879V54.312C267.473 55.2293 266.844 55.9547 265.991 56.488C265.159 57.0213 264.177 57.288 263.047 57.288ZM263.463 55.336C264.743 55.336 265.788 54.8987 266.599 54.024C267.409 53.128 267.815 51.9973 267.815 50.632V49.672H266.823C265.095 49.672 263.729 49.7573 262.727 49.928C261.745 50.0773 261.052 50.3547 260.647 50.76C260.263 51.144 260.071 51.6773 260.071 52.36C260.071 53.2347 260.369 53.9493 260.967 54.504C261.585 55.0587 262.417 55.336 263.463 55.336ZM275.184 57V41.448H277.712V44.072C278.181 43.1333 278.832 42.4187 279.664 41.928C280.496 41.416 281.466 41.16 282.576 41.16C285.008 41.16 286.565 42.216 287.248 44.328C287.717 43.3467 288.41 42.5787 289.328 42.024C290.245 41.448 291.301 41.16 292.496 41.16C295.952 41.16 297.68 43.208 297.68 47.304V57H295.088V47.432C295.088 46.0027 294.832 44.9573 294.32 44.296C293.829 43.6133 293.008 43.272 291.856 43.272C290.597 43.272 289.594 43.72 288.847 44.616C288.101 45.512 287.728 46.7067 287.728 48.2V57H285.136V47.432C285.136 46.0027 284.88 44.9573 284.368 44.296C283.877 43.6133 283.056 43.272 281.904 43.272C280.624 43.272 279.61 43.72 278.864 44.616C278.138 45.512 277.776 46.7067 277.776 48.2V57H275.184ZM309.534 57.288C307.08 57.288 305.139 56.5733 303.71 55.144C302.28 53.6933 301.566 51.7307 301.566 49.256C301.566 47.656 301.886 46.248 302.526 45.032C303.166 43.7947 304.04 42.8453 305.15 42.184C306.28 41.5013 307.582 41.16 309.054 41.16C311.166 41.16 312.819 41.8427 314.014 43.208C315.208 44.552 315.806 46.408 315.806 48.776V49.768H304.094C304.179 51.5387 304.691 52.8933 305.63 53.832C306.568 54.7493 307.87 55.208 309.534 55.208C310.472 55.208 311.368 55.0693 312.222 54.792C313.075 54.4933 313.886 54.0133 314.654 53.352L315.55 55.176C314.846 55.8373 313.95 56.36 312.862 56.744C311.774 57.1067 310.664 57.288 309.534 57.288ZM309.118 43.08C307.646 43.08 306.483 43.5387 305.63 44.456C304.776 45.3733 304.275 46.5787 304.126 48.072H313.566C313.502 46.4933 313.086 45.2667 312.318 44.392C311.571 43.5173 310.504 43.08 309.118 43.08Z" fill="#FEC631"/>
</g>
<defs>
<filter id="filter0_d_555_73" x="139.568" y="19.152" width="191.238" height="53.136" filterUnits="userSpaceOnUse" color-interpolation-filters="sRGB">
<feFlood flood-opacity="0" result="BackgroundImageFix"/>
<feColorMatrix in="SourceAlpha" type="matrix" values="0 0 0 0 0 0 0 0 0 0 0 0 0 0 0 0 0 0 127 0" result="hardAlpha"/>
<feOffset/>
<feGaussianBlur stdDeviation="7.5"/>
<feColorMatrix type="matrix" values="0 0 0 0 0.996078 0 0 0 0 0.776471 0 0 0 0 0.192157 0 0 0 0.5 0"/>
<feBlend mode="normal" in2="BackgroundImageFix" result="effect1_dropShadow_555_73"/>
<feBlend mode="normal" in="SourceGraphic" in2="effect1_dropShadow_555_73" result="shape"/>
</filter>
</defs>
</svg>
