<svg width="134" height="128" viewBox="0 0 134 128" fill="none" xmlns="http://www.w3.org/2000/svg">
<g filter="url(#filter0_d_530_213)">
<path d="M131 64L99 119.426L35 119.426L3 64L35 8.57437L99 8.57437L131 64Z" fill="#F21E2C" fill-opacity="0.2" shape-rendering="crispEdges"/>
<path d="M97.5566 11.0744L128.113 64L97.5566 116.926L36.4434 116.926L5.88675 64L36.4434 11.0744L97.5566 11.0744Z" stroke="#FEC631" stroke-width="5" stroke-miterlimit="1.36733" stroke-linecap="round" shape-rendering="crispEdges"/>
</g>
<g filter="url(#filter1_d_530_213)">
<path d="M53.068 38.0548C55.5231 36.1954 58.5202 35.1926 61.6 35.2C62.6636 35.1761 63.716 35.4209 64.6599 35.9117C65.6038 36.4026 66.4086 37.1235 67 38.008C67.5913 37.1235 68.3961 36.4026 69.34 35.9117C70.2839 35.4209 71.3363 35.1761 72.4 35.2C75.4797 35.1926 78.4768 36.1954 80.932 38.0548C82.822 39.5236 84.28 41.5576 84.7948 44.0164C85.9756 44.1064 87.0556 44.596 87.9628 45.334C89.338 46.45 90.3388 48.124 90.9688 49.8952C91.9552 52.6492 92.2216 56.1592 91.1992 59.1472C91.4584 59.2696 91.714 59.4136 91.9624 59.5792C92.9524 60.238 93.7048 61.1812 94.2592 62.2936C95.35 64.4716 95.8 67.51 95.8 71.2C95.8 75.3076 94.234 78.0652 92.2468 79.768C91.1479 80.7102 89.851 81.393 88.4524 81.766C88.0924 83.7748 87.0844 86.1004 85.504 88.0732C83.452 90.6472 80.2696 92.8 76 92.8C72.616 92.8 69.9232 90.9279 68.1736 89.0919C67.7553 88.6536 67.3634 88.1908 67 87.7059C66.6366 88.1908 66.2447 88.6536 65.8264 89.0919C64.0768 90.9279 61.3876 92.8 58 92.8C53.7304 92.8 50.5516 90.6472 48.496 88.0732C47.0191 86.2392 46.0075 84.0753 45.5476 81.766C44.1489 81.393 42.8521 80.7102 41.7532 79.768C39.766 78.0652 38.2 75.304 38.2 71.2C38.2 67.51 38.6536 64.468 39.7408 62.2936C40.256 61.2026 41.0479 60.2656 42.0376 59.5756C42.2807 59.4146 42.5358 59.2726 42.8008 59.1508C41.7784 56.1556 42.0448 52.6492 43.0312 49.8952C43.6612 48.124 44.662 46.45 46.0372 45.334C46.9444 44.596 48.0244 44.11 49.2052 44.0164C49.7236 41.5576 51.178 39.5236 53.068 38.0548ZM65.2 44.2V44.164L65.1928 43.984C65.1398 43.0454 64.9531 42.1193 64.6384 41.2336C64.4143 40.5649 64.0328 39.9599 63.526 39.4696C62.9942 39.0065 62.3042 38.7666 61.6 38.8C59.3209 38.7921 57.1016 39.5277 55.2784 40.8952C53.608 42.1948 52.6 43.9552 52.6 46C52.5997 46.285 52.5318 46.5659 52.4018 46.8196C52.2718 47.0733 52.0834 47.2925 51.8521 47.4591C51.6208 47.6257 51.3532 47.735 51.0714 47.778C50.7896 47.821 50.5016 47.7964 50.2312 47.7064C49.5544 47.4832 48.9496 47.6092 48.3052 48.1276C47.5996 48.7036 46.912 49.726 46.4188 51.1048C45.4144 53.92 45.5188 57.3292 46.8976 59.4028C47.0945 59.6981 47.1997 60.045 47.2 60.4H49.9C52.0482 60.4 54.1085 61.2533 55.6275 62.7724C57.1466 64.2914 58 66.3517 58 68.5V69.706C59.2009 70.1306 60.2132 70.9661 60.8577 72.0648C61.5022 73.1636 61.7376 74.4548 61.5222 75.7103C61.3068 76.9658 60.6545 78.1047 59.6805 78.9257C58.7066 79.7468 57.4738 80.1971 56.2 80.1971C54.9261 80.1971 53.6933 79.7468 52.7194 78.9257C51.7454 78.1047 51.0931 76.9658 50.8777 75.7103C50.6623 74.4548 50.8977 73.1636 51.5422 72.0648C52.1868 70.9661 53.199 70.1306 54.4 69.706V68.5C54.4 66.016 52.384 64 49.9 64H43.6C43.3847 63.9996 43.1714 63.9606 42.97 63.8848L42.9592 63.9064C42.2464 65.3284 41.8 67.69 41.8 71.2C41.8 74.2924 42.934 76.0348 44.0968 77.032C45.346 78.1048 46.732 78.4 47.2 78.4C47.6773 78.4 48.1352 78.5896 48.4727 78.9272C48.8103 79.2647 49 79.7226 49 80.2C49 81.5247 49.72 83.8396 51.304 85.8268C52.8484 87.7528 55.0696 89.2 58 89.2C60.016 89.2 61.8232 88.0732 63.22 86.608C63.9076 85.888 64.444 85.1428 64.7932 84.5308C64.9521 84.2593 65.0882 83.9752 65.2 83.6812V55H61.294C60.8693 56.2009 60.0338 57.2132 58.9351 57.8577C57.8363 58.5022 56.5451 58.7376 55.2896 58.5222C54.0341 58.3068 52.8952 57.6545 52.0742 56.6805C51.2531 55.7066 50.8028 54.4738 50.8028 53.2C50.8028 51.9261 51.2531 50.6933 52.0742 49.7194C52.8952 48.7454 54.0341 48.0931 55.2896 47.8777C56.5451 47.6623 57.8363 47.8977 58.9351 48.5422C60.0338 49.1868 60.8693 50.199 61.294 51.4H65.2V44.2ZM68.8 80.1964V83.6776C68.9118 83.9715 69.0478 84.2557 69.2068 84.5272C69.5596 85.1392 70.0924 85.8843 70.7764 86.6044C72.1768 88.0695 73.9876 89.1964 76 89.1964C78.9304 89.1964 81.1516 87.7492 82.696 85.8232C84.28 83.836 85 81.5211 85 80.1964C85 79.719 85.1896 79.2611 85.5272 78.9236C85.8647 78.586 86.3226 78.3964 86.8 78.3964C87.268 78.3964 88.654 78.1012 89.9032 77.0284C91.066 76.0312 92.2 74.2887 92.2 71.1964C92.2 67.6864 91.75 65.3284 91.0408 63.9028C90.8035 63.3719 90.4311 62.9126 89.9608 62.5708C89.5554 62.3116 89.0807 62.1823 88.6 62.2C88.2744 62.1998 87.9549 62.1113 87.6756 61.9439C87.3963 61.7766 87.1677 61.5366 87.014 61.2496C86.8603 60.9625 86.7874 60.6392 86.8029 60.3139C86.8185 59.9887 86.922 59.6738 87.1024 59.4028C88.4848 57.3292 88.5856 53.92 87.5812 51.1048C87.088 49.726 86.4004 48.7 85.6948 48.1276C85.0504 47.6092 84.4456 47.4796 83.7688 47.7064C83.4983 47.7964 83.2103 47.821 82.9285 47.778C82.6467 47.735 82.3792 47.6257 82.1479 47.4591C81.9166 47.2925 81.7281 47.0733 81.5981 46.8196C81.4681 46.5659 81.4002 46.285 81.4 46C81.4 43.9552 80.392 42.1948 78.718 40.8952C76.8957 39.5285 74.6777 38.7929 72.4 38.8C71.6957 38.7666 71.0057 39.0065 70.474 39.4696C69.9656 39.9593 69.5828 40.5644 69.358 41.2336C69.0152 42.1739 68.8268 43.1635 68.8 44.164V76.6H71.5C73.984 76.6 76 74.584 76 72.1V65.494C74.799 65.0693 73.7868 64.2338 73.1422 63.1351C72.4977 62.0363 72.2623 60.7451 72.4777 59.4896C72.6931 58.2341 73.3454 57.0952 74.3194 56.2742C75.2933 55.4531 76.5261 55.0028 77.8 55.0028C79.0738 55.0028 80.3066 55.4531 81.2805 56.2742C82.2545 57.0952 82.9068 58.2341 83.1222 59.4896C83.3376 60.7451 83.1022 62.0363 82.4577 63.1351C81.8131 64.2338 80.8009 65.0693 79.6 65.494V72.1C79.6 74.2482 78.7466 76.3085 77.2275 77.8275C75.7085 79.3466 73.6482 80.2 71.5 80.2H68.8V80.1964ZM54.4 53.2C54.4 53.6773 54.5896 54.1352 54.9272 54.4727C55.2647 54.8103 55.7226 55 56.2 55C56.6773 55 57.1352 54.8103 57.4727 54.4727C57.8103 54.1352 58 53.6773 58 53.2C58 52.7226 57.8103 52.2647 57.4727 51.9272C57.1352 51.5896 56.6773 51.4 56.2 51.4C55.7226 51.4 55.2647 51.5896 54.9272 51.9272C54.5896 52.2647 54.4 52.7226 54.4 53.2ZM77.8 62.2C78.2773 62.2 78.7352 62.0103 79.0727 61.6727C79.4103 61.3352 79.6 60.8773 79.6 60.4C79.6 59.9226 79.4103 59.4647 79.0727 59.1272C78.7352 58.7896 78.2773 58.6 77.8 58.6C77.3226 58.6 76.8647 58.7896 76.5272 59.1272C76.1896 59.4647 76 59.9226 76 60.4C76 60.8773 76.1896 61.3352 76.5272 61.6727C76.8647 62.0103 77.3226 62.2 77.8 62.2ZM56.2 73C55.7226 73 55.2647 73.1896 54.9272 73.5272C54.5896 73.8647 54.4 74.3226 54.4 74.8C54.4 75.2773 54.5896 75.7352 54.9272 76.0727C55.2647 76.4103 55.7226 76.6 56.2 76.6C56.6773 76.6 57.1352 76.4103 57.4727 76.0727C57.8103 75.7352 58 75.2773 58 74.8C58 74.3226 57.8103 73.8647 57.4727 73.5272C57.1352 73.1896 56.6773 73 56.2 73Z" fill="#FEC631"/>
</g>
<defs>
<filter id="filter0_d_530_213" x="0" y="8.57434" width="134" height="116.851" filterUnits="userSpaceOnUse" color-interpolation-filters="sRGB">
<feFlood flood-opacity="0" result="BackgroundImageFix"/>
<feColorMatrix in="SourceAlpha" type="matrix" values="0 0 0 0 0 0 0 0 0 0 0 0 0 0 0 0 0 0 127 0" result="hardAlpha"/>
<feOffset dy="3"/>
<feGaussianBlur stdDeviation="1.5"/>
<feComposite in2="hardAlpha" operator="out"/>
<feColorMatrix type="matrix" values="0 0 0 0 0 0 0 0 0 0 0 0 0 0 0 0 0 0 0.25 0"/>
<feBlend mode="normal" in2="BackgroundImageFix" result="effect1_dropShadow_530_213"/>
<feBlend mode="normal" in="SourceGraphic" in2="effect1_dropShadow_530_213" result="shape"/>
</filter>
<filter id="filter1_d_530_213" x="16" y="13" width="102" height="102" filterUnits="userSpaceOnUse" color-interpolation-filters="sRGB">
<feFlood flood-opacity="0" result="BackgroundImageFix"/>
<feColorMatrix in="SourceAlpha" type="matrix" values="0 0 0 0 0 0 0 0 0 0 0 0 0 0 0 0 0 0 127 0" result="hardAlpha"/>
<feOffset/>
<feGaussianBlur stdDeviation="7.5"/>
<feColorMatrix type="matrix" values="0 0 0 0 0.996078 0 0 0 0 0.776471 0 0 0 0 0.192157 0 0 0 0.5 0"/>
<feBlend mode="normal" in2="BackgroundImageFix" result="effect1_dropShadow_530_213"/>
<feBlend mode="normal" in="SourceGraphic" in2="effect1_dropShadow_530_213" result="shape"/>
</filter>
</defs>
</svg>
