<svg width="470" height="91" viewBox="0 0 470 91" fill="none" xmlns="http://www.w3.org/2000/svg">
<path d="M442.815 43.786L442.147 44.9868L442.803 46.1939L465.796 88.5001L33.3063 88.5001L3.05642 45.0159L33.2898 2.5001L465.751 2.50006L442.815 43.786Z" fill="#401127" fill-opacity="0.5" stroke="#8F1B42" stroke-width="5"/>
<g filter="url(#filter0_d_515_2245)">
<path d="M140.909 57.0001V34.4401H142.957L156.557 52.5841V34.4401H158.989V57.0001H157.005L143.373 38.7921V57.0001H140.909ZM170.709 57.2881C169.194 57.2881 167.882 56.9574 166.773 56.2961C165.663 55.6347 164.799 54.7067 164.181 53.5121C163.583 52.2961 163.285 50.8667 163.285 49.2241C163.285 47.5814 163.583 46.1627 164.181 44.9681C164.799 43.7521 165.663 42.8134 166.773 42.1521C167.882 41.4907 169.194 41.1601 170.709 41.1601C172.202 41.1601 173.503 41.4907 174.613 42.1521C175.743 42.8134 176.607 43.7521 177.205 44.9681C177.823 46.1627 178.133 47.5814 178.133 49.2241C178.133 50.8667 177.823 52.2961 177.205 53.5121C176.607 54.7067 175.743 55.6347 174.613 56.2961C173.503 56.9574 172.202 57.2881 170.709 57.2881ZM170.709 55.2081C172.159 55.2081 173.322 54.6961 174.197 53.6721C175.071 52.6267 175.509 51.1441 175.509 49.2241C175.509 47.2827 175.071 45.8001 174.197 44.7761C173.322 43.7521 172.159 43.2401 170.709 43.2401C169.237 43.2401 168.063 43.7521 167.189 44.7761C166.335 45.8001 165.909 47.2827 165.909 49.2241C165.909 51.1441 166.335 52.6267 167.189 53.6721C168.063 54.6961 169.237 55.2081 170.709 55.2081ZM188.11 57.2881C186.275 57.2881 184.899 56.8081 183.982 55.8481C183.064 54.8667 182.606 53.4587 182.606 51.6241V43.4641H179.566V41.4481H182.606V36.6801H185.198V41.4481H190.126V43.4641H185.198V51.3681C185.198 52.5841 185.454 53.5121 185.966 54.1521C186.478 54.7707 187.31 55.0801 188.462 55.0801C188.803 55.0801 189.144 55.0374 189.486 54.9521C189.827 54.8667 190.136 54.7814 190.414 54.6961L190.862 56.6801C190.584 56.8294 190.179 56.9681 189.646 57.0961C189.112 57.2241 188.6 57.2881 188.11 57.2881ZM201.276 57.0001V41.4481H203.804V44.2321C204.636 42.3547 206.342 41.3201 208.924 41.1281L209.852 41.0321L210.044 43.2721L208.412 43.4641C206.94 43.5921 205.82 44.0614 205.052 44.8721C204.284 45.6614 203.9 46.7494 203.9 48.1361V57.0001H201.276ZM219.565 57.2881C217.112 57.2881 215.17 56.5734 213.741 55.1441C212.312 53.6934 211.597 51.7307 211.597 49.2561C211.597 47.6561 211.917 46.2481 212.557 45.0321C213.197 43.7947 214.072 42.8454 215.181 42.1841C216.312 41.5014 217.613 41.1601 219.085 41.1601C221.197 41.1601 222.85 41.8427 224.045 43.2081C225.24 44.5521 225.837 46.4081 225.837 48.7761V49.7681H214.125C214.21 51.5387 214.722 52.8934 215.661 53.8321C216.6 54.7494 217.901 55.2081 219.565 55.2081C220.504 55.2081 221.4 55.0694 222.253 54.7921C223.106 54.4934 223.917 54.0134 224.685 53.3521L225.581 55.1761C224.877 55.8374 223.981 56.3601 222.893 56.7441C221.805 57.1067 220.696 57.2881 219.565 57.2881ZM219.149 43.0801C217.677 43.0801 216.514 43.5387 215.661 44.4561C214.808 45.3734 214.306 46.5787 214.157 48.0721H223.597C223.533 46.4934 223.117 45.2667 222.349 44.3921C221.602 43.5174 220.536 43.0801 219.149 43.0801ZM234.484 57.2881C233.418 57.2881 232.458 57.0854 231.604 56.6801C230.772 56.2534 230.111 55.6774 229.62 54.9521C229.13 54.2267 228.884 53.4161 228.884 52.5201C228.884 51.3894 229.172 50.4934 229.748 49.8321C230.346 49.1707 231.316 48.7014 232.66 48.4241C234.026 48.1254 235.882 47.9761 238.228 47.9761H239.252V46.9841C239.252 45.6614 238.975 44.7121 238.42 44.1361C237.887 43.5387 237.023 43.2401 235.828 43.2401C234.89 43.2401 233.983 43.3787 233.108 43.6561C232.234 43.9121 231.338 44.3387 230.42 44.9361L229.524 43.0481C230.335 42.4721 231.316 42.0134 232.468 41.6721C233.642 41.3307 234.762 41.1601 235.828 41.1601C237.834 41.1601 239.316 41.6507 240.276 42.6321C241.258 43.6134 241.748 45.1387 241.748 47.2081V57.0001H239.316V54.3121C238.911 55.2294 238.282 55.9547 237.428 56.4881C236.596 57.0214 235.615 57.2881 234.484 57.2881ZM234.9 55.3361C236.18 55.3361 237.226 54.8987 238.036 54.0241C238.847 53.1281 239.252 51.9974 239.252 50.6321V49.6721H238.26C236.532 49.6721 235.167 49.7574 234.164 49.9281C233.183 50.0774 232.49 50.3547 232.084 50.7601C231.7 51.1441 231.508 51.6774 231.508 52.3601C231.508 53.2347 231.807 53.9494 232.404 54.5041C233.023 55.0587 233.855 55.3361 234.9 55.3361ZM252.477 57.2881C251.09 57.2881 249.874 56.9574 248.829 56.2961C247.805 55.6347 247.005 54.7067 246.429 53.5121C245.874 52.2961 245.597 50.8667 245.597 49.2241C245.597 47.5601 245.874 46.1307 246.429 44.9361C247.005 43.7201 247.805 42.7921 248.829 42.1521C249.874 41.4907 251.09 41.1601 252.477 41.1601C253.693 41.1601 254.76 41.4267 255.677 41.9601C256.616 42.4934 257.309 43.2294 257.757 44.1681V34.4401H260.349V57.0001H257.821V54.1521C257.373 55.1334 256.68 55.9014 255.741 56.4561C254.802 57.0107 253.714 57.2881 252.477 57.2881ZM253.021 55.2081C254.472 55.2081 255.634 54.6961 256.509 53.6721C257.384 52.6267 257.821 51.1441 257.821 49.2241C257.821 47.2827 257.384 45.8001 256.509 44.7761C255.634 43.7521 254.472 43.2401 253.021 43.2401C251.549 43.2401 250.376 43.7521 249.501 44.7761C248.648 45.8001 248.221 47.2827 248.221 49.2241C248.221 51.1441 248.648 52.6267 249.501 53.6721C250.376 54.6961 251.549 55.2081 253.021 55.2081ZM267.005 62.7601L269.661 56.7441L263.101 41.4481H265.917L271.069 54.0561L276.253 41.4481H278.973L269.725 62.7601H267.005ZM291.661 62.7601L294.318 56.7441L287.758 41.4481H290.574L295.726 54.0561L300.91 41.4481H303.63L294.382 62.7601H291.661ZM313.096 57.2881C310.643 57.2881 308.702 56.5734 307.272 55.1441C305.843 53.6934 305.128 51.7307 305.128 49.2561C305.128 47.6561 305.448 46.2481 306.088 45.0321C306.728 43.7947 307.603 42.8454 308.712 42.1841C309.843 41.5014 311.144 41.1601 312.616 41.1601C314.728 41.1601 316.382 41.8427 317.576 43.2081C318.771 44.5521 319.368 46.4081 319.368 48.7761V49.7681H307.656C307.742 51.5387 308.254 52.8934 309.192 53.8321C310.131 54.7494 311.432 55.2081 313.096 55.2081C314.035 55.2081 314.931 55.0694 315.784 54.7921C316.638 54.4934 317.448 54.0134 318.216 53.3521L319.112 55.1761C318.408 55.8374 317.512 56.3601 316.424 56.7441C315.336 57.1067 314.227 57.2881 313.096 57.2881ZM312.68 43.0801C311.208 43.0801 310.046 43.5387 309.192 44.4561C308.339 45.3734 307.838 46.5787 307.688 48.0721H317.128C317.064 46.4934 316.648 45.2667 315.88 44.3921C315.134 43.5174 314.067 43.0801 312.68 43.0801ZM329.36 57.2881C327.525 57.2881 326.149 56.8081 325.232 55.8481C324.314 54.8667 323.856 53.4587 323.856 51.6241V43.4641H320.816V41.4481H323.856V36.6801H326.448V41.4481H331.376V43.4641H326.448V51.3681C326.448 52.5841 326.704 53.5121 327.216 54.1521C327.728 54.7707 328.56 55.0801 329.712 55.0801C330.053 55.0801 330.394 55.0374 330.736 54.9521C331.077 54.8667 331.386 54.7814 331.664 54.6961L332.112 56.6801C331.834 56.8294 331.429 56.9681 330.896 57.0961C330.362 57.2241 329.85 57.2881 329.36 57.2881Z" fill="#FFFEE8"/>
</g>
<defs>
<filter id="filter0_d_515_2245" x="125.909" y="19.4401" width="221.202" height="58.32" filterUnits="userSpaceOnUse" color-interpolation-filters="sRGB">
<feFlood flood-opacity="0" result="BackgroundImageFix"/>
<feColorMatrix in="SourceAlpha" type="matrix" values="0 0 0 0 0 0 0 0 0 0 0 0 0 0 0 0 0 0 127 0" result="hardAlpha"/>
<feOffset/>
<feGaussianBlur stdDeviation="7.5"/>
<feColorMatrix type="matrix" values="0 0 0 0 1 0 0 0 0 0.996078 0 0 0 0 0.909804 0 0 0 0.5 0"/>
<feBlend mode="normal" in2="BackgroundImageFix" result="effect1_dropShadow_515_2245"/>
<feBlend mode="normal" in="SourceGraphic" in2="effect1_dropShadow_515_2245" result="shape"/>
</filter>
</defs>
</svg>
